G04 #@! TF.GenerationSoftware,KiCad,Pcbnew,(5.1.2)-1*
G04 #@! TF.CreationDate,2019-05-02T22:44:15-07:00*
G04 #@! TF.ProjectId,gen3piano,67656e33-7069-4616-9e6f-2e6b69636164,rev?*
G04 #@! TF.SameCoordinates,PXe88b40PYc1c960*
G04 #@! TF.FileFunction,Legend,Bot*
G04 #@! TF.FilePolarity,Positive*
%FSLAX46Y46*%
G04 Gerber Fmt 4.6, Leading zero omitted, Abs format (unit mm)*
G04 Created by KiCad (PCBNEW (5.1.2)-1) date 2019-05-02 22:44:15*
%MOMM*%
%LPD*%
G04 APERTURE LIST*
%ADD10C,0.150000*%
%ADD11C,0.100000*%
G04 APERTURE END LIST*
D10*
X20454050Y-40640000D02*
G75*
G03X20454050Y-40640000I-4579050J0D01*
G01*
X47516051Y-38100000D02*
G75*
G03X47516051Y-38100000I-1796051J0D01*
G01*
X36721051Y-27940000D02*
G75*
G03X36721051Y-27940000I-1796051J0D01*
G01*
X30825442Y-33020000D02*
G75*
G03X30825442Y-33020000I-5425442J0D01*
G01*
X39448172Y-37465000D02*
G75*
G03X39448172Y-37465000I-2618172J0D01*
G01*
D11*
G36*
X27305000Y-1905000D02*
G01*
X13335000Y-1905000D01*
X12700000Y-635000D01*
X27305000Y-635000D01*
X27305000Y-1905000D01*
G37*
X27305000Y-1905000D02*
X13335000Y-1905000D01*
X12700000Y-635000D01*
X27305000Y-635000D01*
X27305000Y-1905000D01*
D10*
X3175000Y-17145000D02*
G75*
G03X3175000Y-17145000I-635000J0D01*
G01*
X2803026Y-27305000D02*
G75*
G03X2803026Y-27305000I-898026J0D01*
G01*
X8993046Y-40005000D02*
G75*
G03X8993046Y-40005000I-2008046J0D01*
G01*
D11*
G36*
X45085000Y-1905000D02*
G01*
X45085000Y-635000D01*
X45720000Y-635000D01*
X45085000Y-1905000D01*
G37*
X45085000Y-1905000D02*
X45085000Y-635000D01*
X45720000Y-635000D01*
X45085000Y-1905000D01*
D10*
X48616394Y-27686000D02*
G75*
G03X48616394Y-27686000I-1626394J0D01*
G01*
X37399631Y-19304000D02*
G75*
G03X37399631Y-19304000I-1077631J0D01*
G01*
X7620000Y-5080000D02*
G75*
G03X7620000Y-5080000I-1778000J0D01*
G01*
X46330046Y-9144000D02*
G75*
G03X46330046Y-9144000I-2896046J0D01*
G01*
X10467620Y-33782000D02*
G75*
G03X10467620Y-33782000I-1831620J0D01*
G01*
X5065845Y-32258000D02*
G75*
G03X5065845Y-32258000I-2271845J0D01*
G01*
X12661610Y-3175000D02*
G75*
G03X12661610Y-3175000I-2501610J0D01*
G01*
X25151519Y-15240000D02*
G75*
G03X25151519Y-15240000I-5847519J0D01*
G01*
X7264991Y-13208000D02*
G75*
G03X7264991Y-13208000I-2184991J0D01*
G01*
X6516841Y-9398000D02*
G75*
G03X6516841Y-9398000I-1436841J0D01*
G01*
X10414000Y-21082000D02*
G75*
G03X10414000Y-21082000I-2540000J0D01*
G01*
X30779806Y-18415000D02*
G75*
G03X30779806Y-18415000I-2839806J0D01*
G01*
X39219479Y-5112666D02*
X39140312Y-5812666D01*
X38944479Y-5312666D01*
X38873645Y-5812666D01*
X38619479Y-5112666D01*
X38440312Y-5812666D02*
X38352812Y-5112666D01*
X38140312Y-5812666D02*
X38094479Y-5446000D01*
X38119479Y-5379333D01*
X38181979Y-5346000D01*
X38281979Y-5346000D01*
X38352812Y-5379333D01*
X38390312Y-5412666D01*
X37536145Y-5779333D02*
X37606979Y-5812666D01*
X37740312Y-5812666D01*
X37802812Y-5779333D01*
X37827812Y-5712666D01*
X37794479Y-5446000D01*
X37752812Y-5379333D01*
X37681979Y-5346000D01*
X37548645Y-5346000D01*
X37486145Y-5379333D01*
X37461145Y-5446000D01*
X37469479Y-5512666D01*
X37811145Y-5579333D01*
X37148645Y-5346000D02*
X37206979Y-5812666D01*
X37156979Y-5412666D02*
X37119479Y-5379333D01*
X37048645Y-5346000D01*
X36948645Y-5346000D01*
X36886145Y-5379333D01*
X36861145Y-5446000D01*
X36906979Y-5812666D01*
X36040312Y-5812666D02*
X35952812Y-5112666D01*
X35215312Y-5346000D02*
X34948645Y-5346000D01*
X35173645Y-5812666D02*
X35098645Y-5212666D01*
X35056979Y-5146000D01*
X34986145Y-5112666D01*
X34919479Y-5112666D01*
X34673645Y-5812666D02*
X34736145Y-5779333D01*
X34765312Y-5746000D01*
X34790312Y-5679333D01*
X34765312Y-5479333D01*
X34723645Y-5412666D01*
X34686145Y-5379333D01*
X34615312Y-5346000D01*
X34515312Y-5346000D01*
X34452812Y-5379333D01*
X34423645Y-5412666D01*
X34398645Y-5479333D01*
X34423645Y-5679333D01*
X34465312Y-5746000D01*
X34502812Y-5779333D01*
X34573645Y-5812666D01*
X34673645Y-5812666D01*
X33781979Y-5346000D02*
X33840312Y-5812666D01*
X34081979Y-5346000D02*
X34127812Y-5712666D01*
X34102812Y-5779333D01*
X34040312Y-5812666D01*
X33940312Y-5812666D01*
X33869479Y-5779333D01*
X33831979Y-5746000D01*
X33448645Y-5346000D02*
X33506979Y-5812666D01*
X33456979Y-5412666D02*
X33419479Y-5379333D01*
X33348645Y-5346000D01*
X33248645Y-5346000D01*
X33186145Y-5379333D01*
X33161145Y-5446000D01*
X33206979Y-5812666D01*
X32573645Y-5812666D02*
X32486145Y-5112666D01*
X32569479Y-5779333D02*
X32640312Y-5812666D01*
X32773645Y-5812666D01*
X32836145Y-5779333D01*
X32865312Y-5746000D01*
X32890312Y-5679333D01*
X32865312Y-5479333D01*
X32823645Y-5412666D01*
X32786145Y-5379333D01*
X32715312Y-5346000D01*
X32581979Y-5346000D01*
X32519479Y-5379333D01*
X31748645Y-5346000D02*
X31481979Y-5346000D01*
X31619479Y-5112666D02*
X31694479Y-5712666D01*
X31669479Y-5779333D01*
X31606979Y-5812666D01*
X31540312Y-5812666D01*
X31306979Y-5812666D02*
X31219479Y-5112666D01*
X31006979Y-5812666D02*
X30961145Y-5446000D01*
X30986145Y-5379333D01*
X31048645Y-5346000D01*
X31148645Y-5346000D01*
X31219479Y-5379333D01*
X31256979Y-5412666D01*
X30373645Y-5812666D02*
X30327812Y-5446000D01*
X30352812Y-5379333D01*
X30415312Y-5346000D01*
X30548645Y-5346000D01*
X30619479Y-5379333D01*
X30369479Y-5779333D02*
X30440312Y-5812666D01*
X30606979Y-5812666D01*
X30669479Y-5779333D01*
X30694479Y-5712666D01*
X30686145Y-5646000D01*
X30644479Y-5579333D01*
X30573645Y-5546000D01*
X30406979Y-5546000D01*
X30336145Y-5512666D01*
X30081979Y-5346000D02*
X29815312Y-5346000D01*
X29952812Y-5112666D02*
X30027812Y-5712666D01*
X30002812Y-5779333D01*
X29940312Y-5812666D01*
X29873645Y-5812666D01*
X28806979Y-5812666D02*
X28761145Y-5446000D01*
X28786145Y-5379333D01*
X28848645Y-5346000D01*
X28981979Y-5346000D01*
X29052812Y-5379333D01*
X28802812Y-5779333D02*
X28873645Y-5812666D01*
X29040312Y-5812666D01*
X29102812Y-5779333D01*
X29127812Y-5712666D01*
X29119479Y-5646000D01*
X29077812Y-5579333D01*
X29006979Y-5546000D01*
X28840312Y-5546000D01*
X28769479Y-5512666D01*
X28373645Y-5812666D02*
X28436145Y-5779333D01*
X28461145Y-5712666D01*
X28386145Y-5112666D01*
X28006979Y-5812666D02*
X28069479Y-5779333D01*
X28094479Y-5712666D01*
X28019479Y-5112666D01*
X27106979Y-5812666D02*
X27169479Y-5779333D01*
X27198645Y-5746000D01*
X27223645Y-5679333D01*
X27198645Y-5479333D01*
X27156979Y-5412666D01*
X27119479Y-5379333D01*
X27048645Y-5346000D01*
X26948645Y-5346000D01*
X26886145Y-5379333D01*
X26856979Y-5412666D01*
X26831979Y-5479333D01*
X26856979Y-5679333D01*
X26898645Y-5746000D01*
X26936145Y-5779333D01*
X27006979Y-5812666D01*
X27106979Y-5812666D01*
X26615312Y-5346000D02*
X26348645Y-5346000D01*
X26573645Y-5812666D02*
X26498645Y-5212666D01*
X26456979Y-5146000D01*
X26386145Y-5112666D01*
X26319479Y-5112666D01*
X25681979Y-5346000D02*
X25415312Y-5346000D01*
X25552812Y-5112666D02*
X25627812Y-5712666D01*
X25602812Y-5779333D01*
X25540312Y-5812666D01*
X25473645Y-5812666D01*
X25240312Y-5812666D02*
X25152812Y-5112666D01*
X24940312Y-5812666D02*
X24894479Y-5446000D01*
X24919479Y-5379333D01*
X24981979Y-5346000D01*
X25081979Y-5346000D01*
X25152812Y-5379333D01*
X25190312Y-5412666D01*
X24336145Y-5779333D02*
X24406979Y-5812666D01*
X24540312Y-5812666D01*
X24602812Y-5779333D01*
X24627812Y-5712666D01*
X24594479Y-5446000D01*
X24552812Y-5379333D01*
X24481979Y-5346000D01*
X24348645Y-5346000D01*
X24286145Y-5379333D01*
X24261145Y-5446000D01*
X24269479Y-5512666D01*
X24611145Y-5579333D01*
X23515312Y-5346000D02*
X23248645Y-5346000D01*
X23386145Y-5112666D02*
X23461145Y-5712666D01*
X23436145Y-5779333D01*
X23373645Y-5812666D01*
X23306979Y-5812666D01*
X22973645Y-5812666D02*
X23036145Y-5779333D01*
X23065312Y-5746000D01*
X23090312Y-5679333D01*
X23065312Y-5479333D01*
X23023645Y-5412666D01*
X22986145Y-5379333D01*
X22915312Y-5346000D01*
X22815312Y-5346000D01*
X22752812Y-5379333D01*
X22723645Y-5412666D01*
X22698645Y-5479333D01*
X22723645Y-5679333D01*
X22765312Y-5746000D01*
X22802812Y-5779333D01*
X22873645Y-5812666D01*
X22973645Y-5812666D01*
X22081979Y-5346000D02*
X22152812Y-5912666D01*
X22194479Y-5979333D01*
X22231979Y-6012666D01*
X22302812Y-6046000D01*
X22402812Y-6046000D01*
X22465312Y-6012666D01*
X22136145Y-5779333D02*
X22206979Y-5812666D01*
X22340312Y-5812666D01*
X22402812Y-5779333D01*
X22431979Y-5746000D01*
X22456979Y-5679333D01*
X22431979Y-5479333D01*
X22390312Y-5412666D01*
X22352812Y-5379333D01*
X22281979Y-5346000D01*
X22148645Y-5346000D01*
X22086145Y-5379333D01*
X21448645Y-5346000D02*
X21519479Y-5912666D01*
X21561145Y-5979333D01*
X21598645Y-6012666D01*
X21669479Y-6046000D01*
X21769479Y-6046000D01*
X21831979Y-6012666D01*
X21502812Y-5779333D02*
X21573645Y-5812666D01*
X21706979Y-5812666D01*
X21769479Y-5779333D01*
X21798645Y-5746000D01*
X21823645Y-5679333D01*
X21798645Y-5479333D01*
X21756979Y-5412666D01*
X21719479Y-5379333D01*
X21648645Y-5346000D01*
X21515312Y-5346000D01*
X21452812Y-5379333D01*
X21073645Y-5812666D02*
X21136145Y-5779333D01*
X21161145Y-5712666D01*
X21086145Y-5112666D01*
X20536145Y-5779333D02*
X20606979Y-5812666D01*
X20740312Y-5812666D01*
X20802812Y-5779333D01*
X20827812Y-5712666D01*
X20794479Y-5446000D01*
X20752812Y-5379333D01*
X20681979Y-5346000D01*
X20548645Y-5346000D01*
X20486145Y-5379333D01*
X20461145Y-5446000D01*
X20469479Y-5512666D01*
X20811145Y-5579333D01*
X20236145Y-5779333D02*
X20173645Y-5812666D01*
X20040312Y-5812666D01*
X19969479Y-5779333D01*
X19927812Y-5712666D01*
X19923645Y-5679333D01*
X19948645Y-5612666D01*
X20011145Y-5579333D01*
X20111145Y-5579333D01*
X20173645Y-5546000D01*
X20198645Y-5479333D01*
X20194479Y-5446000D01*
X20152812Y-5379333D01*
X20081979Y-5346000D01*
X19981979Y-5346000D01*
X19919479Y-5379333D01*
X19115312Y-5346000D02*
X19040312Y-5812666D01*
X18865312Y-5479333D01*
X18773645Y-5812666D01*
X18581979Y-5346000D01*
X18102812Y-5779333D02*
X18173645Y-5812666D01*
X18306979Y-5812666D01*
X18369479Y-5779333D01*
X18394479Y-5712666D01*
X18361145Y-5446000D01*
X18319479Y-5379333D01*
X18248645Y-5346000D01*
X18115312Y-5346000D01*
X18052812Y-5379333D01*
X18027812Y-5446000D01*
X18036145Y-5512666D01*
X18377812Y-5579333D01*
X17773645Y-5812666D02*
X17715312Y-5346000D01*
X17731979Y-5479333D02*
X17690312Y-5412666D01*
X17652812Y-5379333D01*
X17581979Y-5346000D01*
X17515312Y-5346000D01*
X17069479Y-5779333D02*
X17140312Y-5812666D01*
X17273645Y-5812666D01*
X17336145Y-5779333D01*
X17361145Y-5712666D01*
X17327812Y-5446000D01*
X17286145Y-5379333D01*
X17215312Y-5346000D01*
X17081979Y-5346000D01*
X17019479Y-5379333D01*
X16994479Y-5446000D01*
X17002812Y-5512666D01*
X17344479Y-5579333D01*
X16681979Y-5346000D02*
X16740312Y-5812666D01*
X16690312Y-5412666D02*
X16652812Y-5379333D01*
X16581979Y-5346000D01*
X16481979Y-5346000D01*
X16419479Y-5379333D01*
X16394479Y-5446000D01*
X16440312Y-5812666D01*
X15986145Y-5112666D02*
X16069479Y-5246000D01*
X15815312Y-5346000D02*
X15548645Y-5346000D01*
X15686145Y-5112666D02*
X15761145Y-5712666D01*
X15736145Y-5779333D01*
X15673645Y-5812666D01*
X15606979Y-5812666D01*
X14840312Y-5812666D02*
X14781979Y-5346000D01*
X14798645Y-5479333D02*
X14756979Y-5412666D01*
X14719479Y-5379333D01*
X14648645Y-5346000D01*
X14581979Y-5346000D01*
X14136145Y-5779333D02*
X14206979Y-5812666D01*
X14340312Y-5812666D01*
X14402812Y-5779333D01*
X14427812Y-5712666D01*
X14394479Y-5446000D01*
X14352812Y-5379333D01*
X14281979Y-5346000D01*
X14148645Y-5346000D01*
X14086145Y-5379333D01*
X14061145Y-5446000D01*
X14069479Y-5512666D01*
X14411145Y-5579333D01*
X13506979Y-5812666D02*
X13461145Y-5446000D01*
X13486145Y-5379333D01*
X13548645Y-5346000D01*
X13681979Y-5346000D01*
X13752812Y-5379333D01*
X13502812Y-5779333D02*
X13573645Y-5812666D01*
X13740312Y-5812666D01*
X13802812Y-5779333D01*
X13827812Y-5712666D01*
X13819479Y-5646000D01*
X13777812Y-5579333D01*
X13706979Y-5546000D01*
X13540312Y-5546000D01*
X13469479Y-5512666D01*
X13073645Y-5812666D02*
X13136145Y-5779333D01*
X13161145Y-5712666D01*
X13086145Y-5112666D01*
X12706979Y-5812666D02*
X12769479Y-5779333D01*
X12794479Y-5712666D01*
X12719479Y-5112666D01*
X12448645Y-5346000D02*
X12340312Y-5812666D01*
X12115312Y-5346000D02*
X12340312Y-5812666D01*
X12427812Y-5979333D01*
X12465312Y-6012666D01*
X12536145Y-6046000D01*
X38590312Y-7012666D02*
X38531979Y-6546000D01*
X38540312Y-6612666D02*
X38502812Y-6579333D01*
X38431979Y-6546000D01*
X38331979Y-6546000D01*
X38269479Y-6579333D01*
X38244479Y-6646000D01*
X38290312Y-7012666D01*
X38244479Y-6646000D02*
X38202812Y-6579333D01*
X38131979Y-6546000D01*
X38031979Y-6546000D01*
X37969479Y-6579333D01*
X37944479Y-6646000D01*
X37990312Y-7012666D01*
X37386145Y-6979333D02*
X37456979Y-7012666D01*
X37590312Y-7012666D01*
X37652812Y-6979333D01*
X37677812Y-6912666D01*
X37644479Y-6646000D01*
X37602812Y-6579333D01*
X37531979Y-6546000D01*
X37398645Y-6546000D01*
X37336145Y-6579333D01*
X37311145Y-6646000D01*
X37319479Y-6712666D01*
X37661145Y-6779333D01*
X36756979Y-7012666D02*
X36711145Y-6646000D01*
X36736145Y-6579333D01*
X36798645Y-6546000D01*
X36931979Y-6546000D01*
X37002812Y-6579333D01*
X36752812Y-6979333D02*
X36823645Y-7012666D01*
X36990312Y-7012666D01*
X37052812Y-6979333D01*
X37077812Y-6912666D01*
X37069479Y-6846000D01*
X37027812Y-6779333D01*
X36956979Y-6746000D01*
X36790312Y-6746000D01*
X36719479Y-6712666D01*
X36365312Y-6546000D02*
X36423645Y-7012666D01*
X36373645Y-6612666D02*
X36336145Y-6579333D01*
X36265312Y-6546000D01*
X36165312Y-6546000D01*
X36102812Y-6579333D01*
X36077812Y-6646000D01*
X36123645Y-7012666D01*
X35831979Y-6546000D02*
X35565312Y-6546000D01*
X35702812Y-6312666D02*
X35777812Y-6912666D01*
X35752812Y-6979333D01*
X35690312Y-7012666D01*
X35623645Y-7012666D01*
X34898645Y-6546000D02*
X34631979Y-6546000D01*
X34856979Y-7012666D02*
X34781979Y-6412666D01*
X34740312Y-6346000D01*
X34669479Y-6312666D01*
X34602812Y-6312666D01*
X34356979Y-7012666D02*
X34419479Y-6979333D01*
X34448645Y-6946000D01*
X34473645Y-6879333D01*
X34448645Y-6679333D01*
X34406979Y-6612666D01*
X34369479Y-6579333D01*
X34298645Y-6546000D01*
X34198645Y-6546000D01*
X34136145Y-6579333D01*
X34106979Y-6612666D01*
X34081979Y-6679333D01*
X34106979Y-6879333D01*
X34148645Y-6946000D01*
X34186145Y-6979333D01*
X34256979Y-7012666D01*
X34356979Y-7012666D01*
X33823645Y-7012666D02*
X33765312Y-6546000D01*
X33781979Y-6679333D02*
X33740312Y-6612666D01*
X33702812Y-6579333D01*
X33631979Y-6546000D01*
X33565312Y-6546000D01*
X32636145Y-6312666D02*
X32569479Y-6312666D01*
X32506979Y-6346000D01*
X32477812Y-6379333D01*
X32452812Y-6446000D01*
X32436145Y-6579333D01*
X32456979Y-6746000D01*
X32506979Y-6879333D01*
X32548645Y-6946000D01*
X32586145Y-6979333D01*
X32656979Y-7012666D01*
X32723645Y-7012666D01*
X32786145Y-6979333D01*
X32815312Y-6946000D01*
X32840312Y-6879333D01*
X32856979Y-6746000D01*
X32836145Y-6579333D01*
X32786145Y-6446000D01*
X32744479Y-6379333D01*
X32706979Y-6346000D01*
X32636145Y-6312666D01*
X32181979Y-6946000D02*
X32152812Y-6979333D01*
X32190312Y-7012666D01*
X32219479Y-6979333D01*
X32181979Y-6946000D01*
X32190312Y-7012666D01*
X31490312Y-7012666D02*
X31890312Y-7012666D01*
X31690312Y-7012666D02*
X31602812Y-6312666D01*
X31681979Y-6412666D01*
X31756979Y-6479333D01*
X31827812Y-6512666D01*
X31136145Y-6312666D02*
X31152812Y-6446000D01*
X30869479Y-6312666D02*
X30886145Y-6446000D01*
X29765312Y-6546000D02*
X29836145Y-7112666D01*
X29877812Y-7179333D01*
X29915312Y-7212666D01*
X29986145Y-7246000D01*
X30086145Y-7246000D01*
X30148645Y-7212666D01*
X29819479Y-6979333D02*
X29890312Y-7012666D01*
X30023645Y-7012666D01*
X30086145Y-6979333D01*
X30115312Y-6946000D01*
X30140312Y-6879333D01*
X30115312Y-6679333D01*
X30073645Y-6612666D01*
X30036145Y-6579333D01*
X29965312Y-6546000D01*
X29831979Y-6546000D01*
X29769479Y-6579333D01*
X29490312Y-7012666D02*
X29431979Y-6546000D01*
X29448645Y-6679333D02*
X29406979Y-6612666D01*
X29369479Y-6579333D01*
X29298645Y-6546000D01*
X29231979Y-6546000D01*
X29056979Y-7012666D02*
X28998645Y-6546000D01*
X28969479Y-6312666D02*
X29006979Y-6346000D01*
X28977812Y-6379333D01*
X28940312Y-6346000D01*
X28969479Y-6312666D01*
X28977812Y-6379333D01*
X28423645Y-7012666D02*
X28336145Y-6312666D01*
X28419479Y-6979333D02*
X28490312Y-7012666D01*
X28623645Y-7012666D01*
X28686145Y-6979333D01*
X28715312Y-6946000D01*
X28740312Y-6879333D01*
X28715312Y-6679333D01*
X28673645Y-6612666D01*
X28636145Y-6579333D01*
X28565312Y-6546000D01*
X28431979Y-6546000D01*
X28369479Y-6579333D01*
X28052812Y-6979333D02*
X28056979Y-7012666D01*
X28098645Y-7079333D01*
X28136145Y-7112666D01*
X27223645Y-7012666D02*
X27165312Y-6546000D01*
X27136145Y-6312666D02*
X27173645Y-6346000D01*
X27144479Y-6379333D01*
X27106979Y-6346000D01*
X27136145Y-6312666D01*
X27144479Y-6379333D01*
X26931979Y-6546000D02*
X26665312Y-6546000D01*
X26802812Y-6312666D02*
X26877812Y-6912666D01*
X26852812Y-6979333D01*
X26790312Y-7012666D01*
X26723645Y-7012666D01*
X25956979Y-7012666D02*
X25898645Y-6546000D01*
X25915312Y-6679333D02*
X25873645Y-6612666D01*
X25836145Y-6579333D01*
X25765312Y-6546000D01*
X25698645Y-6546000D01*
X25252812Y-6979333D02*
X25323645Y-7012666D01*
X25456979Y-7012666D01*
X25519479Y-6979333D01*
X25544479Y-6912666D01*
X25511145Y-6646000D01*
X25469479Y-6579333D01*
X25398645Y-6546000D01*
X25265312Y-6546000D01*
X25202812Y-6579333D01*
X25177812Y-6646000D01*
X25186145Y-6712666D01*
X25527812Y-6779333D01*
X24623645Y-7012666D02*
X24577812Y-6646000D01*
X24602812Y-6579333D01*
X24665312Y-6546000D01*
X24798645Y-6546000D01*
X24869479Y-6579333D01*
X24619479Y-6979333D02*
X24690312Y-7012666D01*
X24856979Y-7012666D01*
X24919479Y-6979333D01*
X24944479Y-6912666D01*
X24936145Y-6846000D01*
X24894479Y-6779333D01*
X24823645Y-6746000D01*
X24656979Y-6746000D01*
X24586145Y-6712666D01*
X24190312Y-7012666D02*
X24252812Y-6979333D01*
X24277812Y-6912666D01*
X24202812Y-6312666D01*
X23823645Y-7012666D02*
X23886145Y-6979333D01*
X23911145Y-6912666D01*
X23836145Y-6312666D01*
X23565312Y-6546000D02*
X23456979Y-7012666D01*
X23231979Y-6546000D02*
X23456979Y-7012666D01*
X23544479Y-7179333D01*
X23581979Y-7212666D01*
X23652812Y-7246000D01*
X22431979Y-6546000D02*
X22519479Y-7246000D01*
X22436145Y-6579333D02*
X22365312Y-6546000D01*
X22231979Y-6546000D01*
X22169479Y-6579333D01*
X22140312Y-6612666D01*
X22115312Y-6679333D01*
X22140312Y-6879333D01*
X22181979Y-6946000D01*
X22219479Y-6979333D01*
X22290312Y-7012666D01*
X22423645Y-7012666D01*
X22486145Y-6979333D01*
X21498645Y-6546000D02*
X21556979Y-7012666D01*
X21798645Y-6546000D02*
X21844479Y-6912666D01*
X21819479Y-6979333D01*
X21756979Y-7012666D01*
X21656979Y-7012666D01*
X21586145Y-6979333D01*
X21548645Y-6946000D01*
X21252812Y-6979333D02*
X21190312Y-7012666D01*
X21056979Y-7012666D01*
X20986145Y-6979333D01*
X20944479Y-6912666D01*
X20940312Y-6879333D01*
X20965312Y-6812666D01*
X21027812Y-6779333D01*
X21127812Y-6779333D01*
X21190312Y-6746000D01*
X21215312Y-6679333D01*
X21211145Y-6646000D01*
X21169479Y-6579333D01*
X21098645Y-6546000D01*
X20998645Y-6546000D01*
X20936145Y-6579333D01*
X20656979Y-7012666D02*
X20569479Y-6312666D01*
X20356979Y-7012666D02*
X20311145Y-6646000D01*
X20336145Y-6579333D01*
X20398645Y-6546000D01*
X20498645Y-6546000D01*
X20569479Y-6579333D01*
X20606979Y-6612666D01*
X19752812Y-6979333D02*
X19823645Y-7012666D01*
X19956979Y-7012666D01*
X20019479Y-6979333D01*
X20044479Y-6912666D01*
X20011145Y-6646000D01*
X19969479Y-6579333D01*
X19898645Y-6546000D01*
X19765312Y-6546000D01*
X19702812Y-6579333D01*
X19677812Y-6646000D01*
X19686145Y-6712666D01*
X20027812Y-6779333D01*
X19123645Y-7012666D02*
X19036145Y-6312666D01*
X19119479Y-6979333D02*
X19190312Y-7012666D01*
X19323645Y-7012666D01*
X19386145Y-6979333D01*
X19415312Y-6946000D01*
X19440312Y-6879333D01*
X19415312Y-6679333D01*
X19373645Y-6612666D01*
X19336145Y-6579333D01*
X19265312Y-6546000D01*
X19131979Y-6546000D01*
X19069479Y-6579333D01*
X18256979Y-7012666D02*
X18198645Y-6546000D01*
X18206979Y-6612666D02*
X18169479Y-6579333D01*
X18098645Y-6546000D01*
X17998645Y-6546000D01*
X17936145Y-6579333D01*
X17911145Y-6646000D01*
X17956979Y-7012666D01*
X17911145Y-6646000D02*
X17869479Y-6579333D01*
X17798645Y-6546000D01*
X17698645Y-6546000D01*
X17636145Y-6579333D01*
X17611145Y-6646000D01*
X17656979Y-7012666D01*
X17331979Y-6546000D02*
X17223645Y-7012666D01*
X16998645Y-6546000D02*
X17223645Y-7012666D01*
X17311145Y-7179333D01*
X17348645Y-7212666D01*
X17419479Y-7246000D01*
X16256979Y-7012666D02*
X16169479Y-6312666D01*
X16202812Y-6579333D02*
X16131979Y-6546000D01*
X15998645Y-6546000D01*
X15936145Y-6579333D01*
X15906979Y-6612666D01*
X15881979Y-6679333D01*
X15906979Y-6879333D01*
X15948645Y-6946000D01*
X15986145Y-6979333D01*
X16056979Y-7012666D01*
X16190312Y-7012666D01*
X16252812Y-6979333D01*
X15265312Y-6546000D02*
X15323645Y-7012666D01*
X15565312Y-6546000D02*
X15611145Y-6912666D01*
X15586145Y-6979333D01*
X15523645Y-7012666D01*
X15423645Y-7012666D01*
X15352812Y-6979333D01*
X15315312Y-6946000D01*
X15031979Y-6546000D02*
X14765312Y-6546000D01*
X14902812Y-6312666D02*
X14977812Y-6912666D01*
X14952812Y-6979333D01*
X14890312Y-7012666D01*
X14823645Y-7012666D01*
X14631979Y-6546000D02*
X14365312Y-6546000D01*
X14502812Y-6312666D02*
X14577812Y-6912666D01*
X14552812Y-6979333D01*
X14490312Y-7012666D01*
X14423645Y-7012666D01*
X14090312Y-7012666D02*
X14152812Y-6979333D01*
X14181979Y-6946000D01*
X14206979Y-6879333D01*
X14181979Y-6679333D01*
X14140312Y-6612666D01*
X14102812Y-6579333D01*
X14031979Y-6546000D01*
X13931979Y-6546000D01*
X13869479Y-6579333D01*
X13840312Y-6612666D01*
X13815312Y-6679333D01*
X13840312Y-6879333D01*
X13881979Y-6946000D01*
X13919479Y-6979333D01*
X13990312Y-7012666D01*
X14090312Y-7012666D01*
X13498645Y-6546000D02*
X13556979Y-7012666D01*
X13506979Y-6612666D02*
X13469479Y-6579333D01*
X13398645Y-6546000D01*
X13298645Y-6546000D01*
X13236145Y-6579333D01*
X13211145Y-6646000D01*
X13256979Y-7012666D01*
X12952812Y-6979333D02*
X12890312Y-7012666D01*
X12756979Y-7012666D01*
X12686145Y-6979333D01*
X12644479Y-6912666D01*
X12640312Y-6879333D01*
X12665312Y-6812666D01*
X12727812Y-6779333D01*
X12827812Y-6779333D01*
X12890312Y-6746000D01*
X12915312Y-6679333D01*
X12911145Y-6646000D01*
X12869479Y-6579333D01*
X12798645Y-6546000D01*
X12698645Y-6546000D01*
X12636145Y-6579333D01*
X12348645Y-6946000D02*
X12319479Y-6979333D01*
X12356979Y-7012666D01*
X12386145Y-6979333D01*
X12348645Y-6946000D01*
X12356979Y-7012666D01*
X44976051Y-20320000D02*
G75*
G03X44976051Y-20320000I-1796051J0D01*
G01*
X46571651Y-15057380D02*
X46446651Y-14057380D01*
X45333556Y-15057380D02*
X45250223Y-14390714D01*
X45262127Y-14485952D02*
X45208556Y-14438333D01*
X45107366Y-14390714D01*
X44964508Y-14390714D01*
X44875223Y-14438333D01*
X44839508Y-14533571D01*
X44904985Y-15057380D01*
X44839508Y-14533571D02*
X44779985Y-14438333D01*
X44678794Y-14390714D01*
X44535937Y-14390714D01*
X44446651Y-14438333D01*
X44410937Y-14533571D01*
X44476413Y-15057380D01*
X43613318Y-15009761D02*
X43714508Y-15057380D01*
X43904985Y-15057380D01*
X43994270Y-15009761D01*
X44029985Y-14914523D01*
X43982366Y-14533571D01*
X43922842Y-14438333D01*
X43821651Y-14390714D01*
X43631175Y-14390714D01*
X43541889Y-14438333D01*
X43506175Y-14533571D01*
X43518080Y-14628809D01*
X44006175Y-14724047D01*
X42714508Y-15057380D02*
X42649032Y-14533571D01*
X42684747Y-14438333D01*
X42774032Y-14390714D01*
X42964508Y-14390714D01*
X43065699Y-14438333D01*
X42708556Y-15009761D02*
X42809747Y-15057380D01*
X43047842Y-15057380D01*
X43137127Y-15009761D01*
X43172842Y-14914523D01*
X43160937Y-14819285D01*
X43101413Y-14724047D01*
X43000223Y-14676428D01*
X42762127Y-14676428D01*
X42660937Y-14628809D01*
X42154985Y-14390714D02*
X42238318Y-15057380D01*
X42166889Y-14485952D02*
X42113318Y-14438333D01*
X42012127Y-14390714D01*
X41869270Y-14390714D01*
X41779985Y-14438333D01*
X41744270Y-14533571D01*
X41809747Y-15057380D01*
X41279985Y-15009761D02*
X41285937Y-15057380D01*
X41345461Y-15152619D01*
X41399032Y-15200238D01*
X40095461Y-15057380D02*
X40012127Y-14390714D01*
X39970461Y-14057380D02*
X40024032Y-14105000D01*
X39982366Y-14152619D01*
X39928794Y-14105000D01*
X39970461Y-14057380D01*
X39982366Y-14152619D01*
X39678794Y-14390714D02*
X39297842Y-14390714D01*
X39494270Y-14057380D02*
X39601413Y-14914523D01*
X39565699Y-15009761D01*
X39476413Y-15057380D01*
X39381175Y-15057380D01*
X38327604Y-15009761D02*
X38238318Y-15057380D01*
X38047842Y-15057380D01*
X37946651Y-15009761D01*
X37887127Y-14914523D01*
X37881175Y-14866904D01*
X37916889Y-14771666D01*
X38006175Y-14724047D01*
X38149032Y-14724047D01*
X38238318Y-14676428D01*
X38274032Y-14581190D01*
X38268080Y-14533571D01*
X38208556Y-14438333D01*
X38107366Y-14390714D01*
X37964508Y-14390714D01*
X37875223Y-14438333D01*
X37089508Y-15009761D02*
X37190699Y-15057380D01*
X37381175Y-15057380D01*
X37470461Y-15009761D01*
X37506175Y-14914523D01*
X37458556Y-14533571D01*
X37399032Y-14438333D01*
X37297842Y-14390714D01*
X37107366Y-14390714D01*
X37018080Y-14438333D01*
X36982366Y-14533571D01*
X36994270Y-14628809D01*
X37482366Y-14724047D01*
X36232366Y-15009761D02*
X36333556Y-15057380D01*
X36524032Y-15057380D01*
X36613318Y-15009761D01*
X36649032Y-14914523D01*
X36601413Y-14533571D01*
X36541889Y-14438333D01*
X36440699Y-14390714D01*
X36250223Y-14390714D01*
X36160937Y-14438333D01*
X36125223Y-14533571D01*
X36137127Y-14628809D01*
X36625223Y-14724047D01*
X35762127Y-15057380D02*
X35678794Y-14390714D01*
X35690699Y-14485952D02*
X35637127Y-14438333D01*
X35535937Y-14390714D01*
X35393080Y-14390714D01*
X35303794Y-14438333D01*
X35268080Y-14533571D01*
X35333556Y-15057380D01*
X35268080Y-14533571D02*
X35208556Y-14438333D01*
X35107366Y-14390714D01*
X34964508Y-14390714D01*
X34875223Y-14438333D01*
X34839508Y-14533571D01*
X34904985Y-15057380D01*
X34041889Y-15009761D02*
X34143080Y-15057380D01*
X34333556Y-15057380D01*
X34422842Y-15009761D01*
X34458556Y-14914523D01*
X34410937Y-14533571D01*
X34351413Y-14438333D01*
X34250223Y-14390714D01*
X34059747Y-14390714D01*
X33970461Y-14438333D01*
X33934747Y-14533571D01*
X33946651Y-14628809D01*
X34434747Y-14724047D01*
X33143080Y-15057380D02*
X33018080Y-14057380D01*
X33137127Y-15009761D02*
X33238318Y-15057380D01*
X33428794Y-15057380D01*
X33518080Y-15009761D01*
X33559747Y-14962142D01*
X33595461Y-14866904D01*
X33559747Y-14581190D01*
X33500223Y-14485952D01*
X33446651Y-14438333D01*
X33345461Y-14390714D01*
X33154985Y-14390714D01*
X33065699Y-14438333D01*
X31762127Y-15057380D02*
X31851413Y-15009761D01*
X31887127Y-14914523D01*
X31779985Y-14057380D01*
X31381175Y-15057380D02*
X31297842Y-14390714D01*
X31256175Y-14057380D02*
X31309747Y-14105000D01*
X31268080Y-14152619D01*
X31214508Y-14105000D01*
X31256175Y-14057380D01*
X31268080Y-14152619D01*
X30904985Y-15057380D02*
X30779985Y-14057380D01*
X30762127Y-14676428D02*
X30524032Y-15057380D01*
X30440699Y-14390714D02*
X30869270Y-14771666D01*
X29708556Y-15009761D02*
X29809747Y-15057380D01*
X30000223Y-15057380D01*
X30089508Y-15009761D01*
X30125223Y-14914523D01*
X30077604Y-14533571D01*
X30018080Y-14438333D01*
X29916889Y-14390714D01*
X29726413Y-14390714D01*
X29637127Y-14438333D01*
X29601413Y-14533571D01*
X29613318Y-14628809D01*
X30101413Y-14724047D01*
X28047842Y-15057380D02*
X27982366Y-14533571D01*
X28018080Y-14438333D01*
X28107366Y-14390714D01*
X28297842Y-14390714D01*
X28399032Y-14438333D01*
X28041889Y-15009761D02*
X28143080Y-15057380D01*
X28381175Y-15057380D01*
X28470461Y-15009761D01*
X28506175Y-14914523D01*
X28494270Y-14819285D01*
X28434747Y-14724047D01*
X28333556Y-14676428D01*
X28095461Y-14676428D01*
X27994270Y-14628809D01*
X26809747Y-15057380D02*
X26684747Y-14057380D01*
X26732366Y-14438333D02*
X26631175Y-14390714D01*
X26440699Y-14390714D01*
X26351413Y-14438333D01*
X26309747Y-14485952D01*
X26274032Y-14581190D01*
X26309747Y-14866904D01*
X26369270Y-14962142D01*
X26422842Y-15009761D01*
X26524032Y-15057380D01*
X26714508Y-15057380D01*
X26803794Y-15009761D01*
X25904985Y-15057380D02*
X25821651Y-14390714D01*
X25845461Y-14581190D02*
X25785937Y-14485952D01*
X25732366Y-14438333D01*
X25631175Y-14390714D01*
X25535937Y-14390714D01*
X25285937Y-15057380D02*
X25202604Y-14390714D01*
X25160937Y-14057380D02*
X25214508Y-14105000D01*
X25172842Y-14152619D01*
X25119270Y-14105000D01*
X25160937Y-14057380D01*
X25172842Y-14152619D01*
X24297842Y-14390714D02*
X24399032Y-15200238D01*
X24458556Y-15295476D01*
X24512127Y-15343095D01*
X24613318Y-15390714D01*
X24756175Y-15390714D01*
X24845461Y-15343095D01*
X24375223Y-15009761D02*
X24476413Y-15057380D01*
X24666889Y-15057380D01*
X24756175Y-15009761D01*
X24797842Y-14962142D01*
X24833556Y-14866904D01*
X24797842Y-14581190D01*
X24738318Y-14485952D01*
X24684747Y-14438333D01*
X24583556Y-14390714D01*
X24393080Y-14390714D01*
X24303794Y-14438333D01*
X23904985Y-15057380D02*
X23779985Y-14057380D01*
X23476413Y-15057380D02*
X23410937Y-14533571D01*
X23446651Y-14438333D01*
X23535937Y-14390714D01*
X23678794Y-14390714D01*
X23779985Y-14438333D01*
X23833556Y-14485952D01*
X23059747Y-14390714D02*
X22678794Y-14390714D01*
X22875223Y-14057380D02*
X22982366Y-14914523D01*
X22946651Y-15009761D01*
X22857366Y-15057380D01*
X22762127Y-15057380D01*
X21666889Y-15057380D02*
X21583556Y-14390714D01*
X21541889Y-14057380D02*
X21595461Y-14105000D01*
X21553794Y-14152619D01*
X21500223Y-14105000D01*
X21541889Y-14057380D01*
X21553794Y-14152619D01*
X20762127Y-15057380D02*
X20637127Y-14057380D01*
X20756175Y-15009761D02*
X20857366Y-15057380D01*
X21047842Y-15057380D01*
X21137127Y-15009761D01*
X21178794Y-14962142D01*
X21214508Y-14866904D01*
X21178794Y-14581190D01*
X21119270Y-14485952D01*
X21065699Y-14438333D01*
X20964508Y-14390714D01*
X20774032Y-14390714D01*
X20684747Y-14438333D01*
X19899032Y-15009761D02*
X20000223Y-15057380D01*
X20190699Y-15057380D01*
X20279985Y-15009761D01*
X20315699Y-14914523D01*
X20268080Y-14533571D01*
X20208556Y-14438333D01*
X20107366Y-14390714D01*
X19916889Y-14390714D01*
X19827604Y-14438333D01*
X19791889Y-14533571D01*
X19803794Y-14628809D01*
X20291889Y-14724047D01*
X19000223Y-15057380D02*
X18934747Y-14533571D01*
X18970461Y-14438333D01*
X19059747Y-14390714D01*
X19250223Y-14390714D01*
X19351413Y-14438333D01*
X18994270Y-15009761D02*
X19095461Y-15057380D01*
X19333556Y-15057380D01*
X19422842Y-15009761D01*
X19458556Y-14914523D01*
X19446651Y-14819285D01*
X19387127Y-14724047D01*
X19285937Y-14676428D01*
X19047842Y-14676428D01*
X18946651Y-14628809D01*
X17333556Y-15057380D02*
X17268080Y-14533571D01*
X17303794Y-14438333D01*
X17393080Y-14390714D01*
X17583556Y-14390714D01*
X17684747Y-14438333D01*
X17327604Y-15009761D02*
X17428794Y-15057380D01*
X17666889Y-15057380D01*
X17756175Y-15009761D01*
X17791889Y-14914523D01*
X17779985Y-14819285D01*
X17720461Y-14724047D01*
X17619270Y-14676428D01*
X17381175Y-14676428D01*
X17279985Y-14628809D01*
X16916889Y-14390714D02*
X16535937Y-14390714D01*
X16732366Y-14057380D02*
X16839508Y-14914523D01*
X16803794Y-15009761D01*
X16714508Y-15057380D01*
X16619270Y-15057380D01*
X15583556Y-14390714D02*
X15202604Y-14390714D01*
X15399032Y-14057380D02*
X15506175Y-14914523D01*
X15470461Y-15009761D01*
X15381175Y-15057380D01*
X15285937Y-15057380D01*
X14952604Y-15057380D02*
X14827604Y-14057380D01*
X14524032Y-15057380D02*
X14458556Y-14533571D01*
X14494270Y-14438333D01*
X14583556Y-14390714D01*
X14726413Y-14390714D01*
X14827604Y-14438333D01*
X14881175Y-14485952D01*
X13660937Y-15009761D02*
X13762127Y-15057380D01*
X13952604Y-15057380D01*
X14041889Y-15009761D01*
X14077604Y-14914523D01*
X14029985Y-14533571D01*
X13970461Y-14438333D01*
X13869270Y-14390714D01*
X13678794Y-14390714D01*
X13589508Y-14438333D01*
X13553794Y-14533571D01*
X13565699Y-14628809D01*
X14053794Y-14724047D01*
X12488318Y-14390714D02*
X12107366Y-14390714D01*
X12303794Y-14057380D02*
X12410937Y-14914523D01*
X12375223Y-15009761D01*
X12285937Y-15057380D01*
X12190699Y-15057380D01*
X11857366Y-15057380D02*
X11774032Y-14390714D01*
X11732366Y-14057380D02*
X11785937Y-14105000D01*
X11744270Y-14152619D01*
X11690699Y-14105000D01*
X11732366Y-14057380D01*
X11744270Y-14152619D01*
X11381175Y-15057380D02*
X11297842Y-14390714D01*
X11309747Y-14485952D02*
X11256175Y-14438333D01*
X11154985Y-14390714D01*
X11012127Y-14390714D01*
X10922842Y-14438333D01*
X10887127Y-14533571D01*
X10952604Y-15057380D01*
X10887127Y-14533571D02*
X10827604Y-14438333D01*
X10726413Y-14390714D01*
X10583556Y-14390714D01*
X10494270Y-14438333D01*
X10458556Y-14533571D01*
X10524032Y-15057380D01*
X9660937Y-15009761D02*
X9762127Y-15057380D01*
X9952604Y-15057380D01*
X10041889Y-15009761D01*
X10077604Y-14914523D01*
X10029985Y-14533571D01*
X9970461Y-14438333D01*
X9869270Y-14390714D01*
X9678794Y-14390714D01*
X9589508Y-14438333D01*
X9553794Y-14533571D01*
X9565699Y-14628809D01*
X10053794Y-14724047D01*
X9178794Y-14962142D02*
X9137127Y-15009761D01*
X9190699Y-15057380D01*
X9232366Y-15009761D01*
X9178794Y-14962142D01*
X9190699Y-15057380D01*
X8702604Y-14962142D02*
X8660937Y-15009761D01*
X8714508Y-15057380D01*
X8756175Y-15009761D01*
X8702604Y-14962142D01*
X8714508Y-15057380D01*
X8226413Y-14962142D02*
X8184747Y-15009761D01*
X8238318Y-15057380D01*
X8279985Y-15009761D01*
X8226413Y-14962142D01*
X8238318Y-15057380D01*
D11*
G36*
X16510000Y-30480000D02*
G01*
X14605000Y-30480000D01*
X17145000Y-25400000D01*
X19050000Y-25400000D01*
X16510000Y-30480000D01*
G37*
X16510000Y-30480000D02*
X14605000Y-30480000D01*
X17145000Y-25400000D01*
X19050000Y-25400000D01*
X16510000Y-30480000D01*
G36*
X13335000Y-30480000D02*
G01*
X11430000Y-30480000D01*
X13970000Y-25400000D01*
X15875000Y-25400000D01*
X13335000Y-30480000D01*
G37*
X13335000Y-30480000D02*
X11430000Y-30480000D01*
X13970000Y-25400000D01*
X15875000Y-25400000D01*
X13335000Y-30480000D01*
G36*
X10795000Y-29210000D02*
G01*
X8890000Y-25400000D01*
X12700000Y-25400000D01*
X10795000Y-29210000D01*
G37*
X10795000Y-29210000D02*
X8890000Y-25400000D01*
X12700000Y-25400000D01*
X10795000Y-29210000D01*
D10*
X44402127Y-1055714D02*
X44294985Y-1722380D01*
X44044985Y-1246190D01*
X43914032Y-1722380D01*
X43640223Y-1055714D01*
X43354508Y-1055714D02*
X43247366Y-1722380D01*
X42997366Y-1246190D01*
X42866413Y-1722380D01*
X42592604Y-1055714D01*
X42306889Y-1055714D02*
X42199747Y-1722380D01*
X41949747Y-1246190D01*
X41818794Y-1722380D01*
X41544985Y-1055714D01*
X41235461Y-1627142D02*
X41193794Y-1674761D01*
X41247366Y-1722380D01*
X41289032Y-1674761D01*
X41235461Y-1627142D01*
X41247366Y-1722380D01*
X40783080Y-1055714D02*
X40675937Y-1722380D01*
X40425937Y-1246190D01*
X40294985Y-1722380D01*
X40021175Y-1055714D01*
X39723556Y-1722380D02*
X39640223Y-1055714D01*
X39598556Y-722380D02*
X39652127Y-770000D01*
X39610461Y-817619D01*
X39556889Y-770000D01*
X39598556Y-722380D01*
X39610461Y-817619D01*
X39247366Y-1722380D02*
X39164032Y-1055714D01*
X39187842Y-1246190D02*
X39128318Y-1150952D01*
X39074747Y-1103333D01*
X38973556Y-1055714D01*
X38878318Y-1055714D01*
X38241413Y-1674761D02*
X38342604Y-1722380D01*
X38533080Y-1722380D01*
X38622366Y-1674761D01*
X38658080Y-1579523D01*
X38610461Y-1198571D01*
X38550937Y-1103333D01*
X38449747Y-1055714D01*
X38259270Y-1055714D01*
X38169985Y-1103333D01*
X38134270Y-1198571D01*
X38146175Y-1293809D01*
X38634270Y-1389047D01*
X37771175Y-1722380D02*
X37646175Y-722380D01*
X37342604Y-1722380D02*
X37277127Y-1198571D01*
X37312842Y-1103333D01*
X37402127Y-1055714D01*
X37544985Y-1055714D01*
X37646175Y-1103333D01*
X37699747Y-1150952D01*
X36479508Y-1674761D02*
X36580699Y-1722380D01*
X36771175Y-1722380D01*
X36860461Y-1674761D01*
X36896175Y-1579523D01*
X36848556Y-1198571D01*
X36789032Y-1103333D01*
X36687842Y-1055714D01*
X36497366Y-1055714D01*
X36408080Y-1103333D01*
X36372366Y-1198571D01*
X36384270Y-1293809D01*
X36872366Y-1389047D01*
X35580699Y-1722380D02*
X35515223Y-1198571D01*
X35550937Y-1103333D01*
X35640223Y-1055714D01*
X35830699Y-1055714D01*
X35931889Y-1103333D01*
X35574747Y-1674761D02*
X35675937Y-1722380D01*
X35914032Y-1722380D01*
X36003318Y-1674761D01*
X36039032Y-1579523D01*
X36027127Y-1484285D01*
X35967604Y-1389047D01*
X35866413Y-1341428D01*
X35628318Y-1341428D01*
X35527127Y-1293809D01*
X34675937Y-1722380D02*
X34550937Y-722380D01*
X34669985Y-1674761D02*
X34771175Y-1722380D01*
X34961651Y-1722380D01*
X35050937Y-1674761D01*
X35092604Y-1627142D01*
X35128318Y-1531904D01*
X35092604Y-1246190D01*
X35033080Y-1150952D01*
X34979508Y-1103333D01*
X34878318Y-1055714D01*
X34687842Y-1055714D01*
X34598556Y-1103333D01*
X33771175Y-1722380D02*
X33705699Y-1198571D01*
X33741413Y-1103333D01*
X33830699Y-1055714D01*
X34021175Y-1055714D01*
X34122366Y-1103333D01*
X33765223Y-1674761D02*
X33866413Y-1722380D01*
X34104508Y-1722380D01*
X34193794Y-1674761D01*
X34229508Y-1579523D01*
X34217604Y-1484285D01*
X34158080Y-1389047D01*
X34056889Y-1341428D01*
X33818794Y-1341428D01*
X33717604Y-1293809D01*
X33294985Y-1722380D02*
X33211651Y-1055714D01*
X33235461Y-1246190D02*
X33175937Y-1150952D01*
X33122366Y-1103333D01*
X33021175Y-1055714D01*
X32925937Y-1055714D01*
X32735461Y-1055714D02*
X32354508Y-1055714D01*
X32550937Y-722380D02*
X32658080Y-1579523D01*
X32622366Y-1674761D01*
X32533080Y-1722380D01*
X32437842Y-1722380D01*
X32146175Y-1674761D02*
X32056889Y-1722380D01*
X31866413Y-1722380D01*
X31765223Y-1674761D01*
X31705699Y-1579523D01*
X31699747Y-1531904D01*
X31735461Y-1436666D01*
X31824747Y-1389047D01*
X31967604Y-1389047D01*
X32056889Y-1341428D01*
X32092604Y-1246190D01*
X32086651Y-1198571D01*
X32027127Y-1103333D01*
X31925937Y-1055714D01*
X31783080Y-1055714D01*
X31693794Y-1103333D01*
X31283080Y-1627142D02*
X31241413Y-1674761D01*
X31294985Y-1722380D01*
X31336651Y-1674761D01*
X31283080Y-1627142D01*
X31294985Y-1722380D01*
X30384270Y-1674761D02*
X30485461Y-1722380D01*
X30675937Y-1722380D01*
X30765223Y-1674761D01*
X30806889Y-1627142D01*
X30842604Y-1531904D01*
X30806889Y-1246190D01*
X30747366Y-1150952D01*
X30693794Y-1103333D01*
X30592604Y-1055714D01*
X30402127Y-1055714D01*
X30312842Y-1103333D01*
X29818794Y-1722380D02*
X29908080Y-1674761D01*
X29949747Y-1627142D01*
X29985461Y-1531904D01*
X29949747Y-1246190D01*
X29890223Y-1150952D01*
X29836651Y-1103333D01*
X29735461Y-1055714D01*
X29592604Y-1055714D01*
X29503318Y-1103333D01*
X29461651Y-1150952D01*
X29425937Y-1246190D01*
X29461651Y-1531904D01*
X29521175Y-1627142D01*
X29574747Y-1674761D01*
X29675937Y-1722380D01*
X29818794Y-1722380D01*
X29056889Y-1722380D02*
X28973556Y-1055714D01*
X28985461Y-1150952D02*
X28931889Y-1103333D01*
X28830699Y-1055714D01*
X28687842Y-1055714D01*
X28598556Y-1103333D01*
X28562842Y-1198571D01*
X28628318Y-1722380D01*
X28562842Y-1198571D02*
X28503318Y-1103333D01*
X28402127Y-1055714D01*
X28259270Y-1055714D01*
X28169985Y-1103333D01*
X28134270Y-1198571D01*
X28199747Y-1722380D01*
M02*
