G04 #@! TF.GenerationSoftware,KiCad,Pcbnew,(5.1.2)-1*
G04 #@! TF.CreationDate,2019-05-02T22:44:15-07:00*
G04 #@! TF.ProjectId,gen3piano,67656e33-7069-4616-9e6f-2e6b69636164,rev?*
G04 #@! TF.SameCoordinates,PXe88b40PYc1c960*
G04 #@! TF.FileFunction,Copper,L2,Bot*
G04 #@! TF.FilePolarity,Positive*
%FSLAX46Y46*%
G04 Gerber Fmt 4.6, Leading zero omitted, Abs format (unit mm)*
G04 Created by KiCad (PCBNEW (5.1.2)-1) date 2019-05-02 22:44:15*
%MOMM*%
%LPD*%
G04 APERTURE LIST*
%ADD10C,1.600000*%
%ADD11R,1.050000X1.500000*%
%ADD12O,1.050000X1.500000*%
%ADD13C,1.700000*%
%ADD14C,3.000000*%
%ADD15R,3.000000X3.000000*%
%ADD16C,1.800000*%
%ADD17R,1.800000X1.800000*%
%ADD18C,0.254000*%
G04 APERTURE END LIST*
D10*
X10160000Y-41830000D03*
X10160000Y-36830000D03*
D11*
X44450000Y-31750000D03*
D12*
X46990000Y-31750000D03*
X45720000Y-31750000D03*
D11*
X43180000Y-24130000D03*
D12*
X45720000Y-24130000D03*
X44450000Y-24130000D03*
D11*
X36830000Y-24130000D03*
D12*
X39370000Y-24130000D03*
X38100000Y-24130000D03*
D11*
X30480000Y-24130000D03*
D12*
X33020000Y-24130000D03*
X31750000Y-24130000D03*
D11*
X24130000Y-24130000D03*
D12*
X26670000Y-24130000D03*
X25400000Y-24130000D03*
D11*
X17780000Y-24130000D03*
D12*
X20320000Y-24130000D03*
X19050000Y-24130000D03*
D11*
X11430000Y-24130000D03*
D12*
X13970000Y-24130000D03*
X12700000Y-24130000D03*
D11*
X5080000Y-29210000D03*
D12*
X7620000Y-29210000D03*
X6350000Y-29210000D03*
D13*
X39370000Y-12700000D03*
X45870000Y-12700000D03*
X39370000Y-17200000D03*
X45870000Y-17200000D03*
X36830000Y-3810000D03*
X43330000Y-3810000D03*
X36830000Y-8310000D03*
X43330000Y-8310000D03*
X27940000Y-12700000D03*
X34440000Y-12700000D03*
X27940000Y-17200000D03*
X34440000Y-17200000D03*
X25400000Y-3810000D03*
X31900000Y-3810000D03*
X25400000Y-8310000D03*
X31900000Y-8310000D03*
X16510000Y-12700000D03*
X23010000Y-12700000D03*
X16510000Y-17200000D03*
X23010000Y-17200000D03*
X13970000Y-3810000D03*
X20470000Y-3810000D03*
X13970000Y-8310000D03*
X20470000Y-8310000D03*
X5080000Y-12700000D03*
X11580000Y-12700000D03*
X5080000Y-17200000D03*
X11580000Y-17200000D03*
X2540000Y-3810000D03*
X9040000Y-3810000D03*
X2540000Y-8310000D03*
X9040000Y-8310000D03*
D14*
X3810000Y-41910000D03*
D15*
X3810000Y-36830000D03*
D16*
X41910000Y-40640000D03*
D17*
X39370000Y-40640000D03*
D16*
X39370000Y-33020000D03*
D17*
X36830000Y-33020000D03*
D16*
X34290000Y-40640000D03*
D17*
X31750000Y-40640000D03*
D16*
X31750000Y-33020000D03*
D17*
X29210000Y-33020000D03*
D16*
X26670000Y-40640000D03*
D17*
X24130000Y-40640000D03*
D16*
X24130000Y-33020000D03*
D17*
X21590000Y-33020000D03*
D16*
X19050000Y-40640000D03*
D17*
X16510000Y-40640000D03*
D16*
X16510000Y-33020000D03*
D17*
X13970000Y-33020000D03*
D18*
G36*
X44323000Y-2576859D02*
G01*
X44076989Y-2412481D01*
X43789994Y-2293604D01*
X43485321Y-2233000D01*
X43174679Y-2233000D01*
X42870006Y-2293604D01*
X42583011Y-2412481D01*
X42324721Y-2585064D01*
X42105064Y-2804721D01*
X41932481Y-3063011D01*
X41813604Y-3350006D01*
X41753000Y-3654679D01*
X41753000Y-3965321D01*
X41813604Y-4269994D01*
X41932481Y-4556989D01*
X42105064Y-4815279D01*
X42324721Y-5034936D01*
X42583011Y-5207519D01*
X42870006Y-5326396D01*
X43174679Y-5387000D01*
X43485321Y-5387000D01*
X43789994Y-5326396D01*
X44076989Y-5207519D01*
X44323000Y-5043141D01*
X44323000Y-5080000D01*
X44325440Y-5104776D01*
X44332667Y-5128601D01*
X44344403Y-5150557D01*
X44360197Y-5169803D01*
X44379443Y-5185597D01*
X44401399Y-5197333D01*
X44425224Y-5204560D01*
X44450000Y-5207000D01*
X48778000Y-5207000D01*
X48778001Y-40513000D01*
X44450000Y-40513000D01*
X44425224Y-40515440D01*
X44401399Y-40522667D01*
X44379443Y-40534403D01*
X44360197Y-40550197D01*
X44344403Y-40569443D01*
X44332667Y-40591399D01*
X44325440Y-40615224D01*
X44323000Y-40640000D01*
X44323000Y-44968000D01*
X752000Y-44968000D01*
X752000Y-43401653D01*
X2497952Y-43401653D01*
X2653962Y-43717214D01*
X3028745Y-43908020D01*
X3433551Y-44022044D01*
X3852824Y-44054902D01*
X4270451Y-44005334D01*
X4670383Y-43875243D01*
X4966038Y-43717214D01*
X5122048Y-43401653D01*
X3810000Y-42089605D01*
X2497952Y-43401653D01*
X752000Y-43401653D01*
X752000Y-41952824D01*
X1665098Y-41952824D01*
X1714666Y-42370451D01*
X1844757Y-42770383D01*
X2002786Y-43066038D01*
X2318347Y-43222048D01*
X3630395Y-41910000D01*
X3989605Y-41910000D01*
X5301653Y-43222048D01*
X5617214Y-43066038D01*
X5741098Y-42822702D01*
X9346903Y-42822702D01*
X9418486Y-43066671D01*
X9673996Y-43187571D01*
X9948184Y-43256300D01*
X10230512Y-43270217D01*
X10510130Y-43228787D01*
X10776292Y-43133603D01*
X10901514Y-43066671D01*
X10973097Y-42822702D01*
X10160000Y-42009605D01*
X9346903Y-42822702D01*
X5741098Y-42822702D01*
X5808020Y-42691255D01*
X5922044Y-42286449D01*
X5952289Y-41900512D01*
X8719783Y-41900512D01*
X8761213Y-42180130D01*
X8856397Y-42446292D01*
X8923329Y-42571514D01*
X9167298Y-42643097D01*
X9980395Y-41830000D01*
X10339605Y-41830000D01*
X11152702Y-42643097D01*
X11396671Y-42571514D01*
X11517571Y-42316004D01*
X11586300Y-42041816D01*
X11600217Y-41759488D01*
X11567697Y-41540000D01*
X14971928Y-41540000D01*
X14984188Y-41664482D01*
X15020498Y-41784180D01*
X15079463Y-41894494D01*
X15158815Y-41991185D01*
X15255506Y-42070537D01*
X15365820Y-42129502D01*
X15485518Y-42165812D01*
X15610000Y-42178072D01*
X16224250Y-42175000D01*
X16383000Y-42016250D01*
X16383000Y-40767000D01*
X15133750Y-40767000D01*
X14975000Y-40925750D01*
X14971928Y-41540000D01*
X11567697Y-41540000D01*
X11558787Y-41479870D01*
X11463603Y-41213708D01*
X11396671Y-41088486D01*
X11152702Y-41016903D01*
X10339605Y-41830000D01*
X9980395Y-41830000D01*
X9167298Y-41016903D01*
X8923329Y-41088486D01*
X8802429Y-41343996D01*
X8733700Y-41618184D01*
X8719783Y-41900512D01*
X5952289Y-41900512D01*
X5954902Y-41867176D01*
X5905334Y-41449549D01*
X5775243Y-41049617D01*
X5661758Y-40837298D01*
X9346903Y-40837298D01*
X10160000Y-41650395D01*
X10973097Y-40837298D01*
X10901514Y-40593329D01*
X10646004Y-40472429D01*
X10371816Y-40403700D01*
X10089488Y-40389783D01*
X9809870Y-40431213D01*
X9543708Y-40526397D01*
X9418486Y-40593329D01*
X9346903Y-40837298D01*
X5661758Y-40837298D01*
X5617214Y-40753962D01*
X5301653Y-40597952D01*
X3989605Y-41910000D01*
X3630395Y-41910000D01*
X2318347Y-40597952D01*
X2002786Y-40753962D01*
X1811980Y-41128745D01*
X1697956Y-41533551D01*
X1665098Y-41952824D01*
X752000Y-41952824D01*
X752000Y-40418347D01*
X2497952Y-40418347D01*
X3810000Y-41730395D01*
X5122048Y-40418347D01*
X4966038Y-40102786D01*
X4591255Y-39911980D01*
X4186449Y-39797956D01*
X3767176Y-39765098D01*
X3349549Y-39814666D01*
X2949617Y-39944757D01*
X2653962Y-40102786D01*
X2497952Y-40418347D01*
X752000Y-40418347D01*
X752000Y-39740000D01*
X14971928Y-39740000D01*
X14975000Y-40354250D01*
X15133750Y-40513000D01*
X16383000Y-40513000D01*
X16383000Y-39263750D01*
X16637000Y-39263750D01*
X16637000Y-40513000D01*
X16657000Y-40513000D01*
X16657000Y-40767000D01*
X16637000Y-40767000D01*
X16637000Y-42016250D01*
X16795750Y-42175000D01*
X17410000Y-42178072D01*
X17534482Y-42165812D01*
X17654180Y-42129502D01*
X17764494Y-42070537D01*
X17861185Y-41991185D01*
X17940537Y-41894494D01*
X17962493Y-41853418D01*
X18012848Y-41903773D01*
X18279327Y-42081828D01*
X18575422Y-42204475D01*
X18889755Y-42267000D01*
X19210245Y-42267000D01*
X19524578Y-42204475D01*
X19820673Y-42081828D01*
X20087152Y-41903773D01*
X20313773Y-41677152D01*
X20405414Y-41540000D01*
X22591928Y-41540000D01*
X22604188Y-41664482D01*
X22640498Y-41784180D01*
X22699463Y-41894494D01*
X22778815Y-41991185D01*
X22875506Y-42070537D01*
X22985820Y-42129502D01*
X23105518Y-42165812D01*
X23230000Y-42178072D01*
X23844250Y-42175000D01*
X24003000Y-42016250D01*
X24003000Y-40767000D01*
X22753750Y-40767000D01*
X22595000Y-40925750D01*
X22591928Y-41540000D01*
X20405414Y-41540000D01*
X20491828Y-41410673D01*
X20614475Y-41114578D01*
X20677000Y-40800245D01*
X20677000Y-40479755D01*
X20614475Y-40165422D01*
X20491828Y-39869327D01*
X20405415Y-39740000D01*
X22591928Y-39740000D01*
X22595000Y-40354250D01*
X22753750Y-40513000D01*
X24003000Y-40513000D01*
X24003000Y-39263750D01*
X24257000Y-39263750D01*
X24257000Y-40513000D01*
X24277000Y-40513000D01*
X24277000Y-40767000D01*
X24257000Y-40767000D01*
X24257000Y-42016250D01*
X24415750Y-42175000D01*
X25030000Y-42178072D01*
X25154482Y-42165812D01*
X25274180Y-42129502D01*
X25384494Y-42070537D01*
X25481185Y-41991185D01*
X25560537Y-41894494D01*
X25582493Y-41853418D01*
X25632848Y-41903773D01*
X25899327Y-42081828D01*
X26195422Y-42204475D01*
X26509755Y-42267000D01*
X26830245Y-42267000D01*
X27144578Y-42204475D01*
X27440673Y-42081828D01*
X27707152Y-41903773D01*
X27933773Y-41677152D01*
X28025414Y-41540000D01*
X30211928Y-41540000D01*
X30224188Y-41664482D01*
X30260498Y-41784180D01*
X30319463Y-41894494D01*
X30398815Y-41991185D01*
X30495506Y-42070537D01*
X30605820Y-42129502D01*
X30725518Y-42165812D01*
X30850000Y-42178072D01*
X31464250Y-42175000D01*
X31623000Y-42016250D01*
X31623000Y-40767000D01*
X30373750Y-40767000D01*
X30215000Y-40925750D01*
X30211928Y-41540000D01*
X28025414Y-41540000D01*
X28111828Y-41410673D01*
X28234475Y-41114578D01*
X28297000Y-40800245D01*
X28297000Y-40479755D01*
X28234475Y-40165422D01*
X28111828Y-39869327D01*
X28025415Y-39740000D01*
X30211928Y-39740000D01*
X30215000Y-40354250D01*
X30373750Y-40513000D01*
X31623000Y-40513000D01*
X31623000Y-39263750D01*
X31877000Y-39263750D01*
X31877000Y-40513000D01*
X31897000Y-40513000D01*
X31897000Y-40767000D01*
X31877000Y-40767000D01*
X31877000Y-42016250D01*
X32035750Y-42175000D01*
X32650000Y-42178072D01*
X32774482Y-42165812D01*
X32894180Y-42129502D01*
X33004494Y-42070537D01*
X33101185Y-41991185D01*
X33180537Y-41894494D01*
X33202493Y-41853418D01*
X33252848Y-41903773D01*
X33519327Y-42081828D01*
X33815422Y-42204475D01*
X34129755Y-42267000D01*
X34450245Y-42267000D01*
X34764578Y-42204475D01*
X35060673Y-42081828D01*
X35327152Y-41903773D01*
X35553773Y-41677152D01*
X35645414Y-41540000D01*
X37831928Y-41540000D01*
X37844188Y-41664482D01*
X37880498Y-41784180D01*
X37939463Y-41894494D01*
X38018815Y-41991185D01*
X38115506Y-42070537D01*
X38225820Y-42129502D01*
X38345518Y-42165812D01*
X38470000Y-42178072D01*
X39084250Y-42175000D01*
X39243000Y-42016250D01*
X39243000Y-40767000D01*
X37993750Y-40767000D01*
X37835000Y-40925750D01*
X37831928Y-41540000D01*
X35645414Y-41540000D01*
X35731828Y-41410673D01*
X35854475Y-41114578D01*
X35917000Y-40800245D01*
X35917000Y-40479755D01*
X35854475Y-40165422D01*
X35731828Y-39869327D01*
X35645415Y-39740000D01*
X37831928Y-39740000D01*
X37835000Y-40354250D01*
X37993750Y-40513000D01*
X39243000Y-40513000D01*
X39243000Y-39263750D01*
X39497000Y-39263750D01*
X39497000Y-40513000D01*
X39517000Y-40513000D01*
X39517000Y-40767000D01*
X39497000Y-40767000D01*
X39497000Y-42016250D01*
X39655750Y-42175000D01*
X40270000Y-42178072D01*
X40394482Y-42165812D01*
X40514180Y-42129502D01*
X40624494Y-42070537D01*
X40721185Y-41991185D01*
X40800537Y-41894494D01*
X40822493Y-41853418D01*
X40872848Y-41903773D01*
X41139327Y-42081828D01*
X41435422Y-42204475D01*
X41749755Y-42267000D01*
X42070245Y-42267000D01*
X42384578Y-42204475D01*
X42680673Y-42081828D01*
X42947152Y-41903773D01*
X43173773Y-41677152D01*
X43351828Y-41410673D01*
X43474475Y-41114578D01*
X43537000Y-40800245D01*
X43537000Y-40479755D01*
X43474475Y-40165422D01*
X43351828Y-39869327D01*
X43173773Y-39602848D01*
X42947152Y-39376227D01*
X42680673Y-39198172D01*
X42384578Y-39075525D01*
X42070245Y-39013000D01*
X41749755Y-39013000D01*
X41435422Y-39075525D01*
X41139327Y-39198172D01*
X40872848Y-39376227D01*
X40822493Y-39426582D01*
X40800537Y-39385506D01*
X40721185Y-39288815D01*
X40624494Y-39209463D01*
X40514180Y-39150498D01*
X40394482Y-39114188D01*
X40270000Y-39101928D01*
X39655750Y-39105000D01*
X39497000Y-39263750D01*
X39243000Y-39263750D01*
X39084250Y-39105000D01*
X38470000Y-39101928D01*
X38345518Y-39114188D01*
X38225820Y-39150498D01*
X38115506Y-39209463D01*
X38018815Y-39288815D01*
X37939463Y-39385506D01*
X37880498Y-39495820D01*
X37844188Y-39615518D01*
X37831928Y-39740000D01*
X35645415Y-39740000D01*
X35553773Y-39602848D01*
X35327152Y-39376227D01*
X35060673Y-39198172D01*
X34764578Y-39075525D01*
X34450245Y-39013000D01*
X34129755Y-39013000D01*
X33815422Y-39075525D01*
X33519327Y-39198172D01*
X33252848Y-39376227D01*
X33202493Y-39426582D01*
X33180537Y-39385506D01*
X33101185Y-39288815D01*
X33004494Y-39209463D01*
X32894180Y-39150498D01*
X32774482Y-39114188D01*
X32650000Y-39101928D01*
X32035750Y-39105000D01*
X31877000Y-39263750D01*
X31623000Y-39263750D01*
X31464250Y-39105000D01*
X30850000Y-39101928D01*
X30725518Y-39114188D01*
X30605820Y-39150498D01*
X30495506Y-39209463D01*
X30398815Y-39288815D01*
X30319463Y-39385506D01*
X30260498Y-39495820D01*
X30224188Y-39615518D01*
X30211928Y-39740000D01*
X28025415Y-39740000D01*
X27933773Y-39602848D01*
X27707152Y-39376227D01*
X27440673Y-39198172D01*
X27144578Y-39075525D01*
X26830245Y-39013000D01*
X26509755Y-39013000D01*
X26195422Y-39075525D01*
X25899327Y-39198172D01*
X25632848Y-39376227D01*
X25582493Y-39426582D01*
X25560537Y-39385506D01*
X25481185Y-39288815D01*
X25384494Y-39209463D01*
X25274180Y-39150498D01*
X25154482Y-39114188D01*
X25030000Y-39101928D01*
X24415750Y-39105000D01*
X24257000Y-39263750D01*
X24003000Y-39263750D01*
X23844250Y-39105000D01*
X23230000Y-39101928D01*
X23105518Y-39114188D01*
X22985820Y-39150498D01*
X22875506Y-39209463D01*
X22778815Y-39288815D01*
X22699463Y-39385506D01*
X22640498Y-39495820D01*
X22604188Y-39615518D01*
X22591928Y-39740000D01*
X20405415Y-39740000D01*
X20313773Y-39602848D01*
X20087152Y-39376227D01*
X19820673Y-39198172D01*
X19524578Y-39075525D01*
X19210245Y-39013000D01*
X18889755Y-39013000D01*
X18575422Y-39075525D01*
X18279327Y-39198172D01*
X18012848Y-39376227D01*
X17962493Y-39426582D01*
X17940537Y-39385506D01*
X17861185Y-39288815D01*
X17764494Y-39209463D01*
X17654180Y-39150498D01*
X17534482Y-39114188D01*
X17410000Y-39101928D01*
X16795750Y-39105000D01*
X16637000Y-39263750D01*
X16383000Y-39263750D01*
X16224250Y-39105000D01*
X15610000Y-39101928D01*
X15485518Y-39114188D01*
X15365820Y-39150498D01*
X15255506Y-39209463D01*
X15158815Y-39288815D01*
X15079463Y-39385506D01*
X15020498Y-39495820D01*
X14984188Y-39615518D01*
X14971928Y-39740000D01*
X752000Y-39740000D01*
X752000Y-35330000D01*
X1579483Y-35330000D01*
X1579483Y-38330000D01*
X1593520Y-38472517D01*
X1635090Y-38609557D01*
X1702597Y-38735853D01*
X1793446Y-38846554D01*
X1904147Y-38937403D01*
X2030443Y-39004910D01*
X2167483Y-39046480D01*
X2310000Y-39060517D01*
X5310000Y-39060517D01*
X5452517Y-39046480D01*
X5589557Y-39004910D01*
X5715853Y-38937403D01*
X5826554Y-38846554D01*
X5917403Y-38735853D01*
X5984910Y-38609557D01*
X6026480Y-38472517D01*
X6040517Y-38330000D01*
X6040517Y-36679604D01*
X8633000Y-36679604D01*
X8633000Y-36980396D01*
X8691681Y-37275410D01*
X8806790Y-37553306D01*
X8973901Y-37803406D01*
X9186594Y-38016099D01*
X9436694Y-38183210D01*
X9714590Y-38298319D01*
X10009604Y-38357000D01*
X10310396Y-38357000D01*
X10605410Y-38298319D01*
X10883306Y-38183210D01*
X11133406Y-38016099D01*
X11346099Y-37803406D01*
X11513210Y-37553306D01*
X11628319Y-37275410D01*
X11687000Y-36980396D01*
X11687000Y-36679604D01*
X11628319Y-36384590D01*
X11513210Y-36106694D01*
X11346099Y-35856594D01*
X11133406Y-35643901D01*
X10883306Y-35476790D01*
X10605410Y-35361681D01*
X10310396Y-35303000D01*
X10009604Y-35303000D01*
X9714590Y-35361681D01*
X9436694Y-35476790D01*
X9186594Y-35643901D01*
X8973901Y-35856594D01*
X8806790Y-36106694D01*
X8691681Y-36384590D01*
X8633000Y-36679604D01*
X6040517Y-36679604D01*
X6040517Y-35330000D01*
X6026480Y-35187483D01*
X5984910Y-35050443D01*
X5917403Y-34924147D01*
X5826554Y-34813446D01*
X5715853Y-34722597D01*
X5589557Y-34655090D01*
X5452517Y-34613520D01*
X5310000Y-34599483D01*
X2310000Y-34599483D01*
X2167483Y-34613520D01*
X2030443Y-34655090D01*
X1904147Y-34722597D01*
X1793446Y-34813446D01*
X1702597Y-34924147D01*
X1635090Y-35050443D01*
X1593520Y-35187483D01*
X1579483Y-35330000D01*
X752000Y-35330000D01*
X752000Y-33920000D01*
X12431928Y-33920000D01*
X12444188Y-34044482D01*
X12480498Y-34164180D01*
X12539463Y-34274494D01*
X12618815Y-34371185D01*
X12715506Y-34450537D01*
X12825820Y-34509502D01*
X12945518Y-34545812D01*
X13070000Y-34558072D01*
X13684250Y-34555000D01*
X13843000Y-34396250D01*
X13843000Y-33147000D01*
X12593750Y-33147000D01*
X12435000Y-33305750D01*
X12431928Y-33920000D01*
X752000Y-33920000D01*
X752000Y-32120000D01*
X12431928Y-32120000D01*
X12435000Y-32734250D01*
X12593750Y-32893000D01*
X13843000Y-32893000D01*
X13843000Y-31643750D01*
X14097000Y-31643750D01*
X14097000Y-32893000D01*
X14117000Y-32893000D01*
X14117000Y-33147000D01*
X14097000Y-33147000D01*
X14097000Y-34396250D01*
X14255750Y-34555000D01*
X14870000Y-34558072D01*
X14994482Y-34545812D01*
X15114180Y-34509502D01*
X15224494Y-34450537D01*
X15321185Y-34371185D01*
X15400537Y-34274494D01*
X15422493Y-34233418D01*
X15472848Y-34283773D01*
X15739327Y-34461828D01*
X16035422Y-34584475D01*
X16349755Y-34647000D01*
X16670245Y-34647000D01*
X16984578Y-34584475D01*
X17280673Y-34461828D01*
X17547152Y-34283773D01*
X17773773Y-34057152D01*
X17865414Y-33920000D01*
X20051928Y-33920000D01*
X20064188Y-34044482D01*
X20100498Y-34164180D01*
X20159463Y-34274494D01*
X20238815Y-34371185D01*
X20335506Y-34450537D01*
X20445820Y-34509502D01*
X20565518Y-34545812D01*
X20690000Y-34558072D01*
X21304250Y-34555000D01*
X21463000Y-34396250D01*
X21463000Y-33147000D01*
X20213750Y-33147000D01*
X20055000Y-33305750D01*
X20051928Y-33920000D01*
X17865414Y-33920000D01*
X17951828Y-33790673D01*
X18074475Y-33494578D01*
X18137000Y-33180245D01*
X18137000Y-32859755D01*
X18074475Y-32545422D01*
X17951828Y-32249327D01*
X17865415Y-32120000D01*
X20051928Y-32120000D01*
X20055000Y-32734250D01*
X20213750Y-32893000D01*
X21463000Y-32893000D01*
X21463000Y-31643750D01*
X21717000Y-31643750D01*
X21717000Y-32893000D01*
X21737000Y-32893000D01*
X21737000Y-33147000D01*
X21717000Y-33147000D01*
X21717000Y-34396250D01*
X21875750Y-34555000D01*
X22490000Y-34558072D01*
X22614482Y-34545812D01*
X22734180Y-34509502D01*
X22844494Y-34450537D01*
X22941185Y-34371185D01*
X23020537Y-34274494D01*
X23042493Y-34233418D01*
X23092848Y-34283773D01*
X23359327Y-34461828D01*
X23655422Y-34584475D01*
X23969755Y-34647000D01*
X24290245Y-34647000D01*
X24604578Y-34584475D01*
X24900673Y-34461828D01*
X25167152Y-34283773D01*
X25393773Y-34057152D01*
X25485414Y-33920000D01*
X27671928Y-33920000D01*
X27684188Y-34044482D01*
X27720498Y-34164180D01*
X27779463Y-34274494D01*
X27858815Y-34371185D01*
X27955506Y-34450537D01*
X28065820Y-34509502D01*
X28185518Y-34545812D01*
X28310000Y-34558072D01*
X28924250Y-34555000D01*
X29083000Y-34396250D01*
X29083000Y-33147000D01*
X27833750Y-33147000D01*
X27675000Y-33305750D01*
X27671928Y-33920000D01*
X25485414Y-33920000D01*
X25571828Y-33790673D01*
X25694475Y-33494578D01*
X25757000Y-33180245D01*
X25757000Y-32859755D01*
X25694475Y-32545422D01*
X25571828Y-32249327D01*
X25485415Y-32120000D01*
X27671928Y-32120000D01*
X27675000Y-32734250D01*
X27833750Y-32893000D01*
X29083000Y-32893000D01*
X29083000Y-31643750D01*
X29337000Y-31643750D01*
X29337000Y-32893000D01*
X29357000Y-32893000D01*
X29357000Y-33147000D01*
X29337000Y-33147000D01*
X29337000Y-34396250D01*
X29495750Y-34555000D01*
X30110000Y-34558072D01*
X30234482Y-34545812D01*
X30354180Y-34509502D01*
X30464494Y-34450537D01*
X30561185Y-34371185D01*
X30640537Y-34274494D01*
X30662493Y-34233418D01*
X30712848Y-34283773D01*
X30979327Y-34461828D01*
X31275422Y-34584475D01*
X31589755Y-34647000D01*
X31910245Y-34647000D01*
X32224578Y-34584475D01*
X32520673Y-34461828D01*
X32787152Y-34283773D01*
X33013773Y-34057152D01*
X33105414Y-33920000D01*
X35291928Y-33920000D01*
X35304188Y-34044482D01*
X35340498Y-34164180D01*
X35399463Y-34274494D01*
X35478815Y-34371185D01*
X35575506Y-34450537D01*
X35685820Y-34509502D01*
X35805518Y-34545812D01*
X35930000Y-34558072D01*
X36544250Y-34555000D01*
X36703000Y-34396250D01*
X36703000Y-33147000D01*
X35453750Y-33147000D01*
X35295000Y-33305750D01*
X35291928Y-33920000D01*
X33105414Y-33920000D01*
X33191828Y-33790673D01*
X33314475Y-33494578D01*
X33377000Y-33180245D01*
X33377000Y-32859755D01*
X33314475Y-32545422D01*
X33191828Y-32249327D01*
X33105415Y-32120000D01*
X35291928Y-32120000D01*
X35295000Y-32734250D01*
X35453750Y-32893000D01*
X36703000Y-32893000D01*
X36703000Y-31643750D01*
X36957000Y-31643750D01*
X36957000Y-32893000D01*
X36977000Y-32893000D01*
X36977000Y-33147000D01*
X36957000Y-33147000D01*
X36957000Y-34396250D01*
X37115750Y-34555000D01*
X37730000Y-34558072D01*
X37854482Y-34545812D01*
X37974180Y-34509502D01*
X38084494Y-34450537D01*
X38181185Y-34371185D01*
X38260537Y-34274494D01*
X38282493Y-34233418D01*
X38332848Y-34283773D01*
X38599327Y-34461828D01*
X38895422Y-34584475D01*
X39209755Y-34647000D01*
X39530245Y-34647000D01*
X39844578Y-34584475D01*
X40140673Y-34461828D01*
X40407152Y-34283773D01*
X40633773Y-34057152D01*
X40811828Y-33790673D01*
X40934475Y-33494578D01*
X40997000Y-33180245D01*
X40997000Y-32859755D01*
X40934475Y-32545422D01*
X40811828Y-32249327D01*
X40633773Y-31982848D01*
X40407152Y-31756227D01*
X40140673Y-31578172D01*
X39844578Y-31455525D01*
X39530245Y-31393000D01*
X39209755Y-31393000D01*
X38895422Y-31455525D01*
X38599327Y-31578172D01*
X38332848Y-31756227D01*
X38282493Y-31806582D01*
X38260537Y-31765506D01*
X38181185Y-31668815D01*
X38084494Y-31589463D01*
X37974180Y-31530498D01*
X37854482Y-31494188D01*
X37730000Y-31481928D01*
X37115750Y-31485000D01*
X36957000Y-31643750D01*
X36703000Y-31643750D01*
X36544250Y-31485000D01*
X35930000Y-31481928D01*
X35805518Y-31494188D01*
X35685820Y-31530498D01*
X35575506Y-31589463D01*
X35478815Y-31668815D01*
X35399463Y-31765506D01*
X35340498Y-31875820D01*
X35304188Y-31995518D01*
X35291928Y-32120000D01*
X33105415Y-32120000D01*
X33013773Y-31982848D01*
X32787152Y-31756227D01*
X32520673Y-31578172D01*
X32224578Y-31455525D01*
X31910245Y-31393000D01*
X31589755Y-31393000D01*
X31275422Y-31455525D01*
X30979327Y-31578172D01*
X30712848Y-31756227D01*
X30662493Y-31806582D01*
X30640537Y-31765506D01*
X30561185Y-31668815D01*
X30464494Y-31589463D01*
X30354180Y-31530498D01*
X30234482Y-31494188D01*
X30110000Y-31481928D01*
X29495750Y-31485000D01*
X29337000Y-31643750D01*
X29083000Y-31643750D01*
X28924250Y-31485000D01*
X28310000Y-31481928D01*
X28185518Y-31494188D01*
X28065820Y-31530498D01*
X27955506Y-31589463D01*
X27858815Y-31668815D01*
X27779463Y-31765506D01*
X27720498Y-31875820D01*
X27684188Y-31995518D01*
X27671928Y-32120000D01*
X25485415Y-32120000D01*
X25393773Y-31982848D01*
X25167152Y-31756227D01*
X24900673Y-31578172D01*
X24604578Y-31455525D01*
X24290245Y-31393000D01*
X23969755Y-31393000D01*
X23655422Y-31455525D01*
X23359327Y-31578172D01*
X23092848Y-31756227D01*
X23042493Y-31806582D01*
X23020537Y-31765506D01*
X22941185Y-31668815D01*
X22844494Y-31589463D01*
X22734180Y-31530498D01*
X22614482Y-31494188D01*
X22490000Y-31481928D01*
X21875750Y-31485000D01*
X21717000Y-31643750D01*
X21463000Y-31643750D01*
X21304250Y-31485000D01*
X20690000Y-31481928D01*
X20565518Y-31494188D01*
X20445820Y-31530498D01*
X20335506Y-31589463D01*
X20238815Y-31668815D01*
X20159463Y-31765506D01*
X20100498Y-31875820D01*
X20064188Y-31995518D01*
X20051928Y-32120000D01*
X17865415Y-32120000D01*
X17773773Y-31982848D01*
X17547152Y-31756227D01*
X17280673Y-31578172D01*
X16984578Y-31455525D01*
X16670245Y-31393000D01*
X16349755Y-31393000D01*
X16035422Y-31455525D01*
X15739327Y-31578172D01*
X15472848Y-31756227D01*
X15422493Y-31806582D01*
X15400537Y-31765506D01*
X15321185Y-31668815D01*
X15224494Y-31589463D01*
X15114180Y-31530498D01*
X14994482Y-31494188D01*
X14870000Y-31481928D01*
X14255750Y-31485000D01*
X14097000Y-31643750D01*
X13843000Y-31643750D01*
X13684250Y-31485000D01*
X13070000Y-31481928D01*
X12945518Y-31494188D01*
X12825820Y-31530498D01*
X12715506Y-31589463D01*
X12618815Y-31668815D01*
X12539463Y-31765506D01*
X12480498Y-31875820D01*
X12444188Y-31995518D01*
X12431928Y-32120000D01*
X752000Y-32120000D01*
X752000Y-31000000D01*
X43194483Y-31000000D01*
X43194483Y-32500000D01*
X43208520Y-32642517D01*
X43250090Y-32779557D01*
X43317597Y-32905853D01*
X43408446Y-33016554D01*
X43519147Y-33107403D01*
X43645443Y-33174910D01*
X43782483Y-33216480D01*
X43925000Y-33230517D01*
X44975000Y-33230517D01*
X45117517Y-33216480D01*
X45254557Y-33174910D01*
X45293663Y-33154007D01*
X45474566Y-33208884D01*
X45720000Y-33233057D01*
X45965435Y-33208884D01*
X46201438Y-33137293D01*
X46355001Y-33055212D01*
X46508563Y-33137293D01*
X46744566Y-33208884D01*
X46990000Y-33233057D01*
X47235435Y-33208884D01*
X47471438Y-33137293D01*
X47688939Y-33021036D01*
X47879581Y-32864581D01*
X48036036Y-32673939D01*
X48152293Y-32456437D01*
X48223884Y-32220434D01*
X48242000Y-32036497D01*
X48242000Y-31463502D01*
X48223884Y-31279565D01*
X48152293Y-31043562D01*
X48036036Y-30826061D01*
X47879581Y-30635419D01*
X47688938Y-30478964D01*
X47471437Y-30362707D01*
X47235434Y-30291116D01*
X46990000Y-30266943D01*
X46744565Y-30291116D01*
X46508562Y-30362707D01*
X46354999Y-30444788D01*
X46201437Y-30362707D01*
X45965434Y-30291116D01*
X45720000Y-30266943D01*
X45474565Y-30291116D01*
X45293662Y-30345992D01*
X45254557Y-30325090D01*
X45117517Y-30283520D01*
X44975000Y-30269483D01*
X43925000Y-30269483D01*
X43782483Y-30283520D01*
X43645443Y-30325090D01*
X43519147Y-30392597D01*
X43408446Y-30483446D01*
X43317597Y-30594147D01*
X43250090Y-30720443D01*
X43208520Y-30857483D01*
X43194483Y-31000000D01*
X752000Y-31000000D01*
X752000Y-28460000D01*
X3824483Y-28460000D01*
X3824483Y-29960000D01*
X3838520Y-30102517D01*
X3880090Y-30239557D01*
X3947597Y-30365853D01*
X4038446Y-30476554D01*
X4149147Y-30567403D01*
X4275443Y-30634910D01*
X4412483Y-30676480D01*
X4555000Y-30690517D01*
X5605000Y-30690517D01*
X5747517Y-30676480D01*
X5884557Y-30634910D01*
X5923663Y-30614007D01*
X6104566Y-30668884D01*
X6350000Y-30693057D01*
X6595435Y-30668884D01*
X6831438Y-30597293D01*
X6985001Y-30515212D01*
X7138563Y-30597293D01*
X7374566Y-30668884D01*
X7620000Y-30693057D01*
X7865435Y-30668884D01*
X8101438Y-30597293D01*
X8318939Y-30481036D01*
X8509581Y-30324581D01*
X8666036Y-30133939D01*
X8782293Y-29916437D01*
X8853884Y-29680434D01*
X8872000Y-29496497D01*
X8872000Y-28923502D01*
X8853884Y-28739565D01*
X8782293Y-28503562D01*
X8666036Y-28286061D01*
X8509581Y-28095419D01*
X8318938Y-27938964D01*
X8101437Y-27822707D01*
X7865434Y-27751116D01*
X7620000Y-27726943D01*
X7374565Y-27751116D01*
X7138562Y-27822707D01*
X6985000Y-27904788D01*
X6831437Y-27822707D01*
X6595434Y-27751116D01*
X6350000Y-27726943D01*
X6104565Y-27751116D01*
X5923662Y-27805992D01*
X5884557Y-27785090D01*
X5747517Y-27743520D01*
X5605000Y-27729483D01*
X4555000Y-27729483D01*
X4412483Y-27743520D01*
X4275443Y-27785090D01*
X4149147Y-27852597D01*
X4038446Y-27943446D01*
X3947597Y-28054147D01*
X3880090Y-28180443D01*
X3838520Y-28317483D01*
X3824483Y-28460000D01*
X752000Y-28460000D01*
X752000Y-25527000D01*
X6985000Y-25527000D01*
X7009776Y-25524560D01*
X7033601Y-25517333D01*
X7055557Y-25505597D01*
X7074803Y-25489803D01*
X7090597Y-25470557D01*
X7102333Y-25448601D01*
X7109560Y-25424776D01*
X7112000Y-25400000D01*
X7112000Y-23380000D01*
X10174483Y-23380000D01*
X10174483Y-24880000D01*
X10188520Y-25022517D01*
X10230090Y-25159557D01*
X10297597Y-25285853D01*
X10388446Y-25396554D01*
X10499147Y-25487403D01*
X10625443Y-25554910D01*
X10762483Y-25596480D01*
X10905000Y-25610517D01*
X11955000Y-25610517D01*
X12097517Y-25596480D01*
X12234557Y-25554910D01*
X12273663Y-25534007D01*
X12454566Y-25588884D01*
X12700000Y-25613057D01*
X12945435Y-25588884D01*
X13181438Y-25517293D01*
X13335001Y-25435212D01*
X13488563Y-25517293D01*
X13724566Y-25588884D01*
X13970000Y-25613057D01*
X14215435Y-25588884D01*
X14451438Y-25517293D01*
X14668939Y-25401036D01*
X14859581Y-25244581D01*
X15016036Y-25053939D01*
X15132293Y-24836437D01*
X15203884Y-24600434D01*
X15222000Y-24416497D01*
X15222000Y-23843502D01*
X15203884Y-23659565D01*
X15132293Y-23423562D01*
X15109009Y-23380000D01*
X16524483Y-23380000D01*
X16524483Y-24880000D01*
X16538520Y-25022517D01*
X16580090Y-25159557D01*
X16647597Y-25285853D01*
X16738446Y-25396554D01*
X16849147Y-25487403D01*
X16975443Y-25554910D01*
X17112483Y-25596480D01*
X17255000Y-25610517D01*
X18305000Y-25610517D01*
X18447517Y-25596480D01*
X18584557Y-25554910D01*
X18623663Y-25534007D01*
X18804566Y-25588884D01*
X19050000Y-25613057D01*
X19295435Y-25588884D01*
X19531438Y-25517293D01*
X19685001Y-25435212D01*
X19838563Y-25517293D01*
X20074566Y-25588884D01*
X20320000Y-25613057D01*
X20565435Y-25588884D01*
X20801438Y-25517293D01*
X21018939Y-25401036D01*
X21209581Y-25244581D01*
X21366036Y-25053939D01*
X21482293Y-24836437D01*
X21553884Y-24600434D01*
X21572000Y-24416497D01*
X21572000Y-23843502D01*
X21553884Y-23659565D01*
X21482293Y-23423562D01*
X21459009Y-23380000D01*
X22874483Y-23380000D01*
X22874483Y-24880000D01*
X22888520Y-25022517D01*
X22930090Y-25159557D01*
X22997597Y-25285853D01*
X23088446Y-25396554D01*
X23199147Y-25487403D01*
X23325443Y-25554910D01*
X23462483Y-25596480D01*
X23605000Y-25610517D01*
X24655000Y-25610517D01*
X24797517Y-25596480D01*
X24934557Y-25554910D01*
X24973663Y-25534007D01*
X25154566Y-25588884D01*
X25400000Y-25613057D01*
X25645435Y-25588884D01*
X25881438Y-25517293D01*
X26035001Y-25435212D01*
X26188563Y-25517293D01*
X26424566Y-25588884D01*
X26670000Y-25613057D01*
X26915435Y-25588884D01*
X27151438Y-25517293D01*
X27368939Y-25401036D01*
X27559581Y-25244581D01*
X27716036Y-25053939D01*
X27832293Y-24836437D01*
X27903884Y-24600434D01*
X27922000Y-24416497D01*
X27922000Y-23843502D01*
X27903884Y-23659565D01*
X27832293Y-23423562D01*
X27809009Y-23380000D01*
X29224483Y-23380000D01*
X29224483Y-24880000D01*
X29238520Y-25022517D01*
X29280090Y-25159557D01*
X29347597Y-25285853D01*
X29438446Y-25396554D01*
X29549147Y-25487403D01*
X29675443Y-25554910D01*
X29812483Y-25596480D01*
X29955000Y-25610517D01*
X31005000Y-25610517D01*
X31147517Y-25596480D01*
X31284557Y-25554910D01*
X31323663Y-25534007D01*
X31504566Y-25588884D01*
X31750000Y-25613057D01*
X31995435Y-25588884D01*
X32231438Y-25517293D01*
X32385001Y-25435212D01*
X32538563Y-25517293D01*
X32774566Y-25588884D01*
X33020000Y-25613057D01*
X33265435Y-25588884D01*
X33501438Y-25517293D01*
X33718939Y-25401036D01*
X33909581Y-25244581D01*
X34066036Y-25053939D01*
X34182293Y-24836437D01*
X34253884Y-24600434D01*
X34272000Y-24416497D01*
X34272000Y-23843502D01*
X34253884Y-23659565D01*
X34182293Y-23423562D01*
X34159009Y-23380000D01*
X35574483Y-23380000D01*
X35574483Y-24880000D01*
X35588520Y-25022517D01*
X35630090Y-25159557D01*
X35697597Y-25285853D01*
X35788446Y-25396554D01*
X35899147Y-25487403D01*
X36025443Y-25554910D01*
X36162483Y-25596480D01*
X36305000Y-25610517D01*
X37355000Y-25610517D01*
X37497517Y-25596480D01*
X37634557Y-25554910D01*
X37673663Y-25534007D01*
X37854566Y-25588884D01*
X38100000Y-25613057D01*
X38345435Y-25588884D01*
X38581438Y-25517293D01*
X38735001Y-25435212D01*
X38888563Y-25517293D01*
X39124566Y-25588884D01*
X39370000Y-25613057D01*
X39615435Y-25588884D01*
X39851438Y-25517293D01*
X40068939Y-25401036D01*
X40259581Y-25244581D01*
X40416036Y-25053939D01*
X40532293Y-24836437D01*
X40603884Y-24600434D01*
X40622000Y-24416497D01*
X40622000Y-23843502D01*
X40603884Y-23659565D01*
X40532293Y-23423562D01*
X40509009Y-23380000D01*
X41924483Y-23380000D01*
X41924483Y-24880000D01*
X41938520Y-25022517D01*
X41980090Y-25159557D01*
X42047597Y-25285853D01*
X42138446Y-25396554D01*
X42249147Y-25487403D01*
X42375443Y-25554910D01*
X42512483Y-25596480D01*
X42655000Y-25610517D01*
X43705000Y-25610517D01*
X43847517Y-25596480D01*
X43984557Y-25554910D01*
X44023663Y-25534007D01*
X44204566Y-25588884D01*
X44450000Y-25613057D01*
X44695435Y-25588884D01*
X44931438Y-25517293D01*
X45085001Y-25435212D01*
X45238563Y-25517293D01*
X45474566Y-25588884D01*
X45720000Y-25613057D01*
X45965435Y-25588884D01*
X46201438Y-25517293D01*
X46418939Y-25401036D01*
X46609581Y-25244581D01*
X46766036Y-25053939D01*
X46882293Y-24836437D01*
X46953884Y-24600434D01*
X46972000Y-24416497D01*
X46972000Y-23843502D01*
X46953884Y-23659565D01*
X46882293Y-23423562D01*
X46766036Y-23206061D01*
X46609581Y-23015419D01*
X46418938Y-22858964D01*
X46201437Y-22742707D01*
X45965434Y-22671116D01*
X45720000Y-22646943D01*
X45474565Y-22671116D01*
X45238562Y-22742707D01*
X45084999Y-22824788D01*
X44931437Y-22742707D01*
X44695434Y-22671116D01*
X44450000Y-22646943D01*
X44204565Y-22671116D01*
X44023662Y-22725992D01*
X43984557Y-22705090D01*
X43847517Y-22663520D01*
X43705000Y-22649483D01*
X42655000Y-22649483D01*
X42512483Y-22663520D01*
X42375443Y-22705090D01*
X42249147Y-22772597D01*
X42138446Y-22863446D01*
X42047597Y-22974147D01*
X41980090Y-23100443D01*
X41938520Y-23237483D01*
X41924483Y-23380000D01*
X40509009Y-23380000D01*
X40416036Y-23206061D01*
X40259581Y-23015419D01*
X40068938Y-22858964D01*
X39851437Y-22742707D01*
X39615434Y-22671116D01*
X39370000Y-22646943D01*
X39124565Y-22671116D01*
X38888562Y-22742707D01*
X38734999Y-22824788D01*
X38581437Y-22742707D01*
X38345434Y-22671116D01*
X38100000Y-22646943D01*
X37854565Y-22671116D01*
X37673662Y-22725992D01*
X37634557Y-22705090D01*
X37497517Y-22663520D01*
X37355000Y-22649483D01*
X36305000Y-22649483D01*
X36162483Y-22663520D01*
X36025443Y-22705090D01*
X35899147Y-22772597D01*
X35788446Y-22863446D01*
X35697597Y-22974147D01*
X35630090Y-23100443D01*
X35588520Y-23237483D01*
X35574483Y-23380000D01*
X34159009Y-23380000D01*
X34066036Y-23206061D01*
X33909581Y-23015419D01*
X33718938Y-22858964D01*
X33501437Y-22742707D01*
X33265434Y-22671116D01*
X33020000Y-22646943D01*
X32774565Y-22671116D01*
X32538562Y-22742707D01*
X32384999Y-22824788D01*
X32231437Y-22742707D01*
X31995434Y-22671116D01*
X31750000Y-22646943D01*
X31504565Y-22671116D01*
X31323662Y-22725992D01*
X31284557Y-22705090D01*
X31147517Y-22663520D01*
X31005000Y-22649483D01*
X29955000Y-22649483D01*
X29812483Y-22663520D01*
X29675443Y-22705090D01*
X29549147Y-22772597D01*
X29438446Y-22863446D01*
X29347597Y-22974147D01*
X29280090Y-23100443D01*
X29238520Y-23237483D01*
X29224483Y-23380000D01*
X27809009Y-23380000D01*
X27716036Y-23206061D01*
X27559581Y-23015419D01*
X27368938Y-22858964D01*
X27151437Y-22742707D01*
X26915434Y-22671116D01*
X26670000Y-22646943D01*
X26424565Y-22671116D01*
X26188562Y-22742707D01*
X26034999Y-22824788D01*
X25881437Y-22742707D01*
X25645434Y-22671116D01*
X25400000Y-22646943D01*
X25154565Y-22671116D01*
X24973662Y-22725992D01*
X24934557Y-22705090D01*
X24797517Y-22663520D01*
X24655000Y-22649483D01*
X23605000Y-22649483D01*
X23462483Y-22663520D01*
X23325443Y-22705090D01*
X23199147Y-22772597D01*
X23088446Y-22863446D01*
X22997597Y-22974147D01*
X22930090Y-23100443D01*
X22888520Y-23237483D01*
X22874483Y-23380000D01*
X21459009Y-23380000D01*
X21366036Y-23206061D01*
X21209581Y-23015419D01*
X21018938Y-22858964D01*
X20801437Y-22742707D01*
X20565434Y-22671116D01*
X20320000Y-22646943D01*
X20074565Y-22671116D01*
X19838562Y-22742707D01*
X19684999Y-22824788D01*
X19531437Y-22742707D01*
X19295434Y-22671116D01*
X19050000Y-22646943D01*
X18804565Y-22671116D01*
X18623662Y-22725992D01*
X18584557Y-22705090D01*
X18447517Y-22663520D01*
X18305000Y-22649483D01*
X17255000Y-22649483D01*
X17112483Y-22663520D01*
X16975443Y-22705090D01*
X16849147Y-22772597D01*
X16738446Y-22863446D01*
X16647597Y-22974147D01*
X16580090Y-23100443D01*
X16538520Y-23237483D01*
X16524483Y-23380000D01*
X15109009Y-23380000D01*
X15016036Y-23206061D01*
X14859581Y-23015419D01*
X14668938Y-22858964D01*
X14451437Y-22742707D01*
X14215434Y-22671116D01*
X13970000Y-22646943D01*
X13724565Y-22671116D01*
X13488562Y-22742707D01*
X13334999Y-22824788D01*
X13181437Y-22742707D01*
X12945434Y-22671116D01*
X12700000Y-22646943D01*
X12454565Y-22671116D01*
X12273662Y-22725992D01*
X12234557Y-22705090D01*
X12097517Y-22663520D01*
X11955000Y-22649483D01*
X10905000Y-22649483D01*
X10762483Y-22663520D01*
X10625443Y-22705090D01*
X10499147Y-22772597D01*
X10388446Y-22863446D01*
X10297597Y-22974147D01*
X10230090Y-23100443D01*
X10188520Y-23237483D01*
X10174483Y-23380000D01*
X7112000Y-23380000D01*
X7112000Y-19685000D01*
X7109560Y-19660224D01*
X7102333Y-19636399D01*
X7090597Y-19614443D01*
X7074803Y-19595197D01*
X7055557Y-19579403D01*
X7033601Y-19567667D01*
X7009776Y-19560440D01*
X6985000Y-19558000D01*
X752000Y-19558000D01*
X752000Y-17044679D01*
X3503000Y-17044679D01*
X3503000Y-17355321D01*
X3563604Y-17659994D01*
X3682481Y-17946989D01*
X3855064Y-18205279D01*
X4074721Y-18424936D01*
X4333011Y-18597519D01*
X4620006Y-18716396D01*
X4924679Y-18777000D01*
X5235321Y-18777000D01*
X5539994Y-18716396D01*
X5826989Y-18597519D01*
X6085279Y-18424936D01*
X6304936Y-18205279D01*
X6477519Y-17946989D01*
X6596396Y-17659994D01*
X6657000Y-17355321D01*
X6657000Y-17044679D01*
X10003000Y-17044679D01*
X10003000Y-17355321D01*
X10063604Y-17659994D01*
X10182481Y-17946989D01*
X10355064Y-18205279D01*
X10574721Y-18424936D01*
X10833011Y-18597519D01*
X11120006Y-18716396D01*
X11424679Y-18777000D01*
X11735321Y-18777000D01*
X12039994Y-18716396D01*
X12326989Y-18597519D01*
X12585279Y-18424936D01*
X12804936Y-18205279D01*
X12977519Y-17946989D01*
X13096396Y-17659994D01*
X13157000Y-17355321D01*
X13157000Y-17044679D01*
X14933000Y-17044679D01*
X14933000Y-17355321D01*
X14993604Y-17659994D01*
X15112481Y-17946989D01*
X15285064Y-18205279D01*
X15504721Y-18424936D01*
X15763011Y-18597519D01*
X16050006Y-18716396D01*
X16354679Y-18777000D01*
X16665321Y-18777000D01*
X16969994Y-18716396D01*
X17256989Y-18597519D01*
X17515279Y-18424936D01*
X17734936Y-18205279D01*
X17907519Y-17946989D01*
X18026396Y-17659994D01*
X18087000Y-17355321D01*
X18087000Y-17044679D01*
X21433000Y-17044679D01*
X21433000Y-17355321D01*
X21493604Y-17659994D01*
X21612481Y-17946989D01*
X21785064Y-18205279D01*
X22004721Y-18424936D01*
X22263011Y-18597519D01*
X22550006Y-18716396D01*
X22854679Y-18777000D01*
X23165321Y-18777000D01*
X23469994Y-18716396D01*
X23756989Y-18597519D01*
X24015279Y-18424936D01*
X24234936Y-18205279D01*
X24407519Y-17946989D01*
X24526396Y-17659994D01*
X24587000Y-17355321D01*
X24587000Y-17044679D01*
X26363000Y-17044679D01*
X26363000Y-17355321D01*
X26423604Y-17659994D01*
X26542481Y-17946989D01*
X26715064Y-18205279D01*
X26934721Y-18424936D01*
X27193011Y-18597519D01*
X27480006Y-18716396D01*
X27784679Y-18777000D01*
X28095321Y-18777000D01*
X28399994Y-18716396D01*
X28686989Y-18597519D01*
X28945279Y-18424936D01*
X29164936Y-18205279D01*
X29337519Y-17946989D01*
X29456396Y-17659994D01*
X29517000Y-17355321D01*
X29517000Y-17044679D01*
X32863000Y-17044679D01*
X32863000Y-17355321D01*
X32923604Y-17659994D01*
X33042481Y-17946989D01*
X33215064Y-18205279D01*
X33434721Y-18424936D01*
X33693011Y-18597519D01*
X33980006Y-18716396D01*
X34284679Y-18777000D01*
X34595321Y-18777000D01*
X34899994Y-18716396D01*
X35186989Y-18597519D01*
X35445279Y-18424936D01*
X35664936Y-18205279D01*
X35837519Y-17946989D01*
X35956396Y-17659994D01*
X36017000Y-17355321D01*
X36017000Y-17044679D01*
X37793000Y-17044679D01*
X37793000Y-17355321D01*
X37853604Y-17659994D01*
X37972481Y-17946989D01*
X38145064Y-18205279D01*
X38364721Y-18424936D01*
X38623011Y-18597519D01*
X38910006Y-18716396D01*
X39214679Y-18777000D01*
X39525321Y-18777000D01*
X39829994Y-18716396D01*
X40116989Y-18597519D01*
X40375279Y-18424936D01*
X40594936Y-18205279D01*
X40767519Y-17946989D01*
X40886396Y-17659994D01*
X40947000Y-17355321D01*
X40947000Y-17044679D01*
X44293000Y-17044679D01*
X44293000Y-17355321D01*
X44353604Y-17659994D01*
X44472481Y-17946989D01*
X44645064Y-18205279D01*
X44864721Y-18424936D01*
X45123011Y-18597519D01*
X45410006Y-18716396D01*
X45714679Y-18777000D01*
X46025321Y-18777000D01*
X46329994Y-18716396D01*
X46616989Y-18597519D01*
X46875279Y-18424936D01*
X47094936Y-18205279D01*
X47267519Y-17946989D01*
X47386396Y-17659994D01*
X47447000Y-17355321D01*
X47447000Y-17044679D01*
X47386396Y-16740006D01*
X47267519Y-16453011D01*
X47094936Y-16194721D01*
X46875279Y-15975064D01*
X46616989Y-15802481D01*
X46329994Y-15683604D01*
X46025321Y-15623000D01*
X45714679Y-15623000D01*
X45410006Y-15683604D01*
X45123011Y-15802481D01*
X44864721Y-15975064D01*
X44645064Y-16194721D01*
X44472481Y-16453011D01*
X44353604Y-16740006D01*
X44293000Y-17044679D01*
X40947000Y-17044679D01*
X40886396Y-16740006D01*
X40767519Y-16453011D01*
X40594936Y-16194721D01*
X40375279Y-15975064D01*
X40116989Y-15802481D01*
X39829994Y-15683604D01*
X39525321Y-15623000D01*
X39214679Y-15623000D01*
X38910006Y-15683604D01*
X38623011Y-15802481D01*
X38364721Y-15975064D01*
X38145064Y-16194721D01*
X37972481Y-16453011D01*
X37853604Y-16740006D01*
X37793000Y-17044679D01*
X36017000Y-17044679D01*
X35956396Y-16740006D01*
X35837519Y-16453011D01*
X35664936Y-16194721D01*
X35445279Y-15975064D01*
X35186989Y-15802481D01*
X34899994Y-15683604D01*
X34595321Y-15623000D01*
X34284679Y-15623000D01*
X33980006Y-15683604D01*
X33693011Y-15802481D01*
X33434721Y-15975064D01*
X33215064Y-16194721D01*
X33042481Y-16453011D01*
X32923604Y-16740006D01*
X32863000Y-17044679D01*
X29517000Y-17044679D01*
X29456396Y-16740006D01*
X29337519Y-16453011D01*
X29164936Y-16194721D01*
X28945279Y-15975064D01*
X28686989Y-15802481D01*
X28399994Y-15683604D01*
X28095321Y-15623000D01*
X27784679Y-15623000D01*
X27480006Y-15683604D01*
X27193011Y-15802481D01*
X26934721Y-15975064D01*
X26715064Y-16194721D01*
X26542481Y-16453011D01*
X26423604Y-16740006D01*
X26363000Y-17044679D01*
X24587000Y-17044679D01*
X24526396Y-16740006D01*
X24407519Y-16453011D01*
X24234936Y-16194721D01*
X24015279Y-15975064D01*
X23756989Y-15802481D01*
X23469994Y-15683604D01*
X23165321Y-15623000D01*
X22854679Y-15623000D01*
X22550006Y-15683604D01*
X22263011Y-15802481D01*
X22004721Y-15975064D01*
X21785064Y-16194721D01*
X21612481Y-16453011D01*
X21493604Y-16740006D01*
X21433000Y-17044679D01*
X18087000Y-17044679D01*
X18026396Y-16740006D01*
X17907519Y-16453011D01*
X17734936Y-16194721D01*
X17515279Y-15975064D01*
X17256989Y-15802481D01*
X16969994Y-15683604D01*
X16665321Y-15623000D01*
X16354679Y-15623000D01*
X16050006Y-15683604D01*
X15763011Y-15802481D01*
X15504721Y-15975064D01*
X15285064Y-16194721D01*
X15112481Y-16453011D01*
X14993604Y-16740006D01*
X14933000Y-17044679D01*
X13157000Y-17044679D01*
X13096396Y-16740006D01*
X12977519Y-16453011D01*
X12804936Y-16194721D01*
X12585279Y-15975064D01*
X12326989Y-15802481D01*
X12039994Y-15683604D01*
X11735321Y-15623000D01*
X11424679Y-15623000D01*
X11120006Y-15683604D01*
X10833011Y-15802481D01*
X10574721Y-15975064D01*
X10355064Y-16194721D01*
X10182481Y-16453011D01*
X10063604Y-16740006D01*
X10003000Y-17044679D01*
X6657000Y-17044679D01*
X6596396Y-16740006D01*
X6477519Y-16453011D01*
X6304936Y-16194721D01*
X6085279Y-15975064D01*
X5826989Y-15802481D01*
X5539994Y-15683604D01*
X5235321Y-15623000D01*
X4924679Y-15623000D01*
X4620006Y-15683604D01*
X4333011Y-15802481D01*
X4074721Y-15975064D01*
X3855064Y-16194721D01*
X3682481Y-16453011D01*
X3563604Y-16740006D01*
X3503000Y-17044679D01*
X752000Y-17044679D01*
X752000Y-12544679D01*
X3503000Y-12544679D01*
X3503000Y-12855321D01*
X3563604Y-13159994D01*
X3682481Y-13446989D01*
X3855064Y-13705279D01*
X4074721Y-13924936D01*
X4333011Y-14097519D01*
X4620006Y-14216396D01*
X4924679Y-14277000D01*
X5235321Y-14277000D01*
X5539994Y-14216396D01*
X5826989Y-14097519D01*
X6085279Y-13924936D01*
X6304936Y-13705279D01*
X6477519Y-13446989D01*
X6596396Y-13159994D01*
X6657000Y-12855321D01*
X6657000Y-12544679D01*
X10003000Y-12544679D01*
X10003000Y-12855321D01*
X10063604Y-13159994D01*
X10182481Y-13446989D01*
X10355064Y-13705279D01*
X10574721Y-13924936D01*
X10833011Y-14097519D01*
X11120006Y-14216396D01*
X11424679Y-14277000D01*
X11735321Y-14277000D01*
X12039994Y-14216396D01*
X12326989Y-14097519D01*
X12585279Y-13924936D01*
X12804936Y-13705279D01*
X12977519Y-13446989D01*
X13096396Y-13159994D01*
X13157000Y-12855321D01*
X13157000Y-12544679D01*
X14933000Y-12544679D01*
X14933000Y-12855321D01*
X14993604Y-13159994D01*
X15112481Y-13446989D01*
X15285064Y-13705279D01*
X15504721Y-13924936D01*
X15763011Y-14097519D01*
X16050006Y-14216396D01*
X16354679Y-14277000D01*
X16665321Y-14277000D01*
X16969994Y-14216396D01*
X17256989Y-14097519D01*
X17515279Y-13924936D01*
X17734936Y-13705279D01*
X17907519Y-13446989D01*
X18026396Y-13159994D01*
X18087000Y-12855321D01*
X18087000Y-12544679D01*
X21433000Y-12544679D01*
X21433000Y-12855321D01*
X21493604Y-13159994D01*
X21612481Y-13446989D01*
X21785064Y-13705279D01*
X22004721Y-13924936D01*
X22263011Y-14097519D01*
X22550006Y-14216396D01*
X22854679Y-14277000D01*
X23165321Y-14277000D01*
X23469994Y-14216396D01*
X23756989Y-14097519D01*
X24015279Y-13924936D01*
X24234936Y-13705279D01*
X24407519Y-13446989D01*
X24526396Y-13159994D01*
X24587000Y-12855321D01*
X24587000Y-12544679D01*
X26363000Y-12544679D01*
X26363000Y-12855321D01*
X26423604Y-13159994D01*
X26542481Y-13446989D01*
X26715064Y-13705279D01*
X26934721Y-13924936D01*
X27193011Y-14097519D01*
X27480006Y-14216396D01*
X27784679Y-14277000D01*
X28095321Y-14277000D01*
X28399994Y-14216396D01*
X28686989Y-14097519D01*
X28945279Y-13924936D01*
X29164936Y-13705279D01*
X29337519Y-13446989D01*
X29456396Y-13159994D01*
X29517000Y-12855321D01*
X29517000Y-12544679D01*
X32863000Y-12544679D01*
X32863000Y-12855321D01*
X32923604Y-13159994D01*
X33042481Y-13446989D01*
X33215064Y-13705279D01*
X33434721Y-13924936D01*
X33693011Y-14097519D01*
X33980006Y-14216396D01*
X34284679Y-14277000D01*
X34595321Y-14277000D01*
X34899994Y-14216396D01*
X35186989Y-14097519D01*
X35445279Y-13924936D01*
X35664936Y-13705279D01*
X35837519Y-13446989D01*
X35956396Y-13159994D01*
X36017000Y-12855321D01*
X36017000Y-12544679D01*
X37793000Y-12544679D01*
X37793000Y-12855321D01*
X37853604Y-13159994D01*
X37972481Y-13446989D01*
X38145064Y-13705279D01*
X38364721Y-13924936D01*
X38623011Y-14097519D01*
X38910006Y-14216396D01*
X39214679Y-14277000D01*
X39525321Y-14277000D01*
X39829994Y-14216396D01*
X40116989Y-14097519D01*
X40375279Y-13924936D01*
X40594936Y-13705279D01*
X40767519Y-13446989D01*
X40886396Y-13159994D01*
X40947000Y-12855321D01*
X40947000Y-12544679D01*
X44293000Y-12544679D01*
X44293000Y-12855321D01*
X44353604Y-13159994D01*
X44472481Y-13446989D01*
X44645064Y-13705279D01*
X44864721Y-13924936D01*
X45123011Y-14097519D01*
X45410006Y-14216396D01*
X45714679Y-14277000D01*
X46025321Y-14277000D01*
X46329994Y-14216396D01*
X46616989Y-14097519D01*
X46875279Y-13924936D01*
X47094936Y-13705279D01*
X47267519Y-13446989D01*
X47386396Y-13159994D01*
X47447000Y-12855321D01*
X47447000Y-12544679D01*
X47386396Y-12240006D01*
X47267519Y-11953011D01*
X47094936Y-11694721D01*
X46875279Y-11475064D01*
X46616989Y-11302481D01*
X46329994Y-11183604D01*
X46025321Y-11123000D01*
X45714679Y-11123000D01*
X45410006Y-11183604D01*
X45123011Y-11302481D01*
X44864721Y-11475064D01*
X44645064Y-11694721D01*
X44472481Y-11953011D01*
X44353604Y-12240006D01*
X44293000Y-12544679D01*
X40947000Y-12544679D01*
X40886396Y-12240006D01*
X40767519Y-11953011D01*
X40594936Y-11694721D01*
X40375279Y-11475064D01*
X40116989Y-11302481D01*
X39829994Y-11183604D01*
X39525321Y-11123000D01*
X39214679Y-11123000D01*
X38910006Y-11183604D01*
X38623011Y-11302481D01*
X38364721Y-11475064D01*
X38145064Y-11694721D01*
X37972481Y-11953011D01*
X37853604Y-12240006D01*
X37793000Y-12544679D01*
X36017000Y-12544679D01*
X35956396Y-12240006D01*
X35837519Y-11953011D01*
X35664936Y-11694721D01*
X35445279Y-11475064D01*
X35186989Y-11302481D01*
X34899994Y-11183604D01*
X34595321Y-11123000D01*
X34284679Y-11123000D01*
X33980006Y-11183604D01*
X33693011Y-11302481D01*
X33434721Y-11475064D01*
X33215064Y-11694721D01*
X33042481Y-11953011D01*
X32923604Y-12240006D01*
X32863000Y-12544679D01*
X29517000Y-12544679D01*
X29456396Y-12240006D01*
X29337519Y-11953011D01*
X29164936Y-11694721D01*
X28945279Y-11475064D01*
X28686989Y-11302481D01*
X28399994Y-11183604D01*
X28095321Y-11123000D01*
X27784679Y-11123000D01*
X27480006Y-11183604D01*
X27193011Y-11302481D01*
X26934721Y-11475064D01*
X26715064Y-11694721D01*
X26542481Y-11953011D01*
X26423604Y-12240006D01*
X26363000Y-12544679D01*
X24587000Y-12544679D01*
X24526396Y-12240006D01*
X24407519Y-11953011D01*
X24234936Y-11694721D01*
X24015279Y-11475064D01*
X23756989Y-11302481D01*
X23469994Y-11183604D01*
X23165321Y-11123000D01*
X22854679Y-11123000D01*
X22550006Y-11183604D01*
X22263011Y-11302481D01*
X22004721Y-11475064D01*
X21785064Y-11694721D01*
X21612481Y-11953011D01*
X21493604Y-12240006D01*
X21433000Y-12544679D01*
X18087000Y-12544679D01*
X18026396Y-12240006D01*
X17907519Y-11953011D01*
X17734936Y-11694721D01*
X17515279Y-11475064D01*
X17256989Y-11302481D01*
X16969994Y-11183604D01*
X16665321Y-11123000D01*
X16354679Y-11123000D01*
X16050006Y-11183604D01*
X15763011Y-11302481D01*
X15504721Y-11475064D01*
X15285064Y-11694721D01*
X15112481Y-11953011D01*
X14993604Y-12240006D01*
X14933000Y-12544679D01*
X13157000Y-12544679D01*
X13096396Y-12240006D01*
X12977519Y-11953011D01*
X12804936Y-11694721D01*
X12585279Y-11475064D01*
X12326989Y-11302481D01*
X12039994Y-11183604D01*
X11735321Y-11123000D01*
X11424679Y-11123000D01*
X11120006Y-11183604D01*
X10833011Y-11302481D01*
X10574721Y-11475064D01*
X10355064Y-11694721D01*
X10182481Y-11953011D01*
X10063604Y-12240006D01*
X10003000Y-12544679D01*
X6657000Y-12544679D01*
X6596396Y-12240006D01*
X6477519Y-11953011D01*
X6304936Y-11694721D01*
X6085279Y-11475064D01*
X5826989Y-11302481D01*
X5539994Y-11183604D01*
X5235321Y-11123000D01*
X4924679Y-11123000D01*
X4620006Y-11183604D01*
X4333011Y-11302481D01*
X4074721Y-11475064D01*
X3855064Y-11694721D01*
X3682481Y-11953011D01*
X3563604Y-12240006D01*
X3503000Y-12544679D01*
X752000Y-12544679D01*
X752000Y-8154679D01*
X963000Y-8154679D01*
X963000Y-8465321D01*
X1023604Y-8769994D01*
X1142481Y-9056989D01*
X1315064Y-9315279D01*
X1534721Y-9534936D01*
X1793011Y-9707519D01*
X2080006Y-9826396D01*
X2384679Y-9887000D01*
X2695321Y-9887000D01*
X2999994Y-9826396D01*
X3286989Y-9707519D01*
X3545279Y-9534936D01*
X3764936Y-9315279D01*
X3937519Y-9056989D01*
X4056396Y-8769994D01*
X4117000Y-8465321D01*
X4117000Y-8154679D01*
X7463000Y-8154679D01*
X7463000Y-8465321D01*
X7523604Y-8769994D01*
X7642481Y-9056989D01*
X7815064Y-9315279D01*
X8034721Y-9534936D01*
X8293011Y-9707519D01*
X8580006Y-9826396D01*
X8884679Y-9887000D01*
X9195321Y-9887000D01*
X9499994Y-9826396D01*
X9786989Y-9707519D01*
X10045279Y-9534936D01*
X10264936Y-9315279D01*
X10437519Y-9056989D01*
X10556396Y-8769994D01*
X10617000Y-8465321D01*
X10617000Y-8154679D01*
X12393000Y-8154679D01*
X12393000Y-8465321D01*
X12453604Y-8769994D01*
X12572481Y-9056989D01*
X12745064Y-9315279D01*
X12964721Y-9534936D01*
X13223011Y-9707519D01*
X13510006Y-9826396D01*
X13814679Y-9887000D01*
X14125321Y-9887000D01*
X14429994Y-9826396D01*
X14716989Y-9707519D01*
X14975279Y-9534936D01*
X15194936Y-9315279D01*
X15367519Y-9056989D01*
X15486396Y-8769994D01*
X15547000Y-8465321D01*
X15547000Y-8154679D01*
X18893000Y-8154679D01*
X18893000Y-8465321D01*
X18953604Y-8769994D01*
X19072481Y-9056989D01*
X19245064Y-9315279D01*
X19464721Y-9534936D01*
X19723011Y-9707519D01*
X20010006Y-9826396D01*
X20314679Y-9887000D01*
X20625321Y-9887000D01*
X20929994Y-9826396D01*
X21216989Y-9707519D01*
X21475279Y-9534936D01*
X21694936Y-9315279D01*
X21867519Y-9056989D01*
X21986396Y-8769994D01*
X22047000Y-8465321D01*
X22047000Y-8154679D01*
X23823000Y-8154679D01*
X23823000Y-8465321D01*
X23883604Y-8769994D01*
X24002481Y-9056989D01*
X24175064Y-9315279D01*
X24394721Y-9534936D01*
X24653011Y-9707519D01*
X24940006Y-9826396D01*
X25244679Y-9887000D01*
X25555321Y-9887000D01*
X25859994Y-9826396D01*
X26146989Y-9707519D01*
X26405279Y-9534936D01*
X26624936Y-9315279D01*
X26797519Y-9056989D01*
X26916396Y-8769994D01*
X26977000Y-8465321D01*
X26977000Y-8154679D01*
X30323000Y-8154679D01*
X30323000Y-8465321D01*
X30383604Y-8769994D01*
X30502481Y-9056989D01*
X30675064Y-9315279D01*
X30894721Y-9534936D01*
X31153011Y-9707519D01*
X31440006Y-9826396D01*
X31744679Y-9887000D01*
X32055321Y-9887000D01*
X32359994Y-9826396D01*
X32646989Y-9707519D01*
X32905279Y-9534936D01*
X33124936Y-9315279D01*
X33297519Y-9056989D01*
X33416396Y-8769994D01*
X33477000Y-8465321D01*
X33477000Y-8154679D01*
X35253000Y-8154679D01*
X35253000Y-8465321D01*
X35313604Y-8769994D01*
X35432481Y-9056989D01*
X35605064Y-9315279D01*
X35824721Y-9534936D01*
X36083011Y-9707519D01*
X36370006Y-9826396D01*
X36674679Y-9887000D01*
X36985321Y-9887000D01*
X37289994Y-9826396D01*
X37576989Y-9707519D01*
X37835279Y-9534936D01*
X38054936Y-9315279D01*
X38227519Y-9056989D01*
X38346396Y-8769994D01*
X38407000Y-8465321D01*
X38407000Y-8154679D01*
X41753000Y-8154679D01*
X41753000Y-8465321D01*
X41813604Y-8769994D01*
X41932481Y-9056989D01*
X42105064Y-9315279D01*
X42324721Y-9534936D01*
X42583011Y-9707519D01*
X42870006Y-9826396D01*
X43174679Y-9887000D01*
X43485321Y-9887000D01*
X43789994Y-9826396D01*
X44076989Y-9707519D01*
X44335279Y-9534936D01*
X44554936Y-9315279D01*
X44727519Y-9056989D01*
X44846396Y-8769994D01*
X44907000Y-8465321D01*
X44907000Y-8154679D01*
X44846396Y-7850006D01*
X44727519Y-7563011D01*
X44554936Y-7304721D01*
X44335279Y-7085064D01*
X44076989Y-6912481D01*
X43789994Y-6793604D01*
X43485321Y-6733000D01*
X43174679Y-6733000D01*
X42870006Y-6793604D01*
X42583011Y-6912481D01*
X42324721Y-7085064D01*
X42105064Y-7304721D01*
X41932481Y-7563011D01*
X41813604Y-7850006D01*
X41753000Y-8154679D01*
X38407000Y-8154679D01*
X38346396Y-7850006D01*
X38227519Y-7563011D01*
X38054936Y-7304721D01*
X37835279Y-7085064D01*
X37576989Y-6912481D01*
X37289994Y-6793604D01*
X36985321Y-6733000D01*
X36674679Y-6733000D01*
X36370006Y-6793604D01*
X36083011Y-6912481D01*
X35824721Y-7085064D01*
X35605064Y-7304721D01*
X35432481Y-7563011D01*
X35313604Y-7850006D01*
X35253000Y-8154679D01*
X33477000Y-8154679D01*
X33416396Y-7850006D01*
X33297519Y-7563011D01*
X33124936Y-7304721D01*
X32905279Y-7085064D01*
X32646989Y-6912481D01*
X32359994Y-6793604D01*
X32055321Y-6733000D01*
X31744679Y-6733000D01*
X31440006Y-6793604D01*
X31153011Y-6912481D01*
X30894721Y-7085064D01*
X30675064Y-7304721D01*
X30502481Y-7563011D01*
X30383604Y-7850006D01*
X30323000Y-8154679D01*
X26977000Y-8154679D01*
X26916396Y-7850006D01*
X26797519Y-7563011D01*
X26624936Y-7304721D01*
X26405279Y-7085064D01*
X26146989Y-6912481D01*
X25859994Y-6793604D01*
X25555321Y-6733000D01*
X25244679Y-6733000D01*
X24940006Y-6793604D01*
X24653011Y-6912481D01*
X24394721Y-7085064D01*
X24175064Y-7304721D01*
X24002481Y-7563011D01*
X23883604Y-7850006D01*
X23823000Y-8154679D01*
X22047000Y-8154679D01*
X21986396Y-7850006D01*
X21867519Y-7563011D01*
X21694936Y-7304721D01*
X21475279Y-7085064D01*
X21216989Y-6912481D01*
X20929994Y-6793604D01*
X20625321Y-6733000D01*
X20314679Y-6733000D01*
X20010006Y-6793604D01*
X19723011Y-6912481D01*
X19464721Y-7085064D01*
X19245064Y-7304721D01*
X19072481Y-7563011D01*
X18953604Y-7850006D01*
X18893000Y-8154679D01*
X15547000Y-8154679D01*
X15486396Y-7850006D01*
X15367519Y-7563011D01*
X15194936Y-7304721D01*
X14975279Y-7085064D01*
X14716989Y-6912481D01*
X14429994Y-6793604D01*
X14125321Y-6733000D01*
X13814679Y-6733000D01*
X13510006Y-6793604D01*
X13223011Y-6912481D01*
X12964721Y-7085064D01*
X12745064Y-7304721D01*
X12572481Y-7563011D01*
X12453604Y-7850006D01*
X12393000Y-8154679D01*
X10617000Y-8154679D01*
X10556396Y-7850006D01*
X10437519Y-7563011D01*
X10264936Y-7304721D01*
X10045279Y-7085064D01*
X9786989Y-6912481D01*
X9499994Y-6793604D01*
X9195321Y-6733000D01*
X8884679Y-6733000D01*
X8580006Y-6793604D01*
X8293011Y-6912481D01*
X8034721Y-7085064D01*
X7815064Y-7304721D01*
X7642481Y-7563011D01*
X7523604Y-7850006D01*
X7463000Y-8154679D01*
X4117000Y-8154679D01*
X4056396Y-7850006D01*
X3937519Y-7563011D01*
X3764936Y-7304721D01*
X3545279Y-7085064D01*
X3286989Y-6912481D01*
X2999994Y-6793604D01*
X2695321Y-6733000D01*
X2384679Y-6733000D01*
X2080006Y-6793604D01*
X1793011Y-6912481D01*
X1534721Y-7085064D01*
X1315064Y-7304721D01*
X1142481Y-7563011D01*
X1023604Y-7850006D01*
X963000Y-8154679D01*
X752000Y-8154679D01*
X752000Y-3654679D01*
X963000Y-3654679D01*
X963000Y-3965321D01*
X1023604Y-4269994D01*
X1142481Y-4556989D01*
X1315064Y-4815279D01*
X1534721Y-5034936D01*
X1793011Y-5207519D01*
X2080006Y-5326396D01*
X2384679Y-5387000D01*
X2695321Y-5387000D01*
X2999994Y-5326396D01*
X3286989Y-5207519D01*
X3545279Y-5034936D01*
X3764936Y-4815279D01*
X3937519Y-4556989D01*
X4056396Y-4269994D01*
X4117000Y-3965321D01*
X4117000Y-3654679D01*
X7463000Y-3654679D01*
X7463000Y-3965321D01*
X7523604Y-4269994D01*
X7642481Y-4556989D01*
X7815064Y-4815279D01*
X8034721Y-5034936D01*
X8293011Y-5207519D01*
X8580006Y-5326396D01*
X8884679Y-5387000D01*
X9195321Y-5387000D01*
X9499994Y-5326396D01*
X9786989Y-5207519D01*
X10045279Y-5034936D01*
X10264936Y-4815279D01*
X10437519Y-4556989D01*
X10556396Y-4269994D01*
X10617000Y-3965321D01*
X10617000Y-3654679D01*
X12393000Y-3654679D01*
X12393000Y-3965321D01*
X12453604Y-4269994D01*
X12572481Y-4556989D01*
X12745064Y-4815279D01*
X12964721Y-5034936D01*
X13223011Y-5207519D01*
X13510006Y-5326396D01*
X13814679Y-5387000D01*
X14125321Y-5387000D01*
X14429994Y-5326396D01*
X14716989Y-5207519D01*
X14975279Y-5034936D01*
X15194936Y-4815279D01*
X15367519Y-4556989D01*
X15486396Y-4269994D01*
X15547000Y-3965321D01*
X15547000Y-3654679D01*
X18893000Y-3654679D01*
X18893000Y-3965321D01*
X18953604Y-4269994D01*
X19072481Y-4556989D01*
X19245064Y-4815279D01*
X19464721Y-5034936D01*
X19723011Y-5207519D01*
X20010006Y-5326396D01*
X20314679Y-5387000D01*
X20625321Y-5387000D01*
X20929994Y-5326396D01*
X21216989Y-5207519D01*
X21475279Y-5034936D01*
X21694936Y-4815279D01*
X21867519Y-4556989D01*
X21986396Y-4269994D01*
X22047000Y-3965321D01*
X22047000Y-3654679D01*
X23823000Y-3654679D01*
X23823000Y-3965321D01*
X23883604Y-4269994D01*
X24002481Y-4556989D01*
X24175064Y-4815279D01*
X24394721Y-5034936D01*
X24653011Y-5207519D01*
X24940006Y-5326396D01*
X25244679Y-5387000D01*
X25555321Y-5387000D01*
X25859994Y-5326396D01*
X26146989Y-5207519D01*
X26405279Y-5034936D01*
X26624936Y-4815279D01*
X26797519Y-4556989D01*
X26916396Y-4269994D01*
X26977000Y-3965321D01*
X26977000Y-3654679D01*
X30323000Y-3654679D01*
X30323000Y-3965321D01*
X30383604Y-4269994D01*
X30502481Y-4556989D01*
X30675064Y-4815279D01*
X30894721Y-5034936D01*
X31153011Y-5207519D01*
X31440006Y-5326396D01*
X31744679Y-5387000D01*
X32055321Y-5387000D01*
X32359994Y-5326396D01*
X32646989Y-5207519D01*
X32905279Y-5034936D01*
X33124936Y-4815279D01*
X33297519Y-4556989D01*
X33416396Y-4269994D01*
X33477000Y-3965321D01*
X33477000Y-3654679D01*
X35253000Y-3654679D01*
X35253000Y-3965321D01*
X35313604Y-4269994D01*
X35432481Y-4556989D01*
X35605064Y-4815279D01*
X35824721Y-5034936D01*
X36083011Y-5207519D01*
X36370006Y-5326396D01*
X36674679Y-5387000D01*
X36985321Y-5387000D01*
X37289994Y-5326396D01*
X37576989Y-5207519D01*
X37835279Y-5034936D01*
X38054936Y-4815279D01*
X38227519Y-4556989D01*
X38346396Y-4269994D01*
X38407000Y-3965321D01*
X38407000Y-3654679D01*
X38346396Y-3350006D01*
X38227519Y-3063011D01*
X38054936Y-2804721D01*
X37835279Y-2585064D01*
X37576989Y-2412481D01*
X37289994Y-2293604D01*
X36985321Y-2233000D01*
X36674679Y-2233000D01*
X36370006Y-2293604D01*
X36083011Y-2412481D01*
X35824721Y-2585064D01*
X35605064Y-2804721D01*
X35432481Y-3063011D01*
X35313604Y-3350006D01*
X35253000Y-3654679D01*
X33477000Y-3654679D01*
X33416396Y-3350006D01*
X33297519Y-3063011D01*
X33124936Y-2804721D01*
X32905279Y-2585064D01*
X32646989Y-2412481D01*
X32359994Y-2293604D01*
X32055321Y-2233000D01*
X31744679Y-2233000D01*
X31440006Y-2293604D01*
X31153011Y-2412481D01*
X30894721Y-2585064D01*
X30675064Y-2804721D01*
X30502481Y-3063011D01*
X30383604Y-3350006D01*
X30323000Y-3654679D01*
X26977000Y-3654679D01*
X26916396Y-3350006D01*
X26797519Y-3063011D01*
X26624936Y-2804721D01*
X26405279Y-2585064D01*
X26146989Y-2412481D01*
X25859994Y-2293604D01*
X25555321Y-2233000D01*
X25244679Y-2233000D01*
X24940006Y-2293604D01*
X24653011Y-2412481D01*
X24394721Y-2585064D01*
X24175064Y-2804721D01*
X24002481Y-3063011D01*
X23883604Y-3350006D01*
X23823000Y-3654679D01*
X22047000Y-3654679D01*
X21986396Y-3350006D01*
X21867519Y-3063011D01*
X21694936Y-2804721D01*
X21475279Y-2585064D01*
X21216989Y-2412481D01*
X20929994Y-2293604D01*
X20625321Y-2233000D01*
X20314679Y-2233000D01*
X20010006Y-2293604D01*
X19723011Y-2412481D01*
X19464721Y-2585064D01*
X19245064Y-2804721D01*
X19072481Y-3063011D01*
X18953604Y-3350006D01*
X18893000Y-3654679D01*
X15547000Y-3654679D01*
X15486396Y-3350006D01*
X15367519Y-3063011D01*
X15194936Y-2804721D01*
X14975279Y-2585064D01*
X14716989Y-2412481D01*
X14429994Y-2293604D01*
X14125321Y-2233000D01*
X13814679Y-2233000D01*
X13510006Y-2293604D01*
X13223011Y-2412481D01*
X12964721Y-2585064D01*
X12745064Y-2804721D01*
X12572481Y-3063011D01*
X12453604Y-3350006D01*
X12393000Y-3654679D01*
X10617000Y-3654679D01*
X10556396Y-3350006D01*
X10437519Y-3063011D01*
X10264936Y-2804721D01*
X10045279Y-2585064D01*
X9786989Y-2412481D01*
X9499994Y-2293604D01*
X9195321Y-2233000D01*
X8884679Y-2233000D01*
X8580006Y-2293604D01*
X8293011Y-2412481D01*
X8034721Y-2585064D01*
X7815064Y-2804721D01*
X7642481Y-3063011D01*
X7523604Y-3350006D01*
X7463000Y-3654679D01*
X4117000Y-3654679D01*
X4056396Y-3350006D01*
X3937519Y-3063011D01*
X3764936Y-2804721D01*
X3545279Y-2585064D01*
X3286989Y-2412481D01*
X2999994Y-2293604D01*
X2695321Y-2233000D01*
X2384679Y-2233000D01*
X2080006Y-2293604D01*
X1793011Y-2412481D01*
X1534721Y-2585064D01*
X1315064Y-2804721D01*
X1142481Y-3063011D01*
X1023604Y-3350006D01*
X963000Y-3654679D01*
X752000Y-3654679D01*
X752000Y-752000D01*
X44323000Y-752000D01*
X44323000Y-2576859D01*
X44323000Y-2576859D01*
G37*
X44323000Y-2576859D02*
X44076989Y-2412481D01*
X43789994Y-2293604D01*
X43485321Y-2233000D01*
X43174679Y-2233000D01*
X42870006Y-2293604D01*
X42583011Y-2412481D01*
X42324721Y-2585064D01*
X42105064Y-2804721D01*
X41932481Y-3063011D01*
X41813604Y-3350006D01*
X41753000Y-3654679D01*
X41753000Y-3965321D01*
X41813604Y-4269994D01*
X41932481Y-4556989D01*
X42105064Y-4815279D01*
X42324721Y-5034936D01*
X42583011Y-5207519D01*
X42870006Y-5326396D01*
X43174679Y-5387000D01*
X43485321Y-5387000D01*
X43789994Y-5326396D01*
X44076989Y-5207519D01*
X44323000Y-5043141D01*
X44323000Y-5080000D01*
X44325440Y-5104776D01*
X44332667Y-5128601D01*
X44344403Y-5150557D01*
X44360197Y-5169803D01*
X44379443Y-5185597D01*
X44401399Y-5197333D01*
X44425224Y-5204560D01*
X44450000Y-5207000D01*
X48778000Y-5207000D01*
X48778001Y-40513000D01*
X44450000Y-40513000D01*
X44425224Y-40515440D01*
X44401399Y-40522667D01*
X44379443Y-40534403D01*
X44360197Y-40550197D01*
X44344403Y-40569443D01*
X44332667Y-40591399D01*
X44325440Y-40615224D01*
X44323000Y-40640000D01*
X44323000Y-44968000D01*
X752000Y-44968000D01*
X752000Y-43401653D01*
X2497952Y-43401653D01*
X2653962Y-43717214D01*
X3028745Y-43908020D01*
X3433551Y-44022044D01*
X3852824Y-44054902D01*
X4270451Y-44005334D01*
X4670383Y-43875243D01*
X4966038Y-43717214D01*
X5122048Y-43401653D01*
X3810000Y-42089605D01*
X2497952Y-43401653D01*
X752000Y-43401653D01*
X752000Y-41952824D01*
X1665098Y-41952824D01*
X1714666Y-42370451D01*
X1844757Y-42770383D01*
X2002786Y-43066038D01*
X2318347Y-43222048D01*
X3630395Y-41910000D01*
X3989605Y-41910000D01*
X5301653Y-43222048D01*
X5617214Y-43066038D01*
X5741098Y-42822702D01*
X9346903Y-42822702D01*
X9418486Y-43066671D01*
X9673996Y-43187571D01*
X9948184Y-43256300D01*
X10230512Y-43270217D01*
X10510130Y-43228787D01*
X10776292Y-43133603D01*
X10901514Y-43066671D01*
X10973097Y-42822702D01*
X10160000Y-42009605D01*
X9346903Y-42822702D01*
X5741098Y-42822702D01*
X5808020Y-42691255D01*
X5922044Y-42286449D01*
X5952289Y-41900512D01*
X8719783Y-41900512D01*
X8761213Y-42180130D01*
X8856397Y-42446292D01*
X8923329Y-42571514D01*
X9167298Y-42643097D01*
X9980395Y-41830000D01*
X10339605Y-41830000D01*
X11152702Y-42643097D01*
X11396671Y-42571514D01*
X11517571Y-42316004D01*
X11586300Y-42041816D01*
X11600217Y-41759488D01*
X11567697Y-41540000D01*
X14971928Y-41540000D01*
X14984188Y-41664482D01*
X15020498Y-41784180D01*
X15079463Y-41894494D01*
X15158815Y-41991185D01*
X15255506Y-42070537D01*
X15365820Y-42129502D01*
X15485518Y-42165812D01*
X15610000Y-42178072D01*
X16224250Y-42175000D01*
X16383000Y-42016250D01*
X16383000Y-40767000D01*
X15133750Y-40767000D01*
X14975000Y-40925750D01*
X14971928Y-41540000D01*
X11567697Y-41540000D01*
X11558787Y-41479870D01*
X11463603Y-41213708D01*
X11396671Y-41088486D01*
X11152702Y-41016903D01*
X10339605Y-41830000D01*
X9980395Y-41830000D01*
X9167298Y-41016903D01*
X8923329Y-41088486D01*
X8802429Y-41343996D01*
X8733700Y-41618184D01*
X8719783Y-41900512D01*
X5952289Y-41900512D01*
X5954902Y-41867176D01*
X5905334Y-41449549D01*
X5775243Y-41049617D01*
X5661758Y-40837298D01*
X9346903Y-40837298D01*
X10160000Y-41650395D01*
X10973097Y-40837298D01*
X10901514Y-40593329D01*
X10646004Y-40472429D01*
X10371816Y-40403700D01*
X10089488Y-40389783D01*
X9809870Y-40431213D01*
X9543708Y-40526397D01*
X9418486Y-40593329D01*
X9346903Y-40837298D01*
X5661758Y-40837298D01*
X5617214Y-40753962D01*
X5301653Y-40597952D01*
X3989605Y-41910000D01*
X3630395Y-41910000D01*
X2318347Y-40597952D01*
X2002786Y-40753962D01*
X1811980Y-41128745D01*
X1697956Y-41533551D01*
X1665098Y-41952824D01*
X752000Y-41952824D01*
X752000Y-40418347D01*
X2497952Y-40418347D01*
X3810000Y-41730395D01*
X5122048Y-40418347D01*
X4966038Y-40102786D01*
X4591255Y-39911980D01*
X4186449Y-39797956D01*
X3767176Y-39765098D01*
X3349549Y-39814666D01*
X2949617Y-39944757D01*
X2653962Y-40102786D01*
X2497952Y-40418347D01*
X752000Y-40418347D01*
X752000Y-39740000D01*
X14971928Y-39740000D01*
X14975000Y-40354250D01*
X15133750Y-40513000D01*
X16383000Y-40513000D01*
X16383000Y-39263750D01*
X16637000Y-39263750D01*
X16637000Y-40513000D01*
X16657000Y-40513000D01*
X16657000Y-40767000D01*
X16637000Y-40767000D01*
X16637000Y-42016250D01*
X16795750Y-42175000D01*
X17410000Y-42178072D01*
X17534482Y-42165812D01*
X17654180Y-42129502D01*
X17764494Y-42070537D01*
X17861185Y-41991185D01*
X17940537Y-41894494D01*
X17962493Y-41853418D01*
X18012848Y-41903773D01*
X18279327Y-42081828D01*
X18575422Y-42204475D01*
X18889755Y-42267000D01*
X19210245Y-42267000D01*
X19524578Y-42204475D01*
X19820673Y-42081828D01*
X20087152Y-41903773D01*
X20313773Y-41677152D01*
X20405414Y-41540000D01*
X22591928Y-41540000D01*
X22604188Y-41664482D01*
X22640498Y-41784180D01*
X22699463Y-41894494D01*
X22778815Y-41991185D01*
X22875506Y-42070537D01*
X22985820Y-42129502D01*
X23105518Y-42165812D01*
X23230000Y-42178072D01*
X23844250Y-42175000D01*
X24003000Y-42016250D01*
X24003000Y-40767000D01*
X22753750Y-40767000D01*
X22595000Y-40925750D01*
X22591928Y-41540000D01*
X20405414Y-41540000D01*
X20491828Y-41410673D01*
X20614475Y-41114578D01*
X20677000Y-40800245D01*
X20677000Y-40479755D01*
X20614475Y-40165422D01*
X20491828Y-39869327D01*
X20405415Y-39740000D01*
X22591928Y-39740000D01*
X22595000Y-40354250D01*
X22753750Y-40513000D01*
X24003000Y-40513000D01*
X24003000Y-39263750D01*
X24257000Y-39263750D01*
X24257000Y-40513000D01*
X24277000Y-40513000D01*
X24277000Y-40767000D01*
X24257000Y-40767000D01*
X24257000Y-42016250D01*
X24415750Y-42175000D01*
X25030000Y-42178072D01*
X25154482Y-42165812D01*
X25274180Y-42129502D01*
X25384494Y-42070537D01*
X25481185Y-41991185D01*
X25560537Y-41894494D01*
X25582493Y-41853418D01*
X25632848Y-41903773D01*
X25899327Y-42081828D01*
X26195422Y-42204475D01*
X26509755Y-42267000D01*
X26830245Y-42267000D01*
X27144578Y-42204475D01*
X27440673Y-42081828D01*
X27707152Y-41903773D01*
X27933773Y-41677152D01*
X28025414Y-41540000D01*
X30211928Y-41540000D01*
X30224188Y-41664482D01*
X30260498Y-41784180D01*
X30319463Y-41894494D01*
X30398815Y-41991185D01*
X30495506Y-42070537D01*
X30605820Y-42129502D01*
X30725518Y-42165812D01*
X30850000Y-42178072D01*
X31464250Y-42175000D01*
X31623000Y-42016250D01*
X31623000Y-40767000D01*
X30373750Y-40767000D01*
X30215000Y-40925750D01*
X30211928Y-41540000D01*
X28025414Y-41540000D01*
X28111828Y-41410673D01*
X28234475Y-41114578D01*
X28297000Y-40800245D01*
X28297000Y-40479755D01*
X28234475Y-40165422D01*
X28111828Y-39869327D01*
X28025415Y-39740000D01*
X30211928Y-39740000D01*
X30215000Y-40354250D01*
X30373750Y-40513000D01*
X31623000Y-40513000D01*
X31623000Y-39263750D01*
X31877000Y-39263750D01*
X31877000Y-40513000D01*
X31897000Y-40513000D01*
X31897000Y-40767000D01*
X31877000Y-40767000D01*
X31877000Y-42016250D01*
X32035750Y-42175000D01*
X32650000Y-42178072D01*
X32774482Y-42165812D01*
X32894180Y-42129502D01*
X33004494Y-42070537D01*
X33101185Y-41991185D01*
X33180537Y-41894494D01*
X33202493Y-41853418D01*
X33252848Y-41903773D01*
X33519327Y-42081828D01*
X33815422Y-42204475D01*
X34129755Y-42267000D01*
X34450245Y-42267000D01*
X34764578Y-42204475D01*
X35060673Y-42081828D01*
X35327152Y-41903773D01*
X35553773Y-41677152D01*
X35645414Y-41540000D01*
X37831928Y-41540000D01*
X37844188Y-41664482D01*
X37880498Y-41784180D01*
X37939463Y-41894494D01*
X38018815Y-41991185D01*
X38115506Y-42070537D01*
X38225820Y-42129502D01*
X38345518Y-42165812D01*
X38470000Y-42178072D01*
X39084250Y-42175000D01*
X39243000Y-42016250D01*
X39243000Y-40767000D01*
X37993750Y-40767000D01*
X37835000Y-40925750D01*
X37831928Y-41540000D01*
X35645414Y-41540000D01*
X35731828Y-41410673D01*
X35854475Y-41114578D01*
X35917000Y-40800245D01*
X35917000Y-40479755D01*
X35854475Y-40165422D01*
X35731828Y-39869327D01*
X35645415Y-39740000D01*
X37831928Y-39740000D01*
X37835000Y-40354250D01*
X37993750Y-40513000D01*
X39243000Y-40513000D01*
X39243000Y-39263750D01*
X39497000Y-39263750D01*
X39497000Y-40513000D01*
X39517000Y-40513000D01*
X39517000Y-40767000D01*
X39497000Y-40767000D01*
X39497000Y-42016250D01*
X39655750Y-42175000D01*
X40270000Y-42178072D01*
X40394482Y-42165812D01*
X40514180Y-42129502D01*
X40624494Y-42070537D01*
X40721185Y-41991185D01*
X40800537Y-41894494D01*
X40822493Y-41853418D01*
X40872848Y-41903773D01*
X41139327Y-42081828D01*
X41435422Y-42204475D01*
X41749755Y-42267000D01*
X42070245Y-42267000D01*
X42384578Y-42204475D01*
X42680673Y-42081828D01*
X42947152Y-41903773D01*
X43173773Y-41677152D01*
X43351828Y-41410673D01*
X43474475Y-41114578D01*
X43537000Y-40800245D01*
X43537000Y-40479755D01*
X43474475Y-40165422D01*
X43351828Y-39869327D01*
X43173773Y-39602848D01*
X42947152Y-39376227D01*
X42680673Y-39198172D01*
X42384578Y-39075525D01*
X42070245Y-39013000D01*
X41749755Y-39013000D01*
X41435422Y-39075525D01*
X41139327Y-39198172D01*
X40872848Y-39376227D01*
X40822493Y-39426582D01*
X40800537Y-39385506D01*
X40721185Y-39288815D01*
X40624494Y-39209463D01*
X40514180Y-39150498D01*
X40394482Y-39114188D01*
X40270000Y-39101928D01*
X39655750Y-39105000D01*
X39497000Y-39263750D01*
X39243000Y-39263750D01*
X39084250Y-39105000D01*
X38470000Y-39101928D01*
X38345518Y-39114188D01*
X38225820Y-39150498D01*
X38115506Y-39209463D01*
X38018815Y-39288815D01*
X37939463Y-39385506D01*
X37880498Y-39495820D01*
X37844188Y-39615518D01*
X37831928Y-39740000D01*
X35645415Y-39740000D01*
X35553773Y-39602848D01*
X35327152Y-39376227D01*
X35060673Y-39198172D01*
X34764578Y-39075525D01*
X34450245Y-39013000D01*
X34129755Y-39013000D01*
X33815422Y-39075525D01*
X33519327Y-39198172D01*
X33252848Y-39376227D01*
X33202493Y-39426582D01*
X33180537Y-39385506D01*
X33101185Y-39288815D01*
X33004494Y-39209463D01*
X32894180Y-39150498D01*
X32774482Y-39114188D01*
X32650000Y-39101928D01*
X32035750Y-39105000D01*
X31877000Y-39263750D01*
X31623000Y-39263750D01*
X31464250Y-39105000D01*
X30850000Y-39101928D01*
X30725518Y-39114188D01*
X30605820Y-39150498D01*
X30495506Y-39209463D01*
X30398815Y-39288815D01*
X30319463Y-39385506D01*
X30260498Y-39495820D01*
X30224188Y-39615518D01*
X30211928Y-39740000D01*
X28025415Y-39740000D01*
X27933773Y-39602848D01*
X27707152Y-39376227D01*
X27440673Y-39198172D01*
X27144578Y-39075525D01*
X26830245Y-39013000D01*
X26509755Y-39013000D01*
X26195422Y-39075525D01*
X25899327Y-39198172D01*
X25632848Y-39376227D01*
X25582493Y-39426582D01*
X25560537Y-39385506D01*
X25481185Y-39288815D01*
X25384494Y-39209463D01*
X25274180Y-39150498D01*
X25154482Y-39114188D01*
X25030000Y-39101928D01*
X24415750Y-39105000D01*
X24257000Y-39263750D01*
X24003000Y-39263750D01*
X23844250Y-39105000D01*
X23230000Y-39101928D01*
X23105518Y-39114188D01*
X22985820Y-39150498D01*
X22875506Y-39209463D01*
X22778815Y-39288815D01*
X22699463Y-39385506D01*
X22640498Y-39495820D01*
X22604188Y-39615518D01*
X22591928Y-39740000D01*
X20405415Y-39740000D01*
X20313773Y-39602848D01*
X20087152Y-39376227D01*
X19820673Y-39198172D01*
X19524578Y-39075525D01*
X19210245Y-39013000D01*
X18889755Y-39013000D01*
X18575422Y-39075525D01*
X18279327Y-39198172D01*
X18012848Y-39376227D01*
X17962493Y-39426582D01*
X17940537Y-39385506D01*
X17861185Y-39288815D01*
X17764494Y-39209463D01*
X17654180Y-39150498D01*
X17534482Y-39114188D01*
X17410000Y-39101928D01*
X16795750Y-39105000D01*
X16637000Y-39263750D01*
X16383000Y-39263750D01*
X16224250Y-39105000D01*
X15610000Y-39101928D01*
X15485518Y-39114188D01*
X15365820Y-39150498D01*
X15255506Y-39209463D01*
X15158815Y-39288815D01*
X15079463Y-39385506D01*
X15020498Y-39495820D01*
X14984188Y-39615518D01*
X14971928Y-39740000D01*
X752000Y-39740000D01*
X752000Y-35330000D01*
X1579483Y-35330000D01*
X1579483Y-38330000D01*
X1593520Y-38472517D01*
X1635090Y-38609557D01*
X1702597Y-38735853D01*
X1793446Y-38846554D01*
X1904147Y-38937403D01*
X2030443Y-39004910D01*
X2167483Y-39046480D01*
X2310000Y-39060517D01*
X5310000Y-39060517D01*
X5452517Y-39046480D01*
X5589557Y-39004910D01*
X5715853Y-38937403D01*
X5826554Y-38846554D01*
X5917403Y-38735853D01*
X5984910Y-38609557D01*
X6026480Y-38472517D01*
X6040517Y-38330000D01*
X6040517Y-36679604D01*
X8633000Y-36679604D01*
X8633000Y-36980396D01*
X8691681Y-37275410D01*
X8806790Y-37553306D01*
X8973901Y-37803406D01*
X9186594Y-38016099D01*
X9436694Y-38183210D01*
X9714590Y-38298319D01*
X10009604Y-38357000D01*
X10310396Y-38357000D01*
X10605410Y-38298319D01*
X10883306Y-38183210D01*
X11133406Y-38016099D01*
X11346099Y-37803406D01*
X11513210Y-37553306D01*
X11628319Y-37275410D01*
X11687000Y-36980396D01*
X11687000Y-36679604D01*
X11628319Y-36384590D01*
X11513210Y-36106694D01*
X11346099Y-35856594D01*
X11133406Y-35643901D01*
X10883306Y-35476790D01*
X10605410Y-35361681D01*
X10310396Y-35303000D01*
X10009604Y-35303000D01*
X9714590Y-35361681D01*
X9436694Y-35476790D01*
X9186594Y-35643901D01*
X8973901Y-35856594D01*
X8806790Y-36106694D01*
X8691681Y-36384590D01*
X8633000Y-36679604D01*
X6040517Y-36679604D01*
X6040517Y-35330000D01*
X6026480Y-35187483D01*
X5984910Y-35050443D01*
X5917403Y-34924147D01*
X5826554Y-34813446D01*
X5715853Y-34722597D01*
X5589557Y-34655090D01*
X5452517Y-34613520D01*
X5310000Y-34599483D01*
X2310000Y-34599483D01*
X2167483Y-34613520D01*
X2030443Y-34655090D01*
X1904147Y-34722597D01*
X1793446Y-34813446D01*
X1702597Y-34924147D01*
X1635090Y-35050443D01*
X1593520Y-35187483D01*
X1579483Y-35330000D01*
X752000Y-35330000D01*
X752000Y-33920000D01*
X12431928Y-33920000D01*
X12444188Y-34044482D01*
X12480498Y-34164180D01*
X12539463Y-34274494D01*
X12618815Y-34371185D01*
X12715506Y-34450537D01*
X12825820Y-34509502D01*
X12945518Y-34545812D01*
X13070000Y-34558072D01*
X13684250Y-34555000D01*
X13843000Y-34396250D01*
X13843000Y-33147000D01*
X12593750Y-33147000D01*
X12435000Y-33305750D01*
X12431928Y-33920000D01*
X752000Y-33920000D01*
X752000Y-32120000D01*
X12431928Y-32120000D01*
X12435000Y-32734250D01*
X12593750Y-32893000D01*
X13843000Y-32893000D01*
X13843000Y-31643750D01*
X14097000Y-31643750D01*
X14097000Y-32893000D01*
X14117000Y-32893000D01*
X14117000Y-33147000D01*
X14097000Y-33147000D01*
X14097000Y-34396250D01*
X14255750Y-34555000D01*
X14870000Y-34558072D01*
X14994482Y-34545812D01*
X15114180Y-34509502D01*
X15224494Y-34450537D01*
X15321185Y-34371185D01*
X15400537Y-34274494D01*
X15422493Y-34233418D01*
X15472848Y-34283773D01*
X15739327Y-34461828D01*
X16035422Y-34584475D01*
X16349755Y-34647000D01*
X16670245Y-34647000D01*
X16984578Y-34584475D01*
X17280673Y-34461828D01*
X17547152Y-34283773D01*
X17773773Y-34057152D01*
X17865414Y-33920000D01*
X20051928Y-33920000D01*
X20064188Y-34044482D01*
X20100498Y-34164180D01*
X20159463Y-34274494D01*
X20238815Y-34371185D01*
X20335506Y-34450537D01*
X20445820Y-34509502D01*
X20565518Y-34545812D01*
X20690000Y-34558072D01*
X21304250Y-34555000D01*
X21463000Y-34396250D01*
X21463000Y-33147000D01*
X20213750Y-33147000D01*
X20055000Y-33305750D01*
X20051928Y-33920000D01*
X17865414Y-33920000D01*
X17951828Y-33790673D01*
X18074475Y-33494578D01*
X18137000Y-33180245D01*
X18137000Y-32859755D01*
X18074475Y-32545422D01*
X17951828Y-32249327D01*
X17865415Y-32120000D01*
X20051928Y-32120000D01*
X20055000Y-32734250D01*
X20213750Y-32893000D01*
X21463000Y-32893000D01*
X21463000Y-31643750D01*
X21717000Y-31643750D01*
X21717000Y-32893000D01*
X21737000Y-32893000D01*
X21737000Y-33147000D01*
X21717000Y-33147000D01*
X21717000Y-34396250D01*
X21875750Y-34555000D01*
X22490000Y-34558072D01*
X22614482Y-34545812D01*
X22734180Y-34509502D01*
X22844494Y-34450537D01*
X22941185Y-34371185D01*
X23020537Y-34274494D01*
X23042493Y-34233418D01*
X23092848Y-34283773D01*
X23359327Y-34461828D01*
X23655422Y-34584475D01*
X23969755Y-34647000D01*
X24290245Y-34647000D01*
X24604578Y-34584475D01*
X24900673Y-34461828D01*
X25167152Y-34283773D01*
X25393773Y-34057152D01*
X25485414Y-33920000D01*
X27671928Y-33920000D01*
X27684188Y-34044482D01*
X27720498Y-34164180D01*
X27779463Y-34274494D01*
X27858815Y-34371185D01*
X27955506Y-34450537D01*
X28065820Y-34509502D01*
X28185518Y-34545812D01*
X28310000Y-34558072D01*
X28924250Y-34555000D01*
X29083000Y-34396250D01*
X29083000Y-33147000D01*
X27833750Y-33147000D01*
X27675000Y-33305750D01*
X27671928Y-33920000D01*
X25485414Y-33920000D01*
X25571828Y-33790673D01*
X25694475Y-33494578D01*
X25757000Y-33180245D01*
X25757000Y-32859755D01*
X25694475Y-32545422D01*
X25571828Y-32249327D01*
X25485415Y-32120000D01*
X27671928Y-32120000D01*
X27675000Y-32734250D01*
X27833750Y-32893000D01*
X29083000Y-32893000D01*
X29083000Y-31643750D01*
X29337000Y-31643750D01*
X29337000Y-32893000D01*
X29357000Y-32893000D01*
X29357000Y-33147000D01*
X29337000Y-33147000D01*
X29337000Y-34396250D01*
X29495750Y-34555000D01*
X30110000Y-34558072D01*
X30234482Y-34545812D01*
X30354180Y-34509502D01*
X30464494Y-34450537D01*
X30561185Y-34371185D01*
X30640537Y-34274494D01*
X30662493Y-34233418D01*
X30712848Y-34283773D01*
X30979327Y-34461828D01*
X31275422Y-34584475D01*
X31589755Y-34647000D01*
X31910245Y-34647000D01*
X32224578Y-34584475D01*
X32520673Y-34461828D01*
X32787152Y-34283773D01*
X33013773Y-34057152D01*
X33105414Y-33920000D01*
X35291928Y-33920000D01*
X35304188Y-34044482D01*
X35340498Y-34164180D01*
X35399463Y-34274494D01*
X35478815Y-34371185D01*
X35575506Y-34450537D01*
X35685820Y-34509502D01*
X35805518Y-34545812D01*
X35930000Y-34558072D01*
X36544250Y-34555000D01*
X36703000Y-34396250D01*
X36703000Y-33147000D01*
X35453750Y-33147000D01*
X35295000Y-33305750D01*
X35291928Y-33920000D01*
X33105414Y-33920000D01*
X33191828Y-33790673D01*
X33314475Y-33494578D01*
X33377000Y-33180245D01*
X33377000Y-32859755D01*
X33314475Y-32545422D01*
X33191828Y-32249327D01*
X33105415Y-32120000D01*
X35291928Y-32120000D01*
X35295000Y-32734250D01*
X35453750Y-32893000D01*
X36703000Y-32893000D01*
X36703000Y-31643750D01*
X36957000Y-31643750D01*
X36957000Y-32893000D01*
X36977000Y-32893000D01*
X36977000Y-33147000D01*
X36957000Y-33147000D01*
X36957000Y-34396250D01*
X37115750Y-34555000D01*
X37730000Y-34558072D01*
X37854482Y-34545812D01*
X37974180Y-34509502D01*
X38084494Y-34450537D01*
X38181185Y-34371185D01*
X38260537Y-34274494D01*
X38282493Y-34233418D01*
X38332848Y-34283773D01*
X38599327Y-34461828D01*
X38895422Y-34584475D01*
X39209755Y-34647000D01*
X39530245Y-34647000D01*
X39844578Y-34584475D01*
X40140673Y-34461828D01*
X40407152Y-34283773D01*
X40633773Y-34057152D01*
X40811828Y-33790673D01*
X40934475Y-33494578D01*
X40997000Y-33180245D01*
X40997000Y-32859755D01*
X40934475Y-32545422D01*
X40811828Y-32249327D01*
X40633773Y-31982848D01*
X40407152Y-31756227D01*
X40140673Y-31578172D01*
X39844578Y-31455525D01*
X39530245Y-31393000D01*
X39209755Y-31393000D01*
X38895422Y-31455525D01*
X38599327Y-31578172D01*
X38332848Y-31756227D01*
X38282493Y-31806582D01*
X38260537Y-31765506D01*
X38181185Y-31668815D01*
X38084494Y-31589463D01*
X37974180Y-31530498D01*
X37854482Y-31494188D01*
X37730000Y-31481928D01*
X37115750Y-31485000D01*
X36957000Y-31643750D01*
X36703000Y-31643750D01*
X36544250Y-31485000D01*
X35930000Y-31481928D01*
X35805518Y-31494188D01*
X35685820Y-31530498D01*
X35575506Y-31589463D01*
X35478815Y-31668815D01*
X35399463Y-31765506D01*
X35340498Y-31875820D01*
X35304188Y-31995518D01*
X35291928Y-32120000D01*
X33105415Y-32120000D01*
X33013773Y-31982848D01*
X32787152Y-31756227D01*
X32520673Y-31578172D01*
X32224578Y-31455525D01*
X31910245Y-31393000D01*
X31589755Y-31393000D01*
X31275422Y-31455525D01*
X30979327Y-31578172D01*
X30712848Y-31756227D01*
X30662493Y-31806582D01*
X30640537Y-31765506D01*
X30561185Y-31668815D01*
X30464494Y-31589463D01*
X30354180Y-31530498D01*
X30234482Y-31494188D01*
X30110000Y-31481928D01*
X29495750Y-31485000D01*
X29337000Y-31643750D01*
X29083000Y-31643750D01*
X28924250Y-31485000D01*
X28310000Y-31481928D01*
X28185518Y-31494188D01*
X28065820Y-31530498D01*
X27955506Y-31589463D01*
X27858815Y-31668815D01*
X27779463Y-31765506D01*
X27720498Y-31875820D01*
X27684188Y-31995518D01*
X27671928Y-32120000D01*
X25485415Y-32120000D01*
X25393773Y-31982848D01*
X25167152Y-31756227D01*
X24900673Y-31578172D01*
X24604578Y-31455525D01*
X24290245Y-31393000D01*
X23969755Y-31393000D01*
X23655422Y-31455525D01*
X23359327Y-31578172D01*
X23092848Y-31756227D01*
X23042493Y-31806582D01*
X23020537Y-31765506D01*
X22941185Y-31668815D01*
X22844494Y-31589463D01*
X22734180Y-31530498D01*
X22614482Y-31494188D01*
X22490000Y-31481928D01*
X21875750Y-31485000D01*
X21717000Y-31643750D01*
X21463000Y-31643750D01*
X21304250Y-31485000D01*
X20690000Y-31481928D01*
X20565518Y-31494188D01*
X20445820Y-31530498D01*
X20335506Y-31589463D01*
X20238815Y-31668815D01*
X20159463Y-31765506D01*
X20100498Y-31875820D01*
X20064188Y-31995518D01*
X20051928Y-32120000D01*
X17865415Y-32120000D01*
X17773773Y-31982848D01*
X17547152Y-31756227D01*
X17280673Y-31578172D01*
X16984578Y-31455525D01*
X16670245Y-31393000D01*
X16349755Y-31393000D01*
X16035422Y-31455525D01*
X15739327Y-31578172D01*
X15472848Y-31756227D01*
X15422493Y-31806582D01*
X15400537Y-31765506D01*
X15321185Y-31668815D01*
X15224494Y-31589463D01*
X15114180Y-31530498D01*
X14994482Y-31494188D01*
X14870000Y-31481928D01*
X14255750Y-31485000D01*
X14097000Y-31643750D01*
X13843000Y-31643750D01*
X13684250Y-31485000D01*
X13070000Y-31481928D01*
X12945518Y-31494188D01*
X12825820Y-31530498D01*
X12715506Y-31589463D01*
X12618815Y-31668815D01*
X12539463Y-31765506D01*
X12480498Y-31875820D01*
X12444188Y-31995518D01*
X12431928Y-32120000D01*
X752000Y-32120000D01*
X752000Y-31000000D01*
X43194483Y-31000000D01*
X43194483Y-32500000D01*
X43208520Y-32642517D01*
X43250090Y-32779557D01*
X43317597Y-32905853D01*
X43408446Y-33016554D01*
X43519147Y-33107403D01*
X43645443Y-33174910D01*
X43782483Y-33216480D01*
X43925000Y-33230517D01*
X44975000Y-33230517D01*
X45117517Y-33216480D01*
X45254557Y-33174910D01*
X45293663Y-33154007D01*
X45474566Y-33208884D01*
X45720000Y-33233057D01*
X45965435Y-33208884D01*
X46201438Y-33137293D01*
X46355001Y-33055212D01*
X46508563Y-33137293D01*
X46744566Y-33208884D01*
X46990000Y-33233057D01*
X47235435Y-33208884D01*
X47471438Y-33137293D01*
X47688939Y-33021036D01*
X47879581Y-32864581D01*
X48036036Y-32673939D01*
X48152293Y-32456437D01*
X48223884Y-32220434D01*
X48242000Y-32036497D01*
X48242000Y-31463502D01*
X48223884Y-31279565D01*
X48152293Y-31043562D01*
X48036036Y-30826061D01*
X47879581Y-30635419D01*
X47688938Y-30478964D01*
X47471437Y-30362707D01*
X47235434Y-30291116D01*
X46990000Y-30266943D01*
X46744565Y-30291116D01*
X46508562Y-30362707D01*
X46354999Y-30444788D01*
X46201437Y-30362707D01*
X45965434Y-30291116D01*
X45720000Y-30266943D01*
X45474565Y-30291116D01*
X45293662Y-30345992D01*
X45254557Y-30325090D01*
X45117517Y-30283520D01*
X44975000Y-30269483D01*
X43925000Y-30269483D01*
X43782483Y-30283520D01*
X43645443Y-30325090D01*
X43519147Y-30392597D01*
X43408446Y-30483446D01*
X43317597Y-30594147D01*
X43250090Y-30720443D01*
X43208520Y-30857483D01*
X43194483Y-31000000D01*
X752000Y-31000000D01*
X752000Y-28460000D01*
X3824483Y-28460000D01*
X3824483Y-29960000D01*
X3838520Y-30102517D01*
X3880090Y-30239557D01*
X3947597Y-30365853D01*
X4038446Y-30476554D01*
X4149147Y-30567403D01*
X4275443Y-30634910D01*
X4412483Y-30676480D01*
X4555000Y-30690517D01*
X5605000Y-30690517D01*
X5747517Y-30676480D01*
X5884557Y-30634910D01*
X5923663Y-30614007D01*
X6104566Y-30668884D01*
X6350000Y-30693057D01*
X6595435Y-30668884D01*
X6831438Y-30597293D01*
X6985001Y-30515212D01*
X7138563Y-30597293D01*
X7374566Y-30668884D01*
X7620000Y-30693057D01*
X7865435Y-30668884D01*
X8101438Y-30597293D01*
X8318939Y-30481036D01*
X8509581Y-30324581D01*
X8666036Y-30133939D01*
X8782293Y-29916437D01*
X8853884Y-29680434D01*
X8872000Y-29496497D01*
X8872000Y-28923502D01*
X8853884Y-28739565D01*
X8782293Y-28503562D01*
X8666036Y-28286061D01*
X8509581Y-28095419D01*
X8318938Y-27938964D01*
X8101437Y-27822707D01*
X7865434Y-27751116D01*
X7620000Y-27726943D01*
X7374565Y-27751116D01*
X7138562Y-27822707D01*
X6985000Y-27904788D01*
X6831437Y-27822707D01*
X6595434Y-27751116D01*
X6350000Y-27726943D01*
X6104565Y-27751116D01*
X5923662Y-27805992D01*
X5884557Y-27785090D01*
X5747517Y-27743520D01*
X5605000Y-27729483D01*
X4555000Y-27729483D01*
X4412483Y-27743520D01*
X4275443Y-27785090D01*
X4149147Y-27852597D01*
X4038446Y-27943446D01*
X3947597Y-28054147D01*
X3880090Y-28180443D01*
X3838520Y-28317483D01*
X3824483Y-28460000D01*
X752000Y-28460000D01*
X752000Y-25527000D01*
X6985000Y-25527000D01*
X7009776Y-25524560D01*
X7033601Y-25517333D01*
X7055557Y-25505597D01*
X7074803Y-25489803D01*
X7090597Y-25470557D01*
X7102333Y-25448601D01*
X7109560Y-25424776D01*
X7112000Y-25400000D01*
X7112000Y-23380000D01*
X10174483Y-23380000D01*
X10174483Y-24880000D01*
X10188520Y-25022517D01*
X10230090Y-25159557D01*
X10297597Y-25285853D01*
X10388446Y-25396554D01*
X10499147Y-25487403D01*
X10625443Y-25554910D01*
X10762483Y-25596480D01*
X10905000Y-25610517D01*
X11955000Y-25610517D01*
X12097517Y-25596480D01*
X12234557Y-25554910D01*
X12273663Y-25534007D01*
X12454566Y-25588884D01*
X12700000Y-25613057D01*
X12945435Y-25588884D01*
X13181438Y-25517293D01*
X13335001Y-25435212D01*
X13488563Y-25517293D01*
X13724566Y-25588884D01*
X13970000Y-25613057D01*
X14215435Y-25588884D01*
X14451438Y-25517293D01*
X14668939Y-25401036D01*
X14859581Y-25244581D01*
X15016036Y-25053939D01*
X15132293Y-24836437D01*
X15203884Y-24600434D01*
X15222000Y-24416497D01*
X15222000Y-23843502D01*
X15203884Y-23659565D01*
X15132293Y-23423562D01*
X15109009Y-23380000D01*
X16524483Y-23380000D01*
X16524483Y-24880000D01*
X16538520Y-25022517D01*
X16580090Y-25159557D01*
X16647597Y-25285853D01*
X16738446Y-25396554D01*
X16849147Y-25487403D01*
X16975443Y-25554910D01*
X17112483Y-25596480D01*
X17255000Y-25610517D01*
X18305000Y-25610517D01*
X18447517Y-25596480D01*
X18584557Y-25554910D01*
X18623663Y-25534007D01*
X18804566Y-25588884D01*
X19050000Y-25613057D01*
X19295435Y-25588884D01*
X19531438Y-25517293D01*
X19685001Y-25435212D01*
X19838563Y-25517293D01*
X20074566Y-25588884D01*
X20320000Y-25613057D01*
X20565435Y-25588884D01*
X20801438Y-25517293D01*
X21018939Y-25401036D01*
X21209581Y-25244581D01*
X21366036Y-25053939D01*
X21482293Y-24836437D01*
X21553884Y-24600434D01*
X21572000Y-24416497D01*
X21572000Y-23843502D01*
X21553884Y-23659565D01*
X21482293Y-23423562D01*
X21459009Y-23380000D01*
X22874483Y-23380000D01*
X22874483Y-24880000D01*
X22888520Y-25022517D01*
X22930090Y-25159557D01*
X22997597Y-25285853D01*
X23088446Y-25396554D01*
X23199147Y-25487403D01*
X23325443Y-25554910D01*
X23462483Y-25596480D01*
X23605000Y-25610517D01*
X24655000Y-25610517D01*
X24797517Y-25596480D01*
X24934557Y-25554910D01*
X24973663Y-25534007D01*
X25154566Y-25588884D01*
X25400000Y-25613057D01*
X25645435Y-25588884D01*
X25881438Y-25517293D01*
X26035001Y-25435212D01*
X26188563Y-25517293D01*
X26424566Y-25588884D01*
X26670000Y-25613057D01*
X26915435Y-25588884D01*
X27151438Y-25517293D01*
X27368939Y-25401036D01*
X27559581Y-25244581D01*
X27716036Y-25053939D01*
X27832293Y-24836437D01*
X27903884Y-24600434D01*
X27922000Y-24416497D01*
X27922000Y-23843502D01*
X27903884Y-23659565D01*
X27832293Y-23423562D01*
X27809009Y-23380000D01*
X29224483Y-23380000D01*
X29224483Y-24880000D01*
X29238520Y-25022517D01*
X29280090Y-25159557D01*
X29347597Y-25285853D01*
X29438446Y-25396554D01*
X29549147Y-25487403D01*
X29675443Y-25554910D01*
X29812483Y-25596480D01*
X29955000Y-25610517D01*
X31005000Y-25610517D01*
X31147517Y-25596480D01*
X31284557Y-25554910D01*
X31323663Y-25534007D01*
X31504566Y-25588884D01*
X31750000Y-25613057D01*
X31995435Y-25588884D01*
X32231438Y-25517293D01*
X32385001Y-25435212D01*
X32538563Y-25517293D01*
X32774566Y-25588884D01*
X33020000Y-25613057D01*
X33265435Y-25588884D01*
X33501438Y-25517293D01*
X33718939Y-25401036D01*
X33909581Y-25244581D01*
X34066036Y-25053939D01*
X34182293Y-24836437D01*
X34253884Y-24600434D01*
X34272000Y-24416497D01*
X34272000Y-23843502D01*
X34253884Y-23659565D01*
X34182293Y-23423562D01*
X34159009Y-23380000D01*
X35574483Y-23380000D01*
X35574483Y-24880000D01*
X35588520Y-25022517D01*
X35630090Y-25159557D01*
X35697597Y-25285853D01*
X35788446Y-25396554D01*
X35899147Y-25487403D01*
X36025443Y-25554910D01*
X36162483Y-25596480D01*
X36305000Y-25610517D01*
X37355000Y-25610517D01*
X37497517Y-25596480D01*
X37634557Y-25554910D01*
X37673663Y-25534007D01*
X37854566Y-25588884D01*
X38100000Y-25613057D01*
X38345435Y-25588884D01*
X38581438Y-25517293D01*
X38735001Y-25435212D01*
X38888563Y-25517293D01*
X39124566Y-25588884D01*
X39370000Y-25613057D01*
X39615435Y-25588884D01*
X39851438Y-25517293D01*
X40068939Y-25401036D01*
X40259581Y-25244581D01*
X40416036Y-25053939D01*
X40532293Y-24836437D01*
X40603884Y-24600434D01*
X40622000Y-24416497D01*
X40622000Y-23843502D01*
X40603884Y-23659565D01*
X40532293Y-23423562D01*
X40509009Y-23380000D01*
X41924483Y-23380000D01*
X41924483Y-24880000D01*
X41938520Y-25022517D01*
X41980090Y-25159557D01*
X42047597Y-25285853D01*
X42138446Y-25396554D01*
X42249147Y-25487403D01*
X42375443Y-25554910D01*
X42512483Y-25596480D01*
X42655000Y-25610517D01*
X43705000Y-25610517D01*
X43847517Y-25596480D01*
X43984557Y-25554910D01*
X44023663Y-25534007D01*
X44204566Y-25588884D01*
X44450000Y-25613057D01*
X44695435Y-25588884D01*
X44931438Y-25517293D01*
X45085001Y-25435212D01*
X45238563Y-25517293D01*
X45474566Y-25588884D01*
X45720000Y-25613057D01*
X45965435Y-25588884D01*
X46201438Y-25517293D01*
X46418939Y-25401036D01*
X46609581Y-25244581D01*
X46766036Y-25053939D01*
X46882293Y-24836437D01*
X46953884Y-24600434D01*
X46972000Y-24416497D01*
X46972000Y-23843502D01*
X46953884Y-23659565D01*
X46882293Y-23423562D01*
X46766036Y-23206061D01*
X46609581Y-23015419D01*
X46418938Y-22858964D01*
X46201437Y-22742707D01*
X45965434Y-22671116D01*
X45720000Y-22646943D01*
X45474565Y-22671116D01*
X45238562Y-22742707D01*
X45084999Y-22824788D01*
X44931437Y-22742707D01*
X44695434Y-22671116D01*
X44450000Y-22646943D01*
X44204565Y-22671116D01*
X44023662Y-22725992D01*
X43984557Y-22705090D01*
X43847517Y-22663520D01*
X43705000Y-22649483D01*
X42655000Y-22649483D01*
X42512483Y-22663520D01*
X42375443Y-22705090D01*
X42249147Y-22772597D01*
X42138446Y-22863446D01*
X42047597Y-22974147D01*
X41980090Y-23100443D01*
X41938520Y-23237483D01*
X41924483Y-23380000D01*
X40509009Y-23380000D01*
X40416036Y-23206061D01*
X40259581Y-23015419D01*
X40068938Y-22858964D01*
X39851437Y-22742707D01*
X39615434Y-22671116D01*
X39370000Y-22646943D01*
X39124565Y-22671116D01*
X38888562Y-22742707D01*
X38734999Y-22824788D01*
X38581437Y-22742707D01*
X38345434Y-22671116D01*
X38100000Y-22646943D01*
X37854565Y-22671116D01*
X37673662Y-22725992D01*
X37634557Y-22705090D01*
X37497517Y-22663520D01*
X37355000Y-22649483D01*
X36305000Y-22649483D01*
X36162483Y-22663520D01*
X36025443Y-22705090D01*
X35899147Y-22772597D01*
X35788446Y-22863446D01*
X35697597Y-22974147D01*
X35630090Y-23100443D01*
X35588520Y-23237483D01*
X35574483Y-23380000D01*
X34159009Y-23380000D01*
X34066036Y-23206061D01*
X33909581Y-23015419D01*
X33718938Y-22858964D01*
X33501437Y-22742707D01*
X33265434Y-22671116D01*
X33020000Y-22646943D01*
X32774565Y-22671116D01*
X32538562Y-22742707D01*
X32384999Y-22824788D01*
X32231437Y-22742707D01*
X31995434Y-22671116D01*
X31750000Y-22646943D01*
X31504565Y-22671116D01*
X31323662Y-22725992D01*
X31284557Y-22705090D01*
X31147517Y-22663520D01*
X31005000Y-22649483D01*
X29955000Y-22649483D01*
X29812483Y-22663520D01*
X29675443Y-22705090D01*
X29549147Y-22772597D01*
X29438446Y-22863446D01*
X29347597Y-22974147D01*
X29280090Y-23100443D01*
X29238520Y-23237483D01*
X29224483Y-23380000D01*
X27809009Y-23380000D01*
X27716036Y-23206061D01*
X27559581Y-23015419D01*
X27368938Y-22858964D01*
X27151437Y-22742707D01*
X26915434Y-22671116D01*
X26670000Y-22646943D01*
X26424565Y-22671116D01*
X26188562Y-22742707D01*
X26034999Y-22824788D01*
X25881437Y-22742707D01*
X25645434Y-22671116D01*
X25400000Y-22646943D01*
X25154565Y-22671116D01*
X24973662Y-22725992D01*
X24934557Y-22705090D01*
X24797517Y-22663520D01*
X24655000Y-22649483D01*
X23605000Y-22649483D01*
X23462483Y-22663520D01*
X23325443Y-22705090D01*
X23199147Y-22772597D01*
X23088446Y-22863446D01*
X22997597Y-22974147D01*
X22930090Y-23100443D01*
X22888520Y-23237483D01*
X22874483Y-23380000D01*
X21459009Y-23380000D01*
X21366036Y-23206061D01*
X21209581Y-23015419D01*
X21018938Y-22858964D01*
X20801437Y-22742707D01*
X20565434Y-22671116D01*
X20320000Y-22646943D01*
X20074565Y-22671116D01*
X19838562Y-22742707D01*
X19684999Y-22824788D01*
X19531437Y-22742707D01*
X19295434Y-22671116D01*
X19050000Y-22646943D01*
X18804565Y-22671116D01*
X18623662Y-22725992D01*
X18584557Y-22705090D01*
X18447517Y-22663520D01*
X18305000Y-22649483D01*
X17255000Y-22649483D01*
X17112483Y-22663520D01*
X16975443Y-22705090D01*
X16849147Y-22772597D01*
X16738446Y-22863446D01*
X16647597Y-22974147D01*
X16580090Y-23100443D01*
X16538520Y-23237483D01*
X16524483Y-23380000D01*
X15109009Y-23380000D01*
X15016036Y-23206061D01*
X14859581Y-23015419D01*
X14668938Y-22858964D01*
X14451437Y-22742707D01*
X14215434Y-22671116D01*
X13970000Y-22646943D01*
X13724565Y-22671116D01*
X13488562Y-22742707D01*
X13334999Y-22824788D01*
X13181437Y-22742707D01*
X12945434Y-22671116D01*
X12700000Y-22646943D01*
X12454565Y-22671116D01*
X12273662Y-22725992D01*
X12234557Y-22705090D01*
X12097517Y-22663520D01*
X11955000Y-22649483D01*
X10905000Y-22649483D01*
X10762483Y-22663520D01*
X10625443Y-22705090D01*
X10499147Y-22772597D01*
X10388446Y-22863446D01*
X10297597Y-22974147D01*
X10230090Y-23100443D01*
X10188520Y-23237483D01*
X10174483Y-23380000D01*
X7112000Y-23380000D01*
X7112000Y-19685000D01*
X7109560Y-19660224D01*
X7102333Y-19636399D01*
X7090597Y-19614443D01*
X7074803Y-19595197D01*
X7055557Y-19579403D01*
X7033601Y-19567667D01*
X7009776Y-19560440D01*
X6985000Y-19558000D01*
X752000Y-19558000D01*
X752000Y-17044679D01*
X3503000Y-17044679D01*
X3503000Y-17355321D01*
X3563604Y-17659994D01*
X3682481Y-17946989D01*
X3855064Y-18205279D01*
X4074721Y-18424936D01*
X4333011Y-18597519D01*
X4620006Y-18716396D01*
X4924679Y-18777000D01*
X5235321Y-18777000D01*
X5539994Y-18716396D01*
X5826989Y-18597519D01*
X6085279Y-18424936D01*
X6304936Y-18205279D01*
X6477519Y-17946989D01*
X6596396Y-17659994D01*
X6657000Y-17355321D01*
X6657000Y-17044679D01*
X10003000Y-17044679D01*
X10003000Y-17355321D01*
X10063604Y-17659994D01*
X10182481Y-17946989D01*
X10355064Y-18205279D01*
X10574721Y-18424936D01*
X10833011Y-18597519D01*
X11120006Y-18716396D01*
X11424679Y-18777000D01*
X11735321Y-18777000D01*
X12039994Y-18716396D01*
X12326989Y-18597519D01*
X12585279Y-18424936D01*
X12804936Y-18205279D01*
X12977519Y-17946989D01*
X13096396Y-17659994D01*
X13157000Y-17355321D01*
X13157000Y-17044679D01*
X14933000Y-17044679D01*
X14933000Y-17355321D01*
X14993604Y-17659994D01*
X15112481Y-17946989D01*
X15285064Y-18205279D01*
X15504721Y-18424936D01*
X15763011Y-18597519D01*
X16050006Y-18716396D01*
X16354679Y-18777000D01*
X16665321Y-18777000D01*
X16969994Y-18716396D01*
X17256989Y-18597519D01*
X17515279Y-18424936D01*
X17734936Y-18205279D01*
X17907519Y-17946989D01*
X18026396Y-17659994D01*
X18087000Y-17355321D01*
X18087000Y-17044679D01*
X21433000Y-17044679D01*
X21433000Y-17355321D01*
X21493604Y-17659994D01*
X21612481Y-17946989D01*
X21785064Y-18205279D01*
X22004721Y-18424936D01*
X22263011Y-18597519D01*
X22550006Y-18716396D01*
X22854679Y-18777000D01*
X23165321Y-18777000D01*
X23469994Y-18716396D01*
X23756989Y-18597519D01*
X24015279Y-18424936D01*
X24234936Y-18205279D01*
X24407519Y-17946989D01*
X24526396Y-17659994D01*
X24587000Y-17355321D01*
X24587000Y-17044679D01*
X26363000Y-17044679D01*
X26363000Y-17355321D01*
X26423604Y-17659994D01*
X26542481Y-17946989D01*
X26715064Y-18205279D01*
X26934721Y-18424936D01*
X27193011Y-18597519D01*
X27480006Y-18716396D01*
X27784679Y-18777000D01*
X28095321Y-18777000D01*
X28399994Y-18716396D01*
X28686989Y-18597519D01*
X28945279Y-18424936D01*
X29164936Y-18205279D01*
X29337519Y-17946989D01*
X29456396Y-17659994D01*
X29517000Y-17355321D01*
X29517000Y-17044679D01*
X32863000Y-17044679D01*
X32863000Y-17355321D01*
X32923604Y-17659994D01*
X33042481Y-17946989D01*
X33215064Y-18205279D01*
X33434721Y-18424936D01*
X33693011Y-18597519D01*
X33980006Y-18716396D01*
X34284679Y-18777000D01*
X34595321Y-18777000D01*
X34899994Y-18716396D01*
X35186989Y-18597519D01*
X35445279Y-18424936D01*
X35664936Y-18205279D01*
X35837519Y-17946989D01*
X35956396Y-17659994D01*
X36017000Y-17355321D01*
X36017000Y-17044679D01*
X37793000Y-17044679D01*
X37793000Y-17355321D01*
X37853604Y-17659994D01*
X37972481Y-17946989D01*
X38145064Y-18205279D01*
X38364721Y-18424936D01*
X38623011Y-18597519D01*
X38910006Y-18716396D01*
X39214679Y-18777000D01*
X39525321Y-18777000D01*
X39829994Y-18716396D01*
X40116989Y-18597519D01*
X40375279Y-18424936D01*
X40594936Y-18205279D01*
X40767519Y-17946989D01*
X40886396Y-17659994D01*
X40947000Y-17355321D01*
X40947000Y-17044679D01*
X44293000Y-17044679D01*
X44293000Y-17355321D01*
X44353604Y-17659994D01*
X44472481Y-17946989D01*
X44645064Y-18205279D01*
X44864721Y-18424936D01*
X45123011Y-18597519D01*
X45410006Y-18716396D01*
X45714679Y-18777000D01*
X46025321Y-18777000D01*
X46329994Y-18716396D01*
X46616989Y-18597519D01*
X46875279Y-18424936D01*
X47094936Y-18205279D01*
X47267519Y-17946989D01*
X47386396Y-17659994D01*
X47447000Y-17355321D01*
X47447000Y-17044679D01*
X47386396Y-16740006D01*
X47267519Y-16453011D01*
X47094936Y-16194721D01*
X46875279Y-15975064D01*
X46616989Y-15802481D01*
X46329994Y-15683604D01*
X46025321Y-15623000D01*
X45714679Y-15623000D01*
X45410006Y-15683604D01*
X45123011Y-15802481D01*
X44864721Y-15975064D01*
X44645064Y-16194721D01*
X44472481Y-16453011D01*
X44353604Y-16740006D01*
X44293000Y-17044679D01*
X40947000Y-17044679D01*
X40886396Y-16740006D01*
X40767519Y-16453011D01*
X40594936Y-16194721D01*
X40375279Y-15975064D01*
X40116989Y-15802481D01*
X39829994Y-15683604D01*
X39525321Y-15623000D01*
X39214679Y-15623000D01*
X38910006Y-15683604D01*
X38623011Y-15802481D01*
X38364721Y-15975064D01*
X38145064Y-16194721D01*
X37972481Y-16453011D01*
X37853604Y-16740006D01*
X37793000Y-17044679D01*
X36017000Y-17044679D01*
X35956396Y-16740006D01*
X35837519Y-16453011D01*
X35664936Y-16194721D01*
X35445279Y-15975064D01*
X35186989Y-15802481D01*
X34899994Y-15683604D01*
X34595321Y-15623000D01*
X34284679Y-15623000D01*
X33980006Y-15683604D01*
X33693011Y-15802481D01*
X33434721Y-15975064D01*
X33215064Y-16194721D01*
X33042481Y-16453011D01*
X32923604Y-16740006D01*
X32863000Y-17044679D01*
X29517000Y-17044679D01*
X29456396Y-16740006D01*
X29337519Y-16453011D01*
X29164936Y-16194721D01*
X28945279Y-15975064D01*
X28686989Y-15802481D01*
X28399994Y-15683604D01*
X28095321Y-15623000D01*
X27784679Y-15623000D01*
X27480006Y-15683604D01*
X27193011Y-15802481D01*
X26934721Y-15975064D01*
X26715064Y-16194721D01*
X26542481Y-16453011D01*
X26423604Y-16740006D01*
X26363000Y-17044679D01*
X24587000Y-17044679D01*
X24526396Y-16740006D01*
X24407519Y-16453011D01*
X24234936Y-16194721D01*
X24015279Y-15975064D01*
X23756989Y-15802481D01*
X23469994Y-15683604D01*
X23165321Y-15623000D01*
X22854679Y-15623000D01*
X22550006Y-15683604D01*
X22263011Y-15802481D01*
X22004721Y-15975064D01*
X21785064Y-16194721D01*
X21612481Y-16453011D01*
X21493604Y-16740006D01*
X21433000Y-17044679D01*
X18087000Y-17044679D01*
X18026396Y-16740006D01*
X17907519Y-16453011D01*
X17734936Y-16194721D01*
X17515279Y-15975064D01*
X17256989Y-15802481D01*
X16969994Y-15683604D01*
X16665321Y-15623000D01*
X16354679Y-15623000D01*
X16050006Y-15683604D01*
X15763011Y-15802481D01*
X15504721Y-15975064D01*
X15285064Y-16194721D01*
X15112481Y-16453011D01*
X14993604Y-16740006D01*
X14933000Y-17044679D01*
X13157000Y-17044679D01*
X13096396Y-16740006D01*
X12977519Y-16453011D01*
X12804936Y-16194721D01*
X12585279Y-15975064D01*
X12326989Y-15802481D01*
X12039994Y-15683604D01*
X11735321Y-15623000D01*
X11424679Y-15623000D01*
X11120006Y-15683604D01*
X10833011Y-15802481D01*
X10574721Y-15975064D01*
X10355064Y-16194721D01*
X10182481Y-16453011D01*
X10063604Y-16740006D01*
X10003000Y-17044679D01*
X6657000Y-17044679D01*
X6596396Y-16740006D01*
X6477519Y-16453011D01*
X6304936Y-16194721D01*
X6085279Y-15975064D01*
X5826989Y-15802481D01*
X5539994Y-15683604D01*
X5235321Y-15623000D01*
X4924679Y-15623000D01*
X4620006Y-15683604D01*
X4333011Y-15802481D01*
X4074721Y-15975064D01*
X3855064Y-16194721D01*
X3682481Y-16453011D01*
X3563604Y-16740006D01*
X3503000Y-17044679D01*
X752000Y-17044679D01*
X752000Y-12544679D01*
X3503000Y-12544679D01*
X3503000Y-12855321D01*
X3563604Y-13159994D01*
X3682481Y-13446989D01*
X3855064Y-13705279D01*
X4074721Y-13924936D01*
X4333011Y-14097519D01*
X4620006Y-14216396D01*
X4924679Y-14277000D01*
X5235321Y-14277000D01*
X5539994Y-14216396D01*
X5826989Y-14097519D01*
X6085279Y-13924936D01*
X6304936Y-13705279D01*
X6477519Y-13446989D01*
X6596396Y-13159994D01*
X6657000Y-12855321D01*
X6657000Y-12544679D01*
X10003000Y-12544679D01*
X10003000Y-12855321D01*
X10063604Y-13159994D01*
X10182481Y-13446989D01*
X10355064Y-13705279D01*
X10574721Y-13924936D01*
X10833011Y-14097519D01*
X11120006Y-14216396D01*
X11424679Y-14277000D01*
X11735321Y-14277000D01*
X12039994Y-14216396D01*
X12326989Y-14097519D01*
X12585279Y-13924936D01*
X12804936Y-13705279D01*
X12977519Y-13446989D01*
X13096396Y-13159994D01*
X13157000Y-12855321D01*
X13157000Y-12544679D01*
X14933000Y-12544679D01*
X14933000Y-12855321D01*
X14993604Y-13159994D01*
X15112481Y-13446989D01*
X15285064Y-13705279D01*
X15504721Y-13924936D01*
X15763011Y-14097519D01*
X16050006Y-14216396D01*
X16354679Y-14277000D01*
X16665321Y-14277000D01*
X16969994Y-14216396D01*
X17256989Y-14097519D01*
X17515279Y-13924936D01*
X17734936Y-13705279D01*
X17907519Y-13446989D01*
X18026396Y-13159994D01*
X18087000Y-12855321D01*
X18087000Y-12544679D01*
X21433000Y-12544679D01*
X21433000Y-12855321D01*
X21493604Y-13159994D01*
X21612481Y-13446989D01*
X21785064Y-13705279D01*
X22004721Y-13924936D01*
X22263011Y-14097519D01*
X22550006Y-14216396D01*
X22854679Y-14277000D01*
X23165321Y-14277000D01*
X23469994Y-14216396D01*
X23756989Y-14097519D01*
X24015279Y-13924936D01*
X24234936Y-13705279D01*
X24407519Y-13446989D01*
X24526396Y-13159994D01*
X24587000Y-12855321D01*
X24587000Y-12544679D01*
X26363000Y-12544679D01*
X26363000Y-12855321D01*
X26423604Y-13159994D01*
X26542481Y-13446989D01*
X26715064Y-13705279D01*
X26934721Y-13924936D01*
X27193011Y-14097519D01*
X27480006Y-14216396D01*
X27784679Y-14277000D01*
X28095321Y-14277000D01*
X28399994Y-14216396D01*
X28686989Y-14097519D01*
X28945279Y-13924936D01*
X29164936Y-13705279D01*
X29337519Y-13446989D01*
X29456396Y-13159994D01*
X29517000Y-12855321D01*
X29517000Y-12544679D01*
X32863000Y-12544679D01*
X32863000Y-12855321D01*
X32923604Y-13159994D01*
X33042481Y-13446989D01*
X33215064Y-13705279D01*
X33434721Y-13924936D01*
X33693011Y-14097519D01*
X33980006Y-14216396D01*
X34284679Y-14277000D01*
X34595321Y-14277000D01*
X34899994Y-14216396D01*
X35186989Y-14097519D01*
X35445279Y-13924936D01*
X35664936Y-13705279D01*
X35837519Y-13446989D01*
X35956396Y-13159994D01*
X36017000Y-12855321D01*
X36017000Y-12544679D01*
X37793000Y-12544679D01*
X37793000Y-12855321D01*
X37853604Y-13159994D01*
X37972481Y-13446989D01*
X38145064Y-13705279D01*
X38364721Y-13924936D01*
X38623011Y-14097519D01*
X38910006Y-14216396D01*
X39214679Y-14277000D01*
X39525321Y-14277000D01*
X39829994Y-14216396D01*
X40116989Y-14097519D01*
X40375279Y-13924936D01*
X40594936Y-13705279D01*
X40767519Y-13446989D01*
X40886396Y-13159994D01*
X40947000Y-12855321D01*
X40947000Y-12544679D01*
X44293000Y-12544679D01*
X44293000Y-12855321D01*
X44353604Y-13159994D01*
X44472481Y-13446989D01*
X44645064Y-13705279D01*
X44864721Y-13924936D01*
X45123011Y-14097519D01*
X45410006Y-14216396D01*
X45714679Y-14277000D01*
X46025321Y-14277000D01*
X46329994Y-14216396D01*
X46616989Y-14097519D01*
X46875279Y-13924936D01*
X47094936Y-13705279D01*
X47267519Y-13446989D01*
X47386396Y-13159994D01*
X47447000Y-12855321D01*
X47447000Y-12544679D01*
X47386396Y-12240006D01*
X47267519Y-11953011D01*
X47094936Y-11694721D01*
X46875279Y-11475064D01*
X46616989Y-11302481D01*
X46329994Y-11183604D01*
X46025321Y-11123000D01*
X45714679Y-11123000D01*
X45410006Y-11183604D01*
X45123011Y-11302481D01*
X44864721Y-11475064D01*
X44645064Y-11694721D01*
X44472481Y-11953011D01*
X44353604Y-12240006D01*
X44293000Y-12544679D01*
X40947000Y-12544679D01*
X40886396Y-12240006D01*
X40767519Y-11953011D01*
X40594936Y-11694721D01*
X40375279Y-11475064D01*
X40116989Y-11302481D01*
X39829994Y-11183604D01*
X39525321Y-11123000D01*
X39214679Y-11123000D01*
X38910006Y-11183604D01*
X38623011Y-11302481D01*
X38364721Y-11475064D01*
X38145064Y-11694721D01*
X37972481Y-11953011D01*
X37853604Y-12240006D01*
X37793000Y-12544679D01*
X36017000Y-12544679D01*
X35956396Y-12240006D01*
X35837519Y-11953011D01*
X35664936Y-11694721D01*
X35445279Y-11475064D01*
X35186989Y-11302481D01*
X34899994Y-11183604D01*
X34595321Y-11123000D01*
X34284679Y-11123000D01*
X33980006Y-11183604D01*
X33693011Y-11302481D01*
X33434721Y-11475064D01*
X33215064Y-11694721D01*
X33042481Y-11953011D01*
X32923604Y-12240006D01*
X32863000Y-12544679D01*
X29517000Y-12544679D01*
X29456396Y-12240006D01*
X29337519Y-11953011D01*
X29164936Y-11694721D01*
X28945279Y-11475064D01*
X28686989Y-11302481D01*
X28399994Y-11183604D01*
X28095321Y-11123000D01*
X27784679Y-11123000D01*
X27480006Y-11183604D01*
X27193011Y-11302481D01*
X26934721Y-11475064D01*
X26715064Y-11694721D01*
X26542481Y-11953011D01*
X26423604Y-12240006D01*
X26363000Y-12544679D01*
X24587000Y-12544679D01*
X24526396Y-12240006D01*
X24407519Y-11953011D01*
X24234936Y-11694721D01*
X24015279Y-11475064D01*
X23756989Y-11302481D01*
X23469994Y-11183604D01*
X23165321Y-11123000D01*
X22854679Y-11123000D01*
X22550006Y-11183604D01*
X22263011Y-11302481D01*
X22004721Y-11475064D01*
X21785064Y-11694721D01*
X21612481Y-11953011D01*
X21493604Y-12240006D01*
X21433000Y-12544679D01*
X18087000Y-12544679D01*
X18026396Y-12240006D01*
X17907519Y-11953011D01*
X17734936Y-11694721D01*
X17515279Y-11475064D01*
X17256989Y-11302481D01*
X16969994Y-11183604D01*
X16665321Y-11123000D01*
X16354679Y-11123000D01*
X16050006Y-11183604D01*
X15763011Y-11302481D01*
X15504721Y-11475064D01*
X15285064Y-11694721D01*
X15112481Y-11953011D01*
X14993604Y-12240006D01*
X14933000Y-12544679D01*
X13157000Y-12544679D01*
X13096396Y-12240006D01*
X12977519Y-11953011D01*
X12804936Y-11694721D01*
X12585279Y-11475064D01*
X12326989Y-11302481D01*
X12039994Y-11183604D01*
X11735321Y-11123000D01*
X11424679Y-11123000D01*
X11120006Y-11183604D01*
X10833011Y-11302481D01*
X10574721Y-11475064D01*
X10355064Y-11694721D01*
X10182481Y-11953011D01*
X10063604Y-12240006D01*
X10003000Y-12544679D01*
X6657000Y-12544679D01*
X6596396Y-12240006D01*
X6477519Y-11953011D01*
X6304936Y-11694721D01*
X6085279Y-11475064D01*
X5826989Y-11302481D01*
X5539994Y-11183604D01*
X5235321Y-11123000D01*
X4924679Y-11123000D01*
X4620006Y-11183604D01*
X4333011Y-11302481D01*
X4074721Y-11475064D01*
X3855064Y-11694721D01*
X3682481Y-11953011D01*
X3563604Y-12240006D01*
X3503000Y-12544679D01*
X752000Y-12544679D01*
X752000Y-8154679D01*
X963000Y-8154679D01*
X963000Y-8465321D01*
X1023604Y-8769994D01*
X1142481Y-9056989D01*
X1315064Y-9315279D01*
X1534721Y-9534936D01*
X1793011Y-9707519D01*
X2080006Y-9826396D01*
X2384679Y-9887000D01*
X2695321Y-9887000D01*
X2999994Y-9826396D01*
X3286989Y-9707519D01*
X3545279Y-9534936D01*
X3764936Y-9315279D01*
X3937519Y-9056989D01*
X4056396Y-8769994D01*
X4117000Y-8465321D01*
X4117000Y-8154679D01*
X7463000Y-8154679D01*
X7463000Y-8465321D01*
X7523604Y-8769994D01*
X7642481Y-9056989D01*
X7815064Y-9315279D01*
X8034721Y-9534936D01*
X8293011Y-9707519D01*
X8580006Y-9826396D01*
X8884679Y-9887000D01*
X9195321Y-9887000D01*
X9499994Y-9826396D01*
X9786989Y-9707519D01*
X10045279Y-9534936D01*
X10264936Y-9315279D01*
X10437519Y-9056989D01*
X10556396Y-8769994D01*
X10617000Y-8465321D01*
X10617000Y-8154679D01*
X12393000Y-8154679D01*
X12393000Y-8465321D01*
X12453604Y-8769994D01*
X12572481Y-9056989D01*
X12745064Y-9315279D01*
X12964721Y-9534936D01*
X13223011Y-9707519D01*
X13510006Y-9826396D01*
X13814679Y-9887000D01*
X14125321Y-9887000D01*
X14429994Y-9826396D01*
X14716989Y-9707519D01*
X14975279Y-9534936D01*
X15194936Y-9315279D01*
X15367519Y-9056989D01*
X15486396Y-8769994D01*
X15547000Y-8465321D01*
X15547000Y-8154679D01*
X18893000Y-8154679D01*
X18893000Y-8465321D01*
X18953604Y-8769994D01*
X19072481Y-9056989D01*
X19245064Y-9315279D01*
X19464721Y-9534936D01*
X19723011Y-9707519D01*
X20010006Y-9826396D01*
X20314679Y-9887000D01*
X20625321Y-9887000D01*
X20929994Y-9826396D01*
X21216989Y-9707519D01*
X21475279Y-9534936D01*
X21694936Y-9315279D01*
X21867519Y-9056989D01*
X21986396Y-8769994D01*
X22047000Y-8465321D01*
X22047000Y-8154679D01*
X23823000Y-8154679D01*
X23823000Y-8465321D01*
X23883604Y-8769994D01*
X24002481Y-9056989D01*
X24175064Y-9315279D01*
X24394721Y-9534936D01*
X24653011Y-9707519D01*
X24940006Y-9826396D01*
X25244679Y-9887000D01*
X25555321Y-9887000D01*
X25859994Y-9826396D01*
X26146989Y-9707519D01*
X26405279Y-9534936D01*
X26624936Y-9315279D01*
X26797519Y-9056989D01*
X26916396Y-8769994D01*
X26977000Y-8465321D01*
X26977000Y-8154679D01*
X30323000Y-8154679D01*
X30323000Y-8465321D01*
X30383604Y-8769994D01*
X30502481Y-9056989D01*
X30675064Y-9315279D01*
X30894721Y-9534936D01*
X31153011Y-9707519D01*
X31440006Y-9826396D01*
X31744679Y-9887000D01*
X32055321Y-9887000D01*
X32359994Y-9826396D01*
X32646989Y-9707519D01*
X32905279Y-9534936D01*
X33124936Y-9315279D01*
X33297519Y-9056989D01*
X33416396Y-8769994D01*
X33477000Y-8465321D01*
X33477000Y-8154679D01*
X35253000Y-8154679D01*
X35253000Y-8465321D01*
X35313604Y-8769994D01*
X35432481Y-9056989D01*
X35605064Y-9315279D01*
X35824721Y-9534936D01*
X36083011Y-9707519D01*
X36370006Y-9826396D01*
X36674679Y-9887000D01*
X36985321Y-9887000D01*
X37289994Y-9826396D01*
X37576989Y-9707519D01*
X37835279Y-9534936D01*
X38054936Y-9315279D01*
X38227519Y-9056989D01*
X38346396Y-8769994D01*
X38407000Y-8465321D01*
X38407000Y-8154679D01*
X41753000Y-8154679D01*
X41753000Y-8465321D01*
X41813604Y-8769994D01*
X41932481Y-9056989D01*
X42105064Y-9315279D01*
X42324721Y-9534936D01*
X42583011Y-9707519D01*
X42870006Y-9826396D01*
X43174679Y-9887000D01*
X43485321Y-9887000D01*
X43789994Y-9826396D01*
X44076989Y-9707519D01*
X44335279Y-9534936D01*
X44554936Y-9315279D01*
X44727519Y-9056989D01*
X44846396Y-8769994D01*
X44907000Y-8465321D01*
X44907000Y-8154679D01*
X44846396Y-7850006D01*
X44727519Y-7563011D01*
X44554936Y-7304721D01*
X44335279Y-7085064D01*
X44076989Y-6912481D01*
X43789994Y-6793604D01*
X43485321Y-6733000D01*
X43174679Y-6733000D01*
X42870006Y-6793604D01*
X42583011Y-6912481D01*
X42324721Y-7085064D01*
X42105064Y-7304721D01*
X41932481Y-7563011D01*
X41813604Y-7850006D01*
X41753000Y-8154679D01*
X38407000Y-8154679D01*
X38346396Y-7850006D01*
X38227519Y-7563011D01*
X38054936Y-7304721D01*
X37835279Y-7085064D01*
X37576989Y-6912481D01*
X37289994Y-6793604D01*
X36985321Y-6733000D01*
X36674679Y-6733000D01*
X36370006Y-6793604D01*
X36083011Y-6912481D01*
X35824721Y-7085064D01*
X35605064Y-7304721D01*
X35432481Y-7563011D01*
X35313604Y-7850006D01*
X35253000Y-8154679D01*
X33477000Y-8154679D01*
X33416396Y-7850006D01*
X33297519Y-7563011D01*
X33124936Y-7304721D01*
X32905279Y-7085064D01*
X32646989Y-6912481D01*
X32359994Y-6793604D01*
X32055321Y-6733000D01*
X31744679Y-6733000D01*
X31440006Y-6793604D01*
X31153011Y-6912481D01*
X30894721Y-7085064D01*
X30675064Y-7304721D01*
X30502481Y-7563011D01*
X30383604Y-7850006D01*
X30323000Y-8154679D01*
X26977000Y-8154679D01*
X26916396Y-7850006D01*
X26797519Y-7563011D01*
X26624936Y-7304721D01*
X26405279Y-7085064D01*
X26146989Y-6912481D01*
X25859994Y-6793604D01*
X25555321Y-6733000D01*
X25244679Y-6733000D01*
X24940006Y-6793604D01*
X24653011Y-6912481D01*
X24394721Y-7085064D01*
X24175064Y-7304721D01*
X24002481Y-7563011D01*
X23883604Y-7850006D01*
X23823000Y-8154679D01*
X22047000Y-8154679D01*
X21986396Y-7850006D01*
X21867519Y-7563011D01*
X21694936Y-7304721D01*
X21475279Y-7085064D01*
X21216989Y-6912481D01*
X20929994Y-6793604D01*
X20625321Y-6733000D01*
X20314679Y-6733000D01*
X20010006Y-6793604D01*
X19723011Y-6912481D01*
X19464721Y-7085064D01*
X19245064Y-7304721D01*
X19072481Y-7563011D01*
X18953604Y-7850006D01*
X18893000Y-8154679D01*
X15547000Y-8154679D01*
X15486396Y-7850006D01*
X15367519Y-7563011D01*
X15194936Y-7304721D01*
X14975279Y-7085064D01*
X14716989Y-6912481D01*
X14429994Y-6793604D01*
X14125321Y-6733000D01*
X13814679Y-6733000D01*
X13510006Y-6793604D01*
X13223011Y-6912481D01*
X12964721Y-7085064D01*
X12745064Y-7304721D01*
X12572481Y-7563011D01*
X12453604Y-7850006D01*
X12393000Y-8154679D01*
X10617000Y-8154679D01*
X10556396Y-7850006D01*
X10437519Y-7563011D01*
X10264936Y-7304721D01*
X10045279Y-7085064D01*
X9786989Y-6912481D01*
X9499994Y-6793604D01*
X9195321Y-6733000D01*
X8884679Y-6733000D01*
X8580006Y-6793604D01*
X8293011Y-6912481D01*
X8034721Y-7085064D01*
X7815064Y-7304721D01*
X7642481Y-7563011D01*
X7523604Y-7850006D01*
X7463000Y-8154679D01*
X4117000Y-8154679D01*
X4056396Y-7850006D01*
X3937519Y-7563011D01*
X3764936Y-7304721D01*
X3545279Y-7085064D01*
X3286989Y-6912481D01*
X2999994Y-6793604D01*
X2695321Y-6733000D01*
X2384679Y-6733000D01*
X2080006Y-6793604D01*
X1793011Y-6912481D01*
X1534721Y-7085064D01*
X1315064Y-7304721D01*
X1142481Y-7563011D01*
X1023604Y-7850006D01*
X963000Y-8154679D01*
X752000Y-8154679D01*
X752000Y-3654679D01*
X963000Y-3654679D01*
X963000Y-3965321D01*
X1023604Y-4269994D01*
X1142481Y-4556989D01*
X1315064Y-4815279D01*
X1534721Y-5034936D01*
X1793011Y-5207519D01*
X2080006Y-5326396D01*
X2384679Y-5387000D01*
X2695321Y-5387000D01*
X2999994Y-5326396D01*
X3286989Y-5207519D01*
X3545279Y-5034936D01*
X3764936Y-4815279D01*
X3937519Y-4556989D01*
X4056396Y-4269994D01*
X4117000Y-3965321D01*
X4117000Y-3654679D01*
X7463000Y-3654679D01*
X7463000Y-3965321D01*
X7523604Y-4269994D01*
X7642481Y-4556989D01*
X7815064Y-4815279D01*
X8034721Y-5034936D01*
X8293011Y-5207519D01*
X8580006Y-5326396D01*
X8884679Y-5387000D01*
X9195321Y-5387000D01*
X9499994Y-5326396D01*
X9786989Y-5207519D01*
X10045279Y-5034936D01*
X10264936Y-4815279D01*
X10437519Y-4556989D01*
X10556396Y-4269994D01*
X10617000Y-3965321D01*
X10617000Y-3654679D01*
X12393000Y-3654679D01*
X12393000Y-3965321D01*
X12453604Y-4269994D01*
X12572481Y-4556989D01*
X12745064Y-4815279D01*
X12964721Y-5034936D01*
X13223011Y-5207519D01*
X13510006Y-5326396D01*
X13814679Y-5387000D01*
X14125321Y-5387000D01*
X14429994Y-5326396D01*
X14716989Y-5207519D01*
X14975279Y-5034936D01*
X15194936Y-4815279D01*
X15367519Y-4556989D01*
X15486396Y-4269994D01*
X15547000Y-3965321D01*
X15547000Y-3654679D01*
X18893000Y-3654679D01*
X18893000Y-3965321D01*
X18953604Y-4269994D01*
X19072481Y-4556989D01*
X19245064Y-4815279D01*
X19464721Y-5034936D01*
X19723011Y-5207519D01*
X20010006Y-5326396D01*
X20314679Y-5387000D01*
X20625321Y-5387000D01*
X20929994Y-5326396D01*
X21216989Y-5207519D01*
X21475279Y-5034936D01*
X21694936Y-4815279D01*
X21867519Y-4556989D01*
X21986396Y-4269994D01*
X22047000Y-3965321D01*
X22047000Y-3654679D01*
X23823000Y-3654679D01*
X23823000Y-3965321D01*
X23883604Y-4269994D01*
X24002481Y-4556989D01*
X24175064Y-4815279D01*
X24394721Y-5034936D01*
X24653011Y-5207519D01*
X24940006Y-5326396D01*
X25244679Y-5387000D01*
X25555321Y-5387000D01*
X25859994Y-5326396D01*
X26146989Y-5207519D01*
X26405279Y-5034936D01*
X26624936Y-4815279D01*
X26797519Y-4556989D01*
X26916396Y-4269994D01*
X26977000Y-3965321D01*
X26977000Y-3654679D01*
X30323000Y-3654679D01*
X30323000Y-3965321D01*
X30383604Y-4269994D01*
X30502481Y-4556989D01*
X30675064Y-4815279D01*
X30894721Y-5034936D01*
X31153011Y-5207519D01*
X31440006Y-5326396D01*
X31744679Y-5387000D01*
X32055321Y-5387000D01*
X32359994Y-5326396D01*
X32646989Y-5207519D01*
X32905279Y-5034936D01*
X33124936Y-4815279D01*
X33297519Y-4556989D01*
X33416396Y-4269994D01*
X33477000Y-3965321D01*
X33477000Y-3654679D01*
X35253000Y-3654679D01*
X35253000Y-3965321D01*
X35313604Y-4269994D01*
X35432481Y-4556989D01*
X35605064Y-4815279D01*
X35824721Y-5034936D01*
X36083011Y-5207519D01*
X36370006Y-5326396D01*
X36674679Y-5387000D01*
X36985321Y-5387000D01*
X37289994Y-5326396D01*
X37576989Y-5207519D01*
X37835279Y-5034936D01*
X38054936Y-4815279D01*
X38227519Y-4556989D01*
X38346396Y-4269994D01*
X38407000Y-3965321D01*
X38407000Y-3654679D01*
X38346396Y-3350006D01*
X38227519Y-3063011D01*
X38054936Y-2804721D01*
X37835279Y-2585064D01*
X37576989Y-2412481D01*
X37289994Y-2293604D01*
X36985321Y-2233000D01*
X36674679Y-2233000D01*
X36370006Y-2293604D01*
X36083011Y-2412481D01*
X35824721Y-2585064D01*
X35605064Y-2804721D01*
X35432481Y-3063011D01*
X35313604Y-3350006D01*
X35253000Y-3654679D01*
X33477000Y-3654679D01*
X33416396Y-3350006D01*
X33297519Y-3063011D01*
X33124936Y-2804721D01*
X32905279Y-2585064D01*
X32646989Y-2412481D01*
X32359994Y-2293604D01*
X32055321Y-2233000D01*
X31744679Y-2233000D01*
X31440006Y-2293604D01*
X31153011Y-2412481D01*
X30894721Y-2585064D01*
X30675064Y-2804721D01*
X30502481Y-3063011D01*
X30383604Y-3350006D01*
X30323000Y-3654679D01*
X26977000Y-3654679D01*
X26916396Y-3350006D01*
X26797519Y-3063011D01*
X26624936Y-2804721D01*
X26405279Y-2585064D01*
X26146989Y-2412481D01*
X25859994Y-2293604D01*
X25555321Y-2233000D01*
X25244679Y-2233000D01*
X24940006Y-2293604D01*
X24653011Y-2412481D01*
X24394721Y-2585064D01*
X24175064Y-2804721D01*
X24002481Y-3063011D01*
X23883604Y-3350006D01*
X23823000Y-3654679D01*
X22047000Y-3654679D01*
X21986396Y-3350006D01*
X21867519Y-3063011D01*
X21694936Y-2804721D01*
X21475279Y-2585064D01*
X21216989Y-2412481D01*
X20929994Y-2293604D01*
X20625321Y-2233000D01*
X20314679Y-2233000D01*
X20010006Y-2293604D01*
X19723011Y-2412481D01*
X19464721Y-2585064D01*
X19245064Y-2804721D01*
X19072481Y-3063011D01*
X18953604Y-3350006D01*
X18893000Y-3654679D01*
X15547000Y-3654679D01*
X15486396Y-3350006D01*
X15367519Y-3063011D01*
X15194936Y-2804721D01*
X14975279Y-2585064D01*
X14716989Y-2412481D01*
X14429994Y-2293604D01*
X14125321Y-2233000D01*
X13814679Y-2233000D01*
X13510006Y-2293604D01*
X13223011Y-2412481D01*
X12964721Y-2585064D01*
X12745064Y-2804721D01*
X12572481Y-3063011D01*
X12453604Y-3350006D01*
X12393000Y-3654679D01*
X10617000Y-3654679D01*
X10556396Y-3350006D01*
X10437519Y-3063011D01*
X10264936Y-2804721D01*
X10045279Y-2585064D01*
X9786989Y-2412481D01*
X9499994Y-2293604D01*
X9195321Y-2233000D01*
X8884679Y-2233000D01*
X8580006Y-2293604D01*
X8293011Y-2412481D01*
X8034721Y-2585064D01*
X7815064Y-2804721D01*
X7642481Y-3063011D01*
X7523604Y-3350006D01*
X7463000Y-3654679D01*
X4117000Y-3654679D01*
X4056396Y-3350006D01*
X3937519Y-3063011D01*
X3764936Y-2804721D01*
X3545279Y-2585064D01*
X3286989Y-2412481D01*
X2999994Y-2293604D01*
X2695321Y-2233000D01*
X2384679Y-2233000D01*
X2080006Y-2293604D01*
X1793011Y-2412481D01*
X1534721Y-2585064D01*
X1315064Y-2804721D01*
X1142481Y-3063011D01*
X1023604Y-3350006D01*
X963000Y-3654679D01*
X752000Y-3654679D01*
X752000Y-752000D01*
X44323000Y-752000D01*
X44323000Y-2576859D01*
M02*
