G04 #@! TF.GenerationSoftware,KiCad,Pcbnew,(5.1.2)-1*
G04 #@! TF.CreationDate,2019-05-02T22:44:15-07:00*
G04 #@! TF.ProjectId,gen3piano,67656e33-7069-4616-9e6f-2e6b69636164,rev?*
G04 #@! TF.SameCoordinates,PXe88b40PYc1c960*
G04 #@! TF.FileFunction,Legend,Top*
G04 #@! TF.FilePolarity,Positive*
%FSLAX46Y46*%
G04 Gerber Fmt 4.6, Leading zero omitted, Abs format (unit mm)*
G04 Created by KiCad (PCBNEW (5.1.2)-1) date 2019-05-02 22:44:15*
%MOMM*%
%LPD*%
G04 APERTURE LIST*
%ADD10C,0.150000*%
%ADD11C,0.100000*%
%ADD12C,0.120000*%
G04 APERTURE END LIST*
D10*
X9639285Y-6856428D02*
X9639285Y-7256428D01*
X9496428Y-6627857D02*
X9353571Y-7056428D01*
X9725000Y-7056428D01*
X2975000Y-6656428D02*
X3346428Y-6656428D01*
X3146428Y-6885000D01*
X3232142Y-6885000D01*
X3289285Y-6913571D01*
X3317857Y-6942142D01*
X3346428Y-6999285D01*
X3346428Y-7142142D01*
X3317857Y-7199285D01*
X3289285Y-7227857D01*
X3232142Y-7256428D01*
X3060714Y-7256428D01*
X3003571Y-7227857D01*
X2975000Y-7199285D01*
X9353571Y-4808571D02*
X9382142Y-4780000D01*
X9439285Y-4751428D01*
X9582142Y-4751428D01*
X9639285Y-4780000D01*
X9667857Y-4808571D01*
X9696428Y-4865714D01*
X9696428Y-4922857D01*
X9667857Y-5008571D01*
X9325000Y-5351428D01*
X9696428Y-5351428D01*
X3346428Y-5351428D02*
X3003571Y-5351428D01*
X3175000Y-5351428D02*
X3175000Y-4751428D01*
X3117857Y-4837142D01*
X3060714Y-4894285D01*
X3003571Y-4922857D01*
D11*
G36*
X7620000Y-21590000D02*
G01*
X6985000Y-21590000D01*
X5715000Y-19050000D01*
X6350000Y-19050000D01*
X7620000Y-21590000D01*
G37*
X7620000Y-21590000D02*
X6985000Y-21590000D01*
X5715000Y-19050000D01*
X6350000Y-19050000D01*
X7620000Y-21590000D01*
D10*
X20120000Y-22531428D02*
X20491428Y-22531428D01*
X20291428Y-22760000D01*
X20377142Y-22760000D01*
X20434285Y-22788571D01*
X20462857Y-22817142D01*
X20491428Y-22874285D01*
X20491428Y-23017142D01*
X20462857Y-23074285D01*
X20434285Y-23102857D01*
X20377142Y-23131428D01*
X20205714Y-23131428D01*
X20148571Y-23102857D01*
X20120000Y-23074285D01*
X17951428Y-23131428D02*
X17608571Y-23131428D01*
X17780000Y-23131428D02*
X17780000Y-22531428D01*
X17722857Y-22617142D01*
X17665714Y-22674285D01*
X17608571Y-22702857D01*
X10295000Y-8561428D02*
X10409285Y-8561428D01*
X10466428Y-8590000D01*
X10523571Y-8647142D01*
X10552142Y-8761428D01*
X10552142Y-8961428D01*
X10523571Y-9075714D01*
X10466428Y-9132857D01*
X10409285Y-9161428D01*
X10295000Y-9161428D01*
X10237857Y-9132857D01*
X10180714Y-9075714D01*
X10152142Y-8961428D01*
X10152142Y-8761428D01*
X10180714Y-8647142D01*
X10237857Y-8590000D01*
X10295000Y-8561428D01*
X11066428Y-8761428D02*
X11066428Y-9161428D01*
X10809285Y-8761428D02*
X10809285Y-9075714D01*
X10837857Y-9132857D01*
X10895000Y-9161428D01*
X10980714Y-9161428D01*
X11037857Y-9132857D01*
X11066428Y-9104285D01*
X11266428Y-8761428D02*
X11495000Y-8761428D01*
X11352142Y-8561428D02*
X11352142Y-9075714D01*
X11380714Y-9132857D01*
X11437857Y-9161428D01*
X11495000Y-9161428D01*
X8810714Y-1576428D02*
X9010714Y-2176428D01*
X9210714Y-1576428D01*
X9667857Y-2147857D02*
X9610714Y-2176428D01*
X9496428Y-2176428D01*
X9439285Y-2147857D01*
X9410714Y-2119285D01*
X9382142Y-2062142D01*
X9382142Y-1890714D01*
X9410714Y-1833571D01*
X9439285Y-1805000D01*
X9496428Y-1776428D01*
X9610714Y-1776428D01*
X9667857Y-1805000D01*
X10182142Y-2147857D02*
X10125000Y-2176428D01*
X10010714Y-2176428D01*
X9953571Y-2147857D01*
X9925000Y-2119285D01*
X9896428Y-2062142D01*
X9896428Y-1890714D01*
X9925000Y-1833571D01*
X9953571Y-1805000D01*
X10010714Y-1776428D01*
X10125000Y-1776428D01*
X10182142Y-1805000D01*
X3810000Y-8255000D02*
X4445000Y-8890000D01*
X3810000Y-8255000D02*
X4445000Y-7620000D01*
X7620000Y-8255000D02*
X6985000Y-8890000D01*
X6985000Y-7620000D02*
X7620000Y-8255000D01*
X3810000Y-8255000D02*
X7620000Y-8255000D01*
X10160000Y-20320000D02*
X10795000Y-20955000D01*
X9525000Y-20955000D02*
X10160000Y-20320000D01*
X10160000Y-21590000D02*
X10160000Y-20320000D01*
X15875000Y-27305000D02*
X16510000Y-26670000D01*
X15240000Y-26670000D02*
X15875000Y-27305000D01*
X15875000Y-22860000D02*
X15875000Y-27305000D01*
X22860000Y-31115000D02*
X23495000Y-31115000D01*
X22860000Y-31750000D02*
X22225000Y-31115000D01*
X22860000Y-30520000D02*
X22860000Y-31750000D01*
X22225000Y-31115000D02*
X22860000Y-30520000D01*
X22225000Y-31750000D02*
X22225000Y-31115000D01*
X22225000Y-30480000D02*
X22225000Y-31750000D01*
X7620000Y-3810000D02*
X6985000Y-4445000D01*
X7620000Y-3810000D02*
X6985000Y-3175000D01*
X3810000Y-3810000D02*
X4445000Y-4445000D01*
X3810000Y-3810000D02*
X4445000Y-3175000D01*
X19366666Y-31848333D02*
X19366666Y-32181666D01*
X18666666Y-32181666D01*
X19000000Y-31615000D02*
X19000000Y-31381666D01*
X19366666Y-31281666D02*
X19366666Y-31615000D01*
X18666666Y-31615000D01*
X18666666Y-31281666D01*
X19366666Y-30981666D02*
X18666666Y-30981666D01*
X18666666Y-30815000D01*
X18700000Y-30715000D01*
X18766666Y-30648333D01*
X18833333Y-30615000D01*
X18966666Y-30581666D01*
X19066666Y-30581666D01*
X19200000Y-30615000D01*
X19266666Y-30648333D01*
X19333333Y-30715000D01*
X19366666Y-30815000D01*
X19366666Y-30981666D01*
X19333333Y-30315000D02*
X19366666Y-30248333D01*
X19366666Y-30115000D01*
X19333333Y-30048333D01*
X19266666Y-30015000D01*
X19233333Y-30015000D01*
X19166666Y-30048333D01*
X19133333Y-30115000D01*
X19133333Y-30215000D01*
X19100000Y-30281666D01*
X19033333Y-30315000D01*
X19000000Y-30315000D01*
X18933333Y-30281666D01*
X18900000Y-30215000D01*
X18900000Y-30115000D01*
X18933333Y-30048333D01*
X33906666Y-31881666D02*
X33906666Y-32215000D01*
X34240000Y-32248333D01*
X34206666Y-32215000D01*
X34173333Y-32148333D01*
X34173333Y-31981666D01*
X34206666Y-31915000D01*
X34240000Y-31881666D01*
X34306666Y-31848333D01*
X34473333Y-31848333D01*
X34540000Y-31881666D01*
X34573333Y-31915000D01*
X34606666Y-31981666D01*
X34606666Y-32148333D01*
X34573333Y-32215000D01*
X34540000Y-32248333D01*
X34606666Y-31548333D02*
X34140000Y-31548333D01*
X34206666Y-31548333D02*
X34173333Y-31515000D01*
X34140000Y-31448333D01*
X34140000Y-31348333D01*
X34173333Y-31281666D01*
X34240000Y-31248333D01*
X34606666Y-31248333D01*
X34240000Y-31248333D02*
X34173333Y-31215000D01*
X34140000Y-31148333D01*
X34140000Y-31048333D01*
X34173333Y-30981666D01*
X34240000Y-30948333D01*
X34606666Y-30948333D01*
X34606666Y-30615000D02*
X34140000Y-30615000D01*
X34206666Y-30615000D02*
X34173333Y-30581666D01*
X34140000Y-30515000D01*
X34140000Y-30415000D01*
X34173333Y-30348333D01*
X34240000Y-30315000D01*
X34606666Y-30315000D01*
X34240000Y-30315000D02*
X34173333Y-30281666D01*
X34140000Y-30215000D01*
X34140000Y-30115000D01*
X34173333Y-30048333D01*
X34240000Y-30015000D01*
X34606666Y-30015000D01*
X18034047Y-34361428D02*
X18795952Y-34361428D01*
X18415000Y-34742380D02*
X18415000Y-33980476D01*
X11684047Y-34361428D02*
X12445952Y-34361428D01*
X10160000Y-32385000D02*
X0Y-32385000D01*
X10160000Y-27940000D02*
X10160000Y-32385000D01*
X20320000Y-27940000D02*
X10160000Y-27940000D01*
X15291666Y-21841666D02*
X15525000Y-22541666D01*
X15758333Y-21841666D01*
X16225000Y-22175000D02*
X16325000Y-22208333D01*
X16358333Y-22241666D01*
X16391666Y-22308333D01*
X16391666Y-22408333D01*
X16358333Y-22475000D01*
X16325000Y-22508333D01*
X16258333Y-22541666D01*
X15991666Y-22541666D01*
X15991666Y-21841666D01*
X16225000Y-21841666D01*
X16291666Y-21875000D01*
X16325000Y-21908333D01*
X16358333Y-21975000D01*
X16358333Y-22041666D01*
X16325000Y-22108333D01*
X16291666Y-22141666D01*
X16225000Y-22175000D01*
X15991666Y-22175000D01*
X8991666Y-21841666D02*
X9225000Y-22541666D01*
X9458333Y-21841666D01*
X9658333Y-22341666D02*
X9991666Y-22341666D01*
X9591666Y-22541666D02*
X9825000Y-21841666D01*
X10058333Y-22541666D01*
X41910000Y-34290000D02*
X49530000Y-34290000D01*
X41910000Y-27940000D02*
X41910000Y-34290000D01*
X33020000Y-27940000D02*
X41910000Y-27940000D01*
X21527142Y-27219285D02*
X21698571Y-27276428D01*
X21755714Y-27333571D01*
X21812857Y-27447857D01*
X21812857Y-27619285D01*
X21755714Y-27733571D01*
X21698571Y-27790714D01*
X21584285Y-27847857D01*
X21127142Y-27847857D01*
X21127142Y-26647857D01*
X21527142Y-26647857D01*
X21641428Y-26705000D01*
X21698571Y-26762142D01*
X21755714Y-26876428D01*
X21755714Y-26990714D01*
X21698571Y-27105000D01*
X21641428Y-27162142D01*
X21527142Y-27219285D01*
X21127142Y-27219285D01*
X23012857Y-27847857D02*
X22612857Y-27276428D01*
X22327142Y-27847857D02*
X22327142Y-26647857D01*
X22784285Y-26647857D01*
X22898571Y-26705000D01*
X22955714Y-26762142D01*
X23012857Y-26876428D01*
X23012857Y-27047857D01*
X22955714Y-27162142D01*
X22898571Y-27219285D01*
X22784285Y-27276428D01*
X22327142Y-27276428D01*
X23527142Y-27847857D02*
X23527142Y-26647857D01*
X24727142Y-26705000D02*
X24612857Y-26647857D01*
X24441428Y-26647857D01*
X24270000Y-26705000D01*
X24155714Y-26819285D01*
X24098571Y-26933571D01*
X24041428Y-27162142D01*
X24041428Y-27333571D01*
X24098571Y-27562142D01*
X24155714Y-27676428D01*
X24270000Y-27790714D01*
X24441428Y-27847857D01*
X24555714Y-27847857D01*
X24727142Y-27790714D01*
X24784285Y-27733571D01*
X24784285Y-27333571D01*
X24555714Y-27333571D01*
X25298571Y-27847857D02*
X25298571Y-26647857D01*
X25298571Y-27219285D02*
X25984285Y-27219285D01*
X25984285Y-27847857D02*
X25984285Y-26647857D01*
X26384285Y-26647857D02*
X27070000Y-26647857D01*
X26727142Y-27847857D02*
X26727142Y-26647857D01*
X28955714Y-27847857D02*
X28384285Y-27847857D01*
X28384285Y-26647857D01*
X29355714Y-27219285D02*
X29755714Y-27219285D01*
X29927142Y-27847857D02*
X29355714Y-27847857D01*
X29355714Y-26647857D01*
X29927142Y-26647857D01*
X30441428Y-27847857D02*
X30441428Y-26647857D01*
X30727142Y-26647857D01*
X30898571Y-26705000D01*
X31012857Y-26819285D01*
X31070000Y-26933571D01*
X31127142Y-27162142D01*
X31127142Y-27333571D01*
X31070000Y-27562142D01*
X31012857Y-27676428D01*
X30898571Y-27790714D01*
X30727142Y-27847857D01*
X30441428Y-27847857D01*
X31584285Y-27790714D02*
X31755714Y-27847857D01*
X32041428Y-27847857D01*
X32155714Y-27790714D01*
X32212857Y-27733571D01*
X32270000Y-27619285D01*
X32270000Y-27505000D01*
X32212857Y-27390714D01*
X32155714Y-27333571D01*
X32041428Y-27276428D01*
X31812857Y-27219285D01*
X31698571Y-27162142D01*
X31641428Y-27105000D01*
X31584285Y-26990714D01*
X31584285Y-26876428D01*
X31641428Y-26762142D01*
X31698571Y-26705000D01*
X31812857Y-26647857D01*
X32098571Y-26647857D01*
X32270000Y-26705000D01*
X635000Y-19050000D02*
X5080000Y-19050000D01*
X635000Y-635000D02*
X635000Y-19050000D01*
X44450000Y-635000D02*
X635000Y-635000D01*
X47625000Y-19050000D02*
X47625000Y-10795000D01*
X10160000Y-19050000D02*
X47625000Y-19050000D01*
X45085000Y-36830000D02*
X45720000Y-36830000D01*
X47888026Y-37465000D02*
G75*
G03X47888026Y-37465000I-898026J0D01*
G01*
X48895000Y-36195000D02*
X44450000Y-36195000D01*
X48895000Y-38735000D02*
X48895000Y-36195000D01*
X44450000Y-38735000D02*
X48895000Y-38735000D01*
X44450000Y-36195000D02*
X44450000Y-38735000D01*
D11*
G36*
X8890000Y-20320000D02*
G01*
X8255000Y-19050000D01*
X9525000Y-19050000D01*
X8890000Y-20320000D01*
G37*
X8890000Y-20320000D02*
X8255000Y-19050000D01*
X9525000Y-19050000D01*
X8890000Y-20320000D01*
G36*
X8890000Y-21590000D02*
G01*
X8255000Y-21590000D01*
X6985000Y-19050000D01*
X7620000Y-19050000D01*
X8890000Y-21590000D01*
G37*
X8890000Y-21590000D02*
X8255000Y-21590000D01*
X6985000Y-19050000D01*
X7620000Y-19050000D01*
X8890000Y-21590000D01*
D10*
X5966666Y-42536666D02*
X5966666Y-42870000D01*
X6300000Y-42903333D01*
X6266666Y-42870000D01*
X6233333Y-42803333D01*
X6233333Y-42636666D01*
X6266666Y-42570000D01*
X6300000Y-42536666D01*
X6366666Y-42503333D01*
X6533333Y-42503333D01*
X6600000Y-42536666D01*
X6633333Y-42570000D01*
X6666666Y-42636666D01*
X6666666Y-42803333D01*
X6633333Y-42870000D01*
X6600000Y-42903333D01*
X6600000Y-42203333D02*
X6633333Y-42170000D01*
X6666666Y-42203333D01*
X6633333Y-42236666D01*
X6600000Y-42203333D01*
X6666666Y-42203333D01*
X5966666Y-41736666D02*
X5966666Y-41670000D01*
X6000000Y-41603333D01*
X6033333Y-41570000D01*
X6100000Y-41536666D01*
X6233333Y-41503333D01*
X6400000Y-41503333D01*
X6533333Y-41536666D01*
X6600000Y-41570000D01*
X6633333Y-41603333D01*
X6666666Y-41670000D01*
X6666666Y-41736666D01*
X6633333Y-41803333D01*
X6600000Y-41836666D01*
X6533333Y-41870000D01*
X6400000Y-41903333D01*
X6233333Y-41903333D01*
X6100000Y-41870000D01*
X6033333Y-41836666D01*
X6000000Y-41803333D01*
X5966666Y-41736666D01*
X6266666Y-41103333D02*
X6233333Y-41170000D01*
X6200000Y-41203333D01*
X6133333Y-41236666D01*
X6100000Y-41236666D01*
X6033333Y-41203333D01*
X6000000Y-41170000D01*
X5966666Y-41103333D01*
X5966666Y-40970000D01*
X6000000Y-40903333D01*
X6033333Y-40870000D01*
X6100000Y-40836666D01*
X6133333Y-40836666D01*
X6200000Y-40870000D01*
X6233333Y-40903333D01*
X6266666Y-40970000D01*
X6266666Y-41103333D01*
X6300000Y-41170000D01*
X6333333Y-41203333D01*
X6400000Y-41236666D01*
X6533333Y-41236666D01*
X6600000Y-41203333D01*
X6633333Y-41170000D01*
X6666666Y-41103333D01*
X6666666Y-40970000D01*
X6633333Y-40903333D01*
X6600000Y-40870000D01*
X6533333Y-40836666D01*
X6400000Y-40836666D01*
X6333333Y-40870000D01*
X6300000Y-40903333D01*
X6266666Y-40970000D01*
X6666666Y-40536666D02*
X6200000Y-40536666D01*
X6266666Y-40536666D02*
X6233333Y-40503333D01*
X6200000Y-40436666D01*
X6200000Y-40336666D01*
X6233333Y-40270000D01*
X6300000Y-40236666D01*
X6666666Y-40236666D01*
X6300000Y-40236666D02*
X6233333Y-40203333D01*
X6200000Y-40136666D01*
X6200000Y-40036666D01*
X6233333Y-39970000D01*
X6300000Y-39936666D01*
X6666666Y-39936666D01*
X6666666Y-39603333D02*
X6200000Y-39603333D01*
X6266666Y-39603333D02*
X6233333Y-39570000D01*
X6200000Y-39503333D01*
X6200000Y-39403333D01*
X6233333Y-39336666D01*
X6300000Y-39303333D01*
X6666666Y-39303333D01*
X6300000Y-39303333D02*
X6233333Y-39270000D01*
X6200000Y-39203333D01*
X6200000Y-39103333D01*
X6233333Y-39036666D01*
X6300000Y-39003333D01*
X6666666Y-39003333D01*
X6200000Y-38236666D02*
X6200000Y-37970000D01*
X5966666Y-38136666D02*
X6566666Y-38136666D01*
X6633333Y-38103333D01*
X6666666Y-38036666D01*
X6666666Y-37970000D01*
X6600000Y-37736666D02*
X6633333Y-37703333D01*
X6666666Y-37736666D01*
X6633333Y-37770000D01*
X6600000Y-37736666D01*
X6666666Y-37736666D01*
X6666666Y-36870000D02*
X5966666Y-36870000D01*
X6233333Y-36870000D02*
X6200000Y-36803333D01*
X6200000Y-36670000D01*
X6233333Y-36603333D01*
X6266666Y-36570000D01*
X6333333Y-36536666D01*
X6533333Y-36536666D01*
X6600000Y-36570000D01*
X6633333Y-36603333D01*
X6666666Y-36670000D01*
X6666666Y-36803333D01*
X6633333Y-36870000D01*
X6666666Y-36136666D02*
X6633333Y-36203333D01*
X6566666Y-36236666D01*
X5966666Y-36236666D01*
X6600000Y-35870000D02*
X6633333Y-35836666D01*
X6666666Y-35870000D01*
X6633333Y-35903333D01*
X6600000Y-35870000D01*
X6666666Y-35870000D01*
X40640000Y-12700000D02*
X44450000Y-12700000D01*
X38100000Y-3810000D02*
X41910000Y-3810000D01*
X29210000Y-12700000D02*
X33020000Y-12700000D01*
X17780000Y-12700000D02*
X21590000Y-12700000D01*
X26670000Y-3810000D02*
X30480000Y-3810000D01*
X6350000Y-12700000D02*
X10160000Y-12700000D01*
X15240000Y-3810000D02*
X19050000Y-3810000D01*
X3810000Y-3810000D02*
X7620000Y-3810000D01*
X32263333Y-14856666D02*
X32130000Y-14856666D01*
X32063333Y-14890000D01*
X32030000Y-14923333D01*
X31963333Y-15023333D01*
X31930000Y-15156666D01*
X31930000Y-15423333D01*
X31963333Y-15490000D01*
X31996666Y-15523333D01*
X32063333Y-15556666D01*
X32196666Y-15556666D01*
X32263333Y-15523333D01*
X32296666Y-15490000D01*
X32330000Y-15423333D01*
X32330000Y-15256666D01*
X32296666Y-15190000D01*
X32263333Y-15156666D01*
X32196666Y-15123333D01*
X32063333Y-15123333D01*
X31996666Y-15156666D01*
X31963333Y-15190000D01*
X31930000Y-15256666D01*
X32630000Y-15556666D02*
X32630000Y-15090000D01*
X32630000Y-15156666D02*
X32663333Y-15123333D01*
X32730000Y-15090000D01*
X32830000Y-15090000D01*
X32896666Y-15123333D01*
X32930000Y-15190000D01*
X32930000Y-15556666D01*
X32930000Y-15190000D02*
X32963333Y-15123333D01*
X33030000Y-15090000D01*
X33130000Y-15090000D01*
X33196666Y-15123333D01*
X33230000Y-15190000D01*
X33230000Y-15556666D01*
X33563333Y-15556666D02*
X33563333Y-15090000D01*
X33563333Y-15156666D02*
X33596666Y-15123333D01*
X33663333Y-15090000D01*
X33763333Y-15090000D01*
X33830000Y-15123333D01*
X33863333Y-15190000D01*
X33863333Y-15556666D01*
X33863333Y-15190000D02*
X33896666Y-15123333D01*
X33963333Y-15090000D01*
X34063333Y-15090000D01*
X34130000Y-15123333D01*
X34163333Y-15190000D01*
X34163333Y-15556666D01*
X34930000Y-15090000D02*
X35196666Y-15090000D01*
X35030000Y-14856666D02*
X35030000Y-15456666D01*
X35063333Y-15523333D01*
X35130000Y-15556666D01*
X35196666Y-15556666D01*
X35730000Y-15556666D02*
X35730000Y-15190000D01*
X35696666Y-15123333D01*
X35630000Y-15090000D01*
X35496666Y-15090000D01*
X35430000Y-15123333D01*
X35730000Y-15523333D02*
X35663333Y-15556666D01*
X35496666Y-15556666D01*
X35430000Y-15523333D01*
X35396666Y-15456666D01*
X35396666Y-15390000D01*
X35430000Y-15323333D01*
X35496666Y-15290000D01*
X35663333Y-15290000D01*
X35730000Y-15256666D01*
X36363333Y-15523333D02*
X36296666Y-15556666D01*
X36163333Y-15556666D01*
X36096666Y-15523333D01*
X36063333Y-15490000D01*
X36030000Y-15423333D01*
X36030000Y-15223333D01*
X36063333Y-15156666D01*
X36096666Y-15123333D01*
X36163333Y-15090000D01*
X36296666Y-15090000D01*
X36363333Y-15123333D01*
X36563333Y-15090000D02*
X36830000Y-15090000D01*
X36663333Y-14856666D02*
X36663333Y-15456666D01*
X36696666Y-15523333D01*
X36763333Y-15556666D01*
X36830000Y-15556666D01*
X37563333Y-15523333D02*
X37630000Y-15556666D01*
X37763333Y-15556666D01*
X37830000Y-15523333D01*
X37863333Y-15456666D01*
X37863333Y-15423333D01*
X37830000Y-15356666D01*
X37763333Y-15323333D01*
X37663333Y-15323333D01*
X37596666Y-15290000D01*
X37563333Y-15223333D01*
X37563333Y-15190000D01*
X37596666Y-15123333D01*
X37663333Y-15090000D01*
X37763333Y-15090000D01*
X37830000Y-15123333D01*
X38096666Y-15090000D02*
X38230000Y-15556666D01*
X38363333Y-15223333D01*
X38496666Y-15556666D01*
X38630000Y-15090000D01*
X38896666Y-15556666D02*
X38896666Y-15090000D01*
X38896666Y-14856666D02*
X38863333Y-14890000D01*
X38896666Y-14923333D01*
X38930000Y-14890000D01*
X38896666Y-14856666D01*
X38896666Y-14923333D01*
X39130000Y-15090000D02*
X39396666Y-15090000D01*
X39230000Y-14856666D02*
X39230000Y-15456666D01*
X39263333Y-15523333D01*
X39330000Y-15556666D01*
X39396666Y-15556666D01*
X39930000Y-15523333D02*
X39863333Y-15556666D01*
X39730000Y-15556666D01*
X39663333Y-15523333D01*
X39630000Y-15490000D01*
X39596666Y-15423333D01*
X39596666Y-15223333D01*
X39630000Y-15156666D01*
X39663333Y-15123333D01*
X39730000Y-15090000D01*
X39863333Y-15090000D01*
X39930000Y-15123333D01*
X40230000Y-15556666D02*
X40230000Y-14856666D01*
X40530000Y-15556666D02*
X40530000Y-15190000D01*
X40496666Y-15123333D01*
X40430000Y-15090000D01*
X40330000Y-15090000D01*
X40263333Y-15123333D01*
X40230000Y-15156666D01*
X41130000Y-15523333D02*
X41063333Y-15556666D01*
X40930000Y-15556666D01*
X40863333Y-15523333D01*
X40830000Y-15456666D01*
X40830000Y-15190000D01*
X40863333Y-15123333D01*
X40930000Y-15090000D01*
X41063333Y-15090000D01*
X41130000Y-15123333D01*
X41163333Y-15190000D01*
X41163333Y-15256666D01*
X40830000Y-15323333D01*
X41430000Y-15523333D02*
X41496666Y-15556666D01*
X41630000Y-15556666D01*
X41696666Y-15523333D01*
X41730000Y-15456666D01*
X41730000Y-15423333D01*
X41696666Y-15356666D01*
X41630000Y-15323333D01*
X41530000Y-15323333D01*
X41463333Y-15290000D01*
X41430000Y-15223333D01*
X41430000Y-15190000D01*
X41463333Y-15123333D01*
X41530000Y-15090000D01*
X41630000Y-15090000D01*
X41696666Y-15123333D01*
X8509047Y-44521428D02*
X9270952Y-44521428D01*
X7239047Y-33091428D02*
X8000952Y-33091428D01*
X7620000Y-33472380D02*
X7620000Y-32710476D01*
X1586666Y-25160000D02*
X886666Y-25160000D01*
X1386666Y-24926666D01*
X886666Y-24693333D01*
X1586666Y-24693333D01*
X953333Y-24393333D02*
X920000Y-24360000D01*
X886666Y-24293333D01*
X886666Y-24126666D01*
X920000Y-24060000D01*
X953333Y-24026666D01*
X1020000Y-23993333D01*
X1086666Y-23993333D01*
X1186666Y-24026666D01*
X1586666Y-24426666D01*
X1586666Y-23993333D01*
X1553333Y-23193333D02*
X1586666Y-23126666D01*
X1586666Y-22993333D01*
X1553333Y-22926666D01*
X1486666Y-22893333D01*
X1453333Y-22893333D01*
X1386666Y-22926666D01*
X1353333Y-22993333D01*
X1353333Y-23093333D01*
X1320000Y-23160000D01*
X1253333Y-23193333D01*
X1220000Y-23193333D01*
X1153333Y-23160000D01*
X1120000Y-23093333D01*
X1120000Y-22993333D01*
X1153333Y-22926666D01*
X1553333Y-22293333D02*
X1586666Y-22360000D01*
X1586666Y-22493333D01*
X1553333Y-22560000D01*
X1520000Y-22593333D01*
X1453333Y-22626666D01*
X1253333Y-22626666D01*
X1186666Y-22593333D01*
X1153333Y-22560000D01*
X1120000Y-22493333D01*
X1120000Y-22360000D01*
X1153333Y-22293333D01*
X1586666Y-21993333D02*
X1120000Y-21993333D01*
X1253333Y-21993333D02*
X1186666Y-21960000D01*
X1153333Y-21926666D01*
X1120000Y-21860000D01*
X1120000Y-21793333D01*
X1553333Y-21293333D02*
X1586666Y-21360000D01*
X1586666Y-21493333D01*
X1553333Y-21560000D01*
X1486666Y-21593333D01*
X1220000Y-21593333D01*
X1153333Y-21560000D01*
X1120000Y-21493333D01*
X1120000Y-21360000D01*
X1153333Y-21293333D01*
X1220000Y-21260000D01*
X1286666Y-21260000D01*
X1353333Y-21593333D01*
X1120000Y-21026666D02*
X1586666Y-20893333D01*
X1253333Y-20760000D01*
X1586666Y-20626666D01*
X1120000Y-20493333D01*
X13016666Y-39818333D02*
X13016666Y-40218333D01*
X13016666Y-40018333D02*
X12316666Y-40018333D01*
X12416666Y-40085000D01*
X12483333Y-40151666D01*
X12516666Y-40218333D01*
X12316666Y-39385000D02*
X12316666Y-39318333D01*
X12350000Y-39251666D01*
X12383333Y-39218333D01*
X12450000Y-39185000D01*
X12583333Y-39151666D01*
X12750000Y-39151666D01*
X12883333Y-39185000D01*
X12950000Y-39218333D01*
X12983333Y-39251666D01*
X13016666Y-39318333D01*
X13016666Y-39385000D01*
X12983333Y-39451666D01*
X12950000Y-39485000D01*
X12883333Y-39518333D01*
X12750000Y-39551666D01*
X12583333Y-39551666D01*
X12450000Y-39518333D01*
X12383333Y-39485000D01*
X12350000Y-39451666D01*
X12316666Y-39385000D01*
X12316666Y-38718333D02*
X12316666Y-38651666D01*
X12350000Y-38585000D01*
X12383333Y-38551666D01*
X12450000Y-38518333D01*
X12583333Y-38485000D01*
X12750000Y-38485000D01*
X12883333Y-38518333D01*
X12950000Y-38551666D01*
X12983333Y-38585000D01*
X13016666Y-38651666D01*
X13016666Y-38718333D01*
X12983333Y-38785000D01*
X12950000Y-38818333D01*
X12883333Y-38851666D01*
X12750000Y-38885000D01*
X12583333Y-38885000D01*
X12450000Y-38851666D01*
X12383333Y-38818333D01*
X12350000Y-38785000D01*
X12316666Y-38718333D01*
X12550000Y-38185000D02*
X13016666Y-38185000D01*
X12616666Y-38185000D02*
X12583333Y-38151666D01*
X12550000Y-38085000D01*
X12550000Y-37985000D01*
X12583333Y-37918333D01*
X12650000Y-37885000D01*
X13016666Y-37885000D01*
X12650000Y-37318333D02*
X12650000Y-37551666D01*
X13016666Y-37551666D02*
X12316666Y-37551666D01*
X12316666Y-37218333D01*
X10172857Y-26955714D02*
X10134761Y-26993809D01*
X10020476Y-27031904D01*
X9944285Y-27031904D01*
X9830000Y-26993809D01*
X9753809Y-26917619D01*
X9715714Y-26841428D01*
X9677619Y-26689047D01*
X9677619Y-26574761D01*
X9715714Y-26422380D01*
X9753809Y-26346190D01*
X9830000Y-26270000D01*
X9944285Y-26231904D01*
X10020476Y-26231904D01*
X10134761Y-26270000D01*
X10172857Y-26308095D01*
X10896666Y-27031904D02*
X10515714Y-27031904D01*
X10515714Y-26231904D01*
X11125238Y-26308095D02*
X11163333Y-26270000D01*
X11239523Y-26231904D01*
X11430000Y-26231904D01*
X11506190Y-26270000D01*
X11544285Y-26308095D01*
X11582380Y-26384285D01*
X11582380Y-26460476D01*
X11544285Y-26574761D01*
X11087142Y-27031904D01*
X11582380Y-27031904D01*
X11925238Y-27031904D02*
X11925238Y-26231904D01*
X12382380Y-27031904D01*
X12382380Y-26231904D01*
X12687142Y-26231904D02*
X13182380Y-26231904D01*
X12915714Y-26536666D01*
X13030000Y-26536666D01*
X13106190Y-26574761D01*
X13144285Y-26612857D01*
X13182380Y-26689047D01*
X13182380Y-26879523D01*
X13144285Y-26955714D01*
X13106190Y-26993809D01*
X13030000Y-27031904D01*
X12801428Y-27031904D01*
X12725238Y-26993809D01*
X12687142Y-26955714D01*
X26308095Y-33540476D02*
X26270000Y-33502380D01*
X26231904Y-33426190D01*
X26231904Y-33235714D01*
X26270000Y-33159523D01*
X26308095Y-33121428D01*
X26384285Y-33083333D01*
X26460476Y-33083333D01*
X26574761Y-33121428D01*
X27031904Y-33578571D01*
X27031904Y-33083333D01*
X26231904Y-32588095D02*
X26231904Y-32511904D01*
X26270000Y-32435714D01*
X26308095Y-32397619D01*
X26384285Y-32359523D01*
X26536666Y-32321428D01*
X26727142Y-32321428D01*
X26879523Y-32359523D01*
X26955714Y-32397619D01*
X26993809Y-32435714D01*
X27031904Y-32511904D01*
X27031904Y-32588095D01*
X26993809Y-32664285D01*
X26955714Y-32702380D01*
X26879523Y-32740476D01*
X26727142Y-32778571D01*
X26536666Y-32778571D01*
X26384285Y-32740476D01*
X26308095Y-32702380D01*
X26270000Y-32664285D01*
X26231904Y-32588095D01*
X27031904Y-31369047D02*
X26498571Y-31369047D01*
X26574761Y-31369047D02*
X26536666Y-31330952D01*
X26498571Y-31254761D01*
X26498571Y-31140476D01*
X26536666Y-31064285D01*
X26612857Y-31026190D01*
X27031904Y-31026190D01*
X26612857Y-31026190D02*
X26536666Y-30988095D01*
X26498571Y-30911904D01*
X26498571Y-30797619D01*
X26536666Y-30721428D01*
X26612857Y-30683333D01*
X27031904Y-30683333D01*
X26803333Y-30340476D02*
X26803333Y-29959523D01*
X27031904Y-30416666D02*
X26231904Y-30150000D01*
X27031904Y-29883333D01*
X1460714Y-32472380D02*
X984523Y-32472380D01*
X936904Y-32948571D01*
X984523Y-32900952D01*
X1079761Y-32853333D01*
X1317857Y-32853333D01*
X1413095Y-32900952D01*
X1460714Y-32948571D01*
X1508333Y-33043809D01*
X1508333Y-33281904D01*
X1460714Y-33377142D01*
X1413095Y-33424761D01*
X1317857Y-33472380D01*
X1079761Y-33472380D01*
X984523Y-33424761D01*
X936904Y-33377142D01*
X1936904Y-33091428D02*
X2698809Y-33091428D01*
X3222619Y-33472380D02*
X3413095Y-33472380D01*
X3508333Y-33424761D01*
X3555952Y-33377142D01*
X3651190Y-33234285D01*
X3698809Y-33043809D01*
X3698809Y-32662857D01*
X3651190Y-32567619D01*
X3603571Y-32520000D01*
X3508333Y-32472380D01*
X3317857Y-32472380D01*
X3222619Y-32520000D01*
X3175000Y-32567619D01*
X3127380Y-32662857D01*
X3127380Y-32900952D01*
X3175000Y-32996190D01*
X3222619Y-33043809D01*
X3317857Y-33091428D01*
X3508333Y-33091428D01*
X3603571Y-33043809D01*
X3651190Y-32996190D01*
X3698809Y-32900952D01*
X4317857Y-32472380D02*
X4413095Y-32472380D01*
X4508333Y-32520000D01*
X4555952Y-32567619D01*
X4603571Y-32662857D01*
X4651190Y-32853333D01*
X4651190Y-33091428D01*
X4603571Y-33281904D01*
X4555952Y-33377142D01*
X4508333Y-33424761D01*
X4413095Y-33472380D01*
X4317857Y-33472380D01*
X4222619Y-33424761D01*
X4175000Y-33377142D01*
X4127380Y-33281904D01*
X4079761Y-33091428D01*
X4079761Y-32853333D01*
X4127380Y-32662857D01*
X4175000Y-32567619D01*
X4222619Y-32520000D01*
X4317857Y-32472380D01*
X4984523Y-32805714D02*
X5222619Y-33472380D01*
X5460714Y-32805714D01*
X16276681Y-43950000D02*
X16187395Y-43902380D01*
X16044538Y-43902380D01*
X15895729Y-43950000D01*
X15788586Y-44045238D01*
X15729062Y-44140476D01*
X15657633Y-44330952D01*
X15639776Y-44473809D01*
X15663586Y-44664285D01*
X15699300Y-44759523D01*
X15782633Y-44854761D01*
X15919538Y-44902380D01*
X16014776Y-44902380D01*
X16163586Y-44854761D01*
X16217157Y-44807142D01*
X16258824Y-44473809D01*
X16068348Y-44473809D01*
X17020729Y-44854761D02*
X16919538Y-44902380D01*
X16729062Y-44902380D01*
X16639776Y-44854761D01*
X16604062Y-44759523D01*
X16651681Y-44378571D01*
X16711205Y-44283333D01*
X16812395Y-44235714D01*
X17002872Y-44235714D01*
X17092157Y-44283333D01*
X17127872Y-44378571D01*
X17115967Y-44473809D01*
X16627872Y-44569047D01*
X17574300Y-44235714D02*
X17490967Y-44902380D01*
X17562395Y-44330952D02*
X17615967Y-44283333D01*
X17717157Y-44235714D01*
X17860014Y-44235714D01*
X17949300Y-44283333D01*
X17985014Y-44378571D01*
X17919538Y-44902380D01*
X18425491Y-43902380D02*
X19044538Y-43902380D01*
X18663586Y-44283333D01*
X18806443Y-44283333D01*
X18895729Y-44330952D01*
X18937395Y-44378571D01*
X18973110Y-44473809D01*
X18943348Y-44711904D01*
X18883824Y-44807142D01*
X18830252Y-44854761D01*
X18729062Y-44902380D01*
X18443348Y-44902380D01*
X18354062Y-44854761D01*
X18312395Y-44807142D01*
X19431443Y-44235714D02*
X19306443Y-45235714D01*
X19425491Y-44283333D02*
X19526681Y-44235714D01*
X19717157Y-44235714D01*
X19806443Y-44283333D01*
X19848110Y-44330952D01*
X19883824Y-44426190D01*
X19848110Y-44711904D01*
X19788586Y-44807142D01*
X19735014Y-44854761D01*
X19633824Y-44902380D01*
X19443348Y-44902380D01*
X19354062Y-44854761D01*
X20252872Y-44902380D02*
X20336205Y-44235714D01*
X20377872Y-43902380D02*
X20324300Y-43950000D01*
X20365967Y-43997619D01*
X20419538Y-43950000D01*
X20377872Y-43902380D01*
X20365967Y-43997619D01*
X21157633Y-44902380D02*
X21223110Y-44378571D01*
X21187395Y-44283333D01*
X21098110Y-44235714D01*
X20907633Y-44235714D01*
X20806443Y-44283333D01*
X21163586Y-44854761D02*
X21062395Y-44902380D01*
X20824300Y-44902380D01*
X20735014Y-44854761D01*
X20699300Y-44759523D01*
X20711205Y-44664285D01*
X20770729Y-44569047D01*
X20871919Y-44521428D01*
X21110014Y-44521428D01*
X21211205Y-44473809D01*
X21717157Y-44235714D02*
X21633824Y-44902380D01*
X21705252Y-44330952D02*
X21758824Y-44283333D01*
X21860014Y-44235714D01*
X22002872Y-44235714D01*
X22092157Y-44283333D01*
X22127872Y-44378571D01*
X22062395Y-44902380D01*
X22681443Y-44902380D02*
X22592157Y-44854761D01*
X22550491Y-44807142D01*
X22514776Y-44711904D01*
X22550491Y-44426190D01*
X22610014Y-44330952D01*
X22663586Y-44283333D01*
X22764776Y-44235714D01*
X22907633Y-44235714D01*
X22996919Y-44283333D01*
X23038586Y-44330952D01*
X23074300Y-44426190D01*
X23038586Y-44711904D01*
X22979062Y-44807142D01*
X22925491Y-44854761D01*
X22824300Y-44902380D01*
X22681443Y-44902380D01*
X24252872Y-44521428D02*
X25014776Y-44521428D01*
X26235014Y-43902380D02*
X26348110Y-44902380D01*
X26627872Y-44188095D01*
X26729062Y-44902380D01*
X27092157Y-43902380D01*
X27348110Y-44902380D02*
X27431443Y-44235714D01*
X27473110Y-43902380D02*
X27419538Y-43950000D01*
X27461205Y-43997619D01*
X27514776Y-43950000D01*
X27473110Y-43902380D01*
X27461205Y-43997619D01*
X27824300Y-44902380D02*
X27907633Y-44235714D01*
X27883824Y-44426190D02*
X27943348Y-44330952D01*
X27996919Y-44283333D01*
X28098110Y-44235714D01*
X28193348Y-44235714D01*
X28830252Y-44854761D02*
X28729062Y-44902380D01*
X28538586Y-44902380D01*
X28449300Y-44854761D01*
X28413586Y-44759523D01*
X28461205Y-44378571D01*
X28520729Y-44283333D01*
X28621919Y-44235714D01*
X28812395Y-44235714D01*
X28901681Y-44283333D01*
X28937395Y-44378571D01*
X28925491Y-44473809D01*
X28437395Y-44569047D01*
X29300491Y-44902380D02*
X29425491Y-43902380D01*
X29729062Y-44902380D02*
X29794538Y-44378571D01*
X29758824Y-44283333D01*
X29669538Y-44235714D01*
X29526681Y-44235714D01*
X29425491Y-44283333D01*
X29371919Y-44330952D01*
X30592157Y-44854761D02*
X30490967Y-44902380D01*
X30300491Y-44902380D01*
X30211205Y-44854761D01*
X30175491Y-44759523D01*
X30223110Y-44378571D01*
X30282633Y-44283333D01*
X30383824Y-44235714D01*
X30574300Y-44235714D01*
X30663586Y-44283333D01*
X30699300Y-44378571D01*
X30687395Y-44473809D01*
X30199300Y-44569047D01*
X31490967Y-44902380D02*
X31556443Y-44378571D01*
X31520729Y-44283333D01*
X31431443Y-44235714D01*
X31240967Y-44235714D01*
X31139776Y-44283333D01*
X31496919Y-44854761D02*
X31395729Y-44902380D01*
X31157633Y-44902380D01*
X31068348Y-44854761D01*
X31032633Y-44759523D01*
X31044538Y-44664285D01*
X31104062Y-44569047D01*
X31205252Y-44521428D01*
X31443348Y-44521428D01*
X31544538Y-44473809D01*
X32395729Y-44902380D02*
X32520729Y-43902380D01*
X32401681Y-44854761D02*
X32300491Y-44902380D01*
X32110014Y-44902380D01*
X32020729Y-44854761D01*
X31979062Y-44807142D01*
X31943348Y-44711904D01*
X31979062Y-44426190D01*
X32038586Y-44330952D01*
X32092157Y-44283333D01*
X32193348Y-44235714D01*
X32383824Y-44235714D01*
X32473110Y-44283333D01*
X33621919Y-44616666D02*
X34098110Y-44616666D01*
X33490967Y-44902380D02*
X33949300Y-43902380D01*
X34157633Y-44902380D01*
X34490967Y-44902380D02*
X34574300Y-44235714D01*
X34550491Y-44426190D02*
X34610014Y-44330952D01*
X34663586Y-44283333D01*
X34764776Y-44235714D01*
X34860014Y-44235714D01*
X35050491Y-44235714D02*
X35431443Y-44235714D01*
X35235014Y-43902380D02*
X35127872Y-44759523D01*
X35163586Y-44854761D01*
X35252872Y-44902380D01*
X35348110Y-44902380D01*
X35639776Y-44854761D02*
X35729062Y-44902380D01*
X35919538Y-44902380D01*
X36020729Y-44854761D01*
X36080252Y-44759523D01*
X36086205Y-44711904D01*
X36050491Y-44616666D01*
X35961205Y-44569047D01*
X35818348Y-44569047D01*
X35729062Y-44521428D01*
X35693348Y-44426190D01*
X35699300Y-44378571D01*
X35758824Y-44283333D01*
X35860014Y-44235714D01*
X36002872Y-44235714D01*
X36092157Y-44283333D01*
X37300491Y-44521428D02*
X38062395Y-44521428D01*
X39318348Y-43997619D02*
X39371919Y-43950000D01*
X39473110Y-43902380D01*
X39711205Y-43902380D01*
X39800491Y-43950000D01*
X39842157Y-43997619D01*
X39877872Y-44092857D01*
X39865967Y-44188095D01*
X39800491Y-44330952D01*
X39157633Y-44902380D01*
X39776681Y-44902380D01*
X40520729Y-43902380D02*
X40615967Y-43902380D01*
X40705252Y-43950000D01*
X40746919Y-43997619D01*
X40782633Y-44092857D01*
X40806443Y-44283333D01*
X40776681Y-44521428D01*
X40705252Y-44711904D01*
X40645729Y-44807142D01*
X40592157Y-44854761D01*
X40490967Y-44902380D01*
X40395729Y-44902380D01*
X40306443Y-44854761D01*
X40264776Y-44807142D01*
X40229062Y-44711904D01*
X40205252Y-44521428D01*
X40235014Y-44283333D01*
X40306443Y-44092857D01*
X40365967Y-43997619D01*
X40419538Y-43950000D01*
X40520729Y-43902380D01*
X41681443Y-44902380D02*
X41110014Y-44902380D01*
X41395729Y-44902380D02*
X41520729Y-43902380D01*
X41407633Y-44045238D01*
X41300491Y-44140476D01*
X41199300Y-44188095D01*
X42157633Y-44902380D02*
X42348110Y-44902380D01*
X42449300Y-44854761D01*
X42502872Y-44807142D01*
X42615967Y-44664285D01*
X42687395Y-44473809D01*
X42735014Y-44092857D01*
X42699300Y-43997619D01*
X42657633Y-43950000D01*
X42568348Y-43902380D01*
X42377872Y-43902380D01*
X42276681Y-43950000D01*
X42223110Y-43997619D01*
X42163586Y-44092857D01*
X42133824Y-44330952D01*
X42169538Y-44426190D01*
X42211205Y-44473809D01*
X42300491Y-44521428D01*
X42490967Y-44521428D01*
X42592157Y-44473809D01*
X42645729Y-44426190D01*
X42705252Y-44330952D01*
X-13755715Y-21098333D02*
X-14422381Y-21098333D01*
X-13374762Y-20860238D02*
X-14089048Y-20622142D01*
X-14089048Y-21241190D01*
X-14422381Y-21669761D02*
X-14422381Y-21860238D01*
X-14374762Y-21955476D01*
X-14327143Y-22003095D01*
X-14184286Y-22098333D01*
X-13993810Y-22145952D01*
X-13612858Y-22145952D01*
X-13517620Y-22098333D01*
X-13470000Y-22050714D01*
X-13422381Y-21955476D01*
X-13422381Y-21765000D01*
X-13470000Y-21669761D01*
X-13517620Y-21622142D01*
X-13612858Y-21574523D01*
X-13850953Y-21574523D01*
X-13946191Y-21622142D01*
X-13993810Y-21669761D01*
X-14041429Y-21765000D01*
X-14041429Y-21955476D01*
X-13993810Y-22050714D01*
X-13946191Y-22098333D01*
X-13850953Y-22145952D01*
X-14327143Y-22574523D02*
X-14374762Y-22622142D01*
X-14422381Y-22574523D01*
X-14374762Y-22526904D01*
X-14327143Y-22574523D01*
X-14422381Y-22574523D01*
X-13422381Y-23526904D02*
X-13422381Y-23050714D01*
X-13898572Y-23003095D01*
X-13850953Y-23050714D01*
X-13803334Y-23145952D01*
X-13803334Y-23384047D01*
X-13850953Y-23479285D01*
X-13898572Y-23526904D01*
X-13993810Y-23574523D01*
X-14231905Y-23574523D01*
X-14327143Y-23526904D01*
X-14374762Y-23479285D01*
X-14422381Y-23384047D01*
X-14422381Y-23145952D01*
X-14374762Y-23050714D01*
X-14327143Y-23003095D01*
X-13422381Y-23907857D02*
X-13422381Y-24526904D01*
X-13803334Y-24193571D01*
X-13803334Y-24336428D01*
X-13850953Y-24431666D01*
X-13898572Y-24479285D01*
X-13993810Y-24526904D01*
X-14231905Y-24526904D01*
X-14327143Y-24479285D01*
X-14374762Y-24431666D01*
X-14422381Y-24336428D01*
X-14422381Y-24050714D01*
X-14374762Y-23955476D01*
X-14327143Y-23907857D01*
X-13422381Y-25145952D02*
X-13422381Y-25241190D01*
X-13470000Y-25336428D01*
X-13517620Y-25384047D01*
X-13612858Y-25431666D01*
X-13803334Y-25479285D01*
X-14041429Y-25479285D01*
X-14231905Y-25431666D01*
X-14327143Y-25384047D01*
X-14374762Y-25336428D01*
X-14422381Y-25241190D01*
X-14422381Y-25145952D01*
X-14374762Y-25050714D01*
X-14327143Y-25003095D01*
X-14231905Y-24955476D01*
X-14041429Y-24907857D01*
X-13803334Y-24907857D01*
X-13612858Y-24955476D01*
X-13517620Y-25003095D01*
X-13470000Y-25050714D01*
X-13422381Y-25145952D01*
X-14422381Y-26669761D02*
X-13755715Y-26669761D01*
X-13850953Y-26669761D02*
X-13803334Y-26717380D01*
X-13755715Y-26812619D01*
X-13755715Y-26955476D01*
X-13803334Y-27050714D01*
X-13898572Y-27098333D01*
X-14422381Y-27098333D01*
X-13898572Y-27098333D02*
X-13803334Y-27145952D01*
X-13755715Y-27241190D01*
X-13755715Y-27384047D01*
X-13803334Y-27479285D01*
X-13898572Y-27526904D01*
X-14422381Y-27526904D01*
X-14422381Y-28003095D02*
X-13755715Y-28003095D01*
X-13850953Y-28003095D02*
X-13803334Y-28050714D01*
X-13755715Y-28145952D01*
X-13755715Y-28288809D01*
X-13803334Y-28384047D01*
X-13898572Y-28431666D01*
X-14422381Y-28431666D01*
X-13898572Y-28431666D02*
X-13803334Y-28479285D01*
X-13755715Y-28574523D01*
X-13755715Y-28717380D01*
X-13803334Y-28812619D01*
X-13898572Y-28860238D01*
X-14422381Y-28860238D01*
D12*
X-12700000Y0D02*
X-12700000Y-49530000D01*
X-10160000Y0D02*
X-13286421Y0D01*
X-10160000Y-49530000D02*
X-13286421Y-49530000D01*
X-12700000Y-49530000D02*
X-13286421Y-48403496D01*
X-12700000Y-49530000D02*
X-12113579Y-48403496D01*
X-12700000Y0D02*
X-13286421Y-1126504D01*
X-12700000Y0D02*
X-12113579Y-1126504D01*
D10*
X21098333Y7834286D02*
X21098333Y7167620D01*
X20860238Y8215239D02*
X20622142Y7500953D01*
X21241190Y7500953D01*
X21669761Y7167620D02*
X21860238Y7167620D01*
X21955476Y7215239D01*
X22003095Y7262858D01*
X22098333Y7405715D01*
X22145952Y7596191D01*
X22145952Y7977143D01*
X22098333Y8072381D01*
X22050714Y8120000D01*
X21955476Y8167620D01*
X21765000Y8167620D01*
X21669761Y8120000D01*
X21622142Y8072381D01*
X21574523Y7977143D01*
X21574523Y7739048D01*
X21622142Y7643810D01*
X21669761Y7596191D01*
X21765000Y7548572D01*
X21955476Y7548572D01*
X22050714Y7596191D01*
X22098333Y7643810D01*
X22145952Y7739048D01*
X22574523Y7262858D02*
X22622142Y7215239D01*
X22574523Y7167620D01*
X22526904Y7215239D01*
X22574523Y7262858D01*
X22574523Y7167620D01*
X23526904Y8167620D02*
X23050714Y8167620D01*
X23003095Y7691429D01*
X23050714Y7739048D01*
X23145952Y7786667D01*
X23384047Y7786667D01*
X23479285Y7739048D01*
X23526904Y7691429D01*
X23574523Y7596191D01*
X23574523Y7358096D01*
X23526904Y7262858D01*
X23479285Y7215239D01*
X23384047Y7167620D01*
X23145952Y7167620D01*
X23050714Y7215239D01*
X23003095Y7262858D01*
X23907857Y8167620D02*
X24526904Y8167620D01*
X24193571Y7786667D01*
X24336428Y7786667D01*
X24431666Y7739048D01*
X24479285Y7691429D01*
X24526904Y7596191D01*
X24526904Y7358096D01*
X24479285Y7262858D01*
X24431666Y7215239D01*
X24336428Y7167620D01*
X24050714Y7167620D01*
X23955476Y7215239D01*
X23907857Y7262858D01*
X25145952Y8167620D02*
X25241190Y8167620D01*
X25336428Y8120000D01*
X25384047Y8072381D01*
X25431666Y7977143D01*
X25479285Y7786667D01*
X25479285Y7548572D01*
X25431666Y7358096D01*
X25384047Y7262858D01*
X25336428Y7215239D01*
X25241190Y7167620D01*
X25145952Y7167620D01*
X25050714Y7215239D01*
X25003095Y7262858D01*
X24955476Y7358096D01*
X24907857Y7548572D01*
X24907857Y7786667D01*
X24955476Y7977143D01*
X25003095Y8072381D01*
X25050714Y8120000D01*
X25145952Y8167620D01*
X26669761Y7167620D02*
X26669761Y7834286D01*
X26669761Y7739048D02*
X26717380Y7786667D01*
X26812619Y7834286D01*
X26955476Y7834286D01*
X27050714Y7786667D01*
X27098333Y7691429D01*
X27098333Y7167620D01*
X27098333Y7691429D02*
X27145952Y7786667D01*
X27241190Y7834286D01*
X27384047Y7834286D01*
X27479285Y7786667D01*
X27526904Y7691429D01*
X27526904Y7167620D01*
X28003095Y7167620D02*
X28003095Y7834286D01*
X28003095Y7739048D02*
X28050714Y7786667D01*
X28145952Y7834286D01*
X28288809Y7834286D01*
X28384047Y7786667D01*
X28431666Y7691429D01*
X28431666Y7167620D01*
X28431666Y7691429D02*
X28479285Y7786667D01*
X28574523Y7834286D01*
X28717380Y7834286D01*
X28812619Y7786667D01*
X28860238Y7691429D01*
X28860238Y7167620D01*
D12*
X0Y6350000D02*
X49530000Y6350000D01*
X0Y3810000D02*
X0Y6936421D01*
X49530000Y3810000D02*
X49530000Y6936421D01*
X49530000Y6350000D02*
X48403496Y5763579D01*
X49530000Y6350000D02*
X48403496Y6936421D01*
X0Y6350000D02*
X1126504Y5763579D01*
X0Y6350000D02*
X1126504Y6936421D01*
X9235000Y-42450000D02*
X8790000Y-42450000D01*
X11530000Y-42450000D02*
X11085000Y-42450000D01*
X9235000Y-36210000D02*
X8790000Y-36210000D01*
X11530000Y-36210000D02*
X11085000Y-36210000D01*
X8790000Y-36210000D02*
X8790000Y-42450000D01*
X11530000Y-36210000D02*
X11530000Y-42450000D01*
X47558478Y-33588478D02*
G75*
G03X45720000Y-29150000I-1838478J1838478D01*
G01*
X43881522Y-33588478D02*
G75*
G02X45720000Y-29150000I1838478J1838478D01*
G01*
X43920000Y-33600000D02*
X47520000Y-33600000D01*
X46288478Y-25968478D02*
G75*
G03X44450000Y-21530000I-1838478J1838478D01*
G01*
X42611522Y-25968478D02*
G75*
G02X44450000Y-21530000I1838478J1838478D01*
G01*
X42650000Y-25980000D02*
X46250000Y-25980000D01*
X39938478Y-25968478D02*
G75*
G03X38100000Y-21530000I-1838478J1838478D01*
G01*
X36261522Y-25968478D02*
G75*
G02X38100000Y-21530000I1838478J1838478D01*
G01*
X36300000Y-25980000D02*
X39900000Y-25980000D01*
X33588478Y-25968478D02*
G75*
G03X31750000Y-21530000I-1838478J1838478D01*
G01*
X29911522Y-25968478D02*
G75*
G02X31750000Y-21530000I1838478J1838478D01*
G01*
X29950000Y-25980000D02*
X33550000Y-25980000D01*
X27238478Y-25968478D02*
G75*
G03X25400000Y-21530000I-1838478J1838478D01*
G01*
X23561522Y-25968478D02*
G75*
G02X25400000Y-21530000I1838478J1838478D01*
G01*
X23600000Y-25980000D02*
X27200000Y-25980000D01*
X20888478Y-25968478D02*
G75*
G03X19050000Y-21530000I-1838478J1838478D01*
G01*
X17211522Y-25968478D02*
G75*
G02X19050000Y-21530000I1838478J1838478D01*
G01*
X17250000Y-25980000D02*
X20850000Y-25980000D01*
X14538478Y-25968478D02*
G75*
G03X12700000Y-21530000I-1838478J1838478D01*
G01*
X10861522Y-25968478D02*
G75*
G02X12700000Y-21530000I1838478J1838478D01*
G01*
X10900000Y-25980000D02*
X14500000Y-25980000D01*
X8188478Y-31048478D02*
G75*
G03X6350000Y-26610000I-1838478J1838478D01*
G01*
X4511522Y-31048478D02*
G75*
G02X6350000Y-26610000I1838478J1838478D01*
G01*
X4550000Y-31060000D02*
X8150000Y-31060000D01*
X45740000Y-13610000D02*
X45740000Y-16290000D01*
X39500000Y-16290000D02*
X39500000Y-13610000D01*
X39650000Y-11830000D02*
X45590000Y-11830000D01*
X39650000Y-18070000D02*
X45590000Y-18070000D01*
X44034214Y-14950000D02*
G75*
G03X44034214Y-14950000I-1414214J0D01*
G01*
X43200000Y-4720000D02*
X43200000Y-7400000D01*
X36960000Y-7400000D02*
X36960000Y-4720000D01*
X37110000Y-2940000D02*
X43050000Y-2940000D01*
X37110000Y-9180000D02*
X43050000Y-9180000D01*
X41494214Y-6060000D02*
G75*
G03X41494214Y-6060000I-1414214J0D01*
G01*
X34310000Y-13610000D02*
X34310000Y-16290000D01*
X28070000Y-16290000D02*
X28070000Y-13610000D01*
X28220000Y-11830000D02*
X34160000Y-11830000D01*
X28220000Y-18070000D02*
X34160000Y-18070000D01*
X32604214Y-14950000D02*
G75*
G03X32604214Y-14950000I-1414214J0D01*
G01*
X31770000Y-4720000D02*
X31770000Y-7400000D01*
X25530000Y-7400000D02*
X25530000Y-4720000D01*
X25680000Y-2940000D02*
X31620000Y-2940000D01*
X25680000Y-9180000D02*
X31620000Y-9180000D01*
X30064214Y-6060000D02*
G75*
G03X30064214Y-6060000I-1414214J0D01*
G01*
X22880000Y-13610000D02*
X22880000Y-16290000D01*
X16640000Y-16290000D02*
X16640000Y-13610000D01*
X16790000Y-11830000D02*
X22730000Y-11830000D01*
X16790000Y-18070000D02*
X22730000Y-18070000D01*
X21174214Y-14950000D02*
G75*
G03X21174214Y-14950000I-1414214J0D01*
G01*
X20340000Y-4720000D02*
X20340000Y-7400000D01*
X14100000Y-7400000D02*
X14100000Y-4720000D01*
X14250000Y-2940000D02*
X20190000Y-2940000D01*
X14250000Y-9180000D02*
X20190000Y-9180000D01*
X18634214Y-6060000D02*
G75*
G03X18634214Y-6060000I-1414214J0D01*
G01*
X11450000Y-13610000D02*
X11450000Y-16290000D01*
X5210000Y-16290000D02*
X5210000Y-13610000D01*
X5360000Y-11830000D02*
X11300000Y-11830000D01*
X5360000Y-18070000D02*
X11300000Y-18070000D01*
X9744214Y-14950000D02*
G75*
G03X9744214Y-14950000I-1414214J0D01*
G01*
X8910000Y-4720000D02*
X8910000Y-7400000D01*
X2670000Y-7400000D02*
X2670000Y-4720000D01*
X2820000Y-2940000D02*
X8760000Y-2940000D01*
X2820000Y-9180000D02*
X8760000Y-9180000D01*
X7204214Y-6060000D02*
G75*
G03X7204214Y-6060000I-1414214J0D01*
G01*
X0Y-34290000D02*
X0Y-44450000D01*
X7620000Y-34290000D02*
X0Y-34290000D01*
X7620000Y-44450000D02*
X7620000Y-34290000D01*
X0Y-44450000D02*
X7620000Y-44450000D01*
X1270000Y-44450000D02*
X1270000Y-34290000D01*
X43630000Y-40639538D02*
G75*
G02X38080000Y-42184830I-2990000J-462D01*
G01*
X43630000Y-40640462D02*
G75*
G03X38080000Y-39095170I-2990000J462D01*
G01*
X43140000Y-40640000D02*
G75*
G03X43140000Y-40640000I-2500000J0D01*
G01*
X38080000Y-39095000D02*
X38080000Y-42185000D01*
X41090000Y-33019538D02*
G75*
G02X35540000Y-34564830I-2990000J-462D01*
G01*
X41090000Y-33020462D02*
G75*
G03X35540000Y-31475170I-2990000J462D01*
G01*
X40600000Y-33020000D02*
G75*
G03X40600000Y-33020000I-2500000J0D01*
G01*
X35540000Y-31475000D02*
X35540000Y-34565000D01*
X36010000Y-40639538D02*
G75*
G02X30460000Y-42184830I-2990000J-462D01*
G01*
X36010000Y-40640462D02*
G75*
G03X30460000Y-39095170I-2990000J462D01*
G01*
X35520000Y-40640000D02*
G75*
G03X35520000Y-40640000I-2500000J0D01*
G01*
X30460000Y-39095000D02*
X30460000Y-42185000D01*
X33470000Y-33019538D02*
G75*
G02X27920000Y-34564830I-2990000J-462D01*
G01*
X33470000Y-33020462D02*
G75*
G03X27920000Y-31475170I-2990000J462D01*
G01*
X32980000Y-33020000D02*
G75*
G03X32980000Y-33020000I-2500000J0D01*
G01*
X27920000Y-31475000D02*
X27920000Y-34565000D01*
X28390000Y-40639538D02*
G75*
G02X22840000Y-42184830I-2990000J-462D01*
G01*
X28390000Y-40640462D02*
G75*
G03X22840000Y-39095170I-2990000J462D01*
G01*
X27900000Y-40640000D02*
G75*
G03X27900000Y-40640000I-2500000J0D01*
G01*
X22840000Y-39095000D02*
X22840000Y-42185000D01*
X25850000Y-33019538D02*
G75*
G02X20300000Y-34564830I-2990000J-462D01*
G01*
X25850000Y-33020462D02*
G75*
G03X20300000Y-31475170I-2990000J462D01*
G01*
X25360000Y-33020000D02*
G75*
G03X25360000Y-33020000I-2500000J0D01*
G01*
X20300000Y-31475000D02*
X20300000Y-34565000D01*
X20770000Y-40639538D02*
G75*
G02X15220000Y-42184830I-2990000J-462D01*
G01*
X20770000Y-40640462D02*
G75*
G03X15220000Y-39095170I-2990000J462D01*
G01*
X20280000Y-40640000D02*
G75*
G03X20280000Y-40640000I-2500000J0D01*
G01*
X15220000Y-39095000D02*
X15220000Y-42185000D01*
X18230000Y-33019538D02*
G75*
G02X12680000Y-34564830I-2990000J-462D01*
G01*
X18230000Y-33020462D02*
G75*
G03X12680000Y-31475170I-2990000J462D01*
G01*
X17740000Y-33020000D02*
G75*
G03X17740000Y-33020000I-2500000J0D01*
G01*
X12680000Y-31475000D02*
X12680000Y-34565000D01*
D10*
X13017142Y-42076666D02*
X13064761Y-42124285D01*
X13112380Y-42267142D01*
X13112380Y-42362380D01*
X13064761Y-42505238D01*
X12969523Y-42600476D01*
X12874285Y-42648095D01*
X12683809Y-42695714D01*
X12540952Y-42695714D01*
X12350476Y-42648095D01*
X12255238Y-42600476D01*
X12160000Y-42505238D01*
X12112380Y-42362380D01*
X12112380Y-42267142D01*
X12160000Y-42124285D01*
X12207619Y-42076666D01*
X13112380Y-41124285D02*
X13112380Y-41695714D01*
X13112380Y-41410000D02*
X12112380Y-41410000D01*
X12255238Y-41505238D01*
X12350476Y-41600476D01*
X12398095Y-41695714D01*
X44958095Y-27642380D02*
X44958095Y-28451904D01*
X45005714Y-28547142D01*
X45053333Y-28594761D01*
X45148571Y-28642380D01*
X45339047Y-28642380D01*
X45434285Y-28594761D01*
X45481904Y-28547142D01*
X45529523Y-28451904D01*
X45529523Y-27642380D01*
X46148571Y-28070952D02*
X46053333Y-28023333D01*
X46005714Y-27975714D01*
X45958095Y-27880476D01*
X45958095Y-27832857D01*
X46005714Y-27737619D01*
X46053333Y-27690000D01*
X46148571Y-27642380D01*
X46339047Y-27642380D01*
X46434285Y-27690000D01*
X46481904Y-27737619D01*
X46529523Y-27832857D01*
X46529523Y-27880476D01*
X46481904Y-27975714D01*
X46434285Y-28023333D01*
X46339047Y-28070952D01*
X46148571Y-28070952D01*
X46053333Y-28118571D01*
X46005714Y-28166190D01*
X45958095Y-28261428D01*
X45958095Y-28451904D01*
X46005714Y-28547142D01*
X46053333Y-28594761D01*
X46148571Y-28642380D01*
X46339047Y-28642380D01*
X46434285Y-28594761D01*
X46481904Y-28547142D01*
X46529523Y-28451904D01*
X46529523Y-28261428D01*
X46481904Y-28166190D01*
X46434285Y-28118571D01*
X46339047Y-28070952D01*
X43688095Y-20022380D02*
X43688095Y-20831904D01*
X43735714Y-20927142D01*
X43783333Y-20974761D01*
X43878571Y-21022380D01*
X44069047Y-21022380D01*
X44164285Y-20974761D01*
X44211904Y-20927142D01*
X44259523Y-20831904D01*
X44259523Y-20022380D01*
X44640476Y-20022380D02*
X45307142Y-20022380D01*
X44878571Y-21022380D01*
X37338095Y-20022380D02*
X37338095Y-20831904D01*
X37385714Y-20927142D01*
X37433333Y-20974761D01*
X37528571Y-21022380D01*
X37719047Y-21022380D01*
X37814285Y-20974761D01*
X37861904Y-20927142D01*
X37909523Y-20831904D01*
X37909523Y-20022380D01*
X38814285Y-20022380D02*
X38623809Y-20022380D01*
X38528571Y-20070000D01*
X38480952Y-20117619D01*
X38385714Y-20260476D01*
X38338095Y-20450952D01*
X38338095Y-20831904D01*
X38385714Y-20927142D01*
X38433333Y-20974761D01*
X38528571Y-21022380D01*
X38719047Y-21022380D01*
X38814285Y-20974761D01*
X38861904Y-20927142D01*
X38909523Y-20831904D01*
X38909523Y-20593809D01*
X38861904Y-20498571D01*
X38814285Y-20450952D01*
X38719047Y-20403333D01*
X38528571Y-20403333D01*
X38433333Y-20450952D01*
X38385714Y-20498571D01*
X38338095Y-20593809D01*
X30988095Y-20022380D02*
X30988095Y-20831904D01*
X31035714Y-20927142D01*
X31083333Y-20974761D01*
X31178571Y-21022380D01*
X31369047Y-21022380D01*
X31464285Y-20974761D01*
X31511904Y-20927142D01*
X31559523Y-20831904D01*
X31559523Y-20022380D01*
X32511904Y-20022380D02*
X32035714Y-20022380D01*
X31988095Y-20498571D01*
X32035714Y-20450952D01*
X32130952Y-20403333D01*
X32369047Y-20403333D01*
X32464285Y-20450952D01*
X32511904Y-20498571D01*
X32559523Y-20593809D01*
X32559523Y-20831904D01*
X32511904Y-20927142D01*
X32464285Y-20974761D01*
X32369047Y-21022380D01*
X32130952Y-21022380D01*
X32035714Y-20974761D01*
X31988095Y-20927142D01*
X24638095Y-20022380D02*
X24638095Y-20831904D01*
X24685714Y-20927142D01*
X24733333Y-20974761D01*
X24828571Y-21022380D01*
X25019047Y-21022380D01*
X25114285Y-20974761D01*
X25161904Y-20927142D01*
X25209523Y-20831904D01*
X25209523Y-20022380D01*
X26114285Y-20355714D02*
X26114285Y-21022380D01*
X25876190Y-19974761D02*
X25638095Y-20689047D01*
X26257142Y-20689047D01*
X18288095Y-20022380D02*
X18288095Y-20831904D01*
X18335714Y-20927142D01*
X18383333Y-20974761D01*
X18478571Y-21022380D01*
X18669047Y-21022380D01*
X18764285Y-20974761D01*
X18811904Y-20927142D01*
X18859523Y-20831904D01*
X18859523Y-20022380D01*
X19240476Y-20022380D02*
X19859523Y-20022380D01*
X19526190Y-20403333D01*
X19669047Y-20403333D01*
X19764285Y-20450952D01*
X19811904Y-20498571D01*
X19859523Y-20593809D01*
X19859523Y-20831904D01*
X19811904Y-20927142D01*
X19764285Y-20974761D01*
X19669047Y-21022380D01*
X19383333Y-21022380D01*
X19288095Y-20974761D01*
X19240476Y-20927142D01*
X11938095Y-20022380D02*
X11938095Y-20831904D01*
X11985714Y-20927142D01*
X12033333Y-20974761D01*
X12128571Y-21022380D01*
X12319047Y-21022380D01*
X12414285Y-20974761D01*
X12461904Y-20927142D01*
X12509523Y-20831904D01*
X12509523Y-20022380D01*
X12938095Y-20117619D02*
X12985714Y-20070000D01*
X13080952Y-20022380D01*
X13319047Y-20022380D01*
X13414285Y-20070000D01*
X13461904Y-20117619D01*
X13509523Y-20212857D01*
X13509523Y-20308095D01*
X13461904Y-20450952D01*
X12890476Y-21022380D01*
X13509523Y-21022380D01*
X5588095Y-25102380D02*
X5588095Y-25911904D01*
X5635714Y-26007142D01*
X5683333Y-26054761D01*
X5778571Y-26102380D01*
X5969047Y-26102380D01*
X6064285Y-26054761D01*
X6111904Y-26007142D01*
X6159523Y-25911904D01*
X6159523Y-25102380D01*
X7159523Y-26102380D02*
X6588095Y-26102380D01*
X6873809Y-26102380D02*
X6873809Y-25102380D01*
X6778571Y-25245238D01*
X6683333Y-25340476D01*
X6588095Y-25388095D01*
X38036666Y-11054761D02*
X38179523Y-11102380D01*
X38417619Y-11102380D01*
X38512857Y-11054761D01*
X38560476Y-11007142D01*
X38608095Y-10911904D01*
X38608095Y-10816666D01*
X38560476Y-10721428D01*
X38512857Y-10673809D01*
X38417619Y-10626190D01*
X38227142Y-10578571D01*
X38131904Y-10530952D01*
X38084285Y-10483333D01*
X38036666Y-10388095D01*
X38036666Y-10292857D01*
X38084285Y-10197619D01*
X38131904Y-10150000D01*
X38227142Y-10102380D01*
X38465238Y-10102380D01*
X38608095Y-10150000D01*
X38941428Y-10102380D02*
X39179523Y-11102380D01*
X39370000Y-10388095D01*
X39560476Y-11102380D01*
X39798571Y-10102380D01*
X40322380Y-10530952D02*
X40227142Y-10483333D01*
X40179523Y-10435714D01*
X40131904Y-10340476D01*
X40131904Y-10292857D01*
X40179523Y-10197619D01*
X40227142Y-10150000D01*
X40322380Y-10102380D01*
X40512857Y-10102380D01*
X40608095Y-10150000D01*
X40655714Y-10197619D01*
X40703333Y-10292857D01*
X40703333Y-10340476D01*
X40655714Y-10435714D01*
X40608095Y-10483333D01*
X40512857Y-10530952D01*
X40322380Y-10530952D01*
X40227142Y-10578571D01*
X40179523Y-10626190D01*
X40131904Y-10721428D01*
X40131904Y-10911904D01*
X40179523Y-11007142D01*
X40227142Y-11054761D01*
X40322380Y-11102380D01*
X40512857Y-11102380D01*
X40608095Y-11054761D01*
X40655714Y-11007142D01*
X40703333Y-10911904D01*
X40703333Y-10721428D01*
X40655714Y-10626190D01*
X40608095Y-10578571D01*
X40512857Y-10530952D01*
X35496666Y-2164761D02*
X35639523Y-2212380D01*
X35877619Y-2212380D01*
X35972857Y-2164761D01*
X36020476Y-2117142D01*
X36068095Y-2021904D01*
X36068095Y-1926666D01*
X36020476Y-1831428D01*
X35972857Y-1783809D01*
X35877619Y-1736190D01*
X35687142Y-1688571D01*
X35591904Y-1640952D01*
X35544285Y-1593333D01*
X35496666Y-1498095D01*
X35496666Y-1402857D01*
X35544285Y-1307619D01*
X35591904Y-1260000D01*
X35687142Y-1212380D01*
X35925238Y-1212380D01*
X36068095Y-1260000D01*
X36401428Y-1212380D02*
X36639523Y-2212380D01*
X36830000Y-1498095D01*
X37020476Y-2212380D01*
X37258571Y-1212380D01*
X37544285Y-1212380D02*
X38210952Y-1212380D01*
X37782380Y-2212380D01*
X26606666Y-11054761D02*
X26749523Y-11102380D01*
X26987619Y-11102380D01*
X27082857Y-11054761D01*
X27130476Y-11007142D01*
X27178095Y-10911904D01*
X27178095Y-10816666D01*
X27130476Y-10721428D01*
X27082857Y-10673809D01*
X26987619Y-10626190D01*
X26797142Y-10578571D01*
X26701904Y-10530952D01*
X26654285Y-10483333D01*
X26606666Y-10388095D01*
X26606666Y-10292857D01*
X26654285Y-10197619D01*
X26701904Y-10150000D01*
X26797142Y-10102380D01*
X27035238Y-10102380D01*
X27178095Y-10150000D01*
X27511428Y-10102380D02*
X27749523Y-11102380D01*
X27940000Y-10388095D01*
X28130476Y-11102380D01*
X28368571Y-10102380D01*
X29178095Y-10102380D02*
X28987619Y-10102380D01*
X28892380Y-10150000D01*
X28844761Y-10197619D01*
X28749523Y-10340476D01*
X28701904Y-10530952D01*
X28701904Y-10911904D01*
X28749523Y-11007142D01*
X28797142Y-11054761D01*
X28892380Y-11102380D01*
X29082857Y-11102380D01*
X29178095Y-11054761D01*
X29225714Y-11007142D01*
X29273333Y-10911904D01*
X29273333Y-10673809D01*
X29225714Y-10578571D01*
X29178095Y-10530952D01*
X29082857Y-10483333D01*
X28892380Y-10483333D01*
X28797142Y-10530952D01*
X28749523Y-10578571D01*
X28701904Y-10673809D01*
X24066666Y-2164761D02*
X24209523Y-2212380D01*
X24447619Y-2212380D01*
X24542857Y-2164761D01*
X24590476Y-2117142D01*
X24638095Y-2021904D01*
X24638095Y-1926666D01*
X24590476Y-1831428D01*
X24542857Y-1783809D01*
X24447619Y-1736190D01*
X24257142Y-1688571D01*
X24161904Y-1640952D01*
X24114285Y-1593333D01*
X24066666Y-1498095D01*
X24066666Y-1402857D01*
X24114285Y-1307619D01*
X24161904Y-1260000D01*
X24257142Y-1212380D01*
X24495238Y-1212380D01*
X24638095Y-1260000D01*
X24971428Y-1212380D02*
X25209523Y-2212380D01*
X25400000Y-1498095D01*
X25590476Y-2212380D01*
X25828571Y-1212380D01*
X26685714Y-1212380D02*
X26209523Y-1212380D01*
X26161904Y-1688571D01*
X26209523Y-1640952D01*
X26304761Y-1593333D01*
X26542857Y-1593333D01*
X26638095Y-1640952D01*
X26685714Y-1688571D01*
X26733333Y-1783809D01*
X26733333Y-2021904D01*
X26685714Y-2117142D01*
X26638095Y-2164761D01*
X26542857Y-2212380D01*
X26304761Y-2212380D01*
X26209523Y-2164761D01*
X26161904Y-2117142D01*
X15176666Y-11054761D02*
X15319523Y-11102380D01*
X15557619Y-11102380D01*
X15652857Y-11054761D01*
X15700476Y-11007142D01*
X15748095Y-10911904D01*
X15748095Y-10816666D01*
X15700476Y-10721428D01*
X15652857Y-10673809D01*
X15557619Y-10626190D01*
X15367142Y-10578571D01*
X15271904Y-10530952D01*
X15224285Y-10483333D01*
X15176666Y-10388095D01*
X15176666Y-10292857D01*
X15224285Y-10197619D01*
X15271904Y-10150000D01*
X15367142Y-10102380D01*
X15605238Y-10102380D01*
X15748095Y-10150000D01*
X16081428Y-10102380D02*
X16319523Y-11102380D01*
X16510000Y-10388095D01*
X16700476Y-11102380D01*
X16938571Y-10102380D01*
X17748095Y-10435714D02*
X17748095Y-11102380D01*
X17510000Y-10054761D02*
X17271904Y-10769047D01*
X17890952Y-10769047D01*
X12636666Y-2164761D02*
X12779523Y-2212380D01*
X13017619Y-2212380D01*
X13112857Y-2164761D01*
X13160476Y-2117142D01*
X13208095Y-2021904D01*
X13208095Y-1926666D01*
X13160476Y-1831428D01*
X13112857Y-1783809D01*
X13017619Y-1736190D01*
X12827142Y-1688571D01*
X12731904Y-1640952D01*
X12684285Y-1593333D01*
X12636666Y-1498095D01*
X12636666Y-1402857D01*
X12684285Y-1307619D01*
X12731904Y-1260000D01*
X12827142Y-1212380D01*
X13065238Y-1212380D01*
X13208095Y-1260000D01*
X13541428Y-1212380D02*
X13779523Y-2212380D01*
X13970000Y-1498095D01*
X14160476Y-2212380D01*
X14398571Y-1212380D01*
X14684285Y-1212380D02*
X15303333Y-1212380D01*
X14970000Y-1593333D01*
X15112857Y-1593333D01*
X15208095Y-1640952D01*
X15255714Y-1688571D01*
X15303333Y-1783809D01*
X15303333Y-2021904D01*
X15255714Y-2117142D01*
X15208095Y-2164761D01*
X15112857Y-2212380D01*
X14827142Y-2212380D01*
X14731904Y-2164761D01*
X14684285Y-2117142D01*
X3746666Y-11054761D02*
X3889523Y-11102380D01*
X4127619Y-11102380D01*
X4222857Y-11054761D01*
X4270476Y-11007142D01*
X4318095Y-10911904D01*
X4318095Y-10816666D01*
X4270476Y-10721428D01*
X4222857Y-10673809D01*
X4127619Y-10626190D01*
X3937142Y-10578571D01*
X3841904Y-10530952D01*
X3794285Y-10483333D01*
X3746666Y-10388095D01*
X3746666Y-10292857D01*
X3794285Y-10197619D01*
X3841904Y-10150000D01*
X3937142Y-10102380D01*
X4175238Y-10102380D01*
X4318095Y-10150000D01*
X4651428Y-10102380D02*
X4889523Y-11102380D01*
X5080000Y-10388095D01*
X5270476Y-11102380D01*
X5508571Y-10102380D01*
X5841904Y-10197619D02*
X5889523Y-10150000D01*
X5984761Y-10102380D01*
X6222857Y-10102380D01*
X6318095Y-10150000D01*
X6365714Y-10197619D01*
X6413333Y-10292857D01*
X6413333Y-10388095D01*
X6365714Y-10530952D01*
X5794285Y-11102380D01*
X6413333Y-11102380D01*
X1206666Y-2164761D02*
X1349523Y-2212380D01*
X1587619Y-2212380D01*
X1682857Y-2164761D01*
X1730476Y-2117142D01*
X1778095Y-2021904D01*
X1778095Y-1926666D01*
X1730476Y-1831428D01*
X1682857Y-1783809D01*
X1587619Y-1736190D01*
X1397142Y-1688571D01*
X1301904Y-1640952D01*
X1254285Y-1593333D01*
X1206666Y-1498095D01*
X1206666Y-1402857D01*
X1254285Y-1307619D01*
X1301904Y-1260000D01*
X1397142Y-1212380D01*
X1635238Y-1212380D01*
X1778095Y-1260000D01*
X2111428Y-1212380D02*
X2349523Y-2212380D01*
X2540000Y-1498095D01*
X2730476Y-2212380D01*
X2968571Y-1212380D01*
X3873333Y-2212380D02*
X3301904Y-2212380D01*
X3587619Y-2212380D02*
X3587619Y-1212380D01*
X3492380Y-1355238D01*
X3397142Y-1450476D01*
X3301904Y-1498095D01*
X8342380Y-35258333D02*
X9056666Y-35258333D01*
X9199523Y-35305952D01*
X9294761Y-35401190D01*
X9342380Y-35544047D01*
X9342380Y-35639285D01*
X9342380Y-34258333D02*
X9342380Y-34829761D01*
X9342380Y-34544047D02*
X8342380Y-34544047D01*
X8485238Y-34639285D01*
X8580476Y-34734523D01*
X8628095Y-34829761D01*
X38997142Y-37132380D02*
X38997142Y-36132380D01*
X39235238Y-36132380D01*
X39378095Y-36180000D01*
X39473333Y-36275238D01*
X39520952Y-36370476D01*
X39568571Y-36560952D01*
X39568571Y-36703809D01*
X39520952Y-36894285D01*
X39473333Y-36989523D01*
X39378095Y-37084761D01*
X39235238Y-37132380D01*
X38997142Y-37132380D01*
X40140000Y-36560952D02*
X40044761Y-36513333D01*
X39997142Y-36465714D01*
X39949523Y-36370476D01*
X39949523Y-36322857D01*
X39997142Y-36227619D01*
X40044761Y-36180000D01*
X40140000Y-36132380D01*
X40330476Y-36132380D01*
X40425714Y-36180000D01*
X40473333Y-36227619D01*
X40520952Y-36322857D01*
X40520952Y-36370476D01*
X40473333Y-36465714D01*
X40425714Y-36513333D01*
X40330476Y-36560952D01*
X40140000Y-36560952D01*
X40044761Y-36608571D01*
X39997142Y-36656190D01*
X39949523Y-36751428D01*
X39949523Y-36941904D01*
X39997142Y-37037142D01*
X40044761Y-37084761D01*
X40140000Y-37132380D01*
X40330476Y-37132380D01*
X40425714Y-37084761D01*
X40473333Y-37037142D01*
X40520952Y-36941904D01*
X40520952Y-36751428D01*
X40473333Y-36656190D01*
X40425714Y-36608571D01*
X40330476Y-36560952D01*
X40901904Y-36846666D02*
X41378095Y-36846666D01*
X40806666Y-37132380D02*
X41140000Y-36132380D01*
X41473333Y-37132380D01*
X42330476Y-37132380D02*
X41759047Y-37132380D01*
X42044761Y-37132380D02*
X42044761Y-36132380D01*
X41949523Y-36275238D01*
X41854285Y-36370476D01*
X41759047Y-36418095D01*
X36457142Y-29512380D02*
X36457142Y-28512380D01*
X36695238Y-28512380D01*
X36838095Y-28560000D01*
X36933333Y-28655238D01*
X36980952Y-28750476D01*
X37028571Y-28940952D01*
X37028571Y-29083809D01*
X36980952Y-29274285D01*
X36933333Y-29369523D01*
X36838095Y-29464761D01*
X36695238Y-29512380D01*
X36457142Y-29512380D01*
X37361904Y-28512380D02*
X38028571Y-28512380D01*
X37600000Y-29512380D01*
X38361904Y-29226666D02*
X38838095Y-29226666D01*
X38266666Y-29512380D02*
X38600000Y-28512380D01*
X38933333Y-29512380D01*
X39790476Y-29512380D02*
X39219047Y-29512380D01*
X39504761Y-29512380D02*
X39504761Y-28512380D01*
X39409523Y-28655238D01*
X39314285Y-28750476D01*
X39219047Y-28798095D01*
X31377142Y-37132380D02*
X31377142Y-36132380D01*
X31615238Y-36132380D01*
X31758095Y-36180000D01*
X31853333Y-36275238D01*
X31900952Y-36370476D01*
X31948571Y-36560952D01*
X31948571Y-36703809D01*
X31900952Y-36894285D01*
X31853333Y-36989523D01*
X31758095Y-37084761D01*
X31615238Y-37132380D01*
X31377142Y-37132380D01*
X32805714Y-36132380D02*
X32615238Y-36132380D01*
X32520000Y-36180000D01*
X32472380Y-36227619D01*
X32377142Y-36370476D01*
X32329523Y-36560952D01*
X32329523Y-36941904D01*
X32377142Y-37037142D01*
X32424761Y-37084761D01*
X32520000Y-37132380D01*
X32710476Y-37132380D01*
X32805714Y-37084761D01*
X32853333Y-37037142D01*
X32900952Y-36941904D01*
X32900952Y-36703809D01*
X32853333Y-36608571D01*
X32805714Y-36560952D01*
X32710476Y-36513333D01*
X32520000Y-36513333D01*
X32424761Y-36560952D01*
X32377142Y-36608571D01*
X32329523Y-36703809D01*
X33281904Y-36846666D02*
X33758095Y-36846666D01*
X33186666Y-37132380D02*
X33520000Y-36132380D01*
X33853333Y-37132380D01*
X34710476Y-37132380D02*
X34139047Y-37132380D01*
X34424761Y-37132380D02*
X34424761Y-36132380D01*
X34329523Y-36275238D01*
X34234285Y-36370476D01*
X34139047Y-36418095D01*
X28837142Y-29512380D02*
X28837142Y-28512380D01*
X29075238Y-28512380D01*
X29218095Y-28560000D01*
X29313333Y-28655238D01*
X29360952Y-28750476D01*
X29408571Y-28940952D01*
X29408571Y-29083809D01*
X29360952Y-29274285D01*
X29313333Y-29369523D01*
X29218095Y-29464761D01*
X29075238Y-29512380D01*
X28837142Y-29512380D01*
X30313333Y-28512380D02*
X29837142Y-28512380D01*
X29789523Y-28988571D01*
X29837142Y-28940952D01*
X29932380Y-28893333D01*
X30170476Y-28893333D01*
X30265714Y-28940952D01*
X30313333Y-28988571D01*
X30360952Y-29083809D01*
X30360952Y-29321904D01*
X30313333Y-29417142D01*
X30265714Y-29464761D01*
X30170476Y-29512380D01*
X29932380Y-29512380D01*
X29837142Y-29464761D01*
X29789523Y-29417142D01*
X30741904Y-29226666D02*
X31218095Y-29226666D01*
X30646666Y-29512380D02*
X30980000Y-28512380D01*
X31313333Y-29512380D01*
X32170476Y-29512380D02*
X31599047Y-29512380D01*
X31884761Y-29512380D02*
X31884761Y-28512380D01*
X31789523Y-28655238D01*
X31694285Y-28750476D01*
X31599047Y-28798095D01*
X23757142Y-37132380D02*
X23757142Y-36132380D01*
X23995238Y-36132380D01*
X24138095Y-36180000D01*
X24233333Y-36275238D01*
X24280952Y-36370476D01*
X24328571Y-36560952D01*
X24328571Y-36703809D01*
X24280952Y-36894285D01*
X24233333Y-36989523D01*
X24138095Y-37084761D01*
X23995238Y-37132380D01*
X23757142Y-37132380D01*
X25185714Y-36465714D02*
X25185714Y-37132380D01*
X24947619Y-36084761D02*
X24709523Y-36799047D01*
X25328571Y-36799047D01*
X25661904Y-36846666D02*
X26138095Y-36846666D01*
X25566666Y-37132380D02*
X25900000Y-36132380D01*
X26233333Y-37132380D01*
X27090476Y-37132380D02*
X26519047Y-37132380D01*
X26804761Y-37132380D02*
X26804761Y-36132380D01*
X26709523Y-36275238D01*
X26614285Y-36370476D01*
X26519047Y-36418095D01*
X21217142Y-29512380D02*
X21217142Y-28512380D01*
X21455238Y-28512380D01*
X21598095Y-28560000D01*
X21693333Y-28655238D01*
X21740952Y-28750476D01*
X21788571Y-28940952D01*
X21788571Y-29083809D01*
X21740952Y-29274285D01*
X21693333Y-29369523D01*
X21598095Y-29464761D01*
X21455238Y-29512380D01*
X21217142Y-29512380D01*
X22121904Y-28512380D02*
X22740952Y-28512380D01*
X22407619Y-28893333D01*
X22550476Y-28893333D01*
X22645714Y-28940952D01*
X22693333Y-28988571D01*
X22740952Y-29083809D01*
X22740952Y-29321904D01*
X22693333Y-29417142D01*
X22645714Y-29464761D01*
X22550476Y-29512380D01*
X22264761Y-29512380D01*
X22169523Y-29464761D01*
X22121904Y-29417142D01*
X23121904Y-29226666D02*
X23598095Y-29226666D01*
X23026666Y-29512380D02*
X23360000Y-28512380D01*
X23693333Y-29512380D01*
X24550476Y-29512380D02*
X23979047Y-29512380D01*
X24264761Y-29512380D02*
X24264761Y-28512380D01*
X24169523Y-28655238D01*
X24074285Y-28750476D01*
X23979047Y-28798095D01*
X16137142Y-37132380D02*
X16137142Y-36132380D01*
X16375238Y-36132380D01*
X16518095Y-36180000D01*
X16613333Y-36275238D01*
X16660952Y-36370476D01*
X16708571Y-36560952D01*
X16708571Y-36703809D01*
X16660952Y-36894285D01*
X16613333Y-36989523D01*
X16518095Y-37084761D01*
X16375238Y-37132380D01*
X16137142Y-37132380D01*
X17089523Y-36227619D02*
X17137142Y-36180000D01*
X17232380Y-36132380D01*
X17470476Y-36132380D01*
X17565714Y-36180000D01*
X17613333Y-36227619D01*
X17660952Y-36322857D01*
X17660952Y-36418095D01*
X17613333Y-36560952D01*
X17041904Y-37132380D01*
X17660952Y-37132380D01*
X18041904Y-36846666D02*
X18518095Y-36846666D01*
X17946666Y-37132380D02*
X18280000Y-36132380D01*
X18613333Y-37132380D01*
X19470476Y-37132380D02*
X18899047Y-37132380D01*
X19184761Y-37132380D02*
X19184761Y-36132380D01*
X19089523Y-36275238D01*
X18994285Y-36370476D01*
X18899047Y-36418095D01*
X13597142Y-29512380D02*
X13597142Y-28512380D01*
X13835238Y-28512380D01*
X13978095Y-28560000D01*
X14073333Y-28655238D01*
X14120952Y-28750476D01*
X14168571Y-28940952D01*
X14168571Y-29083809D01*
X14120952Y-29274285D01*
X14073333Y-29369523D01*
X13978095Y-29464761D01*
X13835238Y-29512380D01*
X13597142Y-29512380D01*
X15120952Y-29512380D02*
X14549523Y-29512380D01*
X14835238Y-29512380D02*
X14835238Y-28512380D01*
X14740000Y-28655238D01*
X14644761Y-28750476D01*
X14549523Y-28798095D01*
X15501904Y-29226666D02*
X15978095Y-29226666D01*
X15406666Y-29512380D02*
X15740000Y-28512380D01*
X16073333Y-29512380D01*
X16930476Y-29512380D02*
X16359047Y-29512380D01*
X16644761Y-29512380D02*
X16644761Y-28512380D01*
X16549523Y-28655238D01*
X16454285Y-28750476D01*
X16359047Y-28798095D01*
M02*
