G04 #@! TF.GenerationSoftware,KiCad,Pcbnew,(5.1.2)-1*
G04 #@! TF.CreationDate,2019-05-02T22:44:15-07:00*
G04 #@! TF.ProjectId,gen3piano,67656e33-7069-4616-9e6f-2e6b69636164,rev?*
G04 #@! TF.SameCoordinates,PXe88b40PYc1c960*
G04 #@! TF.FileFunction,Soldermask,Top*
G04 #@! TF.FilePolarity,Negative*
%FSLAX46Y46*%
G04 Gerber Fmt 4.6, Leading zero omitted, Abs format (unit mm)*
G04 Created by KiCad (PCBNEW (5.1.2)-1) date 2019-05-02 22:44:15*
%MOMM*%
%LPD*%
G04 APERTURE LIST*
%ADD10C,0.100000*%
G04 APERTURE END LIST*
D10*
G36*
X48260000Y-10160000D02*
G01*
X46990000Y-10160000D01*
X46990000Y-5080000D01*
X48260000Y-5080000D01*
X48260000Y-10160000D01*
G37*
X48260000Y-10160000D02*
X46990000Y-10160000D01*
X46990000Y-5080000D01*
X48260000Y-5080000D01*
X48260000Y-10160000D01*
G36*
X47214549Y-42051116D02*
G01*
X47325734Y-42073232D01*
X47535203Y-42159997D01*
X47723720Y-42285960D01*
X47884040Y-42446280D01*
X47976160Y-42584148D01*
X48010004Y-42634799D01*
X48014094Y-42644674D01*
X48096768Y-42844266D01*
X48141000Y-43066636D01*
X48141000Y-43293364D01*
X48096768Y-43515734D01*
X48010003Y-43725203D01*
X47884040Y-43913720D01*
X47723720Y-44074040D01*
X47535203Y-44200003D01*
X47325734Y-44286768D01*
X47214549Y-44308884D01*
X47103365Y-44331000D01*
X46876635Y-44331000D01*
X46765451Y-44308884D01*
X46654266Y-44286768D01*
X46444797Y-44200003D01*
X46256280Y-44074040D01*
X46095960Y-43913720D01*
X45969997Y-43725203D01*
X45883232Y-43515734D01*
X45839000Y-43293364D01*
X45839000Y-43066636D01*
X45883232Y-42844266D01*
X45965906Y-42644674D01*
X45969996Y-42634799D01*
X46003840Y-42584148D01*
X46095960Y-42446280D01*
X46256280Y-42285960D01*
X46444797Y-42159997D01*
X46654266Y-42073232D01*
X46765451Y-42051116D01*
X46876635Y-42029000D01*
X47103365Y-42029000D01*
X47214549Y-42051116D01*
X47214549Y-42051116D01*
G37*
G36*
X3980879Y-40362604D02*
G01*
X4262410Y-40418604D01*
X4544674Y-40535521D01*
X4798705Y-40705259D01*
X5014741Y-40921295D01*
X5184479Y-41175326D01*
X5301396Y-41457590D01*
X5361000Y-41757240D01*
X5361000Y-42062760D01*
X5301396Y-42362410D01*
X5184479Y-42644674D01*
X5014741Y-42898705D01*
X4798705Y-43114741D01*
X4544674Y-43284479D01*
X4262410Y-43401396D01*
X4112585Y-43431198D01*
X3962761Y-43461000D01*
X3657239Y-43461000D01*
X3507415Y-43431198D01*
X3357590Y-43401396D01*
X3075326Y-43284479D01*
X2821295Y-43114741D01*
X2605259Y-42898705D01*
X2435521Y-42644674D01*
X2318604Y-42362410D01*
X2259000Y-42062760D01*
X2259000Y-41757240D01*
X2318604Y-41457590D01*
X2435521Y-41175326D01*
X2605259Y-40921295D01*
X2821295Y-40705259D01*
X3075326Y-40535521D01*
X3357590Y-40418604D01*
X3639121Y-40362604D01*
X3657239Y-40359000D01*
X3962761Y-40359000D01*
X3980879Y-40362604D01*
X3980879Y-40362604D01*
G37*
G36*
X10408228Y-41011703D02*
G01*
X10563100Y-41075853D01*
X10702481Y-41168985D01*
X10821015Y-41287519D01*
X10914147Y-41426900D01*
X10978297Y-41581772D01*
X11011000Y-41746184D01*
X11011000Y-41913816D01*
X10978297Y-42078228D01*
X10914147Y-42233100D01*
X10821015Y-42372481D01*
X10702481Y-42491015D01*
X10563100Y-42584147D01*
X10408228Y-42648297D01*
X10243816Y-42681000D01*
X10076184Y-42681000D01*
X9911772Y-42648297D01*
X9756900Y-42584147D01*
X9617519Y-42491015D01*
X9498985Y-42372481D01*
X9405853Y-42233100D01*
X9341703Y-42078228D01*
X9309000Y-41913816D01*
X9309000Y-41746184D01*
X9341703Y-41581772D01*
X9405853Y-41426900D01*
X9498985Y-41287519D01*
X9617519Y-41168985D01*
X9756900Y-41075853D01*
X9911772Y-41011703D01*
X10076184Y-40979000D01*
X10243816Y-40979000D01*
X10408228Y-41011703D01*
X10408228Y-41011703D01*
G37*
G36*
X34567395Y-39725546D02*
G01*
X34740466Y-39797234D01*
X34740467Y-39797235D01*
X34896227Y-39901310D01*
X35028690Y-40033773D01*
X35028691Y-40033775D01*
X35132766Y-40189534D01*
X35204454Y-40362605D01*
X35241000Y-40546333D01*
X35241000Y-40733667D01*
X35204454Y-40917395D01*
X35132766Y-41090466D01*
X35132765Y-41090467D01*
X35028690Y-41246227D01*
X34896227Y-41378690D01*
X34824075Y-41426900D01*
X34740466Y-41482766D01*
X34567395Y-41554454D01*
X34383667Y-41591000D01*
X34196333Y-41591000D01*
X34012605Y-41554454D01*
X33839534Y-41482766D01*
X33755925Y-41426900D01*
X33683773Y-41378690D01*
X33551310Y-41246227D01*
X33447235Y-41090467D01*
X33447234Y-41090466D01*
X33375546Y-40917395D01*
X33339000Y-40733667D01*
X33339000Y-40546333D01*
X33375546Y-40362605D01*
X33447234Y-40189534D01*
X33551309Y-40033775D01*
X33551310Y-40033773D01*
X33683773Y-39901310D01*
X33839533Y-39797235D01*
X33839534Y-39797234D01*
X34012605Y-39725546D01*
X34196333Y-39689000D01*
X34383667Y-39689000D01*
X34567395Y-39725546D01*
X34567395Y-39725546D01*
G37*
G36*
X42187395Y-39725546D02*
G01*
X42360466Y-39797234D01*
X42360467Y-39797235D01*
X42516227Y-39901310D01*
X42648690Y-40033773D01*
X42648691Y-40033775D01*
X42752766Y-40189534D01*
X42824454Y-40362605D01*
X42861000Y-40546333D01*
X42861000Y-40733667D01*
X42824454Y-40917395D01*
X42752766Y-41090466D01*
X42752765Y-41090467D01*
X42648690Y-41246227D01*
X42516227Y-41378690D01*
X42444075Y-41426900D01*
X42360466Y-41482766D01*
X42187395Y-41554454D01*
X42003667Y-41591000D01*
X41816333Y-41591000D01*
X41632605Y-41554454D01*
X41459534Y-41482766D01*
X41375925Y-41426900D01*
X41303773Y-41378690D01*
X41171310Y-41246227D01*
X41067235Y-41090467D01*
X41067234Y-41090466D01*
X40995546Y-40917395D01*
X40959000Y-40733667D01*
X40959000Y-40546333D01*
X40995546Y-40362605D01*
X41067234Y-40189534D01*
X41171309Y-40033775D01*
X41171310Y-40033773D01*
X41303773Y-39901310D01*
X41459533Y-39797235D01*
X41459534Y-39797234D01*
X41632605Y-39725546D01*
X41816333Y-39689000D01*
X42003667Y-39689000D01*
X42187395Y-39725546D01*
X42187395Y-39725546D01*
G37*
G36*
X40321000Y-41591000D02*
G01*
X38419000Y-41591000D01*
X38419000Y-39689000D01*
X40321000Y-39689000D01*
X40321000Y-41591000D01*
X40321000Y-41591000D01*
G37*
G36*
X32701000Y-41591000D02*
G01*
X30799000Y-41591000D01*
X30799000Y-39689000D01*
X32701000Y-39689000D01*
X32701000Y-41591000D01*
X32701000Y-41591000D01*
G37*
G36*
X26947395Y-39725546D02*
G01*
X27120466Y-39797234D01*
X27120467Y-39797235D01*
X27276227Y-39901310D01*
X27408690Y-40033773D01*
X27408691Y-40033775D01*
X27512766Y-40189534D01*
X27584454Y-40362605D01*
X27621000Y-40546333D01*
X27621000Y-40733667D01*
X27584454Y-40917395D01*
X27512766Y-41090466D01*
X27512765Y-41090467D01*
X27408690Y-41246227D01*
X27276227Y-41378690D01*
X27204075Y-41426900D01*
X27120466Y-41482766D01*
X26947395Y-41554454D01*
X26763667Y-41591000D01*
X26576333Y-41591000D01*
X26392605Y-41554454D01*
X26219534Y-41482766D01*
X26135925Y-41426900D01*
X26063773Y-41378690D01*
X25931310Y-41246227D01*
X25827235Y-41090467D01*
X25827234Y-41090466D01*
X25755546Y-40917395D01*
X25719000Y-40733667D01*
X25719000Y-40546333D01*
X25755546Y-40362605D01*
X25827234Y-40189534D01*
X25931309Y-40033775D01*
X25931310Y-40033773D01*
X26063773Y-39901310D01*
X26219533Y-39797235D01*
X26219534Y-39797234D01*
X26392605Y-39725546D01*
X26576333Y-39689000D01*
X26763667Y-39689000D01*
X26947395Y-39725546D01*
X26947395Y-39725546D01*
G37*
G36*
X25081000Y-41591000D02*
G01*
X23179000Y-41591000D01*
X23179000Y-39689000D01*
X25081000Y-39689000D01*
X25081000Y-41591000D01*
X25081000Y-41591000D01*
G37*
G36*
X19327395Y-39725546D02*
G01*
X19500466Y-39797234D01*
X19500467Y-39797235D01*
X19656227Y-39901310D01*
X19788690Y-40033773D01*
X19788691Y-40033775D01*
X19892766Y-40189534D01*
X19964454Y-40362605D01*
X20001000Y-40546333D01*
X20001000Y-40733667D01*
X19964454Y-40917395D01*
X19892766Y-41090466D01*
X19892765Y-41090467D01*
X19788690Y-41246227D01*
X19656227Y-41378690D01*
X19584075Y-41426900D01*
X19500466Y-41482766D01*
X19327395Y-41554454D01*
X19143667Y-41591000D01*
X18956333Y-41591000D01*
X18772605Y-41554454D01*
X18599534Y-41482766D01*
X18515925Y-41426900D01*
X18443773Y-41378690D01*
X18311310Y-41246227D01*
X18207235Y-41090467D01*
X18207234Y-41090466D01*
X18135546Y-40917395D01*
X18099000Y-40733667D01*
X18099000Y-40546333D01*
X18135546Y-40362605D01*
X18207234Y-40189534D01*
X18311309Y-40033775D01*
X18311310Y-40033773D01*
X18443773Y-39901310D01*
X18599533Y-39797235D01*
X18599534Y-39797234D01*
X18772605Y-39725546D01*
X18956333Y-39689000D01*
X19143667Y-39689000D01*
X19327395Y-39725546D01*
X19327395Y-39725546D01*
G37*
G36*
X17461000Y-41591000D02*
G01*
X15559000Y-41591000D01*
X15559000Y-39689000D01*
X17461000Y-39689000D01*
X17461000Y-41591000D01*
X17461000Y-41591000D01*
G37*
G36*
X5361000Y-38381000D02*
G01*
X2259000Y-38381000D01*
X2259000Y-35279000D01*
X5361000Y-35279000D01*
X5361000Y-38381000D01*
X5361000Y-38381000D01*
G37*
G36*
X10408228Y-36011703D02*
G01*
X10563100Y-36075853D01*
X10702481Y-36168985D01*
X10821015Y-36287519D01*
X10914147Y-36426900D01*
X10978297Y-36581772D01*
X11011000Y-36746184D01*
X11011000Y-36913816D01*
X10978297Y-37078228D01*
X10914147Y-37233100D01*
X10821015Y-37372481D01*
X10702481Y-37491015D01*
X10563100Y-37584147D01*
X10408228Y-37648297D01*
X10243816Y-37681000D01*
X10076184Y-37681000D01*
X9911772Y-37648297D01*
X9756900Y-37584147D01*
X9617519Y-37491015D01*
X9498985Y-37372481D01*
X9405853Y-37233100D01*
X9341703Y-37078228D01*
X9309000Y-36913816D01*
X9309000Y-36746184D01*
X9341703Y-36581772D01*
X9405853Y-36426900D01*
X9498985Y-36287519D01*
X9617519Y-36168985D01*
X9756900Y-36075853D01*
X9911772Y-36011703D01*
X10076184Y-35979000D01*
X10243816Y-35979000D01*
X10408228Y-36011703D01*
X10408228Y-36011703D01*
G37*
G36*
X30161000Y-33971000D02*
G01*
X28259000Y-33971000D01*
X28259000Y-32069000D01*
X30161000Y-32069000D01*
X30161000Y-33971000D01*
X30161000Y-33971000D01*
G37*
G36*
X14921000Y-33971000D02*
G01*
X13019000Y-33971000D01*
X13019000Y-32069000D01*
X14921000Y-32069000D01*
X14921000Y-33971000D01*
X14921000Y-33971000D01*
G37*
G36*
X16787395Y-32105546D02*
G01*
X16960466Y-32177234D01*
X16989292Y-32196495D01*
X17116227Y-32281310D01*
X17248690Y-32413773D01*
X17248691Y-32413775D01*
X17352766Y-32569534D01*
X17424454Y-32742605D01*
X17461000Y-32926333D01*
X17461000Y-33113667D01*
X17424454Y-33297395D01*
X17352766Y-33470466D01*
X17352765Y-33470467D01*
X17248690Y-33626227D01*
X17116227Y-33758690D01*
X17037818Y-33811081D01*
X16960466Y-33862766D01*
X16787395Y-33934454D01*
X16603667Y-33971000D01*
X16416333Y-33971000D01*
X16232605Y-33934454D01*
X16059534Y-33862766D01*
X15982182Y-33811081D01*
X15903773Y-33758690D01*
X15771310Y-33626227D01*
X15667235Y-33470467D01*
X15667234Y-33470466D01*
X15595546Y-33297395D01*
X15559000Y-33113667D01*
X15559000Y-32926333D01*
X15595546Y-32742605D01*
X15667234Y-32569534D01*
X15771309Y-32413775D01*
X15771310Y-32413773D01*
X15903773Y-32281310D01*
X16030708Y-32196495D01*
X16059534Y-32177234D01*
X16232605Y-32105546D01*
X16416333Y-32069000D01*
X16603667Y-32069000D01*
X16787395Y-32105546D01*
X16787395Y-32105546D01*
G37*
G36*
X22541000Y-33971000D02*
G01*
X20639000Y-33971000D01*
X20639000Y-32069000D01*
X22541000Y-32069000D01*
X22541000Y-33971000D01*
X22541000Y-33971000D01*
G37*
G36*
X24407395Y-32105546D02*
G01*
X24580466Y-32177234D01*
X24609292Y-32196495D01*
X24736227Y-32281310D01*
X24868690Y-32413773D01*
X24868691Y-32413775D01*
X24972766Y-32569534D01*
X25044454Y-32742605D01*
X25081000Y-32926333D01*
X25081000Y-33113667D01*
X25044454Y-33297395D01*
X24972766Y-33470466D01*
X24972765Y-33470467D01*
X24868690Y-33626227D01*
X24736227Y-33758690D01*
X24657818Y-33811081D01*
X24580466Y-33862766D01*
X24407395Y-33934454D01*
X24223667Y-33971000D01*
X24036333Y-33971000D01*
X23852605Y-33934454D01*
X23679534Y-33862766D01*
X23602182Y-33811081D01*
X23523773Y-33758690D01*
X23391310Y-33626227D01*
X23287235Y-33470467D01*
X23287234Y-33470466D01*
X23215546Y-33297395D01*
X23179000Y-33113667D01*
X23179000Y-32926333D01*
X23215546Y-32742605D01*
X23287234Y-32569534D01*
X23391309Y-32413775D01*
X23391310Y-32413773D01*
X23523773Y-32281310D01*
X23650708Y-32196495D01*
X23679534Y-32177234D01*
X23852605Y-32105546D01*
X24036333Y-32069000D01*
X24223667Y-32069000D01*
X24407395Y-32105546D01*
X24407395Y-32105546D01*
G37*
G36*
X39647395Y-32105546D02*
G01*
X39820466Y-32177234D01*
X39849292Y-32196495D01*
X39976227Y-32281310D01*
X40108690Y-32413773D01*
X40108691Y-32413775D01*
X40212766Y-32569534D01*
X40284454Y-32742605D01*
X40321000Y-32926333D01*
X40321000Y-33113667D01*
X40284454Y-33297395D01*
X40212766Y-33470466D01*
X40212765Y-33470467D01*
X40108690Y-33626227D01*
X39976227Y-33758690D01*
X39897818Y-33811081D01*
X39820466Y-33862766D01*
X39647395Y-33934454D01*
X39463667Y-33971000D01*
X39276333Y-33971000D01*
X39092605Y-33934454D01*
X38919534Y-33862766D01*
X38842182Y-33811081D01*
X38763773Y-33758690D01*
X38631310Y-33626227D01*
X38527235Y-33470467D01*
X38527234Y-33470466D01*
X38455546Y-33297395D01*
X38419000Y-33113667D01*
X38419000Y-32926333D01*
X38455546Y-32742605D01*
X38527234Y-32569534D01*
X38631309Y-32413775D01*
X38631310Y-32413773D01*
X38763773Y-32281310D01*
X38890708Y-32196495D01*
X38919534Y-32177234D01*
X39092605Y-32105546D01*
X39276333Y-32069000D01*
X39463667Y-32069000D01*
X39647395Y-32105546D01*
X39647395Y-32105546D01*
G37*
G36*
X37781000Y-33971000D02*
G01*
X35879000Y-33971000D01*
X35879000Y-32069000D01*
X37781000Y-32069000D01*
X37781000Y-33971000D01*
X37781000Y-33971000D01*
G37*
G36*
X32027395Y-32105546D02*
G01*
X32200466Y-32177234D01*
X32229292Y-32196495D01*
X32356227Y-32281310D01*
X32488690Y-32413773D01*
X32488691Y-32413775D01*
X32592766Y-32569534D01*
X32664454Y-32742605D01*
X32701000Y-32926333D01*
X32701000Y-33113667D01*
X32664454Y-33297395D01*
X32592766Y-33470466D01*
X32592765Y-33470467D01*
X32488690Y-33626227D01*
X32356227Y-33758690D01*
X32277818Y-33811081D01*
X32200466Y-33862766D01*
X32027395Y-33934454D01*
X31843667Y-33971000D01*
X31656333Y-33971000D01*
X31472605Y-33934454D01*
X31299534Y-33862766D01*
X31222182Y-33811081D01*
X31143773Y-33758690D01*
X31011310Y-33626227D01*
X30907235Y-33470467D01*
X30907234Y-33470466D01*
X30835546Y-33297395D01*
X30799000Y-33113667D01*
X30799000Y-32926333D01*
X30835546Y-32742605D01*
X30907234Y-32569534D01*
X31011309Y-32413775D01*
X31011310Y-32413773D01*
X31143773Y-32281310D01*
X31270708Y-32196495D01*
X31299534Y-32177234D01*
X31472605Y-32105546D01*
X31656333Y-32069000D01*
X31843667Y-32069000D01*
X32027395Y-32105546D01*
X32027395Y-32105546D01*
G37*
G36*
X47102915Y-30957334D02*
G01*
X47211491Y-30990271D01*
X47211494Y-30990272D01*
X47247600Y-31009571D01*
X47311556Y-31043756D01*
X47399264Y-31115736D01*
X47471244Y-31203443D01*
X47505429Y-31267399D01*
X47524728Y-31303505D01*
X47524729Y-31303508D01*
X47557666Y-31412084D01*
X47566000Y-31496702D01*
X47566000Y-32003297D01*
X47557666Y-32087916D01*
X47525252Y-32194767D01*
X47524728Y-32196495D01*
X47514761Y-32215141D01*
X47471244Y-32296557D01*
X47399264Y-32384264D01*
X47311557Y-32456244D01*
X47247601Y-32490429D01*
X47211495Y-32509728D01*
X47211492Y-32509729D01*
X47102916Y-32542666D01*
X46990000Y-32553787D01*
X46877085Y-32542666D01*
X46768509Y-32509729D01*
X46768506Y-32509728D01*
X46732400Y-32490429D01*
X46668444Y-32456244D01*
X46580737Y-32384264D01*
X46508757Y-32296557D01*
X46465239Y-32215141D01*
X46451625Y-32194766D01*
X46434298Y-32177439D01*
X46413924Y-32163826D01*
X46391285Y-32154448D01*
X46367252Y-32149668D01*
X46342748Y-32149668D01*
X46318715Y-32154448D01*
X46296076Y-32163826D01*
X46275701Y-32177440D01*
X46258374Y-32194767D01*
X46244761Y-32215141D01*
X46201244Y-32296557D01*
X46129264Y-32384264D01*
X46041557Y-32456244D01*
X45977601Y-32490429D01*
X45941495Y-32509728D01*
X45941492Y-32509729D01*
X45832916Y-32542666D01*
X45720000Y-32553787D01*
X45607085Y-32542666D01*
X45498509Y-32509729D01*
X45498506Y-32509728D01*
X45462400Y-32490429D01*
X45398444Y-32456244D01*
X45310737Y-32384264D01*
X45247622Y-32307359D01*
X45230297Y-32290034D01*
X45209923Y-32276420D01*
X45187284Y-32267043D01*
X45163250Y-32262263D01*
X45138746Y-32262263D01*
X45114713Y-32267044D01*
X45092074Y-32276421D01*
X45071700Y-32290035D01*
X45054373Y-32307362D01*
X45040759Y-32327736D01*
X45031382Y-32350375D01*
X45026000Y-32386660D01*
X45026000Y-32551000D01*
X43874000Y-32551000D01*
X43874000Y-30949000D01*
X45026000Y-30949000D01*
X45026000Y-31113341D01*
X45028402Y-31137727D01*
X45035515Y-31161176D01*
X45047066Y-31182787D01*
X45062611Y-31201729D01*
X45081553Y-31217274D01*
X45103164Y-31228825D01*
X45126613Y-31235938D01*
X45150999Y-31238340D01*
X45175385Y-31235938D01*
X45198834Y-31228825D01*
X45220445Y-31217274D01*
X45239387Y-31201729D01*
X45247608Y-31192657D01*
X45310736Y-31115736D01*
X45398443Y-31043756D01*
X45462399Y-31009571D01*
X45498505Y-30990272D01*
X45498508Y-30990271D01*
X45607084Y-30957334D01*
X45720000Y-30946213D01*
X45832915Y-30957334D01*
X45941491Y-30990271D01*
X45941494Y-30990272D01*
X45977600Y-31009571D01*
X46041556Y-31043756D01*
X46129264Y-31115736D01*
X46201244Y-31203443D01*
X46244761Y-31284859D01*
X46258375Y-31305234D01*
X46275702Y-31322561D01*
X46296076Y-31336174D01*
X46318715Y-31345552D01*
X46342748Y-31350332D01*
X46367252Y-31350332D01*
X46391285Y-31345552D01*
X46413924Y-31336174D01*
X46434299Y-31322560D01*
X46451626Y-31305233D01*
X46465239Y-31284860D01*
X46508756Y-31203444D01*
X46580736Y-31115736D01*
X46668443Y-31043756D01*
X46732399Y-31009571D01*
X46768505Y-30990272D01*
X46768508Y-30990271D01*
X46877084Y-30957334D01*
X46990000Y-30946213D01*
X47102915Y-30957334D01*
X47102915Y-30957334D01*
G37*
G36*
X7732915Y-28417334D02*
G01*
X7841491Y-28450271D01*
X7841494Y-28450272D01*
X7877600Y-28469571D01*
X7941556Y-28503756D01*
X8029264Y-28575736D01*
X8101244Y-28663443D01*
X8135429Y-28727399D01*
X8154728Y-28763505D01*
X8154729Y-28763508D01*
X8187666Y-28872084D01*
X8196000Y-28956702D01*
X8196000Y-29463297D01*
X8187666Y-29547916D01*
X8155252Y-29654767D01*
X8154728Y-29656495D01*
X8144761Y-29675141D01*
X8101244Y-29756557D01*
X8029264Y-29844264D01*
X7941557Y-29916244D01*
X7877601Y-29950429D01*
X7841495Y-29969728D01*
X7841492Y-29969729D01*
X7732916Y-30002666D01*
X7620000Y-30013787D01*
X7507085Y-30002666D01*
X7398509Y-29969729D01*
X7398506Y-29969728D01*
X7362400Y-29950429D01*
X7298444Y-29916244D01*
X7210737Y-29844264D01*
X7138757Y-29756557D01*
X7095239Y-29675141D01*
X7081625Y-29654766D01*
X7064298Y-29637439D01*
X7043924Y-29623826D01*
X7021285Y-29614448D01*
X6997252Y-29609668D01*
X6972748Y-29609668D01*
X6948715Y-29614448D01*
X6926076Y-29623826D01*
X6905701Y-29637440D01*
X6888374Y-29654767D01*
X6874761Y-29675141D01*
X6831244Y-29756557D01*
X6759264Y-29844264D01*
X6671557Y-29916244D01*
X6607601Y-29950429D01*
X6571495Y-29969728D01*
X6571492Y-29969729D01*
X6462916Y-30002666D01*
X6350000Y-30013787D01*
X6237085Y-30002666D01*
X6128509Y-29969729D01*
X6128506Y-29969728D01*
X6092400Y-29950429D01*
X6028444Y-29916244D01*
X5940737Y-29844264D01*
X5877622Y-29767359D01*
X5860297Y-29750034D01*
X5839923Y-29736420D01*
X5817284Y-29727043D01*
X5793250Y-29722263D01*
X5768746Y-29722263D01*
X5744713Y-29727044D01*
X5722074Y-29736421D01*
X5701700Y-29750035D01*
X5684373Y-29767362D01*
X5670759Y-29787736D01*
X5661382Y-29810375D01*
X5656000Y-29846660D01*
X5656000Y-30011000D01*
X4504000Y-30011000D01*
X4504000Y-28409000D01*
X5656000Y-28409000D01*
X5656000Y-28573341D01*
X5658402Y-28597727D01*
X5665515Y-28621176D01*
X5677066Y-28642787D01*
X5692611Y-28661729D01*
X5711553Y-28677274D01*
X5733164Y-28688825D01*
X5756613Y-28695938D01*
X5780999Y-28698340D01*
X5805385Y-28695938D01*
X5828834Y-28688825D01*
X5850445Y-28677274D01*
X5869387Y-28661729D01*
X5877608Y-28652657D01*
X5940736Y-28575736D01*
X6028443Y-28503756D01*
X6092399Y-28469571D01*
X6128505Y-28450272D01*
X6128508Y-28450271D01*
X6237084Y-28417334D01*
X6350000Y-28406213D01*
X6462915Y-28417334D01*
X6571491Y-28450271D01*
X6571494Y-28450272D01*
X6607600Y-28469571D01*
X6671556Y-28503756D01*
X6759264Y-28575736D01*
X6831244Y-28663443D01*
X6874761Y-28744859D01*
X6888375Y-28765234D01*
X6905702Y-28782561D01*
X6926076Y-28796174D01*
X6948715Y-28805552D01*
X6972748Y-28810332D01*
X6997252Y-28810332D01*
X7021285Y-28805552D01*
X7043924Y-28796174D01*
X7064299Y-28782560D01*
X7081626Y-28765233D01*
X7095239Y-28744860D01*
X7138756Y-28663444D01*
X7210736Y-28575736D01*
X7298443Y-28503756D01*
X7362399Y-28469571D01*
X7398505Y-28450272D01*
X7398508Y-28450271D01*
X7507084Y-28417334D01*
X7620000Y-28406213D01*
X7732915Y-28417334D01*
X7732915Y-28417334D01*
G37*
G36*
X20432915Y-23337334D02*
G01*
X20541491Y-23370271D01*
X20541494Y-23370272D01*
X20577600Y-23389571D01*
X20641556Y-23423756D01*
X20729264Y-23495736D01*
X20801244Y-23583443D01*
X20835429Y-23647399D01*
X20854728Y-23683505D01*
X20854729Y-23683508D01*
X20887666Y-23792084D01*
X20896000Y-23876702D01*
X20896000Y-24383297D01*
X20887666Y-24467916D01*
X20855252Y-24574767D01*
X20854728Y-24576495D01*
X20844761Y-24595141D01*
X20801244Y-24676557D01*
X20729264Y-24764264D01*
X20641557Y-24836244D01*
X20577601Y-24870429D01*
X20541495Y-24889728D01*
X20541492Y-24889729D01*
X20432916Y-24922666D01*
X20320000Y-24933787D01*
X20207085Y-24922666D01*
X20098509Y-24889729D01*
X20098506Y-24889728D01*
X20062400Y-24870429D01*
X19998444Y-24836244D01*
X19910737Y-24764264D01*
X19838757Y-24676557D01*
X19795239Y-24595141D01*
X19781625Y-24574766D01*
X19764298Y-24557439D01*
X19743924Y-24543826D01*
X19721285Y-24534448D01*
X19697252Y-24529668D01*
X19672748Y-24529668D01*
X19648715Y-24534448D01*
X19626076Y-24543826D01*
X19605701Y-24557440D01*
X19588374Y-24574767D01*
X19574761Y-24595141D01*
X19531244Y-24676557D01*
X19459264Y-24764264D01*
X19371557Y-24836244D01*
X19307601Y-24870429D01*
X19271495Y-24889728D01*
X19271492Y-24889729D01*
X19162916Y-24922666D01*
X19050000Y-24933787D01*
X18937085Y-24922666D01*
X18828509Y-24889729D01*
X18828506Y-24889728D01*
X18792400Y-24870429D01*
X18728444Y-24836244D01*
X18640737Y-24764264D01*
X18577622Y-24687359D01*
X18560297Y-24670034D01*
X18539923Y-24656420D01*
X18517284Y-24647043D01*
X18493250Y-24642263D01*
X18468746Y-24642263D01*
X18444713Y-24647044D01*
X18422074Y-24656421D01*
X18401700Y-24670035D01*
X18384373Y-24687362D01*
X18370759Y-24707736D01*
X18361382Y-24730375D01*
X18356000Y-24766660D01*
X18356000Y-24931000D01*
X17204000Y-24931000D01*
X17204000Y-23329000D01*
X18356000Y-23329000D01*
X18356000Y-23493341D01*
X18358402Y-23517727D01*
X18365515Y-23541176D01*
X18377066Y-23562787D01*
X18392611Y-23581729D01*
X18411553Y-23597274D01*
X18433164Y-23608825D01*
X18456613Y-23615938D01*
X18480999Y-23618340D01*
X18505385Y-23615938D01*
X18528834Y-23608825D01*
X18550445Y-23597274D01*
X18569387Y-23581729D01*
X18577608Y-23572657D01*
X18640736Y-23495736D01*
X18728443Y-23423756D01*
X18792399Y-23389571D01*
X18828505Y-23370272D01*
X18828508Y-23370271D01*
X18937084Y-23337334D01*
X19050000Y-23326213D01*
X19162915Y-23337334D01*
X19271491Y-23370271D01*
X19271494Y-23370272D01*
X19307600Y-23389571D01*
X19371556Y-23423756D01*
X19459264Y-23495736D01*
X19531244Y-23583443D01*
X19574761Y-23664859D01*
X19588375Y-23685234D01*
X19605702Y-23702561D01*
X19626076Y-23716174D01*
X19648715Y-23725552D01*
X19672748Y-23730332D01*
X19697252Y-23730332D01*
X19721285Y-23725552D01*
X19743924Y-23716174D01*
X19764299Y-23702560D01*
X19781626Y-23685233D01*
X19795239Y-23664860D01*
X19838756Y-23583444D01*
X19910736Y-23495736D01*
X19998443Y-23423756D01*
X20062399Y-23389571D01*
X20098505Y-23370272D01*
X20098508Y-23370271D01*
X20207084Y-23337334D01*
X20320000Y-23326213D01*
X20432915Y-23337334D01*
X20432915Y-23337334D01*
G37*
G36*
X26782915Y-23337334D02*
G01*
X26891491Y-23370271D01*
X26891494Y-23370272D01*
X26927600Y-23389571D01*
X26991556Y-23423756D01*
X27079264Y-23495736D01*
X27151244Y-23583443D01*
X27185429Y-23647399D01*
X27204728Y-23683505D01*
X27204729Y-23683508D01*
X27237666Y-23792084D01*
X27246000Y-23876702D01*
X27246000Y-24383297D01*
X27237666Y-24467916D01*
X27205252Y-24574767D01*
X27204728Y-24576495D01*
X27194761Y-24595141D01*
X27151244Y-24676557D01*
X27079264Y-24764264D01*
X26991557Y-24836244D01*
X26927601Y-24870429D01*
X26891495Y-24889728D01*
X26891492Y-24889729D01*
X26782916Y-24922666D01*
X26670000Y-24933787D01*
X26557085Y-24922666D01*
X26448509Y-24889729D01*
X26448506Y-24889728D01*
X26412400Y-24870429D01*
X26348444Y-24836244D01*
X26260737Y-24764264D01*
X26188757Y-24676557D01*
X26145239Y-24595141D01*
X26131625Y-24574766D01*
X26114298Y-24557439D01*
X26093924Y-24543826D01*
X26071285Y-24534448D01*
X26047252Y-24529668D01*
X26022748Y-24529668D01*
X25998715Y-24534448D01*
X25976076Y-24543826D01*
X25955701Y-24557440D01*
X25938374Y-24574767D01*
X25924761Y-24595141D01*
X25881244Y-24676557D01*
X25809264Y-24764264D01*
X25721557Y-24836244D01*
X25657601Y-24870429D01*
X25621495Y-24889728D01*
X25621492Y-24889729D01*
X25512916Y-24922666D01*
X25400000Y-24933787D01*
X25287085Y-24922666D01*
X25178509Y-24889729D01*
X25178506Y-24889728D01*
X25142400Y-24870429D01*
X25078444Y-24836244D01*
X24990737Y-24764264D01*
X24927622Y-24687359D01*
X24910297Y-24670034D01*
X24889923Y-24656420D01*
X24867284Y-24647043D01*
X24843250Y-24642263D01*
X24818746Y-24642263D01*
X24794713Y-24647044D01*
X24772074Y-24656421D01*
X24751700Y-24670035D01*
X24734373Y-24687362D01*
X24720759Y-24707736D01*
X24711382Y-24730375D01*
X24706000Y-24766660D01*
X24706000Y-24931000D01*
X23554000Y-24931000D01*
X23554000Y-23329000D01*
X24706000Y-23329000D01*
X24706000Y-23493341D01*
X24708402Y-23517727D01*
X24715515Y-23541176D01*
X24727066Y-23562787D01*
X24742611Y-23581729D01*
X24761553Y-23597274D01*
X24783164Y-23608825D01*
X24806613Y-23615938D01*
X24830999Y-23618340D01*
X24855385Y-23615938D01*
X24878834Y-23608825D01*
X24900445Y-23597274D01*
X24919387Y-23581729D01*
X24927608Y-23572657D01*
X24990736Y-23495736D01*
X25078443Y-23423756D01*
X25142399Y-23389571D01*
X25178505Y-23370272D01*
X25178508Y-23370271D01*
X25287084Y-23337334D01*
X25400000Y-23326213D01*
X25512915Y-23337334D01*
X25621491Y-23370271D01*
X25621494Y-23370272D01*
X25657600Y-23389571D01*
X25721556Y-23423756D01*
X25809264Y-23495736D01*
X25881244Y-23583443D01*
X25924761Y-23664859D01*
X25938375Y-23685234D01*
X25955702Y-23702561D01*
X25976076Y-23716174D01*
X25998715Y-23725552D01*
X26022748Y-23730332D01*
X26047252Y-23730332D01*
X26071285Y-23725552D01*
X26093924Y-23716174D01*
X26114299Y-23702560D01*
X26131626Y-23685233D01*
X26145239Y-23664860D01*
X26188756Y-23583444D01*
X26260736Y-23495736D01*
X26348443Y-23423756D01*
X26412399Y-23389571D01*
X26448505Y-23370272D01*
X26448508Y-23370271D01*
X26557084Y-23337334D01*
X26670000Y-23326213D01*
X26782915Y-23337334D01*
X26782915Y-23337334D01*
G37*
G36*
X33132915Y-23337334D02*
G01*
X33241491Y-23370271D01*
X33241494Y-23370272D01*
X33277600Y-23389571D01*
X33341556Y-23423756D01*
X33429264Y-23495736D01*
X33501244Y-23583443D01*
X33535429Y-23647399D01*
X33554728Y-23683505D01*
X33554729Y-23683508D01*
X33587666Y-23792084D01*
X33596000Y-23876702D01*
X33596000Y-24383297D01*
X33587666Y-24467916D01*
X33555252Y-24574767D01*
X33554728Y-24576495D01*
X33544761Y-24595141D01*
X33501244Y-24676557D01*
X33429264Y-24764264D01*
X33341557Y-24836244D01*
X33277601Y-24870429D01*
X33241495Y-24889728D01*
X33241492Y-24889729D01*
X33132916Y-24922666D01*
X33020000Y-24933787D01*
X32907085Y-24922666D01*
X32798509Y-24889729D01*
X32798506Y-24889728D01*
X32762400Y-24870429D01*
X32698444Y-24836244D01*
X32610737Y-24764264D01*
X32538757Y-24676557D01*
X32495239Y-24595141D01*
X32481625Y-24574766D01*
X32464298Y-24557439D01*
X32443924Y-24543826D01*
X32421285Y-24534448D01*
X32397252Y-24529668D01*
X32372748Y-24529668D01*
X32348715Y-24534448D01*
X32326076Y-24543826D01*
X32305701Y-24557440D01*
X32288374Y-24574767D01*
X32274761Y-24595141D01*
X32231244Y-24676557D01*
X32159264Y-24764264D01*
X32071557Y-24836244D01*
X32007601Y-24870429D01*
X31971495Y-24889728D01*
X31971492Y-24889729D01*
X31862916Y-24922666D01*
X31750000Y-24933787D01*
X31637085Y-24922666D01*
X31528509Y-24889729D01*
X31528506Y-24889728D01*
X31492400Y-24870429D01*
X31428444Y-24836244D01*
X31340737Y-24764264D01*
X31277622Y-24687359D01*
X31260297Y-24670034D01*
X31239923Y-24656420D01*
X31217284Y-24647043D01*
X31193250Y-24642263D01*
X31168746Y-24642263D01*
X31144713Y-24647044D01*
X31122074Y-24656421D01*
X31101700Y-24670035D01*
X31084373Y-24687362D01*
X31070759Y-24707736D01*
X31061382Y-24730375D01*
X31056000Y-24766660D01*
X31056000Y-24931000D01*
X29904000Y-24931000D01*
X29904000Y-23329000D01*
X31056000Y-23329000D01*
X31056000Y-23493341D01*
X31058402Y-23517727D01*
X31065515Y-23541176D01*
X31077066Y-23562787D01*
X31092611Y-23581729D01*
X31111553Y-23597274D01*
X31133164Y-23608825D01*
X31156613Y-23615938D01*
X31180999Y-23618340D01*
X31205385Y-23615938D01*
X31228834Y-23608825D01*
X31250445Y-23597274D01*
X31269387Y-23581729D01*
X31277608Y-23572657D01*
X31340736Y-23495736D01*
X31428443Y-23423756D01*
X31492399Y-23389571D01*
X31528505Y-23370272D01*
X31528508Y-23370271D01*
X31637084Y-23337334D01*
X31750000Y-23326213D01*
X31862915Y-23337334D01*
X31971491Y-23370271D01*
X31971494Y-23370272D01*
X32007600Y-23389571D01*
X32071556Y-23423756D01*
X32159264Y-23495736D01*
X32231244Y-23583443D01*
X32274761Y-23664859D01*
X32288375Y-23685234D01*
X32305702Y-23702561D01*
X32326076Y-23716174D01*
X32348715Y-23725552D01*
X32372748Y-23730332D01*
X32397252Y-23730332D01*
X32421285Y-23725552D01*
X32443924Y-23716174D01*
X32464299Y-23702560D01*
X32481626Y-23685233D01*
X32495239Y-23664860D01*
X32538756Y-23583444D01*
X32610736Y-23495736D01*
X32698443Y-23423756D01*
X32762399Y-23389571D01*
X32798505Y-23370272D01*
X32798508Y-23370271D01*
X32907084Y-23337334D01*
X33020000Y-23326213D01*
X33132915Y-23337334D01*
X33132915Y-23337334D01*
G37*
G36*
X14082915Y-23337334D02*
G01*
X14191491Y-23370271D01*
X14191494Y-23370272D01*
X14227600Y-23389571D01*
X14291556Y-23423756D01*
X14379264Y-23495736D01*
X14451244Y-23583443D01*
X14485429Y-23647399D01*
X14504728Y-23683505D01*
X14504729Y-23683508D01*
X14537666Y-23792084D01*
X14546000Y-23876702D01*
X14546000Y-24383297D01*
X14537666Y-24467916D01*
X14505252Y-24574767D01*
X14504728Y-24576495D01*
X14494761Y-24595141D01*
X14451244Y-24676557D01*
X14379264Y-24764264D01*
X14291557Y-24836244D01*
X14227601Y-24870429D01*
X14191495Y-24889728D01*
X14191492Y-24889729D01*
X14082916Y-24922666D01*
X13970000Y-24933787D01*
X13857085Y-24922666D01*
X13748509Y-24889729D01*
X13748506Y-24889728D01*
X13712400Y-24870429D01*
X13648444Y-24836244D01*
X13560737Y-24764264D01*
X13488757Y-24676557D01*
X13445239Y-24595141D01*
X13431625Y-24574766D01*
X13414298Y-24557439D01*
X13393924Y-24543826D01*
X13371285Y-24534448D01*
X13347252Y-24529668D01*
X13322748Y-24529668D01*
X13298715Y-24534448D01*
X13276076Y-24543826D01*
X13255701Y-24557440D01*
X13238374Y-24574767D01*
X13224761Y-24595141D01*
X13181244Y-24676557D01*
X13109264Y-24764264D01*
X13021557Y-24836244D01*
X12957601Y-24870429D01*
X12921495Y-24889728D01*
X12921492Y-24889729D01*
X12812916Y-24922666D01*
X12700000Y-24933787D01*
X12587085Y-24922666D01*
X12478509Y-24889729D01*
X12478506Y-24889728D01*
X12442400Y-24870429D01*
X12378444Y-24836244D01*
X12290737Y-24764264D01*
X12227622Y-24687359D01*
X12210297Y-24670034D01*
X12189923Y-24656420D01*
X12167284Y-24647043D01*
X12143250Y-24642263D01*
X12118746Y-24642263D01*
X12094713Y-24647044D01*
X12072074Y-24656421D01*
X12051700Y-24670035D01*
X12034373Y-24687362D01*
X12020759Y-24707736D01*
X12011382Y-24730375D01*
X12006000Y-24766660D01*
X12006000Y-24931000D01*
X10854000Y-24931000D01*
X10854000Y-23329000D01*
X12006000Y-23329000D01*
X12006000Y-23493341D01*
X12008402Y-23517727D01*
X12015515Y-23541176D01*
X12027066Y-23562787D01*
X12042611Y-23581729D01*
X12061553Y-23597274D01*
X12083164Y-23608825D01*
X12106613Y-23615938D01*
X12130999Y-23618340D01*
X12155385Y-23615938D01*
X12178834Y-23608825D01*
X12200445Y-23597274D01*
X12219387Y-23581729D01*
X12227608Y-23572657D01*
X12290736Y-23495736D01*
X12378443Y-23423756D01*
X12442399Y-23389571D01*
X12478505Y-23370272D01*
X12478508Y-23370271D01*
X12587084Y-23337334D01*
X12700000Y-23326213D01*
X12812915Y-23337334D01*
X12921491Y-23370271D01*
X12921494Y-23370272D01*
X12957600Y-23389571D01*
X13021556Y-23423756D01*
X13109264Y-23495736D01*
X13181244Y-23583443D01*
X13224761Y-23664859D01*
X13238375Y-23685234D01*
X13255702Y-23702561D01*
X13276076Y-23716174D01*
X13298715Y-23725552D01*
X13322748Y-23730332D01*
X13347252Y-23730332D01*
X13371285Y-23725552D01*
X13393924Y-23716174D01*
X13414299Y-23702560D01*
X13431626Y-23685233D01*
X13445239Y-23664860D01*
X13488756Y-23583444D01*
X13560736Y-23495736D01*
X13648443Y-23423756D01*
X13712399Y-23389571D01*
X13748505Y-23370272D01*
X13748508Y-23370271D01*
X13857084Y-23337334D01*
X13970000Y-23326213D01*
X14082915Y-23337334D01*
X14082915Y-23337334D01*
G37*
G36*
X39482915Y-23337334D02*
G01*
X39591491Y-23370271D01*
X39591494Y-23370272D01*
X39627600Y-23389571D01*
X39691556Y-23423756D01*
X39779264Y-23495736D01*
X39851244Y-23583443D01*
X39885429Y-23647399D01*
X39904728Y-23683505D01*
X39904729Y-23683508D01*
X39937666Y-23792084D01*
X39946000Y-23876702D01*
X39946000Y-24383297D01*
X39937666Y-24467916D01*
X39905252Y-24574767D01*
X39904728Y-24576495D01*
X39894761Y-24595141D01*
X39851244Y-24676557D01*
X39779264Y-24764264D01*
X39691557Y-24836244D01*
X39627601Y-24870429D01*
X39591495Y-24889728D01*
X39591492Y-24889729D01*
X39482916Y-24922666D01*
X39370000Y-24933787D01*
X39257085Y-24922666D01*
X39148509Y-24889729D01*
X39148506Y-24889728D01*
X39112400Y-24870429D01*
X39048444Y-24836244D01*
X38960737Y-24764264D01*
X38888757Y-24676557D01*
X38845239Y-24595141D01*
X38831625Y-24574766D01*
X38814298Y-24557439D01*
X38793924Y-24543826D01*
X38771285Y-24534448D01*
X38747252Y-24529668D01*
X38722748Y-24529668D01*
X38698715Y-24534448D01*
X38676076Y-24543826D01*
X38655701Y-24557440D01*
X38638374Y-24574767D01*
X38624761Y-24595141D01*
X38581244Y-24676557D01*
X38509264Y-24764264D01*
X38421557Y-24836244D01*
X38357601Y-24870429D01*
X38321495Y-24889728D01*
X38321492Y-24889729D01*
X38212916Y-24922666D01*
X38100000Y-24933787D01*
X37987085Y-24922666D01*
X37878509Y-24889729D01*
X37878506Y-24889728D01*
X37842400Y-24870429D01*
X37778444Y-24836244D01*
X37690737Y-24764264D01*
X37627622Y-24687359D01*
X37610297Y-24670034D01*
X37589923Y-24656420D01*
X37567284Y-24647043D01*
X37543250Y-24642263D01*
X37518746Y-24642263D01*
X37494713Y-24647044D01*
X37472074Y-24656421D01*
X37451700Y-24670035D01*
X37434373Y-24687362D01*
X37420759Y-24707736D01*
X37411382Y-24730375D01*
X37406000Y-24766660D01*
X37406000Y-24931000D01*
X36254000Y-24931000D01*
X36254000Y-23329000D01*
X37406000Y-23329000D01*
X37406000Y-23493341D01*
X37408402Y-23517727D01*
X37415515Y-23541176D01*
X37427066Y-23562787D01*
X37442611Y-23581729D01*
X37461553Y-23597274D01*
X37483164Y-23608825D01*
X37506613Y-23615938D01*
X37530999Y-23618340D01*
X37555385Y-23615938D01*
X37578834Y-23608825D01*
X37600445Y-23597274D01*
X37619387Y-23581729D01*
X37627608Y-23572657D01*
X37690736Y-23495736D01*
X37778443Y-23423756D01*
X37842399Y-23389571D01*
X37878505Y-23370272D01*
X37878508Y-23370271D01*
X37987084Y-23337334D01*
X38100000Y-23326213D01*
X38212915Y-23337334D01*
X38321491Y-23370271D01*
X38321494Y-23370272D01*
X38357600Y-23389571D01*
X38421556Y-23423756D01*
X38509264Y-23495736D01*
X38581244Y-23583443D01*
X38624761Y-23664859D01*
X38638375Y-23685234D01*
X38655702Y-23702561D01*
X38676076Y-23716174D01*
X38698715Y-23725552D01*
X38722748Y-23730332D01*
X38747252Y-23730332D01*
X38771285Y-23725552D01*
X38793924Y-23716174D01*
X38814299Y-23702560D01*
X38831626Y-23685233D01*
X38845239Y-23664860D01*
X38888756Y-23583444D01*
X38960736Y-23495736D01*
X39048443Y-23423756D01*
X39112399Y-23389571D01*
X39148505Y-23370272D01*
X39148508Y-23370271D01*
X39257084Y-23337334D01*
X39370000Y-23326213D01*
X39482915Y-23337334D01*
X39482915Y-23337334D01*
G37*
G36*
X45832915Y-23337334D02*
G01*
X45941491Y-23370271D01*
X45941494Y-23370272D01*
X45977600Y-23389571D01*
X46041556Y-23423756D01*
X46129264Y-23495736D01*
X46201244Y-23583443D01*
X46235429Y-23647399D01*
X46254728Y-23683505D01*
X46254729Y-23683508D01*
X46287666Y-23792084D01*
X46296000Y-23876702D01*
X46296000Y-24383297D01*
X46287666Y-24467916D01*
X46255252Y-24574767D01*
X46254728Y-24576495D01*
X46244761Y-24595141D01*
X46201244Y-24676557D01*
X46129264Y-24764264D01*
X46041557Y-24836244D01*
X45977601Y-24870429D01*
X45941495Y-24889728D01*
X45941492Y-24889729D01*
X45832916Y-24922666D01*
X45720000Y-24933787D01*
X45607085Y-24922666D01*
X45498509Y-24889729D01*
X45498506Y-24889728D01*
X45462400Y-24870429D01*
X45398444Y-24836244D01*
X45310737Y-24764264D01*
X45238757Y-24676557D01*
X45195239Y-24595141D01*
X45181625Y-24574766D01*
X45164298Y-24557439D01*
X45143924Y-24543826D01*
X45121285Y-24534448D01*
X45097252Y-24529668D01*
X45072748Y-24529668D01*
X45048715Y-24534448D01*
X45026076Y-24543826D01*
X45005701Y-24557440D01*
X44988374Y-24574767D01*
X44974761Y-24595141D01*
X44931244Y-24676557D01*
X44859264Y-24764264D01*
X44771557Y-24836244D01*
X44707601Y-24870429D01*
X44671495Y-24889728D01*
X44671492Y-24889729D01*
X44562916Y-24922666D01*
X44450000Y-24933787D01*
X44337085Y-24922666D01*
X44228509Y-24889729D01*
X44228506Y-24889728D01*
X44192400Y-24870429D01*
X44128444Y-24836244D01*
X44040737Y-24764264D01*
X43977622Y-24687359D01*
X43960297Y-24670034D01*
X43939923Y-24656420D01*
X43917284Y-24647043D01*
X43893250Y-24642263D01*
X43868746Y-24642263D01*
X43844713Y-24647044D01*
X43822074Y-24656421D01*
X43801700Y-24670035D01*
X43784373Y-24687362D01*
X43770759Y-24707736D01*
X43761382Y-24730375D01*
X43756000Y-24766660D01*
X43756000Y-24931000D01*
X42604000Y-24931000D01*
X42604000Y-23329000D01*
X43756000Y-23329000D01*
X43756000Y-23493341D01*
X43758402Y-23517727D01*
X43765515Y-23541176D01*
X43777066Y-23562787D01*
X43792611Y-23581729D01*
X43811553Y-23597274D01*
X43833164Y-23608825D01*
X43856613Y-23615938D01*
X43880999Y-23618340D01*
X43905385Y-23615938D01*
X43928834Y-23608825D01*
X43950445Y-23597274D01*
X43969387Y-23581729D01*
X43977608Y-23572657D01*
X44040736Y-23495736D01*
X44128443Y-23423756D01*
X44192399Y-23389571D01*
X44228505Y-23370272D01*
X44228508Y-23370271D01*
X44337084Y-23337334D01*
X44450000Y-23326213D01*
X44562915Y-23337334D01*
X44671491Y-23370271D01*
X44671494Y-23370272D01*
X44707600Y-23389571D01*
X44771556Y-23423756D01*
X44859264Y-23495736D01*
X44931244Y-23583443D01*
X44974761Y-23664859D01*
X44988375Y-23685234D01*
X45005702Y-23702561D01*
X45026076Y-23716174D01*
X45048715Y-23725552D01*
X45072748Y-23730332D01*
X45097252Y-23730332D01*
X45121285Y-23725552D01*
X45143924Y-23716174D01*
X45164299Y-23702560D01*
X45181626Y-23685233D01*
X45195239Y-23664860D01*
X45238756Y-23583444D01*
X45310736Y-23495736D01*
X45398443Y-23423756D01*
X45462399Y-23389571D01*
X45498505Y-23370272D01*
X45498508Y-23370271D01*
X45607084Y-23337334D01*
X45720000Y-23326213D01*
X45832915Y-23337334D01*
X45832915Y-23337334D01*
G37*
G36*
X4669549Y-21731116D02*
G01*
X4780734Y-21753232D01*
X4990203Y-21839997D01*
X5178720Y-21965960D01*
X5339040Y-22126280D01*
X5465003Y-22314797D01*
X5551768Y-22524266D01*
X5596000Y-22746636D01*
X5596000Y-22973364D01*
X5551768Y-23195734D01*
X5465003Y-23405203D01*
X5339040Y-23593720D01*
X5178720Y-23754040D01*
X4990203Y-23880003D01*
X4780734Y-23966768D01*
X4669549Y-23988884D01*
X4558365Y-24011000D01*
X4331635Y-24011000D01*
X4220451Y-23988884D01*
X4109266Y-23966768D01*
X3899797Y-23880003D01*
X3711280Y-23754040D01*
X3550960Y-23593720D01*
X3424997Y-23405203D01*
X3338232Y-23195734D01*
X3294000Y-22973364D01*
X3294000Y-22746636D01*
X3338232Y-22524266D01*
X3424997Y-22314797D01*
X3550960Y-22126280D01*
X3711280Y-21965960D01*
X3899797Y-21839997D01*
X4109266Y-21753232D01*
X4220451Y-21731116D01*
X4331635Y-21709000D01*
X4558365Y-21709000D01*
X4669549Y-21731116D01*
X4669549Y-21731116D01*
G37*
G36*
X34553512Y-16303927D02*
G01*
X34702812Y-16333624D01*
X34866784Y-16401544D01*
X35014354Y-16500147D01*
X35139853Y-16625646D01*
X35238456Y-16773216D01*
X35306376Y-16937188D01*
X35341000Y-17111259D01*
X35341000Y-17288741D01*
X35306376Y-17462812D01*
X35238456Y-17626784D01*
X35139853Y-17774354D01*
X35014354Y-17899853D01*
X34866784Y-17998456D01*
X34702812Y-18066376D01*
X34553512Y-18096073D01*
X34528742Y-18101000D01*
X34351258Y-18101000D01*
X34326488Y-18096073D01*
X34177188Y-18066376D01*
X34013216Y-17998456D01*
X33865646Y-17899853D01*
X33740147Y-17774354D01*
X33641544Y-17626784D01*
X33573624Y-17462812D01*
X33539000Y-17288741D01*
X33539000Y-17111259D01*
X33573624Y-16937188D01*
X33641544Y-16773216D01*
X33740147Y-16625646D01*
X33865646Y-16500147D01*
X34013216Y-16401544D01*
X34177188Y-16333624D01*
X34326488Y-16303927D01*
X34351258Y-16299000D01*
X34528742Y-16299000D01*
X34553512Y-16303927D01*
X34553512Y-16303927D01*
G37*
G36*
X28053512Y-16303927D02*
G01*
X28202812Y-16333624D01*
X28366784Y-16401544D01*
X28514354Y-16500147D01*
X28639853Y-16625646D01*
X28738456Y-16773216D01*
X28806376Y-16937188D01*
X28841000Y-17111259D01*
X28841000Y-17288741D01*
X28806376Y-17462812D01*
X28738456Y-17626784D01*
X28639853Y-17774354D01*
X28514354Y-17899853D01*
X28366784Y-17998456D01*
X28202812Y-18066376D01*
X28053512Y-18096073D01*
X28028742Y-18101000D01*
X27851258Y-18101000D01*
X27826488Y-18096073D01*
X27677188Y-18066376D01*
X27513216Y-17998456D01*
X27365646Y-17899853D01*
X27240147Y-17774354D01*
X27141544Y-17626784D01*
X27073624Y-17462812D01*
X27039000Y-17288741D01*
X27039000Y-17111259D01*
X27073624Y-16937188D01*
X27141544Y-16773216D01*
X27240147Y-16625646D01*
X27365646Y-16500147D01*
X27513216Y-16401544D01*
X27677188Y-16333624D01*
X27826488Y-16303927D01*
X27851258Y-16299000D01*
X28028742Y-16299000D01*
X28053512Y-16303927D01*
X28053512Y-16303927D01*
G37*
G36*
X16623512Y-16303927D02*
G01*
X16772812Y-16333624D01*
X16936784Y-16401544D01*
X17084354Y-16500147D01*
X17209853Y-16625646D01*
X17308456Y-16773216D01*
X17376376Y-16937188D01*
X17411000Y-17111259D01*
X17411000Y-17288741D01*
X17376376Y-17462812D01*
X17308456Y-17626784D01*
X17209853Y-17774354D01*
X17084354Y-17899853D01*
X16936784Y-17998456D01*
X16772812Y-18066376D01*
X16623512Y-18096073D01*
X16598742Y-18101000D01*
X16421258Y-18101000D01*
X16396488Y-18096073D01*
X16247188Y-18066376D01*
X16083216Y-17998456D01*
X15935646Y-17899853D01*
X15810147Y-17774354D01*
X15711544Y-17626784D01*
X15643624Y-17462812D01*
X15609000Y-17288741D01*
X15609000Y-17111259D01*
X15643624Y-16937188D01*
X15711544Y-16773216D01*
X15810147Y-16625646D01*
X15935646Y-16500147D01*
X16083216Y-16401544D01*
X16247188Y-16333624D01*
X16396488Y-16303927D01*
X16421258Y-16299000D01*
X16598742Y-16299000D01*
X16623512Y-16303927D01*
X16623512Y-16303927D01*
G37*
G36*
X23123512Y-16303927D02*
G01*
X23272812Y-16333624D01*
X23436784Y-16401544D01*
X23584354Y-16500147D01*
X23709853Y-16625646D01*
X23808456Y-16773216D01*
X23876376Y-16937188D01*
X23911000Y-17111259D01*
X23911000Y-17288741D01*
X23876376Y-17462812D01*
X23808456Y-17626784D01*
X23709853Y-17774354D01*
X23584354Y-17899853D01*
X23436784Y-17998456D01*
X23272812Y-18066376D01*
X23123512Y-18096073D01*
X23098742Y-18101000D01*
X22921258Y-18101000D01*
X22896488Y-18096073D01*
X22747188Y-18066376D01*
X22583216Y-17998456D01*
X22435646Y-17899853D01*
X22310147Y-17774354D01*
X22211544Y-17626784D01*
X22143624Y-17462812D01*
X22109000Y-17288741D01*
X22109000Y-17111259D01*
X22143624Y-16937188D01*
X22211544Y-16773216D01*
X22310147Y-16625646D01*
X22435646Y-16500147D01*
X22583216Y-16401544D01*
X22747188Y-16333624D01*
X22896488Y-16303927D01*
X22921258Y-16299000D01*
X23098742Y-16299000D01*
X23123512Y-16303927D01*
X23123512Y-16303927D01*
G37*
G36*
X45983512Y-16303927D02*
G01*
X46132812Y-16333624D01*
X46296784Y-16401544D01*
X46444354Y-16500147D01*
X46569853Y-16625646D01*
X46668456Y-16773216D01*
X46736376Y-16937188D01*
X46771000Y-17111259D01*
X46771000Y-17288741D01*
X46736376Y-17462812D01*
X46668456Y-17626784D01*
X46569853Y-17774354D01*
X46444354Y-17899853D01*
X46296784Y-17998456D01*
X46132812Y-18066376D01*
X45983512Y-18096073D01*
X45958742Y-18101000D01*
X45781258Y-18101000D01*
X45756488Y-18096073D01*
X45607188Y-18066376D01*
X45443216Y-17998456D01*
X45295646Y-17899853D01*
X45170147Y-17774354D01*
X45071544Y-17626784D01*
X45003624Y-17462812D01*
X44969000Y-17288741D01*
X44969000Y-17111259D01*
X45003624Y-16937188D01*
X45071544Y-16773216D01*
X45170147Y-16625646D01*
X45295646Y-16500147D01*
X45443216Y-16401544D01*
X45607188Y-16333624D01*
X45756488Y-16303927D01*
X45781258Y-16299000D01*
X45958742Y-16299000D01*
X45983512Y-16303927D01*
X45983512Y-16303927D01*
G37*
G36*
X39483512Y-16303927D02*
G01*
X39632812Y-16333624D01*
X39796784Y-16401544D01*
X39944354Y-16500147D01*
X40069853Y-16625646D01*
X40168456Y-16773216D01*
X40236376Y-16937188D01*
X40271000Y-17111259D01*
X40271000Y-17288741D01*
X40236376Y-17462812D01*
X40168456Y-17626784D01*
X40069853Y-17774354D01*
X39944354Y-17899853D01*
X39796784Y-17998456D01*
X39632812Y-18066376D01*
X39483512Y-18096073D01*
X39458742Y-18101000D01*
X39281258Y-18101000D01*
X39256488Y-18096073D01*
X39107188Y-18066376D01*
X38943216Y-17998456D01*
X38795646Y-17899853D01*
X38670147Y-17774354D01*
X38571544Y-17626784D01*
X38503624Y-17462812D01*
X38469000Y-17288741D01*
X38469000Y-17111259D01*
X38503624Y-16937188D01*
X38571544Y-16773216D01*
X38670147Y-16625646D01*
X38795646Y-16500147D01*
X38943216Y-16401544D01*
X39107188Y-16333624D01*
X39256488Y-16303927D01*
X39281258Y-16299000D01*
X39458742Y-16299000D01*
X39483512Y-16303927D01*
X39483512Y-16303927D01*
G37*
G36*
X5193512Y-16303927D02*
G01*
X5342812Y-16333624D01*
X5506784Y-16401544D01*
X5654354Y-16500147D01*
X5779853Y-16625646D01*
X5878456Y-16773216D01*
X5946376Y-16937188D01*
X5981000Y-17111259D01*
X5981000Y-17288741D01*
X5946376Y-17462812D01*
X5878456Y-17626784D01*
X5779853Y-17774354D01*
X5654354Y-17899853D01*
X5506784Y-17998456D01*
X5342812Y-18066376D01*
X5193512Y-18096073D01*
X5168742Y-18101000D01*
X4991258Y-18101000D01*
X4966488Y-18096073D01*
X4817188Y-18066376D01*
X4653216Y-17998456D01*
X4505646Y-17899853D01*
X4380147Y-17774354D01*
X4281544Y-17626784D01*
X4213624Y-17462812D01*
X4179000Y-17288741D01*
X4179000Y-17111259D01*
X4213624Y-16937188D01*
X4281544Y-16773216D01*
X4380147Y-16625646D01*
X4505646Y-16500147D01*
X4653216Y-16401544D01*
X4817188Y-16333624D01*
X4966488Y-16303927D01*
X4991258Y-16299000D01*
X5168742Y-16299000D01*
X5193512Y-16303927D01*
X5193512Y-16303927D01*
G37*
G36*
X11693512Y-16303927D02*
G01*
X11842812Y-16333624D01*
X12006784Y-16401544D01*
X12154354Y-16500147D01*
X12279853Y-16625646D01*
X12378456Y-16773216D01*
X12446376Y-16937188D01*
X12481000Y-17111259D01*
X12481000Y-17288741D01*
X12446376Y-17462812D01*
X12378456Y-17626784D01*
X12279853Y-17774354D01*
X12154354Y-17899853D01*
X12006784Y-17998456D01*
X11842812Y-18066376D01*
X11693512Y-18096073D01*
X11668742Y-18101000D01*
X11491258Y-18101000D01*
X11466488Y-18096073D01*
X11317188Y-18066376D01*
X11153216Y-17998456D01*
X11005646Y-17899853D01*
X10880147Y-17774354D01*
X10781544Y-17626784D01*
X10713624Y-17462812D01*
X10679000Y-17288741D01*
X10679000Y-17111259D01*
X10713624Y-16937188D01*
X10781544Y-16773216D01*
X10880147Y-16625646D01*
X11005646Y-16500147D01*
X11153216Y-16401544D01*
X11317188Y-16333624D01*
X11466488Y-16303927D01*
X11491258Y-16299000D01*
X11668742Y-16299000D01*
X11693512Y-16303927D01*
X11693512Y-16303927D01*
G37*
G36*
X45983512Y-11803927D02*
G01*
X46132812Y-11833624D01*
X46296784Y-11901544D01*
X46444354Y-12000147D01*
X46569853Y-12125646D01*
X46668456Y-12273216D01*
X46736376Y-12437188D01*
X46771000Y-12611259D01*
X46771000Y-12788741D01*
X46736376Y-12962812D01*
X46668456Y-13126784D01*
X46569853Y-13274354D01*
X46444354Y-13399853D01*
X46296784Y-13498456D01*
X46132812Y-13566376D01*
X45983512Y-13596073D01*
X45958742Y-13601000D01*
X45781258Y-13601000D01*
X45756488Y-13596073D01*
X45607188Y-13566376D01*
X45443216Y-13498456D01*
X45295646Y-13399853D01*
X45170147Y-13274354D01*
X45071544Y-13126784D01*
X45003624Y-12962812D01*
X44969000Y-12788741D01*
X44969000Y-12611259D01*
X45003624Y-12437188D01*
X45071544Y-12273216D01*
X45170147Y-12125646D01*
X45295646Y-12000147D01*
X45443216Y-11901544D01*
X45607188Y-11833624D01*
X45756488Y-11803927D01*
X45781258Y-11799000D01*
X45958742Y-11799000D01*
X45983512Y-11803927D01*
X45983512Y-11803927D01*
G37*
G36*
X28053512Y-11803927D02*
G01*
X28202812Y-11833624D01*
X28366784Y-11901544D01*
X28514354Y-12000147D01*
X28639853Y-12125646D01*
X28738456Y-12273216D01*
X28806376Y-12437188D01*
X28841000Y-12611259D01*
X28841000Y-12788741D01*
X28806376Y-12962812D01*
X28738456Y-13126784D01*
X28639853Y-13274354D01*
X28514354Y-13399853D01*
X28366784Y-13498456D01*
X28202812Y-13566376D01*
X28053512Y-13596073D01*
X28028742Y-13601000D01*
X27851258Y-13601000D01*
X27826488Y-13596073D01*
X27677188Y-13566376D01*
X27513216Y-13498456D01*
X27365646Y-13399853D01*
X27240147Y-13274354D01*
X27141544Y-13126784D01*
X27073624Y-12962812D01*
X27039000Y-12788741D01*
X27039000Y-12611259D01*
X27073624Y-12437188D01*
X27141544Y-12273216D01*
X27240147Y-12125646D01*
X27365646Y-12000147D01*
X27513216Y-11901544D01*
X27677188Y-11833624D01*
X27826488Y-11803927D01*
X27851258Y-11799000D01*
X28028742Y-11799000D01*
X28053512Y-11803927D01*
X28053512Y-11803927D01*
G37*
G36*
X11693512Y-11803927D02*
G01*
X11842812Y-11833624D01*
X12006784Y-11901544D01*
X12154354Y-12000147D01*
X12279853Y-12125646D01*
X12378456Y-12273216D01*
X12446376Y-12437188D01*
X12481000Y-12611259D01*
X12481000Y-12788741D01*
X12446376Y-12962812D01*
X12378456Y-13126784D01*
X12279853Y-13274354D01*
X12154354Y-13399853D01*
X12006784Y-13498456D01*
X11842812Y-13566376D01*
X11693512Y-13596073D01*
X11668742Y-13601000D01*
X11491258Y-13601000D01*
X11466488Y-13596073D01*
X11317188Y-13566376D01*
X11153216Y-13498456D01*
X11005646Y-13399853D01*
X10880147Y-13274354D01*
X10781544Y-13126784D01*
X10713624Y-12962812D01*
X10679000Y-12788741D01*
X10679000Y-12611259D01*
X10713624Y-12437188D01*
X10781544Y-12273216D01*
X10880147Y-12125646D01*
X11005646Y-12000147D01*
X11153216Y-11901544D01*
X11317188Y-11833624D01*
X11466488Y-11803927D01*
X11491258Y-11799000D01*
X11668742Y-11799000D01*
X11693512Y-11803927D01*
X11693512Y-11803927D01*
G37*
G36*
X23123512Y-11803927D02*
G01*
X23272812Y-11833624D01*
X23436784Y-11901544D01*
X23584354Y-12000147D01*
X23709853Y-12125646D01*
X23808456Y-12273216D01*
X23876376Y-12437188D01*
X23911000Y-12611259D01*
X23911000Y-12788741D01*
X23876376Y-12962812D01*
X23808456Y-13126784D01*
X23709853Y-13274354D01*
X23584354Y-13399853D01*
X23436784Y-13498456D01*
X23272812Y-13566376D01*
X23123512Y-13596073D01*
X23098742Y-13601000D01*
X22921258Y-13601000D01*
X22896488Y-13596073D01*
X22747188Y-13566376D01*
X22583216Y-13498456D01*
X22435646Y-13399853D01*
X22310147Y-13274354D01*
X22211544Y-13126784D01*
X22143624Y-12962812D01*
X22109000Y-12788741D01*
X22109000Y-12611259D01*
X22143624Y-12437188D01*
X22211544Y-12273216D01*
X22310147Y-12125646D01*
X22435646Y-12000147D01*
X22583216Y-11901544D01*
X22747188Y-11833624D01*
X22896488Y-11803927D01*
X22921258Y-11799000D01*
X23098742Y-11799000D01*
X23123512Y-11803927D01*
X23123512Y-11803927D01*
G37*
G36*
X16623512Y-11803927D02*
G01*
X16772812Y-11833624D01*
X16936784Y-11901544D01*
X17084354Y-12000147D01*
X17209853Y-12125646D01*
X17308456Y-12273216D01*
X17376376Y-12437188D01*
X17411000Y-12611259D01*
X17411000Y-12788741D01*
X17376376Y-12962812D01*
X17308456Y-13126784D01*
X17209853Y-13274354D01*
X17084354Y-13399853D01*
X16936784Y-13498456D01*
X16772812Y-13566376D01*
X16623512Y-13596073D01*
X16598742Y-13601000D01*
X16421258Y-13601000D01*
X16396488Y-13596073D01*
X16247188Y-13566376D01*
X16083216Y-13498456D01*
X15935646Y-13399853D01*
X15810147Y-13274354D01*
X15711544Y-13126784D01*
X15643624Y-12962812D01*
X15609000Y-12788741D01*
X15609000Y-12611259D01*
X15643624Y-12437188D01*
X15711544Y-12273216D01*
X15810147Y-12125646D01*
X15935646Y-12000147D01*
X16083216Y-11901544D01*
X16247188Y-11833624D01*
X16396488Y-11803927D01*
X16421258Y-11799000D01*
X16598742Y-11799000D01*
X16623512Y-11803927D01*
X16623512Y-11803927D01*
G37*
G36*
X34553512Y-11803927D02*
G01*
X34702812Y-11833624D01*
X34866784Y-11901544D01*
X35014354Y-12000147D01*
X35139853Y-12125646D01*
X35238456Y-12273216D01*
X35306376Y-12437188D01*
X35341000Y-12611259D01*
X35341000Y-12788741D01*
X35306376Y-12962812D01*
X35238456Y-13126784D01*
X35139853Y-13274354D01*
X35014354Y-13399853D01*
X34866784Y-13498456D01*
X34702812Y-13566376D01*
X34553512Y-13596073D01*
X34528742Y-13601000D01*
X34351258Y-13601000D01*
X34326488Y-13596073D01*
X34177188Y-13566376D01*
X34013216Y-13498456D01*
X33865646Y-13399853D01*
X33740147Y-13274354D01*
X33641544Y-13126784D01*
X33573624Y-12962812D01*
X33539000Y-12788741D01*
X33539000Y-12611259D01*
X33573624Y-12437188D01*
X33641544Y-12273216D01*
X33740147Y-12125646D01*
X33865646Y-12000147D01*
X34013216Y-11901544D01*
X34177188Y-11833624D01*
X34326488Y-11803927D01*
X34351258Y-11799000D01*
X34528742Y-11799000D01*
X34553512Y-11803927D01*
X34553512Y-11803927D01*
G37*
G36*
X39483512Y-11803927D02*
G01*
X39632812Y-11833624D01*
X39796784Y-11901544D01*
X39944354Y-12000147D01*
X40069853Y-12125646D01*
X40168456Y-12273216D01*
X40236376Y-12437188D01*
X40271000Y-12611259D01*
X40271000Y-12788741D01*
X40236376Y-12962812D01*
X40168456Y-13126784D01*
X40069853Y-13274354D01*
X39944354Y-13399853D01*
X39796784Y-13498456D01*
X39632812Y-13566376D01*
X39483512Y-13596073D01*
X39458742Y-13601000D01*
X39281258Y-13601000D01*
X39256488Y-13596073D01*
X39107188Y-13566376D01*
X38943216Y-13498456D01*
X38795646Y-13399853D01*
X38670147Y-13274354D01*
X38571544Y-13126784D01*
X38503624Y-12962812D01*
X38469000Y-12788741D01*
X38469000Y-12611259D01*
X38503624Y-12437188D01*
X38571544Y-12273216D01*
X38670147Y-12125646D01*
X38795646Y-12000147D01*
X38943216Y-11901544D01*
X39107188Y-11833624D01*
X39256488Y-11803927D01*
X39281258Y-11799000D01*
X39458742Y-11799000D01*
X39483512Y-11803927D01*
X39483512Y-11803927D01*
G37*
G36*
X5193512Y-11803927D02*
G01*
X5342812Y-11833624D01*
X5506784Y-11901544D01*
X5654354Y-12000147D01*
X5779853Y-12125646D01*
X5878456Y-12273216D01*
X5946376Y-12437188D01*
X5981000Y-12611259D01*
X5981000Y-12788741D01*
X5946376Y-12962812D01*
X5878456Y-13126784D01*
X5779853Y-13274354D01*
X5654354Y-13399853D01*
X5506784Y-13498456D01*
X5342812Y-13566376D01*
X5193512Y-13596073D01*
X5168742Y-13601000D01*
X4991258Y-13601000D01*
X4966488Y-13596073D01*
X4817188Y-13566376D01*
X4653216Y-13498456D01*
X4505646Y-13399853D01*
X4380147Y-13274354D01*
X4281544Y-13126784D01*
X4213624Y-12962812D01*
X4179000Y-12788741D01*
X4179000Y-12611259D01*
X4213624Y-12437188D01*
X4281544Y-12273216D01*
X4380147Y-12125646D01*
X4505646Y-12000147D01*
X4653216Y-11901544D01*
X4817188Y-11833624D01*
X4966488Y-11803927D01*
X4991258Y-11799000D01*
X5168742Y-11799000D01*
X5193512Y-11803927D01*
X5193512Y-11803927D01*
G37*
G36*
X32013512Y-7413927D02*
G01*
X32162812Y-7443624D01*
X32326784Y-7511544D01*
X32474354Y-7610147D01*
X32599853Y-7735646D01*
X32698456Y-7883216D01*
X32766376Y-8047188D01*
X32801000Y-8221259D01*
X32801000Y-8398741D01*
X32766376Y-8572812D01*
X32698456Y-8736784D01*
X32599853Y-8884354D01*
X32474354Y-9009853D01*
X32326784Y-9108456D01*
X32162812Y-9176376D01*
X32013512Y-9206073D01*
X31988742Y-9211000D01*
X31811258Y-9211000D01*
X31786488Y-9206073D01*
X31637188Y-9176376D01*
X31473216Y-9108456D01*
X31325646Y-9009853D01*
X31200147Y-8884354D01*
X31101544Y-8736784D01*
X31033624Y-8572812D01*
X30999000Y-8398741D01*
X30999000Y-8221259D01*
X31033624Y-8047188D01*
X31101544Y-7883216D01*
X31200147Y-7735646D01*
X31325646Y-7610147D01*
X31473216Y-7511544D01*
X31637188Y-7443624D01*
X31786488Y-7413927D01*
X31811258Y-7409000D01*
X31988742Y-7409000D01*
X32013512Y-7413927D01*
X32013512Y-7413927D01*
G37*
G36*
X36943512Y-7413927D02*
G01*
X37092812Y-7443624D01*
X37256784Y-7511544D01*
X37404354Y-7610147D01*
X37529853Y-7735646D01*
X37628456Y-7883216D01*
X37696376Y-8047188D01*
X37731000Y-8221259D01*
X37731000Y-8398741D01*
X37696376Y-8572812D01*
X37628456Y-8736784D01*
X37529853Y-8884354D01*
X37404354Y-9009853D01*
X37256784Y-9108456D01*
X37092812Y-9176376D01*
X36943512Y-9206073D01*
X36918742Y-9211000D01*
X36741258Y-9211000D01*
X36716488Y-9206073D01*
X36567188Y-9176376D01*
X36403216Y-9108456D01*
X36255646Y-9009853D01*
X36130147Y-8884354D01*
X36031544Y-8736784D01*
X35963624Y-8572812D01*
X35929000Y-8398741D01*
X35929000Y-8221259D01*
X35963624Y-8047188D01*
X36031544Y-7883216D01*
X36130147Y-7735646D01*
X36255646Y-7610147D01*
X36403216Y-7511544D01*
X36567188Y-7443624D01*
X36716488Y-7413927D01*
X36741258Y-7409000D01*
X36918742Y-7409000D01*
X36943512Y-7413927D01*
X36943512Y-7413927D01*
G37*
G36*
X25513512Y-7413927D02*
G01*
X25662812Y-7443624D01*
X25826784Y-7511544D01*
X25974354Y-7610147D01*
X26099853Y-7735646D01*
X26198456Y-7883216D01*
X26266376Y-8047188D01*
X26301000Y-8221259D01*
X26301000Y-8398741D01*
X26266376Y-8572812D01*
X26198456Y-8736784D01*
X26099853Y-8884354D01*
X25974354Y-9009853D01*
X25826784Y-9108456D01*
X25662812Y-9176376D01*
X25513512Y-9206073D01*
X25488742Y-9211000D01*
X25311258Y-9211000D01*
X25286488Y-9206073D01*
X25137188Y-9176376D01*
X24973216Y-9108456D01*
X24825646Y-9009853D01*
X24700147Y-8884354D01*
X24601544Y-8736784D01*
X24533624Y-8572812D01*
X24499000Y-8398741D01*
X24499000Y-8221259D01*
X24533624Y-8047188D01*
X24601544Y-7883216D01*
X24700147Y-7735646D01*
X24825646Y-7610147D01*
X24973216Y-7511544D01*
X25137188Y-7443624D01*
X25286488Y-7413927D01*
X25311258Y-7409000D01*
X25488742Y-7409000D01*
X25513512Y-7413927D01*
X25513512Y-7413927D01*
G37*
G36*
X20583512Y-7413927D02*
G01*
X20732812Y-7443624D01*
X20896784Y-7511544D01*
X21044354Y-7610147D01*
X21169853Y-7735646D01*
X21268456Y-7883216D01*
X21336376Y-8047188D01*
X21371000Y-8221259D01*
X21371000Y-8398741D01*
X21336376Y-8572812D01*
X21268456Y-8736784D01*
X21169853Y-8884354D01*
X21044354Y-9009853D01*
X20896784Y-9108456D01*
X20732812Y-9176376D01*
X20583512Y-9206073D01*
X20558742Y-9211000D01*
X20381258Y-9211000D01*
X20356488Y-9206073D01*
X20207188Y-9176376D01*
X20043216Y-9108456D01*
X19895646Y-9009853D01*
X19770147Y-8884354D01*
X19671544Y-8736784D01*
X19603624Y-8572812D01*
X19569000Y-8398741D01*
X19569000Y-8221259D01*
X19603624Y-8047188D01*
X19671544Y-7883216D01*
X19770147Y-7735646D01*
X19895646Y-7610147D01*
X20043216Y-7511544D01*
X20207188Y-7443624D01*
X20356488Y-7413927D01*
X20381258Y-7409000D01*
X20558742Y-7409000D01*
X20583512Y-7413927D01*
X20583512Y-7413927D01*
G37*
G36*
X14083512Y-7413927D02*
G01*
X14232812Y-7443624D01*
X14396784Y-7511544D01*
X14544354Y-7610147D01*
X14669853Y-7735646D01*
X14768456Y-7883216D01*
X14836376Y-8047188D01*
X14871000Y-8221259D01*
X14871000Y-8398741D01*
X14836376Y-8572812D01*
X14768456Y-8736784D01*
X14669853Y-8884354D01*
X14544354Y-9009853D01*
X14396784Y-9108456D01*
X14232812Y-9176376D01*
X14083512Y-9206073D01*
X14058742Y-9211000D01*
X13881258Y-9211000D01*
X13856488Y-9206073D01*
X13707188Y-9176376D01*
X13543216Y-9108456D01*
X13395646Y-9009853D01*
X13270147Y-8884354D01*
X13171544Y-8736784D01*
X13103624Y-8572812D01*
X13069000Y-8398741D01*
X13069000Y-8221259D01*
X13103624Y-8047188D01*
X13171544Y-7883216D01*
X13270147Y-7735646D01*
X13395646Y-7610147D01*
X13543216Y-7511544D01*
X13707188Y-7443624D01*
X13856488Y-7413927D01*
X13881258Y-7409000D01*
X14058742Y-7409000D01*
X14083512Y-7413927D01*
X14083512Y-7413927D01*
G37*
G36*
X2653512Y-7413927D02*
G01*
X2802812Y-7443624D01*
X2966784Y-7511544D01*
X3114354Y-7610147D01*
X3239853Y-7735646D01*
X3338456Y-7883216D01*
X3406376Y-8047188D01*
X3441000Y-8221259D01*
X3441000Y-8398741D01*
X3406376Y-8572812D01*
X3338456Y-8736784D01*
X3239853Y-8884354D01*
X3114354Y-9009853D01*
X2966784Y-9108456D01*
X2802812Y-9176376D01*
X2653512Y-9206073D01*
X2628742Y-9211000D01*
X2451258Y-9211000D01*
X2426488Y-9206073D01*
X2277188Y-9176376D01*
X2113216Y-9108456D01*
X1965646Y-9009853D01*
X1840147Y-8884354D01*
X1741544Y-8736784D01*
X1673624Y-8572812D01*
X1639000Y-8398741D01*
X1639000Y-8221259D01*
X1673624Y-8047188D01*
X1741544Y-7883216D01*
X1840147Y-7735646D01*
X1965646Y-7610147D01*
X2113216Y-7511544D01*
X2277188Y-7443624D01*
X2426488Y-7413927D01*
X2451258Y-7409000D01*
X2628742Y-7409000D01*
X2653512Y-7413927D01*
X2653512Y-7413927D01*
G37*
G36*
X9153512Y-7413927D02*
G01*
X9302812Y-7443624D01*
X9466784Y-7511544D01*
X9614354Y-7610147D01*
X9739853Y-7735646D01*
X9838456Y-7883216D01*
X9906376Y-8047188D01*
X9941000Y-8221259D01*
X9941000Y-8398741D01*
X9906376Y-8572812D01*
X9838456Y-8736784D01*
X9739853Y-8884354D01*
X9614354Y-9009853D01*
X9466784Y-9108456D01*
X9302812Y-9176376D01*
X9153512Y-9206073D01*
X9128742Y-9211000D01*
X8951258Y-9211000D01*
X8926488Y-9206073D01*
X8777188Y-9176376D01*
X8613216Y-9108456D01*
X8465646Y-9009853D01*
X8340147Y-8884354D01*
X8241544Y-8736784D01*
X8173624Y-8572812D01*
X8139000Y-8398741D01*
X8139000Y-8221259D01*
X8173624Y-8047188D01*
X8241544Y-7883216D01*
X8340147Y-7735646D01*
X8465646Y-7610147D01*
X8613216Y-7511544D01*
X8777188Y-7443624D01*
X8926488Y-7413927D01*
X8951258Y-7409000D01*
X9128742Y-7409000D01*
X9153512Y-7413927D01*
X9153512Y-7413927D01*
G37*
G36*
X43443512Y-7413927D02*
G01*
X43592812Y-7443624D01*
X43756784Y-7511544D01*
X43904354Y-7610147D01*
X44029853Y-7735646D01*
X44128456Y-7883216D01*
X44196376Y-8047188D01*
X44231000Y-8221259D01*
X44231000Y-8398741D01*
X44196376Y-8572812D01*
X44128456Y-8736784D01*
X44029853Y-8884354D01*
X43904354Y-9009853D01*
X43756784Y-9108456D01*
X43592812Y-9176376D01*
X43443512Y-9206073D01*
X43418742Y-9211000D01*
X43241258Y-9211000D01*
X43216488Y-9206073D01*
X43067188Y-9176376D01*
X42903216Y-9108456D01*
X42755646Y-9009853D01*
X42630147Y-8884354D01*
X42531544Y-8736784D01*
X42463624Y-8572812D01*
X42429000Y-8398741D01*
X42429000Y-8221259D01*
X42463624Y-8047188D01*
X42531544Y-7883216D01*
X42630147Y-7735646D01*
X42755646Y-7610147D01*
X42903216Y-7511544D01*
X43067188Y-7443624D01*
X43216488Y-7413927D01*
X43241258Y-7409000D01*
X43418742Y-7409000D01*
X43443512Y-7413927D01*
X43443512Y-7413927D01*
G37*
G36*
X25513512Y-2913927D02*
G01*
X25662812Y-2943624D01*
X25826784Y-3011544D01*
X25974354Y-3110147D01*
X26099853Y-3235646D01*
X26198456Y-3383216D01*
X26266376Y-3547188D01*
X26301000Y-3721259D01*
X26301000Y-3898741D01*
X26266376Y-4072812D01*
X26198456Y-4236784D01*
X26099853Y-4384354D01*
X25974354Y-4509853D01*
X25826784Y-4608456D01*
X25662812Y-4676376D01*
X25513512Y-4706073D01*
X25488742Y-4711000D01*
X25311258Y-4711000D01*
X25286488Y-4706073D01*
X25137188Y-4676376D01*
X24973216Y-4608456D01*
X24825646Y-4509853D01*
X24700147Y-4384354D01*
X24601544Y-4236784D01*
X24533624Y-4072812D01*
X24499000Y-3898741D01*
X24499000Y-3721259D01*
X24533624Y-3547188D01*
X24601544Y-3383216D01*
X24700147Y-3235646D01*
X24825646Y-3110147D01*
X24973216Y-3011544D01*
X25137188Y-2943624D01*
X25286488Y-2913927D01*
X25311258Y-2909000D01*
X25488742Y-2909000D01*
X25513512Y-2913927D01*
X25513512Y-2913927D01*
G37*
G36*
X2653512Y-2913927D02*
G01*
X2802812Y-2943624D01*
X2966784Y-3011544D01*
X3114354Y-3110147D01*
X3239853Y-3235646D01*
X3338456Y-3383216D01*
X3406376Y-3547188D01*
X3441000Y-3721259D01*
X3441000Y-3898741D01*
X3406376Y-4072812D01*
X3338456Y-4236784D01*
X3239853Y-4384354D01*
X3114354Y-4509853D01*
X2966784Y-4608456D01*
X2802812Y-4676376D01*
X2653512Y-4706073D01*
X2628742Y-4711000D01*
X2451258Y-4711000D01*
X2426488Y-4706073D01*
X2277188Y-4676376D01*
X2113216Y-4608456D01*
X1965646Y-4509853D01*
X1840147Y-4384354D01*
X1741544Y-4236784D01*
X1673624Y-4072812D01*
X1639000Y-3898741D01*
X1639000Y-3721259D01*
X1673624Y-3547188D01*
X1741544Y-3383216D01*
X1840147Y-3235646D01*
X1965646Y-3110147D01*
X2113216Y-3011544D01*
X2277188Y-2943624D01*
X2426488Y-2913927D01*
X2451258Y-2909000D01*
X2628742Y-2909000D01*
X2653512Y-2913927D01*
X2653512Y-2913927D01*
G37*
G36*
X20583512Y-2913927D02*
G01*
X20732812Y-2943624D01*
X20896784Y-3011544D01*
X21044354Y-3110147D01*
X21169853Y-3235646D01*
X21268456Y-3383216D01*
X21336376Y-3547188D01*
X21371000Y-3721259D01*
X21371000Y-3898741D01*
X21336376Y-4072812D01*
X21268456Y-4236784D01*
X21169853Y-4384354D01*
X21044354Y-4509853D01*
X20896784Y-4608456D01*
X20732812Y-4676376D01*
X20583512Y-4706073D01*
X20558742Y-4711000D01*
X20381258Y-4711000D01*
X20356488Y-4706073D01*
X20207188Y-4676376D01*
X20043216Y-4608456D01*
X19895646Y-4509853D01*
X19770147Y-4384354D01*
X19671544Y-4236784D01*
X19603624Y-4072812D01*
X19569000Y-3898741D01*
X19569000Y-3721259D01*
X19603624Y-3547188D01*
X19671544Y-3383216D01*
X19770147Y-3235646D01*
X19895646Y-3110147D01*
X20043216Y-3011544D01*
X20207188Y-2943624D01*
X20356488Y-2913927D01*
X20381258Y-2909000D01*
X20558742Y-2909000D01*
X20583512Y-2913927D01*
X20583512Y-2913927D01*
G37*
G36*
X14083512Y-2913927D02*
G01*
X14232812Y-2943624D01*
X14396784Y-3011544D01*
X14544354Y-3110147D01*
X14669853Y-3235646D01*
X14768456Y-3383216D01*
X14836376Y-3547188D01*
X14871000Y-3721259D01*
X14871000Y-3898741D01*
X14836376Y-4072812D01*
X14768456Y-4236784D01*
X14669853Y-4384354D01*
X14544354Y-4509853D01*
X14396784Y-4608456D01*
X14232812Y-4676376D01*
X14083512Y-4706073D01*
X14058742Y-4711000D01*
X13881258Y-4711000D01*
X13856488Y-4706073D01*
X13707188Y-4676376D01*
X13543216Y-4608456D01*
X13395646Y-4509853D01*
X13270147Y-4384354D01*
X13171544Y-4236784D01*
X13103624Y-4072812D01*
X13069000Y-3898741D01*
X13069000Y-3721259D01*
X13103624Y-3547188D01*
X13171544Y-3383216D01*
X13270147Y-3235646D01*
X13395646Y-3110147D01*
X13543216Y-3011544D01*
X13707188Y-2943624D01*
X13856488Y-2913927D01*
X13881258Y-2909000D01*
X14058742Y-2909000D01*
X14083512Y-2913927D01*
X14083512Y-2913927D01*
G37*
G36*
X9153512Y-2913927D02*
G01*
X9302812Y-2943624D01*
X9466784Y-3011544D01*
X9614354Y-3110147D01*
X9739853Y-3235646D01*
X9838456Y-3383216D01*
X9906376Y-3547188D01*
X9941000Y-3721259D01*
X9941000Y-3898741D01*
X9906376Y-4072812D01*
X9838456Y-4236784D01*
X9739853Y-4384354D01*
X9614354Y-4509853D01*
X9466784Y-4608456D01*
X9302812Y-4676376D01*
X9153512Y-4706073D01*
X9128742Y-4711000D01*
X8951258Y-4711000D01*
X8926488Y-4706073D01*
X8777188Y-4676376D01*
X8613216Y-4608456D01*
X8465646Y-4509853D01*
X8340147Y-4384354D01*
X8241544Y-4236784D01*
X8173624Y-4072812D01*
X8139000Y-3898741D01*
X8139000Y-3721259D01*
X8173624Y-3547188D01*
X8241544Y-3383216D01*
X8340147Y-3235646D01*
X8465646Y-3110147D01*
X8613216Y-3011544D01*
X8777188Y-2943624D01*
X8926488Y-2913927D01*
X8951258Y-2909000D01*
X9128742Y-2909000D01*
X9153512Y-2913927D01*
X9153512Y-2913927D01*
G37*
G36*
X43443512Y-2913927D02*
G01*
X43592812Y-2943624D01*
X43756784Y-3011544D01*
X43904354Y-3110147D01*
X44029853Y-3235646D01*
X44128456Y-3383216D01*
X44196376Y-3547188D01*
X44231000Y-3721259D01*
X44231000Y-3898741D01*
X44196376Y-4072812D01*
X44128456Y-4236784D01*
X44029853Y-4384354D01*
X43904354Y-4509853D01*
X43756784Y-4608456D01*
X43592812Y-4676376D01*
X43443512Y-4706073D01*
X43418742Y-4711000D01*
X43241258Y-4711000D01*
X43216488Y-4706073D01*
X43067188Y-4676376D01*
X42903216Y-4608456D01*
X42755646Y-4509853D01*
X42630147Y-4384354D01*
X42531544Y-4236784D01*
X42463624Y-4072812D01*
X42429000Y-3898741D01*
X42429000Y-3721259D01*
X42463624Y-3547188D01*
X42531544Y-3383216D01*
X42630147Y-3235646D01*
X42755646Y-3110147D01*
X42903216Y-3011544D01*
X43067188Y-2943624D01*
X43216488Y-2913927D01*
X43241258Y-2909000D01*
X43418742Y-2909000D01*
X43443512Y-2913927D01*
X43443512Y-2913927D01*
G37*
G36*
X36943512Y-2913927D02*
G01*
X37092812Y-2943624D01*
X37256784Y-3011544D01*
X37404354Y-3110147D01*
X37529853Y-3235646D01*
X37628456Y-3383216D01*
X37696376Y-3547188D01*
X37731000Y-3721259D01*
X37731000Y-3898741D01*
X37696376Y-4072812D01*
X37628456Y-4236784D01*
X37529853Y-4384354D01*
X37404354Y-4509853D01*
X37256784Y-4608456D01*
X37092812Y-4676376D01*
X36943512Y-4706073D01*
X36918742Y-4711000D01*
X36741258Y-4711000D01*
X36716488Y-4706073D01*
X36567188Y-4676376D01*
X36403216Y-4608456D01*
X36255646Y-4509853D01*
X36130147Y-4384354D01*
X36031544Y-4236784D01*
X35963624Y-4072812D01*
X35929000Y-3898741D01*
X35929000Y-3721259D01*
X35963624Y-3547188D01*
X36031544Y-3383216D01*
X36130147Y-3235646D01*
X36255646Y-3110147D01*
X36403216Y-3011544D01*
X36567188Y-2943624D01*
X36716488Y-2913927D01*
X36741258Y-2909000D01*
X36918742Y-2909000D01*
X36943512Y-2913927D01*
X36943512Y-2913927D01*
G37*
G36*
X32013512Y-2913927D02*
G01*
X32162812Y-2943624D01*
X32326784Y-3011544D01*
X32474354Y-3110147D01*
X32599853Y-3235646D01*
X32698456Y-3383216D01*
X32766376Y-3547188D01*
X32801000Y-3721259D01*
X32801000Y-3898741D01*
X32766376Y-4072812D01*
X32698456Y-4236784D01*
X32599853Y-4384354D01*
X32474354Y-4509853D01*
X32326784Y-4608456D01*
X32162812Y-4676376D01*
X32013512Y-4706073D01*
X31988742Y-4711000D01*
X31811258Y-4711000D01*
X31786488Y-4706073D01*
X31637188Y-4676376D01*
X31473216Y-4608456D01*
X31325646Y-4509853D01*
X31200147Y-4384354D01*
X31101544Y-4236784D01*
X31033624Y-4072812D01*
X30999000Y-3898741D01*
X30999000Y-3721259D01*
X31033624Y-3547188D01*
X31101544Y-3383216D01*
X31200147Y-3235646D01*
X31325646Y-3110147D01*
X31473216Y-3011544D01*
X31637188Y-2943624D01*
X31786488Y-2913927D01*
X31811258Y-2909000D01*
X31988742Y-2909000D01*
X32013512Y-2913927D01*
X32013512Y-2913927D01*
G37*
G36*
X47214549Y-1411116D02*
G01*
X47325734Y-1433232D01*
X47535203Y-1519997D01*
X47723720Y-1645960D01*
X47884040Y-1806280D01*
X48010003Y-1994797D01*
X48096768Y-2204266D01*
X48141000Y-2426636D01*
X48141000Y-2653364D01*
X48096768Y-2875734D01*
X48010003Y-3085203D01*
X47884040Y-3273720D01*
X47723720Y-3434040D01*
X47535203Y-3560003D01*
X47325734Y-3646768D01*
X47214549Y-3668884D01*
X47103365Y-3691000D01*
X46876635Y-3691000D01*
X46765451Y-3668884D01*
X46654266Y-3646768D01*
X46444797Y-3560003D01*
X46256280Y-3434040D01*
X46095960Y-3273720D01*
X45969997Y-3085203D01*
X45883232Y-2875734D01*
X45839000Y-2653364D01*
X45839000Y-2426636D01*
X45883232Y-2204266D01*
X45969997Y-1994797D01*
X46095960Y-1806280D01*
X46256280Y-1645960D01*
X46444797Y-1519997D01*
X46654266Y-1433232D01*
X46765451Y-1411116D01*
X46876635Y-1389000D01*
X47103365Y-1389000D01*
X47214549Y-1411116D01*
X47214549Y-1411116D01*
G37*
M02*
