M48
; DRILL file {KiCad (5.1.2)-1} date 5/2/2019 10:44:56 PM
; FORMAT={2:4/ absolute / inch / suppress leading zeros}
; #@! TF.CreationDate,2019-05-02T22:44:56-07:00
; #@! TF.GenerationSoftware,Kicad,Pcbnew,(5.1.2)-1
FMAT,2
INCH,TZ
T1C0.0295
T2C0.0315
T3C0.0354
T4C0.0394
T5C0.0598
T6C0.0866
%
G90
G05
T1
X17000Y-9500
X17500Y-9500
X18000Y-9500
X4500Y-9500
X5000Y-9500
X5500Y-9500
X14500Y-9500
X15000Y-9500
X15500Y-9500
X9500Y-9500
X10000Y-9500
X10500Y-9500
X2000Y-11500
X2500Y-11500
X3000Y-11500
X12000Y-9500
X12500Y-9500
X13000Y-9500
X17500Y-12500
X18000Y-12500
X18500Y-12500
X7000Y-9500
X7500Y-9500
X8000Y-9500
T2
X4000Y-14500
X4000Y-16469
T3
X12500Y-16000
X13500Y-16000
X5500Y-13000
X6500Y-13000
X6500Y-16000
X7500Y-16000
X14500Y-13000
X15500Y-13000
X9500Y-16000
X10500Y-16000
X15500Y-16000
X16500Y-16000
X11500Y-13000
X12500Y-13000
X8500Y-13000
X9500Y-13000
T4
X15500Y-5000
X15500Y-6772
X18059Y-5000
X18059Y-6772
X10000Y-1500
X10000Y-3272
X12559Y-1500
X12559Y-3272
X1000Y-1500
X1000Y-3272
X3559Y-1500
X3559Y-3272
X5500Y-1500
X5500Y-3272
X8059Y-1500
X8059Y-3272
X14500Y-1500
X14500Y-3272
X17059Y-1500
X17059Y-3272
X11000Y-5000
X11000Y-6772
X13559Y-5000
X13559Y-6772
X2000Y-5000
X2000Y-6772
X4559Y-5000
X4559Y-6772
X6500Y-5000
X6500Y-6772
X9059Y-5000
X9059Y-6772
T5
X1500Y-14500
X1500Y-16500
T6
X1750Y-9000
X18500Y-1000
X18500Y-17000
T0
M30
